<svg width="454" height="454" viewBox="0 0 454 454" fill="none" xmlns="http://www.w3.org/2000/svg">
<path d="M227 454C352.369 454 454 352.369 454 227C454 101.631 352.369 0 227 0C101.631 0 0 101.631 0 227C0 352.369 101.631 454 227 454Z" fill="url(#paint0_linear_63_768)"/>
<path d="M77.9131 278.223V122.127H78.1827L150.704 225.383H148.817L221.338 122.127H221.608V278.223H217.294V132.911L217.834 134.529L149.895 230.235H149.356L81.6874 134.529L82.2266 132.911V278.223H77.9131Z" fill="#0A00FF"/>
<path d="M317.045 117.274C330.255 117.274 341.578 119.431 350.745 124.014C359.911 128.597 366.92 134.798 371.773 142.886C376.626 150.974 379.052 160.679 379.052 171.733C379.052 178.203 377.974 184.943 376.087 191.413C374.199 198.153 370.964 204.084 366.651 209.476C362.337 214.868 356.676 219.182 349.397 222.417C342.117 225.652 333.221 227.27 322.706 227.27H300.06V278.223H268.248V117.274H317.045ZM322.437 196.536C327.29 196.536 331.334 195.727 334.569 194.109C337.804 192.492 340.23 190.335 342.117 187.639C344.005 185.213 345.353 182.517 346.161 179.551C346.97 176.855 347.24 174.429 347.24 172.272C347.24 170.654 346.97 168.498 346.431 165.802C345.892 163.106 344.813 160.41 343.196 157.714C341.578 155.018 339.152 152.592 335.917 150.704C332.682 148.817 328.098 147.739 322.706 147.739H300.06V196.266H322.437V196.536Z" fill="#0A00FF"/>
<defs>
<linearGradient id="paint0_linear_63_768" x1="0" y1="226.979" x2="453.958" y2="226.979" gradientUnits="userSpaceOnUse">
<stop stop-color="#42B2CC"/>
<stop offset="1" stop-color="#F1EA36"/>
</linearGradient>
</defs>
</svg>
