<svg width="172" height="172" viewBox="0 0 172 172" fill="none" xmlns="http://www.w3.org/2000/svg">
<rect width="172" height="172" rx="86" fill="url(#paint0_linear_459_488)"/>
<path d="M40.9693 77.392H33.1613L31.2413 82H26.6653L37.2893 57.52H37.5453L48.1693 82H42.7933L40.9693 77.392ZM39.4333 73.488L37.1613 67.76L34.7933 73.488H39.4333ZM58.7385 58.448C61.6185 58.448 63.8478 59.1627 65.4265 60.592C67.0052 62 67.7945 63.9307 67.7945 66.384C67.7945 67.792 67.5172 69.1147 66.9625 70.352C66.4292 71.568 65.5438 72.5707 64.3065 73.36C63.0905 74.1493 61.5118 74.544 59.5705 74.544H56.2425V82H51.6025V58.448H58.7385ZM59.5385 70.032C60.4132 70.032 61.1172 69.84 61.6505 69.456C62.1838 69.0507 62.5678 68.5813 62.8025 68.048C63.0372 67.5147 63.1545 67.0027 63.1545 66.512C63.1545 65.68 62.9092 64.88 62.4185 64.112C61.9278 63.3227 60.9785 62.928 59.5705 62.928H56.2425V70.032H59.5385ZM76.5863 58.448V77.52H87.6583V82H71.9463V58.448H76.5863ZM97.0863 58.448V82H92.4463V58.448H97.0863ZM120.829 80.048C120.232 80.5387 119.282 81.0293 117.981 81.52C116.68 82.0107 115.261 82.256 113.725 82.256C111.272 82.256 109.138 81.7227 107.325 80.656C105.512 79.5893 104.125 78.16 103.165 76.368C102.205 74.5547 101.725 72.5707 101.725 70.416C101.725 68.048 102.205 65.936 103.165 64.08C104.125 62.224 105.469 60.784 107.197 59.76C108.925 58.7147 110.92 58.192 113.181 58.192C114.61 58.192 115.933 58.384 117.149 58.768C118.365 59.152 119.432 59.632 120.349 60.208L118.525 64.592C116.84 63.312 115.112 62.672 113.341 62.672C112.146 62.672 111.026 63.0027 109.981 63.664C108.936 64.3253 108.104 65.232 107.485 66.384C106.866 67.5147 106.557 68.7733 106.557 70.16C106.557 71.6747 106.845 73.008 107.421 74.16C107.997 75.2907 108.818 76.176 109.885 76.816C110.952 77.456 112.2 77.776 113.629 77.776C114.781 77.776 115.816 77.5947 116.733 77.232C117.65 76.848 118.376 76.4 118.909 75.888L120.829 80.048ZM137.126 77.392H129.318L127.398 82H122.822L133.446 57.52H133.702L144.326 82H138.95L137.126 77.392ZM135.59 73.488L133.318 67.76L130.95 73.488H135.59ZM40.3755 109.392H32.5675L30.6475 114H26.0715L36.6955 89.52H36.9515L47.5755 114H42.1995L40.3755 109.392ZM38.8395 105.488L36.5675 99.76L34.1995 105.488H38.8395ZM70.8168 114H66.1768V104.432H55.6488V114H51.0088V90.448H55.6488V99.952H66.1768V90.448H70.8168V114ZM75.4438 102.256C75.4438 100.123 75.9771 98.128 77.0438 96.272C78.1318 94.416 79.5931 92.944 81.4278 91.856C83.2838 90.7467 85.2891 90.192 87.4438 90.192C89.5984 90.192 91.5931 90.7467 93.4278 91.856C95.2838 92.944 96.7558 94.416 97.8438 96.272C98.9531 98.128 99.5078 100.123 99.5078 102.256C99.5078 104.432 98.9531 106.437 97.8438 108.272C96.7558 110.107 95.2838 111.568 93.4278 112.656C91.5931 113.723 89.5984 114.256 87.4438 114.256C85.2678 114.256 83.2624 113.723 81.4278 112.656C79.5931 111.568 78.1318 110.107 77.0438 108.272C75.9771 106.437 75.4438 104.432 75.4438 102.256ZM80.2438 102.256C80.2438 103.621 80.5638 104.88 81.2038 106.032C81.8651 107.184 82.7504 108.101 83.8598 108.784C84.9904 109.445 86.2384 109.776 87.6038 109.776C88.9264 109.776 90.1318 109.445 91.2198 108.784C92.3078 108.101 93.1611 107.195 93.7798 106.064C94.3984 104.912 94.7078 103.643 94.7078 102.256C94.7078 100.848 94.3878 99.568 93.7478 98.416C93.1078 97.264 92.2331 96.3573 91.1238 95.696C90.0358 95.0133 88.8198 94.672 87.4758 94.672C86.1318 94.672 84.9051 95.0133 83.7958 95.696C82.7078 96.3573 81.8438 97.264 81.2038 98.416C80.5638 99.568 80.2438 100.848 80.2438 102.256ZM116.838 114L111.878 106.512H108.774V114H104.134V90.448H111.27C114.192 90.448 116.454 91.1627 118.054 92.592C119.675 94 120.486 95.9307 120.486 98.384C120.486 99.8347 120.176 101.2 119.558 102.48C118.96 103.739 118.032 104.731 116.774 105.456L122.246 114H116.838ZM108.774 102.032H112.07C113.328 102.032 114.246 101.669 114.822 100.944C115.398 100.197 115.686 99.3973 115.686 98.544C115.686 97.6907 115.44 96.88 114.95 96.112C114.459 95.3227 113.51 94.928 112.102 94.928H108.774V102.032ZM137.719 109.392H129.911L127.991 114H123.415L134.039 89.52H134.295L144.919 114H139.543L137.719 109.392ZM136.183 105.488L133.911 99.76L131.543 105.488H136.183Z" fill="#FFFEFE"/>
<defs>
<linearGradient id="paint0_linear_459_488" x1="86" y1="0" x2="86" y2="172" gradientUnits="userSpaceOnUse">
<stop stop-color="#0A00FF"/>
<stop offset="1" stop-color="#FF00FF"/>
</linearGradient>
</defs>
</svg>
