<svg width="172" height="172" viewBox="0 0 172 172" fill="none" xmlns="http://www.w3.org/2000/svg">
<rect width="172" height="172" rx="86" fill="url(#paint0_linear_73_1211)"/>
<path d="M31.6519 84.938L43.2719 58.163H43.5519L55.1719 84.938H49.2919L47.2969 79.898H38.7569L36.6569 84.938H31.6519ZM40.5419 75.628H45.6169L43.1319 69.363L40.5419 75.628ZM66.7321 59.178C69.9287 59.178 72.3787 59.9713 74.0821 61.558C75.7854 63.1213 76.6371 65.2213 76.6371 67.858C76.6371 68.908 76.4737 69.9697 76.1471 71.043C75.8437 72.093 75.3421 73.0497 74.6421 73.913C73.9654 74.7763 73.0437 75.4763 71.8771 76.013C70.7337 76.5263 69.3221 76.783 67.6421 76.783H64.0021V84.938H58.9271V59.178H66.7321ZM67.6071 71.848C68.6337 71.848 69.4271 71.6263 69.9871 71.183C70.5704 70.7163 70.9787 70.1797 71.2121 69.573C71.4454 68.9663 71.5621 68.4413 71.5621 67.998C71.5621 67.7413 71.5154 67.403 71.4221 66.983C71.3521 66.5397 71.1887 66.0963 70.9321 65.653C70.6754 65.2097 70.2787 64.8363 69.7421 64.533C69.2287 64.2297 68.5287 64.078 67.6421 64.078H64.0021V71.848H67.6071ZM88.983 59.178C92.1797 59.178 94.6297 59.9713 96.333 61.558C98.0364 63.1213 98.888 65.2213 98.888 67.858C98.888 68.908 98.7247 69.9697 98.398 71.043C98.0947 72.093 97.593 73.0497 96.893 73.913C96.2164 74.7763 95.2947 75.4763 94.128 76.013C92.9847 76.5263 91.573 76.783 89.893 76.783H86.253V84.938H81.178V59.178H88.983ZM89.858 71.848C90.8847 71.848 91.678 71.6263 92.238 71.183C92.8214 70.7163 93.2297 70.1797 93.463 69.573C93.6964 68.9663 93.813 68.4413 93.813 67.998C93.813 67.7413 93.7664 67.403 93.673 66.983C93.603 66.5397 93.4397 66.0963 93.183 65.653C92.9264 65.2097 92.5297 64.8363 91.993 64.533C91.4797 64.2297 90.7797 64.078 89.893 64.078H86.253V71.848H89.858ZM103.429 59.178H108.504V80.038H120.614V84.938H103.429V59.178ZM128.332 76.923L118.847 59.178H125.112L131.027 71.078L136.802 59.178H143.067L133.407 76.923V84.938H128.332V76.923ZM67.1068 120.988L49.0818 104.713L49.1868 119.938H44.0418V93.163H44.2518L62.2418 109.683L62.1368 94.178H67.2468V120.988H67.1068ZM72.3057 107.093C72.3057 105.32 72.644 103.64 73.3207 102.053C73.9973 100.466 74.9307 99.0663 76.1207 97.853C77.334 96.6163 78.734 95.648 80.3207 94.948C81.9073 94.248 83.6107 93.898 85.4307 93.898C87.2273 93.898 88.919 94.248 90.5057 94.948C92.0923 95.648 93.4923 96.6163 94.7057 97.853C95.9423 99.0663 96.899 100.466 97.5757 102.053C98.2757 103.64 98.6257 105.32 98.6257 107.093C98.6257 108.913 98.2757 110.616 97.5757 112.203C96.899 113.79 95.9423 115.19 94.7057 116.403C93.4923 117.593 92.0923 118.526 90.5057 119.203C88.919 119.88 87.2273 120.218 85.4307 120.218C83.6107 120.218 81.9073 119.88 80.3207 119.203C78.734 118.526 77.334 117.593 76.1207 116.403C74.9307 115.19 73.9973 113.79 73.3207 112.203C72.644 110.616 72.3057 108.913 72.3057 107.093ZM77.5557 107.093C77.5557 108.61 77.9057 109.998 78.6057 111.258C79.329 112.495 80.2973 113.486 81.5107 114.233C82.724 114.956 84.089 115.318 85.6057 115.318C87.0757 115.318 88.394 114.956 89.5607 114.233C90.7507 113.486 91.684 112.495 92.3607 111.258C93.0373 109.998 93.3757 108.61 93.3757 107.093C93.3757 105.53 93.0257 104.13 92.3257 102.893C91.6257 101.633 90.6807 100.641 89.4907 99.918C88.3007 99.1713 86.959 98.798 85.4657 98.798C83.9723 98.798 82.6307 99.1713 81.4407 99.918C80.2507 100.641 79.3057 101.633 78.6057 102.893C77.9057 104.13 77.5557 105.53 77.5557 107.093ZM99.3954 94.353H105.345L110.42 109.263L114.34 99.428L112.31 94.353H117.35L123.125 108.668L127.5 94.353H132.96L123.02 121.058L116.895 105.798L109.755 121.128L99.3954 94.353Z" fill="#FFFEFE"/>
<defs>
<linearGradient id="paint0_linear_73_1211" x1="86" y1="0" x2="86" y2="172" gradientUnits="userSpaceOnUse">
<stop stop-color="#0A00FF"/>
<stop offset="1" stop-color="#FF00FF"/>
</linearGradient>
</defs>
</svg>
