<svg id="Layer_1" data-name="Layer 1" xmlns="http://www.w3.org/2000/svg" viewBox="0 0 550 550"><defs><style>.cls-1,.cls-2{fill:none;stroke:#140ffe;}.cls-1{stroke-miterlimit:10;}.cls-2{stroke-linecap:round;stroke-linejoin:round;}.cls-3{fill:#140ffe;}</style></defs><title>forst</title><path class="cls-1" d="M130.23,39.79c-1,2.51-2.09,5-3.13,7.46s-2.08,5-3.12,7.46h-8c1-2.51,1.88-5,2.81-7.46s1.85-5,2.8-7.46Z"/><path class="cls-1" d="M171.39,39.79q-1.57,3.76-3.13,7.46c-1,2.46-2.09,5-3.13,7.46h-7.95l2.8-7.46c.93-2.46,1.86-5,2.81-7.46Z"/><path class="cls-1" d="M212.54,39.79q-1.56,3.76-3.12,7.46t-3.13,7.46h-8c.95-2.51,1.88-5,2.81-7.46l2.8-7.46Z"/><path class="cls-1" d="M253.7,39.79c-1,2.51-2.09,5-3.13,7.46s-2.08,5-3.12,7.46h-8l2.8-7.46c.93-2.46,1.86-5,2.81-7.46Z"/><path class="cls-1" d="M294.85,39.79q-1.56,3.76-3.12,7.46c-1,2.46-2.09,5-3.13,7.46h-8q1.42-3.76,2.81-7.46t2.81-7.46Z"/><path class="cls-1" d="M336,39.79q-1.56,3.76-3.12,7.46t-3.13,7.46h-8c.95-2.51,1.88-5,2.81-7.46l2.8-7.46Z"/><path class="cls-1" d="M377.17,39.79c-1,2.51-2.09,5-3.13,7.46s-2.08,5-3.12,7.46h-8l2.8-7.46c.93-2.46,1.86-5,2.81-7.46Z"/><path class="cls-1" d="M418.32,39.79q-1.56,3.76-3.12,7.46c-1,2.46-2.09,5-3.13,7.46h-8q1.42-3.76,2.81-7.46t2.81-7.46Z"/><path class="cls-1" d="M146.34,63.43c-1,2.52-2.08,5-3.13,7.47s-2.08,4.94-3.12,7.46h-8l2.81-7.46c.92-2.47,1.86-5,2.8-7.47Z"/><path class="cls-1" d="M187.5,63.43c-1,2.52-2.09,5-3.13,7.47s-2.08,4.94-3.13,7.46h-8c.94-2.52,1.88-5,2.8-7.46l2.81-7.47Z"/><path class="cls-1" d="M228.65,63.43c-1,2.52-2.08,5-3.12,7.47s-2.09,4.94-3.13,7.46h-8c.95-2.52,1.89-5,2.81-7.46s1.86-5,2.81-7.47Z"/><path class="cls-1" d="M269.81,63.43c-1,2.52-2.08,5-3.13,7.47s-2.08,4.94-3.12,7.46h-8l2.81-7.46c.92-2.47,1.85-5,2.8-7.47Z"/><path class="cls-1" d="M311,63.43c-1.05,2.52-2.09,5-3.13,7.47s-2.08,4.94-3.13,7.46h-7.95c.94-2.52,1.88-5,2.8-7.46l2.81-7.47Z"/><path class="cls-1" d="M352.12,63.43c-1,2.52-2.08,5-3.12,7.47s-2.09,4.94-3.13,7.46h-8c.95-2.52,1.89-5,2.81-7.46s1.86-5,2.81-7.47Z"/><path class="cls-1" d="M393.28,63.43c-1,2.52-2.09,5-3.13,7.47s-2.08,4.94-3.12,7.46h-8l2.81-7.46c.92-2.47,1.85-5,2.8-7.47Z"/><path class="cls-1" d="M434.44,63.43c-1.05,2.52-2.09,5-3.13,7.47s-2.09,4.94-3.13,7.46h-7.95c.94-2.52,1.88-5,2.8-7.46l2.81-7.47Z"/><path class="cls-1" d="M130.23,88.22c-1,2.51-2.09,5-3.13,7.46s-2.08,4.95-3.12,7.46h-8c1-2.51,1.88-5,2.81-7.46s1.85-5,2.8-7.46Z"/><path class="cls-1" d="M171.39,88.22l-3.13,7.46c-1,2.46-2.09,4.95-3.13,7.46h-7.95l2.8-7.46c.93-2.47,1.86-5,2.81-7.46Z"/><path class="cls-1" d="M212.54,88.22c-1,2.51-2.08,5-3.12,7.46s-2.09,4.95-3.13,7.46h-8c.95-2.51,1.88-5,2.81-7.46s1.86-5,2.8-7.46Z"/><path class="cls-1" d="M253.7,88.22c-1,2.51-2.09,5-3.13,7.46s-2.08,4.95-3.12,7.46h-8l2.8-7.46c.93-2.47,1.86-5,2.81-7.46Z"/><path class="cls-1" d="M294.85,88.22c-1,2.51-2.08,5-3.12,7.46s-2.09,4.95-3.13,7.46h-8q1.42-3.77,2.81-7.46c.92-2.47,1.86-5,2.81-7.46Z"/><path class="cls-1" d="M336,88.22c-1,2.51-2.08,5-3.12,7.46s-2.09,4.95-3.13,7.46h-8c.95-2.51,1.88-5,2.81-7.46s1.86-5,2.8-7.46Z"/><path class="cls-1" d="M377.17,88.22c-1,2.51-2.09,5-3.13,7.46s-2.08,4.95-3.12,7.46h-8l2.8-7.46c.93-2.47,1.86-5,2.81-7.46Z"/><path class="cls-1" d="M418.32,88.22c-1,2.51-2.08,5-3.12,7.46s-2.09,4.95-3.13,7.46h-8q1.42-3.77,2.81-7.46c.92-2.47,1.86-5,2.81-7.46Z"/><path class="cls-1" d="M146.34,111.86q-1.56,3.77-3.13,7.46c-1,2.47-2.08,5-3.12,7.46h-8c1-2.51,1.88-5,2.81-7.46l2.8-7.46Z"/><path class="cls-1" d="M187.5,111.86c-1,2.51-2.09,5-3.13,7.46l-3.13,7.46h-8c.94-2.51,1.88-5,2.8-7.46s1.86-4.95,2.81-7.46Z"/><path class="cls-1" d="M228.65,111.86q-1.56,3.77-3.12,7.46c-1,2.47-2.09,5-3.13,7.46h-8c.95-2.51,1.89-5,2.81-7.46s1.86-4.95,2.81-7.46Z"/><path class="cls-1" d="M269.81,111.86q-1.56,3.77-3.13,7.46c-1,2.47-2.08,5-3.12,7.46h-8c1-2.51,1.88-5,2.81-7.46s1.85-4.95,2.8-7.46Z"/><path class="cls-1" d="M311,111.86q-1.58,3.77-3.13,7.46l-3.13,7.46h-7.95c.94-2.51,1.88-5,2.8-7.46s1.86-4.95,2.81-7.46Z"/><path class="cls-1" d="M352.12,111.86q-1.56,3.77-3.12,7.46c-1.05,2.47-2.09,5-3.13,7.46h-8c.95-2.51,1.89-5,2.81-7.46s1.86-4.95,2.81-7.46Z"/><path class="cls-1" d="M393.28,111.86c-1,2.51-2.09,5-3.13,7.46s-2.08,5-3.12,7.46h-8c.95-2.51,1.88-5,2.81-7.46s1.85-4.95,2.8-7.46Z"/><path class="cls-1" d="M434.44,111.86q-1.57,3.77-3.13,7.46c-1,2.47-2.09,5-3.13,7.46h-7.95c.94-2.51,1.88-5,2.8-7.46s1.86-4.95,2.81-7.46Z"/><path class="cls-1" d="M130.23,136.64c-1,2.51-2.09,5-3.13,7.46s-2.08,5-3.12,7.46h-8c1-2.51,1.88-5,2.81-7.46s1.85-4.95,2.8-7.46Z"/><path class="cls-1" d="M171.39,136.64q-1.57,3.77-3.13,7.46c-1,2.47-2.09,5-3.13,7.46h-7.95c.94-2.51,1.88-5,2.8-7.46s1.86-4.95,2.81-7.46Z"/><path class="cls-1" d="M212.54,136.64q-1.56,3.77-3.12,7.46c-1,2.47-2.09,5-3.13,7.46h-8c.95-2.51,1.88-5,2.81-7.46l2.8-7.46Z"/><path class="cls-1" d="M253.7,136.64c-1,2.51-2.09,5-3.13,7.46s-2.08,5-3.12,7.46h-8c.94-2.51,1.88-5,2.8-7.46s1.86-4.95,2.81-7.46Z"/><path class="cls-1" d="M294.85,136.64q-1.56,3.77-3.12,7.46c-1,2.47-2.09,5-3.13,7.46h-8c.95-2.51,1.89-5,2.81-7.46s1.86-4.95,2.81-7.46Z"/><path class="cls-1" d="M336,136.64q-1.56,3.77-3.12,7.46c-1.05,2.47-2.09,5-3.13,7.46h-8c.95-2.51,1.88-5,2.81-7.46l2.8-7.46Z"/><path class="cls-1" d="M377.17,136.64c-1,2.51-2.09,5-3.13,7.46s-2.08,5-3.12,7.46h-8c.94-2.51,1.88-5,2.8-7.46s1.86-4.95,2.81-7.46Z"/><path class="cls-1" d="M418.32,136.64q-1.56,3.77-3.12,7.46c-1,2.47-2.09,5-3.13,7.46h-8c.95-2.51,1.89-5,2.81-7.46s1.86-4.95,2.81-7.46Z"/><path class="cls-1" d="M146.34,160.29q-1.56,3.77-3.13,7.46t-3.12,7.46h-8c1-2.51,1.88-5,2.81-7.46l2.8-7.46Z"/><path class="cls-1" d="M187.5,160.29c-1,2.51-2.09,5-3.13,7.46s-2.08,4.95-3.13,7.46h-8l2.8-7.46c.93-2.46,1.86-4.95,2.81-7.46Z"/><path class="cls-1" d="M228.65,160.29q-1.56,3.77-3.12,7.46c-1,2.46-2.09,4.95-3.13,7.46h-8q1.42-3.77,2.81-7.46t2.81-7.46Z"/><path class="cls-1" d="M269.81,160.29q-1.56,3.77-3.13,7.46t-3.12,7.46h-8c1-2.51,1.88-5,2.81-7.46s1.85-4.95,2.8-7.46Z"/><path class="cls-1" d="M311,160.29q-1.58,3.77-3.13,7.46t-3.13,7.46h-7.95l2.8-7.46c.93-2.46,1.86-4.95,2.81-7.46Z"/><path class="cls-1" d="M352.12,160.29q-1.56,3.77-3.12,7.46t-3.13,7.46h-8q1.43-3.77,2.81-7.46t2.81-7.46Z"/><path class="cls-1" d="M393.28,160.29c-1,2.51-2.09,5-3.13,7.46s-2.08,4.95-3.12,7.46h-8c.95-2.51,1.88-5,2.81-7.46s1.85-4.95,2.8-7.46Z"/><path class="cls-1" d="M434.44,160.29q-1.57,3.77-3.13,7.46c-1,2.46-2.09,4.95-3.13,7.46h-7.95l2.8-7.46c.93-2.46,1.86-4.95,2.81-7.46Z"/><path class="cls-1" d="M130.23,185.07c-1,2.51-2.09,5-3.13,7.46S125,197.48,124,200h-8c1-2.51,1.88-5,2.81-7.46s1.85-4.95,2.8-7.46Z"/><path class="cls-1" d="M171.39,185.07q-1.57,3.77-3.13,7.46c-1,2.46-2.09,4.95-3.13,7.46h-7.95l2.8-7.46c.93-2.46,1.86-4.95,2.81-7.46Z"/><path class="cls-1" d="M212.54,185.07q-1.56,3.77-3.12,7.46T206.29,200h-8c.95-2.51,1.88-5,2.81-7.46l2.8-7.46Z"/><path class="cls-1" d="M253.7,185.07c-1,2.51-2.09,5-3.13,7.46s-2.08,4.95-3.12,7.46h-8l2.8-7.46c.93-2.46,1.86-4.95,2.81-7.46Z"/><path class="cls-1" d="M294.85,185.07q-1.56,3.77-3.12,7.46c-1,2.46-2.09,4.95-3.13,7.46h-8q1.42-3.77,2.81-7.46t2.81-7.46Z"/><path class="cls-1" d="M336,185.07q-1.56,3.77-3.12,7.46T329.76,200h-8c.95-2.51,1.88-5,2.81-7.46l2.8-7.46Z"/><path class="cls-1" d="M377.17,185.07c-1,2.51-2.09,5-3.13,7.46s-2.08,4.95-3.12,7.46h-8l2.8-7.46c.93-2.46,1.86-4.95,2.81-7.46Z"/><path class="cls-1" d="M418.32,185.07q-1.56,3.77-3.12,7.46c-1,2.46-2.09,4.95-3.13,7.46h-8q1.42-3.77,2.81-7.46t2.81-7.46Z"/><path class="cls-1" d="M146.34,208.72q-1.56,3.76-3.13,7.46t-3.12,7.46h-8c1-2.51,1.88-5,2.81-7.46l2.8-7.46Z"/><path class="cls-1" d="M187.5,208.72c-1,2.51-2.09,5-3.13,7.46s-2.08,4.95-3.13,7.46h-8l2.8-7.46c.93-2.46,1.86-5,2.81-7.46Z"/><path class="cls-1" d="M228.65,208.72q-1.56,3.76-3.12,7.46c-1,2.46-2.09,4.95-3.13,7.46h-8q1.42-3.76,2.81-7.46t2.81-7.46Z"/><path class="cls-1" d="M269.81,208.72q-1.56,3.76-3.13,7.46t-3.12,7.46h-8c1-2.51,1.88-5,2.81-7.46s1.85-5,2.8-7.46Z"/><path class="cls-1" d="M311,208.72q-1.58,3.76-3.13,7.46t-3.13,7.46h-7.95l2.8-7.46c.93-2.46,1.86-5,2.81-7.46Z"/><path class="cls-1" d="M352.12,208.72q-1.56,3.76-3.12,7.46t-3.13,7.46h-8q1.43-3.76,2.81-7.46t2.81-7.46Z"/><path class="cls-1" d="M393.28,208.72c-1,2.51-2.09,5-3.13,7.46s-2.08,4.95-3.12,7.46h-8c.95-2.51,1.88-5,2.81-7.46s1.85-5,2.8-7.46Z"/><path class="cls-1" d="M434.44,208.72q-1.57,3.76-3.13,7.46c-1,2.46-2.09,4.95-3.13,7.46h-7.95l2.8-7.46c.93-2.46,1.86-5,2.81-7.46Z"/><path class="cls-1" d="M130.23,233.5c-1,2.51-2.09,5-3.13,7.46s-2.08,4.95-3.12,7.46h-8c1-2.51,1.88-5,2.81-7.46s1.85-5,2.8-7.46Z"/><path class="cls-1" d="M171.39,233.5q-1.57,3.76-3.13,7.46c-1,2.46-2.09,4.95-3.13,7.46h-7.95L160,241c.93-2.46,1.86-5,2.81-7.46Z"/><path class="cls-1" d="M212.54,233.5q-1.56,3.76-3.12,7.46t-3.13,7.46h-8c.95-2.51,1.88-5,2.81-7.46l2.8-7.46Z"/><path class="cls-1" d="M253.7,233.5c-1,2.51-2.09,5-3.13,7.46s-2.08,4.95-3.12,7.46h-8l2.8-7.46c.93-2.46,1.86-5,2.81-7.46Z"/><path class="cls-1" d="M294.85,233.5q-1.56,3.76-3.12,7.46c-1,2.46-2.09,4.95-3.13,7.46h-8q1.42-3.76,2.81-7.46t2.81-7.46Z"/><path class="cls-1" d="M336,233.5q-1.56,3.76-3.12,7.46t-3.13,7.46h-8c.95-2.51,1.88-5,2.81-7.46l2.8-7.46Z"/><path class="cls-1" d="M377.17,233.5c-1,2.51-2.09,5-3.13,7.46s-2.08,4.95-3.12,7.46h-8l2.8-7.46c.93-2.46,1.86-5,2.81-7.46Z"/><path class="cls-1" d="M418.32,233.5q-1.56,3.76-3.12,7.46c-1,2.46-2.09,4.95-3.13,7.46h-8q1.42-3.76,2.81-7.46t2.81-7.46Z"/><path class="cls-1" d="M146.34,257.15c-1,2.51-2.08,5-3.13,7.46s-2.08,4.95-3.12,7.46h-8c1-2.51,1.88-5,2.81-7.46s1.86-4.95,2.8-7.46Z"/><path class="cls-1" d="M187.5,257.15c-1,2.51-2.09,5-3.13,7.46s-2.08,4.95-3.13,7.46h-8l2.8-7.46c.93-2.47,1.86-4.95,2.81-7.46Z"/><path class="cls-1" d="M228.65,257.15c-1,2.51-2.08,5-3.12,7.46s-2.09,4.95-3.13,7.46h-8q1.42-3.76,2.81-7.46c.92-2.47,1.86-4.95,2.81-7.46Z"/><path class="cls-1" d="M269.81,257.15c-1,2.51-2.08,5-3.13,7.46s-2.08,4.95-3.12,7.46h-8c1-2.51,1.88-5,2.81-7.46s1.85-4.95,2.8-7.46Z"/><path class="cls-1" d="M311,257.15l-3.13,7.46q-1.56,3.69-3.13,7.46h-7.95l2.8-7.46c.93-2.47,1.86-4.95,2.81-7.46Z"/><path class="cls-1" d="M352.12,257.15c-1,2.51-2.08,5-3.12,7.46s-2.09,4.95-3.13,7.46h-8q1.43-3.76,2.81-7.46c.92-2.47,1.86-4.95,2.81-7.46Z"/><path class="cls-1" d="M393.28,257.15c-1,2.51-2.09,5-3.13,7.46s-2.08,4.95-3.12,7.46h-8c.95-2.51,1.88-5,2.81-7.46s1.85-4.95,2.8-7.46Z"/><path class="cls-1" d="M434.44,257.15l-3.13,7.46c-1,2.46-2.09,4.95-3.13,7.46h-7.95l2.8-7.46c.93-2.47,1.86-4.95,2.81-7.46Z"/><path class="cls-2" d="M405.78,363.64h9.45L388.32,314.2V291.87H374.75V314.2L348,363.32,321.27,314.2V291.87H307.7V314.2L281,363.32,254.23,314.2V291.87H240.65V314.2l-26.73,49.12L187.18,314.2V291.87H173.61V314.2l-26.92,49.44h9.45L146.69,381h8l-8,14.73h9.45l-9.45,17.36h8l-8,14.73h9.45l-9.45,17.36h8l-8,14.73h9.45l-9.45,17.36h8l-8,14.73h9.45l-9.45,17.36h17.47l16.23-29.82,16.24,29.82h34.58l16.23-29.82,16.23,29.82h34.58l16.24-29.82,16.23,29.82H365.3l16.23-29.82,16.24,29.82h17.46L405.78,492h9.45l-8-14.73h8l-9.45-17.36h9.45l-8-14.73h8l-9.45-17.36h9.45l-8-14.73h8l-9.45-17.36h9.45l-8-14.73h8ZM213.92,509l-9.28-17h18.55Zm-7.84-31.77h15.68l-7.84,14.41Zm7.84-.32-9.28-17h18.55Zm-7.84-31.77h15.68l-7.84,14.41Zm7.84-.32-9.28-17h18.55Zm-7.84-31.77h15.68l-7.84,14.41Zm7.84-.32-9.28-17h18.55ZM206.08,381h15.68l-7.84,14.41Zm7.84-.32-9.28-17h18.55ZM281,509l-9.27-17h18.55Zm-7.84-31.77H288.8L281,491.68ZM281,477l-9.27-17h18.55Zm-7.84-31.77H288.8L281,459.59Zm7.84-.32-9.27-17h18.55Zm-7.84-31.77H288.8L281,427.5Zm7.84-.32-9.27-17h18.55ZM273.12,381H288.8L281,395.41Zm7.84-.32-9.27-17h18.55Zm59.21,64.5h15.68L348,459.59Zm7.84-.32-9.27-17h18.54Zm-7.84-31.77h15.68L348,427.5Zm7.84-.32-9.27-17h18.54ZM340.17,381h15.68L348,395.41Zm7.84-.32-9.27-17h18.54Z"/><polygon class="cls-2" points="271.69 492 272.94 494.29 274.18 492 271.69 492"/><polygon class="cls-2" points="280.96 363.32 297.73 332.52 287.75 314.2 287.75 309.23 287.75 291.87 274.18 291.87 274.18 309.23 274.18 314.2 264.2 332.52 280.96 363.32"/><polygon class="cls-2" points="281.14 477.27 280.79 477.27 273.12 477.27 277.66 485.61 280.96 479.54 284.27 485.61 288.8 477.27 281.14 477.27"/><polygon class="cls-2" points="347.83 363.64 338.74 363.64 348.01 380.68 357.28 363.64 348.19 363.64 347.83 363.64"/><polygon class="cls-2" points="288.8 381 281.14 381 280.79 381 273.12 381 280.96 395.41 288.8 381"/><polygon class="cls-2" points="280.96 412.77 290.24 395.73 281.14 395.73 280.79 395.73 271.69 395.73 280.96 412.77"/><polygon class="cls-2" points="273.12 445.18 280.96 459.59 288.8 445.18 281.14 445.18 280.79 445.18 273.12 445.18"/><polygon class="cls-2" points="280.96 444.86 290.24 427.82 281.14 427.82 280.79 427.82 271.69 427.82 280.96 444.86"/><polygon class="cls-2" points="273.12 413.09 280.96 427.5 288.8 413.09 281.14 413.09 280.79 413.09 273.12 413.09"/><polygon class="cls-2" points="280.96 476.95 290.24 459.91 281.14 459.91 280.79 459.91 271.69 459.91 280.96 476.95"/><polygon class="cls-2" points="314.66 492 321.27 492 317.79 485.61 314.49 491.68 311.18 485.61 307.7 492 314.31 492 314.66 492"/><polygon class="cls-2" points="355.85 381 348.19 381 347.83 381 340.17 381 348.01 395.41 355.85 381"/><polygon class="cls-2" points="348.01 412.77 357.28 395.73 348.19 395.73 347.83 395.73 338.74 395.73 348.01 412.77"/><polygon class="cls-2" points="348.01 363.32 364.77 332.52 354.8 314.2 354.8 309.23 354.8 291.87 341.22 291.87 341.22 309.23 341.22 314.2 331.25 332.53 348.01 363.32"/><polygon class="cls-2" points="381.71 492 388.32 492 384.84 485.61 381.53 491.68 378.23 485.61 374.75 492 381.36 492 381.71 492"/><polygon class="cls-2" points="340.17 445.18 348.01 459.59 355.85 445.18 348.19 445.18 347.83 445.18 340.17 445.18"/><polygon class="cls-2" points="340.17 413.09 348.01 427.5 355.85 413.09 348.19 413.09 347.83 413.09 340.17 413.09"/><polygon class="cls-2" points="348.01 444.86 357.28 427.82 348.19 427.82 347.83 427.82 338.74 427.82 348.01 444.86"/><polygon class="cls-2" points="180.57 492 187.18 492 183.69 485.61 180.39 491.68 177.09 485.61 173.61 492 180.22 492 180.57 492"/><polygon class="cls-2" points="180.39 509.04 172.37 494.29 164.16 509.36 180.22 509.36 180.57 509.36 196.63 509.36 188.42 494.29 180.39 509.04"/><polygon class="cls-2" points="153.65 492 154.9 494.29 156.14 492 153.65 492"/><polygon class="cls-2" points="150.17 485.61 154.71 477.27 146.69 477.27 156.14 459.91 146.69 459.91 154.71 445.18 146.69 445.18 156.14 427.82 146.69 427.82 154.71 413.09 146.69 413.09 156.14 395.73 146.69 395.73 154.71 381 146.69 381 156.14 363.64 146.69 363.64 163.63 332.53 153.66 314.2 153.66 309.23 153.66 291.87 140.08 291.87 140.08 309.23 140.08 314.2 113.17 363.64 122.62 363.64 113.17 381 121.19 381 113.17 395.73 122.62 395.73 113.17 413.09 121.19 413.09 113.17 427.82 122.62 427.82 113.17 445.18 121.19 445.18 113.17 459.91 122.62 459.91 113.17 477.27 121.19 477.27 113.17 492 122.62 492 113.17 509.36 130.63 509.36 146.87 479.54 150.17 485.61"/><polygon class="cls-2" points="220.7 492 221.94 494.29 223.19 492 220.7 492"/><polygon class="cls-2" points="213.74 363.64 204.64 363.64 213.92 380.68 223.19 363.64 214.09 363.64 213.74 363.64"/><polygon class="cls-2" points="214.09 477.27 213.74 477.27 206.07 477.27 210.61 485.61 213.92 479.54 217.22 485.61 221.76 477.27 214.09 477.27"/><polygon class="cls-2" points="405.78 492 407.03 494.29 408.27 492 405.78 492"/><polygon class="cls-2" points="439.31 363.64 448.76 363.64 421.84 314.2 421.84 309.23 421.84 291.87 408.27 291.87 408.27 309.23 408.27 314.2 398.3 332.53 415.23 363.64 405.78 363.64 415.23 381 407.22 381 415.23 395.73 405.78 395.73 415.23 413.09 407.22 413.09 415.23 427.82 405.78 427.82 415.23 445.18 407.22 445.18 415.23 459.91 405.78 459.91 415.23 477.27 407.22 477.27 411.75 485.61 415.06 479.54 431.29 509.36 448.76 509.36 439.31 492 448.76 492 440.74 477.27 448.76 477.27 439.31 459.91 448.76 459.91 440.74 445.18 448.76 445.18 439.31 427.82 448.76 427.82 440.74 413.09 448.76 413.09 439.31 395.73 448.76 395.73 440.74 381 448.76 381 439.31 363.64"/><polygon class="cls-2" points="381.53 509.04 373.5 494.29 365.3 509.36 381.36 509.36 381.71 509.36 397.77 509.36 389.56 494.29 381.53 509.04"/><polygon class="cls-2" points="247.44 509.04 239.41 494.29 231.21 509.36 247.26 509.36 247.62 509.36 263.67 509.36 255.47 494.29 247.44 509.04"/><polygon class="cls-2" points="314.49 509.04 306.46 494.29 298.25 509.36 314.31 509.36 314.66 509.36 330.72 509.36 322.51 494.29 314.49 509.04"/><polygon class="cls-2" points="280.79 363.64 271.69 363.64 280.96 380.68 290.24 363.64 281.14 363.64 280.79 363.64"/><polygon class="cls-2" points="213.92 412.77 223.19 395.73 214.09 395.73 213.74 395.73 204.64 395.73 213.92 412.77"/><polygon class="cls-2" points="204.64 492 205.89 494.29 207.13 492 204.64 492"/><polygon class="cls-2" points="213.92 363.32 230.68 332.53 220.7 314.2 220.7 309.23 220.7 291.87 207.13 291.87 207.13 309.23 207.13 314.2 197.15 332.52 213.92 363.32"/><polygon class="cls-2" points="247.62 492 254.22 492 250.74 485.61 247.44 491.68 244.14 485.61 240.66 492 247.26 492 247.62 492"/><polygon class="cls-2" points="213.92 476.95 223.19 459.91 214.09 459.91 213.74 459.91 204.64 459.91 213.92 476.95"/><polygon class="cls-2" points="287.75 492 288.99 494.29 290.24 492 287.75 492"/><polygon class="cls-2" points="221.76 381 214.09 381 213.74 381 206.07 381 213.92 395.41 221.76 381"/><polygon class="cls-2" points="213.92 444.86 223.19 427.82 214.09 427.82 213.74 427.82 204.64 427.82 213.92 444.86"/><polygon class="cls-2" points="206.07 445.18 213.92 459.59 221.76 445.18 214.09 445.18 213.74 445.18 206.07 445.18"/><polygon class="cls-2" points="206.07 413.09 213.92 427.5 221.76 413.09 214.09 413.09 213.74 413.09 206.07 413.09"/><path class="cls-3" d="M373.48,449.89a20.09,20.09,0,0,0-5.54-3.45,16.14,16.14,0,0,0,3.75-2.41,21.72,21.72,0,0,0,6.47-10.22,31.11,31.11,0,0,0,.75-14.52H365.79a44.64,44.64,0,0,1-.47,8.71c-.44,2.82-1.84,4.22-4.22,4.22a7.45,7.45,0,0,1-4.49-1.69q-2.25-1.68-4.88-3.93-3.18-2.62-6.93-5.25a14.35,14.35,0,0,0-8.43-2.62,17.85,17.85,0,0,0-12.09,4.12,23.42,23.42,0,0,0-6.93,10.68c-1.44,4.38-1.37,9.58-1.37,14.18v61.65h19.76V484.25a34.48,34.48,0,0,1,1.83-11.71,18.88,18.88,0,0,1,5.22-8,11.61,11.61,0,0,1,7.9-3c3.2,0,5.48.83,6.84,2.47a10.52,10.52,0,0,1,2.19,6.56v38.8h19.75V463.23A17.37,17.37,0,0,0,373.48,449.89Zm-22.53.6a90.08,90.08,0,0,0-7.87,5.53q-2.07,1.68-4,3a7.5,7.5,0,0,1-4.22,1.31h-.46c-3.72,0-6.73-5.62-6.73-12.56s3-12.55,6.73-12.55h.5a7.47,7.47,0,0,1,4.21,1.31q2,1.32,4,3a93.21,93.21,0,0,0,7.87,5.53l.72.41h0a20.11,20.11,0,0,0,9.95,2.3A19.65,19.65,0,0,0,351,450.49Z"/></svg>