<svg width="314" height="216" viewBox="0 0 314 216" fill="none" xmlns="http://www.w3.org/2000/svg">
<g clip-path="url(#clip0_81_1568)">
<path d="M156.9 90.9C130.6 100.8 104.5 110.6 78.7 120.3C52.9 130 26.8 139.8 0.5 149.7V66.3C26.8 55.4 52.9 44.5 78.7 33.5C104.5 22.6 130.6 11.7 156.9 0.699951V90.9Z" fill="white" stroke="#0A00FF" stroke-miterlimit="10"/>
<path d="M156.9 0.699951C183.2 11.6 209.3 22.6 235.1 33.5C260.9 44.3999 287 55.4 313.3 66.3V149.7C287 139.8 260.9 130 235.1 120.3C209.3 110.6 183.2 100.8 156.9 90.9V0.699951Z" fill="white" stroke="#0A00FF" stroke-miterlimit="10"/>
<path d="M184.2 69.2C182.6 67.8 180.8 66.7001 178.9 65.9001C180.2 65.3001 181.4 64.6 182.5 63.6C185.3 61.2 187.4 58 188.7 53.8C190 49.7 190.3 45.0001 189.4 39.9001H176.9C177 42.8001 176.9 45.5001 176.5 48.2001C176.1 50.9001 174.7 52.2001 172.5 52.2001C171.1 52.2001 169.6 51.7 168.2 50.6C166.8 49.5 165.2 48.3 163.5 46.8C161.5 45.1 159.3 43.5 156.9 41.8C154.5 40.1 151.8 39.3 148.8 39.3C144.1 39.3 140.3 40.6001 137.2 43.2001C134.2 45.8001 131.9 49.2001 130.6 53.4001C129.2 57.6001 129.3 62.6 129.3 67V126H148.2V102C148.2 97.8 148.8 94.0001 150 90.8001C151.2 87.6001 152.8 85 155 83.1C157.2 81.2 159.7 80.3001 162.6 80.3001C165.7 80.3001 167.8 81.1 169.1 82.7C170.4 84.3 171.1 86.4001 171.2 89V126.1H190.1V81.9001C189.9 76.7001 187.9 72.5 184.2 69.2ZM162.7 69.8001C159.9 71.5001 157.4 73.3 155.2 75.1C153.9 76.2 152.6 77.1 151.3 78C150 78.8 148.7 79.3001 147.3 79.3001C147.2 79.3001 147.2 79.3001 147.1 79.3001C147 79.3001 146.9 79.3001 146.9 79.3001C143.3 79.3001 140.5 73.9001 140.5 67.3001C140.5 60.7001 143.4 55.3 146.9 55.3C147 55.3 147.1 55.3 147.1 55.3C147.2 55.3 147.2 55.3 147.3 55.3C148.7 55.3 150.1 55.7 151.3 56.6C152.6 57.4 153.8 58.4 155.2 59.5C157.5 61.3 160 63.1001 162.7 64.8001C162.9 64.9001 163.2 65.1 163.4 65.2C166 66.7 169.2 67.4001 172.9 67.4001C168.8 67.2001 165.4 68.0001 162.7 69.8001Z" fill="#0A00FF"/>
<path d="M156.9 215.1C130.6 204.2 104.5 193.2 78.7 182.3C52.9 171.4 26.8 160.4 0.5 149.5V66.2C26.8 76.1 52.9 85.9 78.7 95.6C104.5 105.3 130.6 115.1 156.9 125V215.1Z" fill="white" stroke="#0A00FF" stroke-miterlimit="10"/>
<path d="M156.9 125C183.2 115.1 209.3 105.3 235.1 95.6C260.9 85.9 287 76.1 313.3 66.2V149.6C287 160.5 260.9 171.4 235.1 182.4C209.3 193.3 183.2 204.2 156.9 215.2V125Z" fill="white" stroke="#0A00FF" stroke-miterlimit="10"/>
</g>
<defs>
<clipPath id="clip0_81_1568">
<rect width="313.8" height="215.9" fill="white"/>
</clipPath>
</defs>
</svg>
