<svg width="420" height="487" viewBox="0 0 420 487" fill="none" xmlns="http://www.w3.org/2000/svg">
<path d="M359.225 43.3542C354.333 42.3248 349.484 41.6889 344.788 41.5335C339.983 41.2911 335.766 41.8772 332.008 43.0082C327.288 44.4494 323.922 46.4317 321.734 49.1745C319.547 51.9174 319.107 55.1559 320.216 58.9129C321 61.5121 322.614 63.5175 325.365 64.9931C328.006 66.3818 331.216 67.5057 334.863 68.081C338.62 68.7433 342.442 69.0992 346.243 69.2584C349.847 69.4402 353.385 69.9285 356.945 70.6135C360.504 71.2985 364.02 72.4867 367.294 74.2008C370.569 75.9149 373.428 78.3743 375.958 81.4692C378.598 84.6512 380.559 88.9077 382.235 94.1932C383.845 99.7852 383.97 105.449 382.5 111.097C381.031 116.746 378.011 121.876 373.244 126.51C368.476 131.145 362.094 134.671 354.009 137.197C349.77 138.483 345.488 139.376 340.856 139.811C336.225 140.246 331.55 140.287 326.92 139.825C322.29 139.363 317.507 138.421 312.856 136.866L317.356 117.12C320.566 118.244 323.841 119.062 327.379 119.55C330.918 120.038 334.325 120.243 337.602 120.163C340.966 119.974 343.915 119.634 346.515 118.836C349.116 118.038 351.673 116.846 353.99 115.284C356.416 113.809 358.188 111.811 359.523 109.465C360.661 107.142 360.861 104.43 359.903 101.153C359.272 99.0345 357.876 97.2033 355.934 95.8336C353.991 94.4638 351.48 93.3589 348.619 92.6929C345.65 91.9398 342.614 91.4932 339.403 91.266C335.69 90.9971 331.758 90.5542 327.609 89.9372C323.459 89.3203 319.463 88.2872 315.62 86.8379C311.777 85.3886 308.241 83.107 305.317 80.0574C302.285 76.9208 299.952 72.9064 298.363 67.5112C296.47 61.155 296.214 55.2074 297.684 49.5589C299.066 44.0201 302.108 39.0868 306.416 34.8042C310.724 30.5217 316.32 27.0867 323.028 24.7187C331.703 22.1239 339.241 20.9553 345.356 21.3453C351.472 21.7354 357.26 22.7611 362.5 24.2483L359.225 43.3542Z" stroke="#0A00FF" stroke-width="2" stroke-miterlimit="10"/>
<path d="M322.363 89.5756C317.473 88.5442 312.626 87.9059 307.932 87.7479C303.129 87.5029 298.914 88.0862 295.158 89.2142C290.442 90.6517 287.078 92.6306 284.893 95.3702C282.709 98.1098 282.27 101.346 283.382 105.101C284.166 107.699 285.781 109.703 288.531 111.18C291.172 112.569 294.381 113.694 298.027 114.271C301.782 114.935 305.603 115.292 309.402 115.454C313.004 115.637 316.541 116.127 320.1 116.814C323.658 117.501 327.173 118.69 330.447 120.405C333.721 122.119 336.58 124.579 339.111 127.673C341.751 130.854 343.714 135.109 345.392 140.391C347.005 145.98 347.133 151.64 345.667 157.283C344.201 162.927 341.186 168.052 336.423 172.68C331.661 177.308 325.284 180.828 317.204 183.348C312.968 184.631 308.688 185.52 304.059 185.952C299.43 186.384 294.757 186.423 290.129 185.958C285.5 185.494 280.719 184.55 276.069 182.993L280.556 163.265C283.765 164.389 287.039 165.208 290.576 165.698C294.113 166.188 297.519 166.394 300.794 166.317C304.157 166.13 307.104 165.792 309.703 164.996C312.302 164.2 314.857 163.01 317.172 161.45C319.596 159.978 321.366 157.982 322.699 155.639C323.836 153.319 324.034 150.608 323.075 147.333C322.443 145.216 321.046 143.385 319.104 142.015C317.161 140.645 314.651 139.54 311.791 138.873C308.822 138.118 305.787 137.67 302.578 137.441C298.866 137.171 294.937 136.726 290.789 136.107C286.64 135.488 282.645 134.453 278.803 133.003C274.962 131.552 271.426 129.27 268.502 126.221C265.468 123.085 263.134 119.072 261.543 113.68C259.647 107.328 259.388 101.384 260.854 95.7405C262.233 90.2065 265.27 85.2784 269.574 81.0014C273.877 76.7245 279.469 73.2952 286.173 70.9328C295.039 68.3222 302.572 67.1587 308.685 67.5521C314.798 67.9454 320.584 68.9736 325.823 70.4627L322.363 89.5756Z" stroke="#0A00FF" stroke-width="2" stroke-miterlimit="10"/>
<path d="M285.043 136.372C280.164 135.326 275.331 134.671 270.651 134.495C265.862 134.232 261.664 134.795 257.925 135.901C253.23 137.312 249.885 139.267 247.719 141.984C245.552 144.7 245.129 147.918 246.252 151.658C247.045 154.246 248.662 156.247 251.41 157.727C254.048 159.12 257.251 160.252 260.887 160.841C264.633 161.517 268.442 161.889 272.23 162.064C275.821 162.262 279.348 162.764 282.898 163.462C286.448 164.159 289.956 165.357 293.226 167.076C296.497 168.796 299.356 171.254 301.892 174.343C304.536 177.518 306.51 181.759 308.205 187.021C309.835 192.588 309.986 198.219 308.548 203.828C307.11 209.437 304.125 214.523 299.397 219.108C294.67 223.693 288.327 227.168 280.284 229.642C276.067 230.901 271.805 231.768 267.193 232.179C262.581 232.59 257.924 232.609 253.308 232.128C248.693 231.647 243.924 230.688 239.283 229.12L243.674 209.512C246.877 210.644 250.144 211.472 253.671 211.974C257.199 212.476 260.594 212.695 263.858 212.631C267.209 212.459 270.146 212.135 272.733 211.353C275.32 210.572 277.862 209.399 280.163 207.857C282.573 206.401 284.329 204.424 285.648 202.098C286.771 199.794 286.958 197.098 285.988 193.837C285.35 191.727 283.95 189.9 282.009 188.529C280.067 187.159 277.56 186.048 274.707 185.373C271.745 184.61 268.718 184.152 265.518 183.911C261.818 183.627 257.899 183.168 253.762 182.535C249.625 181.903 245.638 180.857 241.803 179.398C237.968 177.94 234.434 175.655 231.507 172.609C228.471 169.477 226.128 165.475 224.52 160.104C222.604 153.776 222.322 147.862 223.76 142.254C225.111 136.754 228.119 131.863 232.391 127.626C236.662 123.389 242.221 120 248.894 117.677C257.611 115.029 265.115 113.903 271.21 114.319C277.305 114.735 283.075 115.782 288.304 117.285L285.043 136.372Z" stroke="#0A00FF" stroke-width="2" stroke-miterlimit="10"/>
<path d="M248.789 181.831C243.899 180.799 239.052 180.161 234.358 180.003C229.555 179.758 225.341 180.341 221.585 181.469C216.868 182.907 213.504 184.886 211.32 187.625C209.135 190.365 208.696 193.601 209.808 197.356C210.593 199.953 212.207 201.958 214.957 203.434C217.599 204.824 220.807 205.949 224.453 206.525C228.208 207.19 232.029 207.547 235.828 207.709C239.431 207.892 242.967 208.382 246.526 209.069C250.084 209.755 253.599 210.945 256.873 212.659C260.147 214.374 263.006 216.833 265.537 219.928C268.177 223.109 270.14 227.363 271.819 232.646C273.431 238.235 273.559 243.895 272.093 249.538C270.628 255.182 267.612 260.307 262.85 264.935C258.087 269.563 251.71 273.083 243.63 275.603C239.394 276.886 235.114 277.775 230.485 278.207C225.856 278.639 221.184 278.678 216.555 278.213C211.927 277.749 207.145 276.805 202.496 275.248L206.982 255.519C210.191 256.644 213.466 257.463 217.003 257.953C220.539 258.443 223.945 258.649 227.22 258.572C230.583 258.385 233.531 258.047 236.129 257.251C238.728 256.455 241.283 255.265 243.598 253.705C246.023 252.232 247.792 250.237 249.125 247.894C250.262 245.574 250.46 242.863 249.501 239.588C248.869 237.471 247.472 235.64 245.53 234.27C243.588 232.9 241.077 231.795 238.217 231.128C235.248 230.373 232.214 229.925 229.004 229.696C225.293 229.426 221.363 228.981 217.215 228.362C213.067 227.743 209.072 226.708 205.23 225.258C201.388 223.807 197.852 221.525 194.928 218.476C191.895 215.34 189.561 211.327 187.97 205.935C186.073 199.582 185.815 193.639 187.281 187.995C188.659 182.461 191.696 177.533 196 173.256C200.304 168.979 205.895 165.55 212.599 163.188C221.465 160.577 228.998 159.414 235.111 159.807C241.225 160.2 247.01 161.228 252.249 162.718L248.789 181.831Z" stroke="#0A00FF" stroke-width="2" stroke-miterlimit="10"/>
<path d="M211.379 228.74C206.489 227.708 201.642 227.07 196.948 226.912C192.145 226.667 187.931 227.25 184.175 228.378C179.458 229.816 176.094 231.795 173.909 234.534C171.725 237.274 171.286 240.51 172.398 244.265C173.182 246.863 174.797 248.867 177.547 250.344C180.188 251.733 183.397 252.858 187.043 253.435C190.798 254.099 194.619 254.456 198.418 254.618C202.02 254.801 205.557 255.291 209.116 255.978C212.674 256.665 216.189 257.854 219.463 259.569C222.737 261.283 225.596 263.743 228.127 266.837C230.767 270.018 232.73 274.273 234.408 279.555C236.021 285.144 236.149 290.804 234.683 296.447C233.217 302.091 230.202 307.216 225.439 311.844C220.677 316.472 214.3 319.992 206.22 322.512C201.984 323.795 197.704 324.684 193.075 325.116C188.446 325.548 183.773 325.587 179.145 325.123C174.516 324.658 169.735 323.714 165.086 322.157L169.572 302.429C172.781 303.554 176.056 304.372 179.592 304.862C183.129 305.352 186.535 305.558 189.81 305.481C193.173 305.294 196.12 304.956 198.719 304.16C201.318 303.364 203.873 302.174 206.188 300.615C208.612 299.142 210.382 297.147 211.715 294.803C212.852 292.483 213.05 289.772 212.091 286.497C211.459 284.38 210.062 282.549 208.12 281.179C206.177 279.809 203.667 278.704 200.807 278.037C197.838 277.282 194.804 276.834 191.594 276.606C187.883 276.335 183.953 275.89 179.805 275.271C175.657 274.652 171.662 273.617 167.82 272.167C163.978 270.717 160.442 268.435 157.518 265.385C154.485 262.249 152.15 258.237 150.559 252.844C148.663 246.492 148.404 240.548 149.87 234.905C151.249 229.371 154.286 224.442 158.59 220.166C162.893 215.889 168.485 212.459 175.189 210.097C184.055 207.486 191.588 206.323 197.701 206.716C203.814 207.109 209.6 208.138 214.839 209.627L211.379 228.74Z" stroke="#0A00FF" stroke-width="2" stroke-miterlimit="10"/>
<path d="M174.682 274.755C169.804 273.709 164.97 273.054 160.291 272.877C155.502 272.614 151.304 273.177 147.565 274.284C142.869 275.695 139.525 277.65 137.359 280.366C135.192 283.083 134.768 286.3 135.892 290.04C136.684 292.628 138.302 294.629 141.049 296.109C143.687 297.502 146.891 298.634 150.527 299.223C154.272 299.899 158.082 300.271 161.869 300.447C165.461 300.644 168.988 301.146 172.538 301.844C176.087 302.542 179.595 303.739 182.866 305.459C186.136 307.178 188.996 309.636 191.531 312.725C194.176 315.901 196.15 320.141 197.844 325.404C199.475 330.97 199.625 336.602 198.187 342.21C196.75 347.819 193.765 352.905 189.037 357.49C184.309 362.075 177.967 365.55 169.924 368.025C165.707 369.283 161.444 370.151 156.832 370.561C152.22 370.972 147.563 370.991 142.948 370.511C138.333 370.03 133.563 369.071 128.922 367.503L133.313 347.894C136.516 349.026 139.784 349.854 143.311 350.356C146.838 350.858 150.234 351.077 153.498 351.014C156.849 350.842 159.785 350.517 162.372 349.736C164.959 348.954 167.501 347.782 169.802 346.239C172.213 344.784 173.968 342.806 175.288 340.481C176.411 338.176 176.597 335.481 175.628 332.219C174.989 330.11 173.59 328.282 171.648 326.912C169.707 325.541 167.2 324.431 164.347 323.755C161.384 322.993 158.358 322.535 155.158 322.294C151.457 322.009 147.538 321.55 143.401 320.918C139.264 320.285 135.278 319.239 131.443 317.781C127.607 316.322 124.074 314.037 121.147 310.992C118.111 307.859 115.768 303.858 114.16 298.486C112.244 292.159 111.962 286.245 113.4 280.636C114.751 275.136 117.758 270.246 122.03 266.008C126.302 261.771 131.861 258.382 138.534 256.059C147.36 253.499 154.864 252.372 160.959 252.788C167.054 253.205 172.824 254.251 178.052 255.754L174.682 274.755Z" stroke="#0A00FF" stroke-width="2" stroke-miterlimit="10"/>
<path d="M137.806 320.995C132.916 319.963 128.069 319.325 123.375 319.167C118.572 318.922 114.357 319.505 110.601 320.633C105.884 322.071 102.521 324.05 100.336 326.789C98.1514 329.529 97.713 332.765 98.8245 336.52C99.6091 339.117 101.224 341.122 103.974 342.598C106.615 343.988 109.824 345.113 113.47 345.69C117.225 346.354 121.046 346.711 124.845 346.873C128.447 347.056 131.984 347.546 135.543 348.233C139.101 348.919 142.616 350.109 145.89 351.824C149.164 353.538 152.023 355.998 154.554 359.092C157.194 362.273 159.157 366.527 160.835 371.81C162.448 377.399 162.576 383.059 161.11 388.702C159.644 394.346 156.628 399.471 151.866 404.099C147.104 408.727 140.727 412.247 132.647 414.767C128.41 416.05 124.131 416.939 119.502 417.371C114.873 417.803 110.2 417.842 105.572 417.377C100.943 416.913 96.1621 415.969 91.5123 414.412L95.9987 394.684C99.2077 395.808 102.482 396.627 106.019 397.117C109.556 397.607 112.962 397.813 116.237 397.736C119.599 397.549 122.547 397.211 125.146 396.415C127.744 395.619 130.3 394.429 132.615 392.869C135.039 391.396 136.809 389.401 138.142 387.058C139.278 384.738 139.476 382.027 138.517 378.752C137.885 376.635 136.489 374.804 134.547 373.434C132.604 372.064 130.094 370.959 127.234 370.292C124.265 369.537 121.23 369.089 118.021 368.86C114.309 368.59 110.379 368.145 106.231 367.526C102.083 366.907 98.0883 365.872 94.2464 364.422C90.4044 362.971 86.8686 360.689 83.9445 357.64C80.9113 354.504 78.5772 350.491 76.9862 345.099C75.0901 338.746 74.8313 332.803 76.2971 327.159C77.6756 321.625 80.7131 316.697 85.0166 312.42C89.3201 308.143 94.9114 304.714 101.616 302.352C110.481 299.741 118.015 298.578 124.128 298.971C130.241 299.364 136.027 300.393 141.266 301.882L137.806 320.995Z" stroke="#0A00FF" stroke-width="2" stroke-miterlimit="10"/>
<path d="M101.019 367.122C96.1291 366.091 91.2824 365.452 86.5882 365.294C81.7849 365.049 77.5707 365.633 73.8147 366.761C69.0979 368.198 65.7344 370.177 63.5496 372.917C61.3648 375.656 60.9264 378.892 62.0379 382.647C62.8225 385.245 64.4371 387.25 67.1874 388.726C69.8285 390.115 73.0375 391.24 76.6834 391.817C80.4384 392.481 84.2591 392.839 88.0581 393C91.6606 393.184 95.1974 393.674 98.7559 394.36C102.314 395.047 105.829 396.236 109.103 397.951C112.377 399.666 115.236 402.125 117.767 405.219C120.407 408.4 122.37 412.655 124.049 417.938C125.661 423.526 125.789 429.186 124.323 434.83C122.858 440.473 119.842 445.598 115.08 450.226C110.317 454.855 103.94 458.374 95.8602 460.895C91.6238 462.177 87.3439 463.067 82.7149 463.499C78.086 463.93 73.4135 463.969 68.785 463.505C64.1565 463.041 59.3754 462.096 54.7257 460.539L59.2121 440.811C62.4211 441.936 65.6957 442.755 69.2325 443.245C72.7693 443.734 76.1753 443.941 79.4504 443.863C82.8128 443.677 85.7606 443.338 88.3592 442.542C90.9578 441.746 93.513 440.557 95.8282 438.997C98.2525 437.524 100.022 435.529 101.355 433.186C102.492 430.865 102.69 428.154 101.731 424.88C101.099 422.762 99.7024 420.932 97.7599 419.562C95.8175 418.192 93.3072 417.086 90.4473 416.419C87.4783 415.665 84.4437 415.217 81.2343 414.988C77.5227 414.717 73.5929 414.272 69.4448 413.653C65.2967 413.034 61.3017 412 57.4597 410.549C53.6178 409.099 50.082 406.817 47.1579 403.768C44.1246 400.632 41.7906 396.619 40.1996 391.227C38.3035 384.874 38.0446 378.93 39.5105 373.287C40.889 367.753 43.9265 362.825 48.23 358.548C52.5335 354.271 58.1248 350.842 64.829 348.479C73.6948 345.869 81.2281 344.705 87.3413 345.098C93.4546 345.492 99.2399 346.52 104.479 348.009L101.019 367.122Z" stroke="#0A00FF" stroke-width="2" stroke-miterlimit="10"/>
</svg>
