<svg width="309" height="492" viewBox="0 0 309 492" fill="none" xmlns="http://www.w3.org/2000/svg">
<g clip-path="url(#clip0_63_581)">
<path d="M82.217 304.357L70.7559 328.008H80.3226L87.0714 314.107L82.217 304.357Z" stroke="#0A00FF" stroke-width="2" stroke-miterlimit="10"/>
<path d="M63.4861 315.435H54.7482L63.4861 299.328H54.7482L63.4861 283.22H54.7482L63.4861 267.113H54.7482L63.4861 250.982H54.7482L63.4861 234.874H54.7482L63.4861 218.767H60.1709L0.805176 328.008H56.6662L63.4861 315.435Z" stroke="#0A00FF" stroke-width="2" stroke-miterlimit="10"/>
<path d="M101.421 267.113L105.826 275.368L109.851 267.113H101.421Z" stroke="#0A00FF" stroke-width="2" stroke-miterlimit="10"/>
<path d="M101.421 283.22L101.753 283.813L102.037 283.22H101.421Z" stroke="#0A00FF" stroke-width="2" stroke-miterlimit="10"/>
<path d="M187.83 102.385V0.474365H123.396V102.385L88.3738 166.862V175.972V178.202L110.017 218.767H101.421L110.017 234.874H101.421L110.017 250.982H101.421L109.923 266.923L133.271 218.767H126.854L148.9 178.202V175.972V159.864H160.503V175.972V178.202L182.146 218.767H174.45L228.678 328.008H308.195L187.83 102.385Z" stroke="#0A00FF" stroke-width="2" stroke-miterlimit="10"/>
<path d="M37.4619 384.68C36.2542 383.399 35.4728 381.525 35.0939 379.034C34.8097 377.018 34.8808 374.812 35.3307 372.416C35.7806 369.996 36.4673 367.6 37.3435 365.204L27.9425 362.144C26.7585 364.682 25.8113 367.505 25.1483 370.613C24.4616 373.697 24.4852 377.611 25.1483 382.308C25.835 385.866 27.09 388.926 28.9371 391.465C30.7841 394.003 33.0574 395.83 35.7569 396.968C38.4564 398.107 41.4875 398.439 44.85 397.941C47.6443 397.538 49.9175 396.66 51.6935 395.355C53.4695 394.05 54.8667 392.461 55.9323 390.611C56.9742 388.76 57.803 386.815 58.4423 384.775C59.058 382.735 59.579 380.79 60.0052 378.892C60.3604 377.279 60.834 375.761 61.4497 374.361C62.0417 372.961 62.7758 371.799 63.6046 370.897C64.4334 369.996 65.4516 369.45 66.5883 369.284C68.2695 369.047 69.6666 369.308 70.7322 370.091C71.8215 370.874 72.6503 371.941 73.266 373.27C73.858 374.622 74.2606 375.974 74.4737 377.35C74.6631 378.726 74.6868 380.268 74.4974 381.952C74.3079 383.66 73.9527 385.368 73.4318 387.076C72.9108 388.808 72.2478 390.421 71.4426 391.939L81.1041 395.687C82.217 393.41 83.0932 391.109 83.6852 388.76C84.2772 386.412 84.6324 384.04 84.7508 381.691C84.8692 379.319 84.7508 377.042 84.443 374.812C83.8036 370.494 82.5012 366.96 80.5121 364.232C78.523 361.503 76.155 359.558 73.4081 358.396C70.6612 357.233 67.7959 356.878 64.8596 357.305C62.0654 357.708 59.7684 358.467 57.9687 359.534C56.1691 360.602 54.7009 361.907 53.6116 363.401C52.5223 364.919 51.6462 366.556 51.0305 368.359C50.4148 370.138 49.8939 371.941 49.515 373.72C49.1124 375.666 48.5915 377.563 47.9995 379.39C47.4075 381.24 46.6497 382.759 45.7262 384.016C44.8027 385.249 43.666 385.985 42.2926 386.175C40.2798 386.436 38.6696 385.961 37.4619 384.68Z" stroke="#0A00FF" stroke-width="2" stroke-miterlimit="10"/>
<path d="M107.152 384.68C105.944 383.399 105.163 381.525 104.784 379.034C104.5 377.018 104.571 374.812 105.021 372.416C105.471 369.996 106.157 367.6 107.033 365.204L97.6325 362.144C96.4485 364.682 95.5013 367.505 94.8382 370.613C94.1515 373.697 94.1752 377.611 94.8382 382.308C95.5249 385.866 96.78 388.926 98.627 391.465C100.474 394.003 102.747 395.83 105.447 396.968C108.146 398.107 111.177 398.439 114.54 397.941C117.334 397.538 119.607 396.66 121.383 395.355C123.159 394.05 124.557 392.461 125.622 390.611C126.664 388.76 127.493 386.815 128.132 384.775C128.748 382.735 129.269 380.79 129.695 378.892C130.05 377.279 130.524 375.761 131.14 374.361C131.732 372.961 132.466 371.799 133.295 370.897C134.123 369.996 135.142 369.45 136.278 369.284C137.959 369.047 139.357 369.308 140.422 370.091C141.511 370.874 142.34 371.941 142.956 373.27C143.548 374.622 143.951 375.974 144.164 377.35C144.353 378.726 144.377 380.268 144.187 381.952C143.998 383.66 143.643 385.368 143.122 387.076C142.601 388.808 141.938 390.421 141.133 391.939L150.794 395.687C151.907 393.41 152.783 391.109 153.375 388.76C153.967 386.412 154.322 384.04 154.441 381.691C154.559 379.319 154.441 377.042 154.133 374.812C153.494 370.494 152.191 366.96 150.202 364.232C148.213 361.503 145.845 359.558 143.098 358.396C140.351 357.233 137.486 356.878 134.55 357.305C131.755 357.708 129.458 358.467 127.659 359.534C125.859 360.602 124.391 361.907 123.302 363.401C122.212 364.919 121.336 366.556 120.72 368.359C120.105 370.138 119.584 371.941 119.205 373.72C118.802 375.666 118.281 377.563 117.689 379.39C117.097 381.24 116.34 382.759 115.416 384.016C114.493 385.249 113.356 385.985 111.983 386.175C109.97 386.436 108.359 385.961 107.152 384.68Z" stroke="#0A00FF" stroke-width="2" stroke-miterlimit="10"/>
<path d="M176.818 384.68C175.611 383.399 174.829 381.525 174.45 379.034C174.166 377.018 174.237 374.812 174.687 372.416C175.137 369.996 175.824 367.6 176.7 365.204L167.299 362.144C166.115 364.682 165.168 367.505 164.505 370.613C163.818 373.697 163.842 377.611 164.505 382.308C165.191 385.866 166.446 388.926 168.294 391.465C170.141 394.003 172.414 395.83 175.113 396.968C177.813 398.107 180.844 398.439 184.206 397.941C187.001 397.538 189.274 396.66 191.05 395.355C192.826 394.05 194.223 392.461 195.289 390.611C196.331 388.76 197.159 386.815 197.799 384.775C198.414 382.735 198.935 380.79 199.362 378.892C199.717 377.279 200.19 375.761 200.806 374.361C201.398 372.961 202.132 371.799 202.961 370.897C203.79 369.996 204.808 369.45 205.945 369.284C207.626 369.047 209.023 369.308 210.089 370.091C211.178 370.874 212.007 371.941 212.622 373.27C213.214 374.622 213.617 375.974 213.83 377.35C214.02 378.726 214.043 380.268 213.854 381.952C213.664 383.66 213.309 385.368 212.788 387.076C212.267 388.808 211.604 390.421 210.799 391.939L220.461 395.687C221.574 393.41 222.45 391.109 223.042 388.76C223.634 386.412 223.989 384.04 224.107 381.691C224.226 379.319 224.107 377.042 223.799 374.812C223.16 370.494 221.858 366.96 219.869 364.232C217.879 361.503 215.511 359.558 212.765 358.396C210.018 357.233 207.152 356.878 204.216 357.305C201.422 357.708 199.125 358.467 197.325 359.534C195.526 360.602 194.057 361.907 192.968 363.401C191.879 364.919 191.003 366.556 190.387 368.359C189.771 370.138 189.25 371.941 188.871 373.72C188.469 375.666 187.948 377.563 187.356 379.39C186.764 381.24 186.006 382.759 185.083 384.016C184.159 385.249 183.022 385.985 181.649 386.175C179.636 386.436 178.026 385.961 176.818 384.68Z" stroke="#0A00FF" stroke-width="2" stroke-miterlimit="10"/>
<path d="M246.485 384.68C245.277 383.399 244.496 381.525 244.117 379.034C243.833 377.018 243.904 374.812 244.354 372.416C244.804 369.996 245.49 367.6 246.366 365.204L236.965 362.144C235.781 364.682 234.834 367.505 234.171 370.613C233.485 373.697 233.508 377.611 234.171 382.308C234.858 385.866 236.113 388.926 237.96 391.465C239.807 394.003 242.08 395.83 244.78 396.968C247.479 398.107 250.51 398.439 253.873 397.941C256.667 397.538 258.94 396.66 260.716 395.355C262.492 394.05 263.89 392.461 264.955 390.611C265.997 388.76 266.826 386.815 267.465 384.775C268.081 382.735 268.602 380.79 269.028 378.892C269.383 377.279 269.857 375.761 270.473 374.361C271.065 372.961 271.799 371.799 272.628 370.897C273.456 369.996 274.475 369.45 275.611 369.284C277.292 369.047 278.69 369.308 279.755 370.091C280.844 370.874 281.673 371.941 282.289 373.27C282.881 374.622 283.283 375.974 283.497 377.35C283.686 378.726 283.71 380.268 283.52 381.952C283.331 383.66 282.976 385.368 282.455 387.076C281.934 388.808 281.271 390.421 280.466 391.939L290.127 395.687C291.24 393.41 292.116 391.109 292.708 388.76C293.3 386.412 293.655 384.04 293.774 381.691C293.892 379.319 293.774 377.042 293.466 374.812C292.827 370.494 291.524 366.96 289.535 364.232C287.546 361.503 285.178 359.558 282.431 358.396C279.684 357.233 276.819 356.878 273.883 357.305C271.088 357.708 268.791 358.467 266.992 359.534C265.192 360.602 263.724 361.907 262.635 363.401C261.545 364.919 260.669 366.556 260.053 368.359C259.438 370.138 258.917 371.941 258.538 373.72C258.135 375.666 257.614 377.563 257.022 379.39C256.43 381.24 255.673 382.759 254.749 384.016C253.826 385.249 252.689 385.985 251.316 386.175C249.303 386.436 247.693 385.961 246.485 384.68Z" stroke="#0A00FF" stroke-width="2" stroke-miterlimit="10"/>
<path d="M37.4619 431.366C36.2542 430.085 35.4728 428.211 35.0939 425.72C34.8097 423.704 34.8808 421.498 35.3307 419.102C35.7806 416.682 36.4673 414.286 37.3435 411.89L27.9425 408.83C26.7585 411.368 25.8113 414.191 25.1483 417.299C24.4616 420.383 24.4852 424.297 25.1483 428.994C25.835 432.552 27.09 435.612 28.9371 438.151C30.7841 440.689 33.0574 442.516 35.7569 443.654C38.4564 444.793 41.4875 445.125 44.85 444.627C47.6443 444.224 49.9175 443.346 51.6935 442.041C53.4695 440.736 54.8667 439.147 55.9323 437.297C56.9742 435.446 57.803 433.501 58.4423 431.461C59.058 429.421 59.579 427.476 60.0052 425.578C60.3604 423.965 60.834 422.447 61.4497 421.047C62.0417 419.647 62.7758 418.485 63.6046 417.583C64.4334 416.682 65.4516 416.136 66.5883 415.97C68.2695 415.733 69.6666 415.994 70.7322 416.777C71.8215 417.56 72.6503 418.627 73.266 419.956C73.858 421.308 74.2606 422.66 74.4737 424.036C74.6631 425.412 74.6868 426.954 74.4974 428.638C74.3079 430.346 73.9527 432.054 73.4318 433.762C72.9108 435.494 72.2478 437.107 71.4426 438.625L81.1041 442.373C82.217 440.096 83.0932 437.795 83.6852 435.446C84.2772 433.098 84.6324 430.726 84.7508 428.377C84.8692 426.005 84.7508 423.728 84.443 421.498C83.8036 417.18 82.5012 413.646 80.5121 410.918C78.523 408.189 76.155 406.244 73.4081 405.082C70.6612 403.919 67.7959 403.564 64.8596 403.991C62.0654 404.394 59.7684 405.153 57.9687 406.221C56.1691 407.288 54.7009 408.593 53.6116 410.087C52.5223 411.605 51.6462 413.242 51.0305 415.045C50.4148 416.824 49.8939 418.627 49.515 420.406C49.1124 422.352 48.5915 424.249 47.9995 426.076C47.4075 427.926 46.6497 429.445 45.7262 430.702C44.8027 431.935 43.666 432.671 42.2926 432.861C40.2798 433.145 38.6696 432.647 37.4619 431.366Z" stroke="#0A00FF" stroke-width="2" stroke-miterlimit="10"/>
<path d="M107.152 431.366C105.944 430.085 105.163 428.211 104.784 425.72C104.5 423.704 104.571 421.498 105.021 419.102C105.471 416.682 106.157 414.286 107.033 411.89L97.6325 408.83C96.4485 411.368 95.5013 414.191 94.8382 417.299C94.1515 420.383 94.1752 424.297 94.8382 428.994C95.5249 432.552 96.78 435.612 98.627 438.151C100.474 440.689 102.747 442.516 105.447 443.654C108.146 444.793 111.177 445.125 114.54 444.627C117.334 444.224 119.607 443.346 121.383 442.041C123.159 440.736 124.557 439.147 125.622 437.297C126.664 435.446 127.493 433.501 128.132 431.461C128.748 429.421 129.269 427.476 129.695 425.578C130.05 423.965 130.524 422.447 131.14 421.047C131.732 419.647 132.466 418.485 133.295 417.583C134.123 416.682 135.142 416.136 136.278 415.97C137.959 415.733 139.357 415.994 140.422 416.777C141.511 417.56 142.34 418.627 142.956 419.956C143.548 421.308 143.951 422.66 144.164 424.036C144.353 425.412 144.377 426.954 144.187 428.638C143.998 430.346 143.643 432.054 143.122 433.762C142.601 435.494 141.938 437.107 141.133 438.625L150.794 442.373C151.907 440.096 152.783 437.795 153.375 435.446C153.967 433.098 154.322 430.726 154.441 428.377C154.559 426.029 154.441 423.728 154.133 421.498C153.494 417.18 152.191 413.646 150.202 410.918C148.213 408.189 145.845 406.244 143.098 405.082C140.351 403.919 137.486 403.564 134.55 403.991C131.755 404.394 129.458 405.153 127.659 406.221C125.859 407.288 124.391 408.593 123.302 410.087C122.212 411.605 121.336 413.242 120.72 415.045C120.105 416.824 119.584 418.627 119.205 420.406C118.802 422.352 118.281 424.249 117.689 426.076C117.097 427.926 116.34 429.445 115.416 430.702C114.493 431.935 113.356 432.671 111.983 432.861C109.97 433.145 108.359 432.647 107.152 431.366Z" stroke="#0A00FF" stroke-width="2" stroke-miterlimit="10"/>
<path d="M176.818 431.366C175.611 430.085 174.829 428.211 174.45 425.72C174.166 423.704 174.237 421.498 174.687 419.102C175.137 416.682 175.824 414.286 176.7 411.89L167.299 408.83C166.115 411.368 165.168 414.191 164.505 417.299C163.818 420.383 163.842 424.297 164.505 428.994C165.191 432.552 166.446 435.612 168.294 438.151C170.141 440.689 172.414 442.516 175.113 443.654C177.813 444.793 180.844 445.125 184.206 444.627C187.001 444.224 189.274 443.346 191.05 442.041C192.826 440.736 194.223 439.147 195.289 437.297C196.331 435.446 197.159 433.501 197.799 431.461C198.414 429.421 198.935 427.476 199.362 425.578C199.717 423.965 200.19 422.447 200.806 421.047C201.398 419.647 202.132 418.485 202.961 417.583C203.79 416.682 204.808 416.136 205.945 415.97C207.626 415.733 209.023 415.994 210.089 416.777C211.178 417.56 212.007 418.627 212.622 419.956C213.214 421.308 213.617 422.66 213.83 424.036C214.02 425.412 214.043 426.954 213.854 428.638C213.664 430.346 213.309 432.054 212.788 433.762C212.267 435.494 211.604 437.107 210.799 438.625L220.461 442.373C221.574 440.096 222.45 437.795 223.042 435.446C223.634 433.098 223.989 430.726 224.107 428.377C224.226 426.005 224.107 423.728 223.799 421.498C223.16 417.18 221.858 413.646 219.869 410.918C217.879 408.189 215.511 406.244 212.765 405.082C210.018 403.919 207.152 403.564 204.216 403.991C201.422 404.394 199.125 405.153 197.325 406.221C195.526 407.288 194.057 408.593 192.968 410.087C191.879 411.605 191.003 413.242 190.387 415.045C189.771 416.824 189.25 418.627 188.871 420.406C188.469 422.352 187.948 424.249 187.356 426.076C186.764 427.926 186.006 429.445 185.083 430.702C184.159 431.935 183.022 432.671 181.649 432.861C179.636 433.145 178.026 432.647 176.818 431.366Z" stroke="#0A00FF" stroke-width="2" stroke-miterlimit="10"/>
<path d="M246.485 431.366C245.277 430.085 244.496 428.211 244.117 425.72C243.833 423.704 243.904 421.498 244.354 419.102C244.804 416.682 245.49 414.286 246.366 411.89L236.965 408.83C235.781 411.368 234.834 414.191 234.171 417.299C233.485 420.383 233.508 424.297 234.171 428.994C234.858 432.552 236.113 435.612 237.96 438.151C239.807 440.689 242.08 442.516 244.78 443.654C247.479 444.793 250.51 445.125 253.873 444.627C256.667 444.224 258.94 443.346 260.716 442.041C262.492 440.736 263.89 439.147 264.955 437.297C265.997 435.446 266.826 433.501 267.465 431.461C268.081 429.421 268.602 427.476 269.028 425.578C269.383 423.965 269.857 422.447 270.473 421.047C271.065 419.647 271.799 418.485 272.628 417.583C273.456 416.682 274.475 416.136 275.611 415.97C277.292 415.733 278.69 415.994 279.755 416.777C280.844 417.56 281.673 418.627 282.289 419.956C282.881 421.308 283.283 422.66 283.497 424.036C283.686 425.412 283.71 426.954 283.52 428.638C283.331 430.346 282.976 432.054 282.455 433.762C281.934 435.494 281.271 437.107 280.466 438.625L290.127 442.373C291.24 440.096 292.116 437.795 292.708 435.446C293.3 433.098 293.655 430.726 293.774 428.377C293.892 426.005 293.774 423.728 293.466 421.498C292.827 417.18 291.524 413.646 289.535 410.918C287.546 408.189 285.178 406.244 282.431 405.082C279.684 403.919 276.819 403.564 273.883 403.991C271.088 404.394 268.791 405.153 266.992 406.221C265.192 407.288 263.724 408.593 262.635 410.087C261.545 411.605 260.669 413.242 260.053 415.045C259.438 416.824 258.917 418.627 258.538 420.406C258.135 422.352 257.614 424.249 257.022 426.076C256.43 427.926 255.673 429.445 254.749 430.702C253.826 431.935 252.689 432.671 251.316 432.861C249.303 433.145 247.693 432.647 246.485 431.366Z" stroke="#0A00FF" stroke-width="2" stroke-miterlimit="10"/>
<path d="M37.4619 478.075C36.2542 476.794 35.4728 474.92 35.0939 472.429C34.8097 470.413 34.8808 468.207 35.3307 465.811C35.7806 463.391 36.4673 460.995 37.3435 458.599L27.9425 455.539C26.7585 458.077 25.8113 460.9 25.1483 464.008C24.4616 467.092 24.4852 471.006 25.1483 475.703C25.835 479.261 27.09 482.321 28.9371 484.86C30.7841 487.398 33.0574 489.225 35.7569 490.363C38.4564 491.502 41.4875 491.834 44.85 491.336C47.6443 490.933 49.9175 490.055 51.6935 488.75C53.4695 487.445 54.8667 485.856 55.9323 484.006C56.9742 482.155 57.803 480.21 58.4423 478.17C59.058 476.13 59.579 474.185 60.0052 472.287C60.3604 470.674 60.834 469.156 61.4497 467.756C62.0417 466.356 62.7758 465.194 63.6046 464.292C64.4334 463.391 65.4516 462.845 66.5883 462.679C68.2695 462.442 69.6666 462.703 70.7322 463.486C71.8215 464.269 72.6503 465.336 73.266 466.665C73.858 468.017 74.2606 469.369 74.4737 470.745C74.6631 472.121 74.6868 473.663 74.4974 475.347C74.3079 477.055 73.9527 478.763 73.4318 480.471C72.9108 482.203 72.2478 483.816 71.4426 485.334L81.1041 489.082C82.217 486.805 83.0932 484.504 83.6852 482.155C84.2772 479.807 84.6324 477.435 84.7508 475.086C84.8692 472.714 84.7508 470.437 84.443 468.207C83.8036 463.889 82.5012 460.355 80.5121 457.627C78.523 454.898 76.155 452.953 73.4081 451.791C70.6612 450.628 67.7959 450.273 64.8596 450.7C62.0654 451.103 59.7684 451.862 57.9687 452.929C56.1691 453.997 54.7009 455.302 53.6116 456.796C52.5223 458.314 51.6462 459.951 51.0305 461.754C50.4148 463.533 49.8939 465.336 49.515 467.115C49.1124 469.061 48.5915 470.958 47.9995 472.785C47.4075 474.635 46.6497 476.154 45.7262 477.411C44.8027 478.644 43.666 479.38 42.2926 479.57C40.2798 479.831 38.6696 479.356 37.4619 478.075Z" stroke="#0A00FF" stroke-width="2" stroke-miterlimit="10"/>
<path d="M107.152 478.075C105.944 476.794 105.163 474.92 104.784 472.429C104.5 470.413 104.571 468.207 105.021 465.811C105.471 463.391 106.157 460.995 107.033 458.599L97.6325 455.539C96.4485 458.077 95.5013 460.9 94.8382 464.008C94.1515 467.092 94.1752 471.006 94.8382 475.703C95.5249 479.261 96.78 482.321 98.627 484.86C100.474 487.398 102.747 489.225 105.447 490.363C108.146 491.502 111.177 491.834 114.54 491.336C117.334 490.933 119.607 490.055 121.383 488.75C123.159 487.445 124.557 485.856 125.622 484.006C126.664 482.155 127.493 480.21 128.132 478.17C128.748 476.13 129.269 474.185 129.695 472.287C130.05 470.674 130.524 469.156 131.14 467.756C131.732 466.356 132.466 465.194 133.295 464.292C134.123 463.391 135.142 462.845 136.278 462.679C137.959 462.442 139.357 462.703 140.422 463.486C141.511 464.269 142.34 465.336 142.956 466.665C143.548 468.017 143.951 469.369 144.164 470.745C144.353 472.121 144.377 473.663 144.187 475.347C143.998 477.055 143.643 478.763 143.122 480.471C142.601 482.203 141.938 483.816 141.133 485.334L150.794 489.082C151.907 486.805 152.783 484.504 153.375 482.155C153.967 479.807 154.322 477.435 154.441 475.086C154.559 472.714 154.441 470.437 154.133 468.207C153.494 463.889 152.191 460.355 150.202 457.627C148.213 454.898 145.845 452.953 143.098 451.791C140.351 450.628 137.486 450.273 134.55 450.7C131.755 451.103 129.458 451.862 127.659 452.929C125.859 453.997 124.391 455.302 123.302 456.796C122.212 458.314 121.336 459.951 120.72 461.754C120.105 463.533 119.584 465.336 119.205 467.115C118.802 469.061 118.281 470.958 117.689 472.785C117.097 474.635 116.34 476.154 115.416 477.411C114.493 478.644 113.356 479.38 111.983 479.57C109.97 479.831 108.359 479.356 107.152 478.075Z" stroke="#0A00FF" stroke-width="2" stroke-miterlimit="10"/>
<path d="M176.818 478.075C175.611 476.794 174.829 474.92 174.45 472.429C174.166 470.413 174.237 468.207 174.687 465.811C175.137 463.391 175.824 460.995 176.7 458.599L167.299 455.539C166.115 458.077 165.168 460.9 164.505 464.008C163.818 467.092 163.842 471.006 164.505 475.703C165.191 479.261 166.446 482.321 168.294 484.86C170.141 487.398 172.414 489.225 175.113 490.363C177.813 491.502 180.844 491.834 184.206 491.336C187.001 490.933 189.274 490.055 191.05 488.75C192.826 487.445 194.223 485.856 195.289 484.006C196.331 482.155 197.159 480.21 197.799 478.17C198.414 476.13 198.935 474.185 199.362 472.287C199.717 470.674 200.19 469.156 200.806 467.756C201.398 466.356 202.132 465.194 202.961 464.292C203.79 463.391 204.808 462.845 205.945 462.679C207.626 462.442 209.023 462.703 210.089 463.486C211.178 464.269 212.007 465.336 212.622 466.665C213.214 468.017 213.617 469.369 213.83 470.745C214.02 472.121 214.043 473.663 213.854 475.347C213.664 477.055 213.309 478.763 212.788 480.471C212.267 482.203 211.604 483.816 210.799 485.334L220.461 489.082C221.574 486.805 222.45 484.504 223.042 482.155C223.634 479.807 223.989 477.435 224.107 475.086C224.226 472.714 224.107 470.437 223.799 468.207C223.16 463.889 221.858 460.355 219.869 457.627C217.879 454.898 215.511 452.953 212.765 451.791C210.018 450.628 207.152 450.273 204.216 450.7C201.422 451.103 199.125 451.862 197.325 452.929C195.526 453.997 194.057 455.302 192.968 456.796C191.879 458.314 191.003 459.951 190.387 461.754C189.771 463.533 189.25 465.336 188.871 467.115C188.469 469.061 187.948 470.958 187.356 472.785C186.764 474.635 186.006 476.154 185.083 477.411C184.159 478.644 183.022 479.38 181.649 479.57C179.636 479.831 178.026 479.356 176.818 478.075Z" stroke="#0A00FF" stroke-width="2" stroke-miterlimit="10"/>
<path d="M246.485 478.075C245.277 476.794 244.496 474.92 244.117 472.429C243.833 470.413 243.904 468.207 244.354 465.811C244.804 463.391 245.49 460.995 246.366 458.599L236.965 455.539C235.781 458.077 234.834 460.9 234.171 464.008C233.485 467.092 233.508 471.006 234.171 475.703C234.858 479.261 236.113 482.321 237.96 484.86C239.807 487.398 242.08 489.225 244.78 490.363C247.479 491.502 250.51 491.834 253.873 491.336C256.667 490.933 258.94 490.055 260.716 488.75C262.492 487.445 263.89 485.856 264.955 484.006C265.997 482.155 266.826 480.21 267.465 478.17C268.081 476.13 268.602 474.185 269.028 472.287C269.383 470.674 269.857 469.156 270.473 467.756C271.065 466.356 271.799 465.194 272.628 464.292C273.456 463.391 274.475 462.845 275.611 462.679C277.292 462.442 278.69 462.703 279.755 463.486C280.844 464.269 281.673 465.336 282.289 466.665C282.881 468.017 283.283 469.369 283.497 470.745C283.686 472.121 283.71 473.663 283.52 475.347C283.331 477.055 282.976 478.763 282.455 480.471C281.934 482.203 281.271 483.816 280.466 485.334L290.127 489.082C291.24 486.805 292.116 484.504 292.708 482.155C293.3 479.807 293.655 477.435 293.774 475.086C293.892 472.714 293.774 470.437 293.466 468.207C292.827 463.889 291.524 460.355 289.535 457.627C287.546 454.898 285.178 452.953 282.431 451.791C279.684 450.628 276.819 450.273 273.883 450.7C271.088 451.103 268.791 451.862 266.992 452.929C265.192 453.997 263.724 455.302 262.635 456.796C261.545 458.314 260.669 459.951 260.053 461.754C259.438 463.533 258.917 465.336 258.538 467.115C258.135 469.061 257.614 470.958 257.022 472.785C256.43 474.635 255.673 476.154 254.749 477.411C253.826 478.644 252.689 479.38 251.316 479.57C249.303 479.831 247.693 479.356 246.485 478.075Z" stroke="#0A00FF" stroke-width="2" stroke-miterlimit="10"/>
<path d="M262.421 271.264C260.74 269.77 258.869 268.607 256.833 267.753C258.159 267.136 259.438 266.33 260.622 265.31C263.582 262.772 265.76 259.332 267.157 254.967C268.555 250.602 268.791 245.691 267.915 240.235H254.654C254.773 243.272 254.631 246.213 254.181 249.06C253.731 251.907 252.31 253.33 249.918 253.33C248.403 253.33 246.887 252.761 245.372 251.622C243.856 250.483 242.222 249.155 240.446 247.637C238.292 245.858 235.947 244.102 233.437 242.323C230.903 240.544 228.062 239.666 224.912 239.666C219.987 239.666 215.914 241.066 212.694 243.841C209.473 246.617 207.129 250.246 205.684 254.659C204.24 259.095 204.311 264.361 204.311 269.034V331.519H224.297V306.065C224.297 301.581 224.912 297.62 226.144 294.204C227.375 290.764 229.151 288.059 231.424 286.043C233.698 284.05 236.374 283.03 239.428 283.03C242.672 283.03 244.969 283.861 246.343 285.521C247.716 287.182 248.45 289.412 248.545 292.163V331.495H268.531V284.738C268.389 279.259 266.376 274.751 262.421 271.264ZM239.641 271.857C236.729 273.684 234.077 275.558 231.685 277.456C230.288 278.594 228.938 279.614 227.612 280.492C226.286 281.37 224.865 281.821 223.35 281.821C223.279 281.821 223.207 281.821 223.113 281.821C223.042 281.821 222.947 281.821 222.876 281.821C219.111 281.821 216.08 276.127 216.08 269.105C216.08 262.084 219.135 256.39 222.876 256.39C222.947 256.39 223.042 256.39 223.113 256.39C223.184 256.39 223.255 256.39 223.35 256.39H223.373C223.373 256.39 223.373 256.39 223.397 256.39C224.912 256.39 226.333 256.841 227.659 257.719C228.985 258.596 230.335 259.616 231.732 260.755C234.124 262.653 236.776 264.527 239.689 266.354C239.926 266.496 240.162 266.638 240.423 266.781H240.399C243.17 268.323 246.532 269.105 250.463 269.105C246.13 269.105 242.53 270.031 239.641 271.857Z" fill="#0A00FF"/>
<path d="M101.421 218.767H110.017L88.3736 178.202V175.972V159.865H76.7941V175.972V178.202L54.748 218.767H63.486L54.748 234.874H63.486L54.748 250.982H63.486L54.748 267.113H63.486L54.748 283.22H63.486L54.748 299.328H63.486L54.748 315.435H63.486L54.748 331.543H69.0271L82.2168 304.357L95.7144 331.543H110.017L101.421 315.435H110.017L101.421 299.328H110.017L101.421 283.22H110.017L101.421 267.113H110.017L101.421 250.982H110.017L101.421 234.874H110.017L101.421 218.767Z" stroke="#0A00FF" stroke-width="2" stroke-miterlimit="10"/>
<path d="M173.55 218.767H182.146L160.503 178.202V175.972V159.865H148.9V175.972V178.202L126.854 218.767H135.615L126.854 234.874H135.615L126.854 250.982H135.615L126.854 267.113H135.615L126.854 283.22H135.615L126.854 299.328H135.615L126.854 315.435H135.615L126.854 331.543H141.156L154.346 304.357L167.844 331.543H182.146L173.55 315.435H182.146L173.55 299.328H182.146L173.55 283.22H182.146L173.55 267.113H182.146L173.55 250.982H182.146L173.55 234.874H182.146L173.55 218.767Z" stroke="#0A00FF" stroke-width="2" stroke-miterlimit="10"/>
</g>
<defs>
<clipPath id="clip0_63_581">
<rect width="309" height="492" fill="white"/>
</clipPath>
</defs>
</svg>
