<svg width="357" height="749" viewBox="0 0 357 749" fill="none" xmlns="http://www.w3.org/2000/svg">
<g clip-path="url(#clip0_75_1298)">
<path d="M30.9996 520.5C28.8996 524.4 27.0996 528.4 25.6996 532.4C24.2996 536.5 23.5996 540.2 23.5996 543.8C23.5996 548.2 24.4996 551.6 26.2996 554.1C28.0996 556.6 30.6996 557.9 34.2996 557.9C36.6996 557.9 38.8996 556.9 40.7996 555C42.6996 553.1 44.3996 550.6 45.8996 547.6C47.3996 544.6 48.6996 541.4 49.9996 538.2C51.0996 535.2 52.3996 532.3 53.9996 529.3C55.4996 526.4 57.3996 523.7 59.6996 521.4C61.9996 519.1 64.7996 517.2 68.1996 515.8C71.5996 514.4 75.7996 513.7 80.6996 513.7C85.8996 513.7 90.7996 515.1 95.1996 517.8C99.6996 520.5 103.3 524.5 106 529.7C108.7 534.9 110.1 541.3 110.1 549C110.1 552.9 109.7 556.9 108.9 560.9C108.1 565 106.9 568.9 105.3 572.8C103.7 576.7 101.6 580.5 99.0996 584.1L83.2996 575.2C85.0996 572.8 86.5996 570.1 87.9996 567.3C89.3996 564.5 90.3996 561.6 91.0996 558.7C91.7996 555.8 92.1996 553.2 92.1996 550.7C92.1996 548.3 91.8996 545.8 91.1996 543.4C90.4996 540.9 89.2996 538.9 87.5996 537.3C85.8996 535.7 83.5996 534.9 80.5996 534.9C78.5996 534.9 76.6996 535.6 74.9996 536.9C73.2996 538.3 71.7996 540.1 70.3996 542.3C68.9996 544.6 67.7996 547.1 66.7996 549.8C65.5996 553 64.1996 556.2 62.5996 559.6C60.9996 563 59.0996 566.1 56.7996 569C54.4996 571.9 51.6996 574.3 48.2996 576.1C44.8996 577.9 40.6996 578.8 35.7996 578.8C29.7996 578.8 24.6996 577.5 20.2996 574.8C15.8996 572.1 12.4996 568.4 9.89961 563.6C7.29961 558.8 5.89961 553.2 5.59961 546.8C5.59961 538.5 6.59961 531.8 8.49961 526.6C10.4996 521.4 12.7996 516.8 15.4996 512.7L30.9996 520.5Z" stroke="#0A00FF" stroke-width="2" stroke-miterlimit="10"/>
<path d="M153 520.5C150.9 524.4 149.1 528.4 147.7 532.4C146.3 536.5 145.6 540.2 145.6 543.8C145.6 548.2 146.5 551.6 148.3 554.1C150.1 556.6 152.7 557.9 156.3 557.9C158.7 557.9 160.9 556.9 162.8 555C164.7 553.1 166.4 550.6 167.9 547.6C169.4 544.6 170.7 541.4 172 538.2C173.1 535.2 174.4 532.3 176 529.3C177.5 526.4 179.4 523.7 181.7 521.4C184 519.1 186.8 517.2 190.2 515.8C193.6 514.4 197.8 513.7 202.7 513.7C207.9 513.7 212.8 515.1 217.2 517.8C221.7 520.5 225.3 524.5 228 529.7C230.7 534.9 232.1 541.3 232.1 549C232.1 552.9 231.7 556.9 230.9 560.9C230.1 565 228.9 568.9 227.3 572.8C225.7 576.7 223.6 580.5 221.1 584.1L205.3 575.2C207.1 572.8 208.6 570.1 210 567.3C211.4 564.5 212.4 561.6 213.1 558.7C213.8 555.8 214.2 553.2 214.2 550.7C214.2 548.3 213.9 545.8 213.2 543.4C212.5 540.9 211.3 538.9 209.6 537.3C207.9 535.7 205.6 534.9 202.6 534.9C200.6 534.9 198.7 535.6 197 536.9C195.3 538.3 193.8 540.1 192.4 542.3C191 544.6 189.8 547.1 188.8 549.8C187.6 553 186.2 556.2 184.6 559.6C183 563 181.1 566.1 178.8 569C176.5 571.9 173.7 574.3 170.3 576.1C166.9 577.9 162.7 578.8 157.8 578.8C151.8 578.8 146.7 577.5 142.3 574.8C137.9 572.1 134.5 568.4 131.9 563.6C129.3 558.8 127.9 553.2 127.6 546.8C127.6 538.5 128.6 531.8 130.5 526.6C132.5 521.4 134.8 516.8 137.5 512.7L153 520.5Z" stroke="#0A00FF" stroke-width="2" stroke-miterlimit="10"/>
<path d="M274.9 520.5C272.8 524.4 271 528.4 269.6 532.4C268.2 536.5 267.5 540.2 267.5 543.8C267.5 548.2 268.4 551.6 270.2 554.1C272 556.6 274.6 557.9 278.2 557.9C280.6 557.9 282.8 556.9 284.7 555C286.6 553.1 288.3 550.6 289.8 547.6C291.3 544.6 292.6 541.4 293.9 538.2C295 535.2 296.3 532.3 297.9 529.3C299.4 526.4 301.3 523.7 303.6 521.4C305.9 519.1 308.7 517.2 312.1 515.8C315.5 514.4 319.7 513.7 324.6 513.7C329.8 513.7 334.7 515.1 339.1 517.8C343.6 520.5 347.2 524.5 349.9 529.7C352.6 534.9 354 541.3 354 549C354 552.9 353.6 556.9 352.8 560.9C352 565 350.8 568.9 349.2 572.8C347.6 576.7 345.5 580.5 343 584.1L327.2 575.2C329 572.8 330.5 570.1 331.9 567.3C333.3 564.5 334.3 561.6 335 558.7C335.7 555.8 336.1 553.2 336.1 550.7C336.1 548.3 335.8 545.8 335.1 543.4C334.4 540.9 333.2 538.9 331.5 537.3C329.8 535.7 327.5 534.9 324.5 534.9C322.5 534.9 320.6 535.6 318.9 536.9C317.2 538.3 315.7 540.1 314.3 542.3C312.9 544.6 311.7 547.1 310.7 549.8C309.5 553 308.1 556.2 306.5 559.6C304.9 563 303 566.1 300.7 569C298.4 571.9 295.6 574.3 292.2 576.1C288.8 577.9 284.6 578.8 279.7 578.8C273.7 578.8 268.6 577.5 264.2 574.8C259.8 572.1 256.4 568.4 253.8 563.6C251.2 558.8 249.8 553.2 249.5 546.8C249.5 538.5 250.5 531.8 252.4 526.6C254.4 521.4 256.7 516.8 259.4 512.7L274.9 520.5Z" stroke="#0A00FF" stroke-width="2" stroke-miterlimit="10"/>
<path d="M30.9996 602.5C28.8996 606.4 27.0996 610.4 25.6996 614.4C24.2996 618.5 23.5996 622.2 23.5996 625.8C23.5996 630.2 24.4996 633.6 26.2996 636.1C28.0996 638.6 30.6996 639.9 34.2996 639.9C36.6996 639.9 38.8996 638.9 40.7996 637C42.6996 635.1 44.3996 632.6 45.8996 629.6C47.3996 626.6 48.6996 623.4 49.9996 620.2C51.0996 617.2 52.3996 614.3 53.9996 611.3C55.4996 608.4 57.3996 605.7 59.6996 603.4C61.9996 601.1 64.7996 599.2 68.1996 597.8C71.5996 596.4 75.7996 595.7 80.6996 595.7C85.8996 595.7 90.7996 597.1 95.1996 599.8C99.6996 602.5 103.3 606.5 106 611.7C108.7 616.9 110.1 623.3 110.1 631C110.1 634.9 109.7 638.9 108.9 642.9C108.1 647 106.9 650.9 105.3 654.8C103.7 658.7 101.6 662.5 99.0996 666.1L83.2996 657.2C85.0996 654.8 86.5996 652.1 87.9996 649.3C89.3996 646.5 90.3996 643.6 91.0996 640.7C91.7996 637.8 92.1996 635.2 92.1996 632.7C92.1996 630.3 91.8996 627.8 91.1996 625.4C90.4996 622.9 89.2996 620.9 87.5996 619.3C85.8996 617.7 83.5996 616.9 80.5996 616.9C78.5996 616.9 76.6996 617.6 74.9996 618.9C73.2996 620.3 71.7996 622.1 70.3996 624.3C68.9996 626.6 67.7996 629.1 66.7996 631.8C65.5996 635 64.1996 638.2 62.5996 641.6C60.9996 645 59.0996 648.1 56.7996 651C54.4996 653.9 51.6996 656.3 48.2996 658.1C44.8996 659.9 40.6996 660.8 35.7996 660.8C29.7996 660.8 24.6996 659.5 20.2996 656.8C15.8996 654.1 12.4996 650.4 9.89961 645.6C7.29961 640.8 5.89961 635.2 5.59961 628.8C5.59961 620.5 6.59961 613.8 8.49961 608.6C10.4996 603.4 12.7996 598.8 15.4996 594.7L30.9996 602.5Z" stroke="#0A00FF" stroke-width="2" stroke-miterlimit="10"/>
<path d="M153 602.5C150.9 606.4 149.1 610.4 147.7 614.4C146.3 618.5 145.6 622.2 145.6 625.8C145.6 630.2 146.5 633.6 148.3 636.1C150.1 638.6 152.7 639.9 156.3 639.9C158.7 639.9 160.9 638.9 162.8 637C164.7 635.1 166.4 632.6 167.9 629.6C169.4 626.6 170.7 623.4 172 620.2C173.1 617.2 174.4 614.3 176 611.3C177.5 608.4 179.4 605.7 181.7 603.4C184 601.1 186.8 599.2 190.2 597.8C193.6 596.4 197.8 595.7 202.7 595.7C207.9 595.7 212.8 597.1 217.2 599.8C221.7 602.5 225.3 606.5 228 611.7C230.7 616.9 232.1 623.3 232.1 631C232.1 634.9 231.7 638.9 230.9 642.9C230.1 647 228.9 650.9 227.3 654.8C225.7 658.7 223.6 662.5 221.1 666.1L205.3 657.2C207.1 654.8 208.6 652.1 210 649.3C211.4 646.5 212.4 643.6 213.1 640.7C213.8 637.8 214.2 635.2 214.2 632.7C214.2 630.3 213.9 627.8 213.2 625.4C212.5 622.9 211.3 620.9 209.6 619.3C207.9 617.7 205.6 616.9 202.6 616.9C200.6 616.9 198.7 617.6 197 618.9C195.3 620.3 193.8 622.1 192.4 624.3C191 626.6 189.8 629.1 188.8 631.8C187.6 635 186.2 638.2 184.6 641.6C183 645 181.1 648.1 178.8 651C176.5 653.9 173.7 656.3 170.3 658.1C166.9 659.9 162.7 660.8 157.8 660.8C151.8 660.8 146.7 659.5 142.3 656.8C137.9 654.1 134.5 650.4 131.9 645.6C129.3 640.8 127.9 635.2 127.6 628.8C127.6 620.5 128.6 613.8 130.5 608.6C132.5 603.4 134.8 598.8 137.5 594.7L153 602.5Z" stroke="#0A00FF" stroke-width="2" stroke-miterlimit="10"/>
<path d="M274.9 602.5C272.8 606.4 271 610.4 269.6 614.4C268.2 618.5 267.5 622.2 267.5 625.8C267.5 630.2 268.4 633.6 270.2 636.1C272 638.6 274.6 639.9 278.2 639.9C280.6 639.9 282.8 638.9 284.7 637C286.6 635.1 288.3 632.6 289.8 629.6C291.3 626.6 292.6 623.4 293.9 620.2C295 617.2 296.3 614.3 297.9 611.3C299.4 608.4 301.3 605.7 303.6 603.4C305.9 601.1 308.7 599.2 312.1 597.8C315.5 596.4 319.7 595.7 324.6 595.7C329.8 595.7 334.7 597.1 339.1 599.8C343.6 602.5 347.2 606.5 349.9 611.7C352.6 616.9 354 623.3 354 631C354 634.9 353.6 638.9 352.8 642.9C352 647 350.8 650.9 349.2 654.8C347.6 658.7 345.5 662.5 343 666.1L327.2 657.2C329 654.8 330.5 652.1 331.9 649.3C333.3 646.5 334.3 643.6 335 640.7C335.7 637.8 336.1 635.2 336.1 632.7C336.1 630.3 335.8 627.8 335.1 625.4C334.4 622.9 333.2 620.9 331.5 619.3C329.8 617.7 327.5 616.9 324.5 616.9C322.5 616.9 320.6 617.6 318.9 618.9C317.2 620.3 315.7 622.1 314.3 624.3C312.9 626.6 311.7 629.1 310.7 631.8C309.5 635 308.1 638.2 306.5 641.6C304.9 645 303 648.1 300.7 651C298.4 653.9 295.6 656.3 292.2 658.1C288.8 659.9 284.6 660.8 279.7 660.8C273.7 660.8 268.6 659.5 264.2 656.8C259.8 654.1 256.4 650.4 253.8 645.6C251.2 640.8 249.8 635.2 249.5 628.8C249.5 620.5 250.5 613.8 252.4 608.6C254.4 603.4 256.7 598.8 259.4 594.7L274.9 602.5Z" stroke="#0A00FF" stroke-width="2" stroke-miterlimit="10"/>
<path d="M30.9996 684.4C28.8996 688.3 27.0996 692.3 25.6996 696.3C24.2996 700.4 23.5996 704.1 23.5996 707.7C23.5996 712.1 24.4996 715.5 26.2996 718C28.0996 720.5 30.6996 721.8 34.2996 721.8C36.6996 721.8 38.8996 720.8 40.7996 718.9C42.6996 717 44.3996 714.5 45.8996 711.5C47.3996 708.5 48.6996 705.3 49.9996 702.1C51.0996 699.1 52.3996 696.2 53.9996 693.2C55.4996 690.3 57.3996 687.6 59.6996 685.3C61.9996 683 64.7996 681.1 68.1996 679.7C71.5996 678.3 75.7996 677.6 80.6996 677.6C85.8996 677.6 90.7996 679 95.1996 681.7C99.6996 684.4 103.3 688.4 106 693.6C108.7 698.8 110.1 705.2 110.1 712.9C110.1 716.8 109.7 720.8 108.9 724.8C108.1 728.9 106.9 732.8 105.3 736.7C103.7 740.6 101.6 744.4 99.0996 748L83.2996 739.1C85.0996 736.7 86.5996 734 87.9996 731.2C89.3996 728.4 90.3996 725.5 91.0996 722.6C91.7996 719.7 92.1996 717.1 92.1996 714.6C92.1996 712.2 91.8996 709.7 91.1996 707.3C90.4996 704.8 89.2996 702.8 87.5996 701.2C85.8996 699.6 83.5996 698.8 80.5996 698.8C78.5996 698.8 76.6996 699.5 74.9996 700.8C73.2996 702.2 71.7996 704 70.3996 706.2C68.9996 708.5 67.7996 711 66.7996 713.7C65.5996 716.9 64.1996 720.1 62.5996 723.5C60.9996 726.9 59.0996 730 56.7996 732.9C54.4996 735.8 51.6996 738.2 48.2996 740C44.8996 741.8 40.6996 742.7 35.7996 742.7C29.7996 742.7 24.6996 741.4 20.2996 738.7C15.8996 736 12.4996 732.3 9.89961 727.5C7.29961 722.7 5.89961 717.1 5.59961 710.7C5.59961 702.4 6.59961 695.7 8.49961 690.5C10.4996 685.3 12.7996 680.7 15.4996 676.6L30.9996 684.4Z" stroke="#0A00FF" stroke-width="2" stroke-miterlimit="10"/>
<path d="M153 684.4C150.9 688.3 149.1 692.3 147.7 696.3C146.3 700.4 145.6 704.1 145.6 707.7C145.6 712.1 146.5 715.5 148.3 718C150.1 720.5 152.7 721.8 156.3 721.8C158.7 721.8 160.9 720.8 162.8 718.9C164.7 717 166.4 714.5 167.9 711.5C169.4 708.5 170.7 705.3 172 702.1C173.1 699.1 174.4 696.2 176 693.2C177.5 690.3 179.4 687.6 181.7 685.3C184 683 186.8 681.1 190.2 679.7C193.6 678.3 197.8 677.6 202.7 677.6C207.9 677.6 212.8 679 217.2 681.7C221.7 684.4 225.3 688.4 228 693.6C230.7 698.8 232.1 705.2 232.1 712.9C232.1 716.8 231.7 720.8 230.9 724.8C230.1 728.9 228.9 732.8 227.3 736.7C225.7 740.6 223.6 744.4 221.1 748L205.3 739.1C207.1 736.7 208.6 734 210 731.2C211.4 728.4 212.4 725.5 213.1 722.6C213.8 719.7 214.2 717.1 214.2 714.6C214.2 712.2 213.9 709.7 213.2 707.3C212.5 704.8 211.3 702.8 209.6 701.2C207.9 699.6 205.6 698.8 202.6 698.8C200.6 698.8 198.7 699.5 197 700.8C195.3 702.2 193.8 704 192.4 706.2C191 708.5 189.8 711 188.8 713.7C187.6 716.9 186.2 720.1 184.6 723.5C183 726.9 181.1 730 178.8 732.9C176.5 735.8 173.7 738.2 170.3 740C166.9 741.8 162.7 742.7 157.8 742.7C151.8 742.7 146.7 741.4 142.3 738.7C137.9 736 134.5 732.3 131.9 727.5C129.3 722.7 127.9 717.1 127.6 710.7C127.6 702.4 128.6 695.7 130.5 690.5C132.5 685.3 134.8 680.7 137.5 676.6L153 684.4Z" stroke="#0A00FF" stroke-width="2" stroke-miterlimit="10"/>
<path d="M274.9 684.4C272.8 688.3 271 692.3 269.6 696.3C268.2 700.4 267.5 704.1 267.5 707.7C267.5 712.1 268.4 715.5 270.2 718C272 720.5 274.6 721.8 278.2 721.8C280.6 721.8 282.8 720.8 284.7 718.9C286.6 717 288.3 714.5 289.8 711.5C291.3 708.5 292.6 705.3 293.9 702.1C295 699.1 296.3 696.2 297.9 693.2C299.4 690.3 301.3 687.6 303.6 685.3C305.9 683 308.7 681.1 312.1 679.7C315.5 678.3 319.7 677.6 324.6 677.6C329.8 677.6 334.7 679 339.1 681.7C343.6 684.4 347.2 688.4 349.9 693.6C352.6 698.8 354 705.2 354 712.9C354 716.8 353.6 720.8 352.8 724.8C352 728.9 350.8 732.8 349.2 736.7C347.6 740.6 345.5 744.4 343 748L327.2 739.1C329 736.7 330.5 734 331.9 731.2C333.3 728.4 334.3 725.5 335 722.6C335.7 719.7 336.1 717.1 336.1 714.6C336.1 712.2 335.8 709.7 335.1 707.3C334.4 704.8 333.2 702.8 331.5 701.2C329.8 699.6 327.5 698.8 324.5 698.8C322.5 698.8 320.6 699.5 318.9 700.8C317.2 702.2 315.7 704 314.3 706.2C312.9 708.5 311.7 711 310.7 713.7C309.5 716.9 308.1 720.1 306.5 723.5C304.9 726.9 303 730 300.7 732.9C298.4 735.8 295.6 738.2 292.2 740C288.8 741.8 284.6 742.7 279.7 742.7C273.7 742.7 268.6 741.4 264.2 738.7C259.8 736 256.4 732.3 253.8 727.5C251.2 722.7 249.8 717.1 249.5 710.7C249.5 702.4 250.5 695.7 252.4 690.5C254.4 685.3 256.7 680.7 259.4 676.6L274.9 684.4Z" stroke="#0A00FF" stroke-width="2" stroke-miterlimit="10"/>
<path d="M28.5 0.5C27.4 3.1 26.3 5.8 25.2 8.3C24.1 10.9 23 13.5 21.9 16.1H13.5C14.5 13.5 15.5 10.8 16.5 8.3C17.5 5.8 18.5 3.1 19.5 0.5H28.5V0.5Z" stroke="#0A00FF" stroke-width="2" stroke-miterlimit="10"/>
<path d="M71.7998 0.5C70.6998 3.1 69.5998 5.8 68.4998 8.3C67.3998 10.9 66.2998 13.5 65.1998 16.1H56.7998C57.7998 13.5 58.7998 10.8 59.7998 8.3C60.7998 5.8 61.7998 3.1 62.7998 0.5H71.7998V0.5Z" stroke="#0A00FF" stroke-width="2" stroke-miterlimit="10"/>
<path d="M115.1 0.5C114 3.1 112.9 5.8 111.8 8.3C110.7 10.9 109.6 13.5 108.5 16.1H100.1C101.1 13.5 102.1 10.8 103.1 8.3C104.1 5.8 105.1 3.1 106.1 0.5H115.1V0.5Z" stroke="#0A00FF" stroke-width="2" stroke-miterlimit="10"/>
<path d="M158.4 0.5C157.3 3.1 156.2 5.8 155.1 8.3C154 10.9 152.9 13.5 151.8 16.1H143.4C144.4 13.5 145.4 10.8 146.4 8.3C147.4 5.7 148.4 3.1 149.4 0.5H158.4V0.5Z" stroke="#0A00FF" stroke-width="2" stroke-miterlimit="10"/>
<path d="M201.7 0.5C200.6 3.1 199.5 5.8 198.4 8.3C197.3 10.9 196.2 13.5 195.1 16.1H186.7C187.7 13.5 188.7 10.8 189.7 8.3C190.7 5.7 191.7 3.1 192.7 0.5H201.7V0.5Z" stroke="#0A00FF" stroke-width="2" stroke-miterlimit="10"/>
<path d="M245 0.5C243.9 3.1 242.8 5.8 241.7 8.3C240.6 10.9 239.5 13.5 238.4 16.1H230C231 13.5 232 10.8 233 8.3C234 5.7 235 3.1 236 0.5H245V0.5Z" stroke="#0A00FF" stroke-width="2" stroke-miterlimit="10"/>
<path d="M288.3 0.5C287.2 3.1 286.1 5.8 285 8.3C283.9 10.9 282.8 13.5 281.7 16.1H273.3C274.3 13.5 275.3 10.8 276.3 8.3C277.3 5.7 278.3 3.1 279.3 0.5H288.3V0.5Z" stroke="#0A00FF" stroke-width="2" stroke-miterlimit="10"/>
<path d="M331.6 0.5C330.5 3.1 329.4 5.8 328.3 8.3C327.2 10.9 326.1 13.5 325 16.1H316.6C317.6 13.5 318.6 10.8 319.6 8.3C320.6 5.8 321.6 3.1 322.6 0.5H331.6V0.5Z" stroke="#0A00FF" stroke-width="2" stroke-miterlimit="10"/>
<path d="M45.5 25.3999C44.4 27.9999 43.3 30.6999 42.2 33.1999C41.1 35.7999 40 38.3999 38.9 40.9999H30.5C31.5 38.3999 32.5 35.6999 33.5 33.1999C34.5 30.6999 35.5 27.9999 36.5 25.3999H45.5V25.3999Z" stroke="#0A00FF" stroke-width="2" stroke-miterlimit="10"/>
<path d="M88.7998 25.3999C87.6998 27.9999 86.5998 30.6999 85.4998 33.1999C84.3998 35.7999 83.2998 38.3999 82.1998 40.9999H73.7998C74.7998 38.3999 75.7998 35.6999 76.7998 33.1999C77.7998 30.6999 78.7998 27.9999 79.7998 25.3999H88.7998V25.3999Z" stroke="#0A00FF" stroke-width="2" stroke-miterlimit="10"/>
<path d="M132.1 25.3999C131 27.9999 129.9 30.6999 128.8 33.1999C127.7 35.7999 126.6 38.3999 125.5 40.9999H117.1C118.1 38.3999 119.1 35.6999 120.1 33.1999C121.1 30.6999 122.1 27.9999 123.1 25.3999H132.1V25.3999Z" stroke="#0A00FF" stroke-width="2" stroke-miterlimit="10"/>
<path d="M175.4 25.3999C174.3 27.9999 173.2 30.6999 172.1 33.1999C171 35.7999 169.9 38.3999 168.8 40.9999H160.4C161.4 38.3999 162.4 35.6999 163.4 33.1999C164.4 30.5999 165.4 27.9999 166.4 25.3999H175.4V25.3999Z" stroke="#0A00FF" stroke-width="2" stroke-miterlimit="10"/>
<path d="M218.7 25.3999C217.6 27.9999 216.5 30.6999 215.4 33.1999C214.3 35.7999 213.2 38.3999 212.1 40.9999H203.7C204.7 38.3999 205.7 35.6999 206.7 33.1999C207.7 30.5999 208.7 27.9999 209.7 25.3999H218.7V25.3999Z" stroke="#0A00FF" stroke-width="2" stroke-miterlimit="10"/>
<path d="M261.9 25.3999C260.8 27.9999 259.7 30.6999 258.6 33.1999C257.5 35.7999 256.4 38.3999 255.3 40.9999H247C248 38.3999 249 35.6999 250 33.1999C251 30.5999 252 27.9999 253 25.3999H261.9V25.3999Z" stroke="#0A00FF" stroke-width="2" stroke-miterlimit="10"/>
<path d="M305.2 25.3999C304.1 27.9999 303 30.6999 301.9 33.1999C300.8 35.7999 299.7 38.3999 298.6 40.9999H290.2C291.2 38.3999 292.2 35.6999 293.2 33.1999C294.2 30.5999 295.2 27.9999 296.2 25.3999H305.2V25.3999Z" stroke="#0A00FF" stroke-width="2" stroke-miterlimit="10"/>
<path d="M348.5 25.3999C347.4 27.9999 346.3 30.6999 345.2 33.1999C344.1 35.7999 343 38.3999 341.9 40.9999H333.5C334.5 38.3999 335.5 35.6999 336.5 33.1999C337.5 30.6999 338.5 27.9999 339.5 25.3999H348.5V25.3999Z" stroke="#0A00FF" stroke-width="2" stroke-miterlimit="10"/>
<path d="M28.5 51.3999C27.4 53.9999 26.3 56.6999 25.2 59.1999C24.1 61.7999 23 64.3999 21.9 66.9999H13.5C14.5 64.3999 15.5 61.6999 16.5 59.1999C17.5 56.6999 18.5 53.9999 19.5 51.3999H28.5V51.3999Z" stroke="#0A00FF" stroke-width="2" stroke-miterlimit="10"/>
<path d="M71.7998 51.3999C70.6998 53.9999 69.5998 56.6999 68.4998 59.1999C67.3998 61.7999 66.2998 64.3999 65.1998 66.9999H56.7998C57.7998 64.3999 58.7998 61.6999 59.7998 59.1999C60.7998 56.6999 61.7998 53.9999 62.7998 51.3999H71.7998V51.3999Z" stroke="#0A00FF" stroke-width="2" stroke-miterlimit="10"/>
<path d="M115.1 51.3999C114 53.9999 112.9 56.6999 111.8 59.1999C110.7 61.7999 109.6 64.3999 108.5 66.9999H100.1C101.1 64.3999 102.1 61.6999 103.1 59.1999C104.1 56.6999 105.1 53.9999 106.1 51.3999H115.1V51.3999Z" stroke="#0A00FF" stroke-width="2" stroke-miterlimit="10"/>
<path d="M158.4 51.3999C157.3 53.9999 156.2 56.6999 155.1 59.1999C154 61.7999 152.9 64.3999 151.8 66.9999H143.4C144.4 64.3999 145.4 61.6999 146.4 59.1999C147.4 56.5999 148.4 53.9999 149.4 51.3999H158.4V51.3999Z" stroke="#0A00FF" stroke-width="2" stroke-miterlimit="10"/>
<path d="M201.7 51.3999C200.6 53.9999 199.5 56.6999 198.4 59.1999C197.3 61.7999 196.2 64.3999 195.1 66.9999H186.7C187.7 64.3999 188.7 61.6999 189.7 59.1999C190.7 56.5999 191.7 53.9999 192.7 51.3999H201.7V51.3999Z" stroke="#0A00FF" stroke-width="2" stroke-miterlimit="10"/>
<path d="M245 51.3999C243.9 53.9999 242.8 56.6999 241.7 59.1999C240.6 61.7999 239.5 64.3999 238.4 66.9999H230C231 64.3999 232 61.6999 233 59.1999C234 56.5999 235 53.9999 236 51.3999H245V51.3999Z" stroke="#0A00FF" stroke-width="2" stroke-miterlimit="10"/>
<path d="M288.3 51.3999C287.2 53.9999 286.1 56.6999 285 59.1999C283.9 61.7999 282.8 64.3999 281.7 66.9999H273.3C274.3 64.3999 275.3 61.6999 276.3 59.1999C277.3 56.5999 278.3 53.9999 279.3 51.3999H288.3V51.3999Z" stroke="#0A00FF" stroke-width="2" stroke-miterlimit="10"/>
<path d="M331.6 51.3999C330.5 53.9999 329.4 56.6999 328.3 59.1999C327.2 61.7999 326.1 64.3999 325 66.9999H316.6C317.6 64.3999 318.6 61.6999 319.6 59.1999C320.6 56.6999 321.6 53.9999 322.6 51.3999H331.6V51.3999Z" stroke="#0A00FF" stroke-width="2" stroke-miterlimit="10"/>
<path d="M45.5 76.2998C44.4 78.8998 43.3 81.5998 42.2 84.0998C41.1 86.6998 40 89.2998 38.9 91.8998H30.5C31.5 89.2998 32.5 86.5998 33.5 84.0998C34.5 81.5998 35.5 78.8998 36.5 76.2998H45.5Z" stroke="#0A00FF" stroke-width="2" stroke-miterlimit="10"/>
<path d="M88.7998 76.2998C87.6998 78.8998 86.5998 81.5998 85.4998 84.0998C84.3998 86.6998 83.2998 89.2998 82.1998 91.8998H73.7998C74.7998 89.2998 75.7998 86.5998 76.7998 84.0998C77.7998 81.5998 78.7998 78.8998 79.7998 76.2998H88.7998Z" stroke="#0A00FF" stroke-width="2" stroke-miterlimit="10"/>
<path d="M132.1 76.2998C131 78.8998 129.9 81.5998 128.8 84.0998C127.7 86.6998 126.6 89.2998 125.5 91.8998H117.1C118.1 89.2998 119.1 86.5998 120.1 84.0998C121.1 81.5998 122.1 78.8998 123.1 76.2998H132.1Z" stroke="#0A00FF" stroke-width="2" stroke-miterlimit="10"/>
<path d="M175.4 76.2998C174.3 78.8998 173.2 81.5998 172.1 84.0998C171 86.6998 169.9 89.2998 168.8 91.8998H160.4C161.4 89.2998 162.4 86.5998 163.4 84.0998C164.4 81.4998 165.4 78.8998 166.4 76.2998H175.4Z" stroke="#0A00FF" stroke-width="2" stroke-miterlimit="10"/>
<path d="M218.7 76.2998C217.6 78.8998 216.5 81.5998 215.4 84.0998C214.3 86.6998 213.2 89.2998 212.1 91.8998H203.7C204.7 89.2998 205.7 86.5998 206.7 84.0998C207.7 81.4998 208.7 78.8998 209.7 76.2998H218.7Z" stroke="#0A00FF" stroke-width="2" stroke-miterlimit="10"/>
<path d="M261.9 76.2998C260.8 78.8998 259.7 81.5998 258.6 84.0998C257.5 86.6998 256.4 89.2998 255.3 91.8998H247C248 89.2998 249 86.5998 250 84.0998C251 81.4998 252 78.8998 253 76.2998H261.9Z" stroke="#0A00FF" stroke-width="2" stroke-miterlimit="10"/>
<path d="M305.2 76.2998C304.1 78.8998 303 81.5998 301.9 84.0998C300.8 86.6998 299.7 89.2998 298.6 91.8998H290.2C291.2 89.2998 292.2 86.5998 293.2 84.0998C294.2 81.4998 295.2 78.8998 296.2 76.2998H305.2Z" stroke="#0A00FF" stroke-width="2" stroke-miterlimit="10"/>
<path d="M348.5 76.2998C347.4 78.8998 346.3 81.5998 345.2 84.0998C344.1 86.6998 343 89.2998 341.9 91.8998H333.5C334.5 89.2998 335.5 86.5998 336.5 84.0998C337.5 81.5998 338.5 78.8998 339.5 76.2998H348.5Z" stroke="#0A00FF" stroke-width="2" stroke-miterlimit="10"/>
<path d="M28.5 102.4C27.4 105 26.3 107.7 25.2 110.2C24.1 112.8 23 115.4 21.9 118H13.5C14.5 115.4 15.5 112.7 16.5 110.2C17.5 107.7 18.5 105 19.5 102.4H28.5Z" stroke="#0A00FF" stroke-width="2" stroke-miterlimit="10"/>
<path d="M71.7998 102.4C70.6998 105 69.5998 107.7 68.4998 110.2C67.3998 112.8 66.2998 115.4 65.1998 118H56.7998C57.7998 115.4 58.7998 112.7 59.7998 110.2C60.7998 107.7 61.7998 105 62.7998 102.4H71.7998Z" stroke="#0A00FF" stroke-width="2" stroke-miterlimit="10"/>
<path d="M115.1 102.4C114 105 112.9 107.7 111.8 110.2C110.7 112.8 109.6 115.4 108.5 118H100.1C101.1 115.4 102.1 112.7 103.1 110.2C104.1 107.7 105.1 105 106.1 102.4H115.1Z" stroke="#0A00FF" stroke-width="2" stroke-miterlimit="10"/>
<path d="M158.4 102.4C157.3 105 156.2 107.7 155.1 110.2C154 112.8 152.9 115.4 151.8 118H143.4C144.4 115.4 145.4 112.7 146.4 110.2C147.4 107.6 148.4 105 149.4 102.4H158.4Z" stroke="#0A00FF" stroke-width="2" stroke-miterlimit="10"/>
<path d="M201.7 102.4C200.6 105 199.5 107.7 198.4 110.2C197.3 112.8 196.2 115.4 195.1 118H186.7C187.7 115.4 188.7 112.7 189.7 110.2C190.7 107.6 191.7 105 192.7 102.4H201.7Z" stroke="#0A00FF" stroke-width="2" stroke-miterlimit="10"/>
<path d="M245 102.4C243.9 105 242.8 107.7 241.7 110.2C240.6 112.8 239.5 115.4 238.4 118H230C231 115.4 232 112.7 233 110.2C234 107.6 235 105 236 102.4H245Z" stroke="#0A00FF" stroke-width="2" stroke-miterlimit="10"/>
<path d="M288.3 102.4C287.2 105 286.1 107.7 285 110.2C283.9 112.8 282.8 115.4 281.7 118H273.3C274.3 115.4 275.3 112.7 276.3 110.2C277.3 107.6 278.3 105 279.3 102.4H288.3Z" stroke="#0A00FF" stroke-width="2" stroke-miterlimit="10"/>
<path d="M331.6 102.4C330.5 105 329.4 107.7 328.3 110.2C327.2 112.8 326.1 115.4 325 118H316.6C317.6 115.4 318.6 112.7 319.6 110.2C320.6 107.7 321.6 105 322.6 102.4H331.6Z" stroke="#0A00FF" stroke-width="2" stroke-miterlimit="10"/>
<path d="M45.5 127.3C44.4 129.9 43.3 132.6 42.2 135.1C41.1 137.7 40 140.3 38.9 142.9H30.5C31.5 140.3 32.5 137.6 33.5 135.1C34.5 132.6 35.5 129.9 36.5 127.3H45.5Z" stroke="#0A00FF" stroke-width="2" stroke-miterlimit="10"/>
<path d="M88.7998 127.3C87.6998 129.9 86.5998 132.6 85.4998 135.1C84.3998 137.7 83.2998 140.3 82.1998 142.9H73.7998C74.7998 140.3 75.7998 137.6 76.7998 135.1C77.7998 132.6 78.7998 129.9 79.7998 127.3H88.7998Z" stroke="#0A00FF" stroke-width="2" stroke-miterlimit="10"/>
<path d="M132.1 127.3C131 129.9 129.9 132.6 128.8 135.1C127.7 137.7 126.6 140.3 125.5 142.9H117.1C118.1 140.3 119.1 137.6 120.1 135.1C121.1 132.6 122.1 129.9 123.1 127.3H132.1Z" stroke="#0A00FF" stroke-width="2" stroke-miterlimit="10"/>
<path d="M175.4 127.3C174.3 129.9 173.2 132.6 172.1 135.1C171 137.7 169.9 140.3 168.8 142.9H160.4C161.4 140.3 162.4 137.6 163.4 135.1C164.4 132.5 165.4 129.9 166.4 127.3H175.4Z" stroke="#0A00FF" stroke-width="2" stroke-miterlimit="10"/>
<path d="M218.7 127.3C217.6 129.9 216.5 132.6 215.4 135.1C214.3 137.7 213.2 140.3 212.1 142.9H203.7C204.7 140.3 205.7 137.6 206.7 135.1C207.7 132.5 208.7 129.9 209.7 127.3H218.7Z" stroke="#0A00FF" stroke-width="2" stroke-miterlimit="10"/>
<path d="M261.9 127.3C260.8 129.9 259.7 132.6 258.6 135.1C257.5 137.7 256.4 140.3 255.3 142.9H247C248 140.3 249 137.6 250 135.1C251 132.5 252 129.9 253 127.3H261.9Z" stroke="#0A00FF" stroke-width="2" stroke-miterlimit="10"/>
<path d="M305.2 127.3C304.1 129.9 303 132.6 301.9 135.1C300.8 137.7 299.7 140.3 298.6 142.9H290.2C291.2 140.3 292.2 137.6 293.2 135.1C294.2 132.5 295.2 129.9 296.2 127.3H305.2Z" stroke="#0A00FF" stroke-width="2" stroke-miterlimit="10"/>
<path d="M348.5 127.3C347.4 129.9 346.3 132.6 345.2 135.1C344.1 137.7 343 140.3 341.9 142.9H333.5C334.5 140.3 335.5 137.6 336.5 135.1C337.5 132.6 338.5 129.9 339.5 127.3H348.5Z" stroke="#0A00FF" stroke-width="2" stroke-miterlimit="10"/>
<path d="M28.5 153.3C27.4 155.9 26.3 158.6 25.2 161.1C24.1 163.7 23 166.3 21.9 168.9H13.5C14.5 166.3 15.5 163.6 16.5 161.1C17.5 158.5 18.5 155.9 19.5 153.3H28.5Z" stroke="#0A00FF" stroke-width="2" stroke-miterlimit="10"/>
<path d="M71.7998 153.3C70.6998 155.9 69.5998 158.6 68.4998 161.1C67.3998 163.7 66.2998 166.3 65.1998 168.9H56.7998C57.7998 166.3 58.7998 163.6 59.7998 161.1C60.7998 158.5 61.7998 155.9 62.7998 153.3H71.7998Z" stroke="#0A00FF" stroke-width="2" stroke-miterlimit="10"/>
<path d="M115.1 153.3C114 155.9 112.9 158.6 111.8 161.1C110.7 163.7 109.6 166.3 108.5 168.9H100.1C101.1 166.3 102.1 163.6 103.1 161.1C104.1 158.5 105.1 155.9 106.1 153.3H115.1Z" stroke="#0A00FF" stroke-width="2" stroke-miterlimit="10"/>
<path d="M158.4 153.3C157.3 155.9 156.2 158.6 155.1 161.1C154 163.7 152.9 166.3 151.8 168.9H143.4C144.4 166.3 145.4 163.6 146.4 161.1C147.4 158.5 148.4 155.9 149.4 153.3H158.4Z" stroke="#0A00FF" stroke-width="2" stroke-miterlimit="10"/>
<path d="M201.7 153.3C200.6 155.9 199.5 158.6 198.4 161.1C197.3 163.7 196.2 166.3 195.1 168.9H186.7C187.7 166.3 188.7 163.6 189.7 161.1C190.7 158.5 191.7 155.9 192.7 153.3H201.7Z" stroke="#0A00FF" stroke-width="2" stroke-miterlimit="10"/>
<path d="M245 153.3C243.9 155.9 242.8 158.6 241.7 161.1C240.6 163.7 239.5 166.3 238.4 168.9H230C231 166.3 232 163.6 233 161.1C234 158.5 235 155.9 236 153.3H245Z" stroke="#0A00FF" stroke-width="2" stroke-miterlimit="10"/>
<path d="M288.3 153.3C287.2 155.9 286.1 158.6 285 161.1C283.9 163.7 282.8 166.3 281.7 168.9H273.3C274.3 166.3 275.3 163.6 276.3 161.1C277.3 158.5 278.3 155.9 279.3 153.3H288.3Z" stroke="#0A00FF" stroke-width="2" stroke-miterlimit="10"/>
<path d="M331.6 153.3C330.5 155.9 329.4 158.6 328.3 161.1C327.2 163.7 326.1 166.3 325 168.9H316.6C317.6 166.3 318.6 163.6 319.6 161.1C320.6 158.5 321.6 155.9 322.6 153.3H331.6Z" stroke="#0A00FF" stroke-width="2" stroke-miterlimit="10"/>
<path d="M45.5 178.2C44.4 180.8 43.3 183.5 42.2 186C41.1 188.6 40 191.2 38.9 193.8H30.5C31.5 191.2 32.5 188.5 33.5 186C34.5 183.5 35.5 180.8 36.5 178.2H45.5Z" stroke="#0A00FF" stroke-width="2" stroke-miterlimit="10"/>
<path d="M88.7998 178.2C87.6998 180.8 86.5998 183.5 85.4998 186C84.3998 188.6 83.2998 191.2 82.1998 193.8H73.7998C74.7998 191.2 75.7998 188.5 76.7998 186C77.7998 183.5 78.7998 180.8 79.7998 178.2H88.7998Z" stroke="#0A00FF" stroke-width="2" stroke-miterlimit="10"/>
<path d="M132.1 178.2C131 180.8 129.9 183.5 128.8 186C127.7 188.6 126.6 191.2 125.5 193.8H117.1C118.1 191.2 119.1 188.5 120.1 186C121.1 183.5 122.1 180.8 123.1 178.2H132.1Z" stroke="#0A00FF" stroke-width="2" stroke-miterlimit="10"/>
<path d="M175.4 178.2C174.3 180.8 173.2 183.5 172.1 186C171 188.6 169.9 191.2 168.8 193.8H160.4C161.4 191.2 162.4 188.5 163.4 186C164.4 183.4 165.4 180.8 166.4 178.2H175.4Z" stroke="#0A00FF" stroke-width="2" stroke-miterlimit="10"/>
<path d="M218.7 178.2C217.6 180.8 216.5 183.5 215.4 186C214.3 188.6 213.2 191.2 212.1 193.8H203.7C204.7 191.2 205.7 188.5 206.7 186C207.7 183.4 208.7 180.8 209.7 178.2H218.7Z" stroke="#0A00FF" stroke-width="2" stroke-miterlimit="10"/>
<path d="M261.9 178.2C260.8 180.8 259.7 183.5 258.6 186C257.5 188.6 256.4 191.2 255.3 193.8H247C248 191.2 249 188.5 250 186C251 183.4 252 180.8 253 178.2H261.9Z" stroke="#0A00FF" stroke-width="2" stroke-miterlimit="10"/>
<path d="M305.2 178.2C304.1 180.8 303 183.5 301.9 186C300.8 188.6 299.7 191.2 298.6 193.8H290.2C291.2 191.2 292.2 188.5 293.2 186C294.2 183.4 295.2 180.8 296.2 178.2H305.2Z" stroke="#0A00FF" stroke-width="2" stroke-miterlimit="10"/>
<path d="M348.5 178.2C347.4 180.8 346.3 183.5 345.2 186C344.1 188.6 343 191.2 341.9 193.8H333.5C334.5 191.2 335.5 188.5 336.5 186C337.5 183.5 338.5 180.8 339.5 178.2H348.5Z" stroke="#0A00FF" stroke-width="2" stroke-miterlimit="10"/>
<path d="M28.5 204.3C27.4 206.9 26.3 209.6 25.2 212.1C24.1 214.7 23 217.3 21.9 219.9H13.5C14.5 217.3 15.5 214.6 16.5 212.1C17.5 209.5 18.5 206.9 19.5 204.3H28.5Z" stroke="#0A00FF" stroke-width="2" stroke-miterlimit="10"/>
<path d="M71.7998 204.3C70.6998 206.9 69.5998 209.6 68.4998 212.1C67.3998 214.7 66.2998 217.3 65.1998 219.9H56.7998C57.7998 217.3 58.7998 214.6 59.7998 212.1C60.7998 209.5 61.7998 206.9 62.7998 204.3H71.7998Z" stroke="#0A00FF" stroke-width="2" stroke-miterlimit="10"/>
<path d="M115.1 204.3C114 206.9 112.9 209.6 111.8 212.1C110.7 214.7 109.6 217.3 108.5 219.9H100.1C101.1 217.3 102.1 214.6 103.1 212.1C104.1 209.5 105.1 206.9 106.1 204.3H115.1Z" stroke="#0A00FF" stroke-width="2" stroke-miterlimit="10"/>
<path d="M158.4 204.3C157.3 206.9 156.2 209.6 155.1 212.1C154 214.7 152.9 217.3 151.8 219.9H143.4C144.4 217.3 145.4 214.6 146.4 212.1C147.4 209.5 148.4 206.9 149.4 204.3H158.4Z" stroke="#0A00FF" stroke-width="2" stroke-miterlimit="10"/>
<path d="M201.7 204.3C200.6 206.9 199.5 209.6 198.4 212.1C197.3 214.7 196.2 217.3 195.1 219.9H186.7C187.7 217.3 188.7 214.6 189.7 212.1C190.7 209.5 191.7 206.9 192.7 204.3H201.7Z" stroke="#0A00FF" stroke-width="2" stroke-miterlimit="10"/>
<path d="M245 204.3C243.9 206.9 242.8 209.6 241.7 212.1C240.6 214.7 239.5 217.3 238.4 219.9H230C231 217.3 232 214.6 233 212.1C234 209.5 235 206.9 236 204.3H245Z" stroke="#0A00FF" stroke-width="2" stroke-miterlimit="10"/>
<path d="M288.3 204.3C287.2 206.9 286.1 209.6 285 212.1C283.9 214.7 282.8 217.3 281.7 219.9H273.3C274.3 217.3 275.3 214.6 276.3 212.1C277.3 209.5 278.3 206.9 279.3 204.3H288.3Z" stroke="#0A00FF" stroke-width="2" stroke-miterlimit="10"/>
<path d="M331.6 204.3C330.5 206.9 329.4 209.6 328.3 212.1C327.2 214.7 326.1 217.3 325 219.9H316.6C317.6 217.3 318.6 214.6 319.6 212.1C320.6 209.5 321.6 206.9 322.6 204.3H331.6Z" stroke="#0A00FF" stroke-width="2" stroke-miterlimit="10"/>
<path d="M45.5 229.1C44.4 231.7 43.3 234.4 42.2 236.9C41.1 239.5 40 242.1 38.9 244.7H30.5C31.5 242.1 32.5 239.4 33.5 236.9C34.5 234.4 35.5 231.7 36.5 229.1H45.5Z" stroke="#0A00FF" stroke-width="2" stroke-miterlimit="10"/>
<path d="M88.7998 229.1C87.6998 231.7 86.5998 234.4 85.4998 236.9C84.3998 239.5 83.2998 242.1 82.1998 244.7H73.7998C74.7998 242.1 75.7998 239.4 76.7998 236.9C77.7998 234.4 78.7998 231.7 79.7998 229.1H88.7998Z" stroke="#0A00FF" stroke-width="2" stroke-miterlimit="10"/>
<path d="M132.1 229.1C131 231.7 129.9 234.4 128.8 236.9C127.7 239.5 126.6 242.1 125.5 244.7H117.1C118.1 242.1 119.1 239.4 120.1 236.9C121.1 234.4 122.1 231.7 123.1 229.1H132.1Z" stroke="#0A00FF" stroke-width="2" stroke-miterlimit="10"/>
<path d="M175.4 229.1C174.3 231.7 173.2 234.4 172.1 236.9C171 239.5 169.9 242.1 168.8 244.7H160.4C161.4 242.1 162.4 239.4 163.4 236.9C164.4 234.3 165.4 231.7 166.4 229.1H175.4Z" stroke="#0A00FF" stroke-width="2" stroke-miterlimit="10"/>
<path d="M218.7 229.1C217.6 231.7 216.5 234.4 215.4 236.9C214.3 239.5 213.2 242.1 212.1 244.7H203.7C204.7 242.1 205.7 239.4 206.7 236.9C207.7 234.3 208.7 231.7 209.7 229.1H218.7Z" stroke="#0A00FF" stroke-width="2" stroke-miterlimit="10"/>
<path d="M261.9 229.1C260.8 231.7 259.7 234.4 258.6 236.9C257.5 239.5 256.4 242.1 255.3 244.7H247C248 242.1 249 239.4 250 236.9C251 234.3 252 231.7 253 229.1H261.9Z" stroke="#0A00FF" stroke-width="2" stroke-miterlimit="10"/>
<path d="M305.2 229.1C304.1 231.7 303 234.4 301.9 236.9C300.8 239.5 299.7 242.1 298.6 244.7H290.2C291.2 242.1 292.2 239.4 293.2 236.9C294.2 234.3 295.2 231.7 296.2 229.1H305.2Z" stroke="#0A00FF" stroke-width="2" stroke-miterlimit="10"/>
<path d="M348.5 229.1C347.4 231.7 346.3 234.4 345.2 236.9C344.1 239.5 343 242.1 341.9 244.7H333.5C334.5 242.1 335.5 239.4 336.5 236.9C337.5 234.4 338.5 231.7 339.5 229.1H348.5Z" stroke="#0A00FF" stroke-width="2" stroke-miterlimit="10"/>
<path d="M248.9 462L244.7 470.7L249.3 479.3L253.8 471.1L249.2 462H248.9Z" stroke="#0A00FF" stroke-width="2" stroke-miterlimit="10"/>
<path d="M284.4 462L280.2 470.7L284.8 479.3L289.2 471.1L284.7 462H284.4Z" stroke="#0A00FF" stroke-width="2" stroke-miterlimit="10"/>
<path d="M115.9 479.3H107.3H98.5998L98.2998 479.7L107.3 496.5L116.3 480.1L115.9 479.3Z" stroke="#0A00FF" stroke-width="2" stroke-miterlimit="10"/>
<path d="M80.3999 479.3H71.7999H63.0999L62.8999 479.7L71.7999 496.5L80.7999 480.1L80.3999 479.3Z" stroke="#0A00FF" stroke-width="2" stroke-miterlimit="10"/>
<path d="M151.4 479.3H142.8H134.1L133.8 479.7L142.8 496.5L151.8 480.1L151.4 479.3Z" stroke="#0A00FF" stroke-width="2" stroke-miterlimit="10"/>
<path d="M222.3 479.3H213.8H205L204.8 479.7L213.8 496.5L222.7 480.1L222.3 479.3Z" stroke="#0A00FF" stroke-width="2" stroke-miterlimit="10"/>
<path d="M186.8 479.3H178.3H169.6L169.3 479.7L178.3 496.5L187.3 480.1L186.8 479.3Z" stroke="#0A00FF" stroke-width="2" stroke-miterlimit="10"/>
<path d="M107 462L102.7 470.7L107.3 479.3L111.8 471.1L107.3 462H107Z" stroke="#0A00FF" stroke-width="2" stroke-miterlimit="10"/>
<path d="M177.9 462L173.7 470.7L178.3 479.3L182.8 471.1L178.3 462H177.9Z" stroke="#0A00FF" stroke-width="2" stroke-miterlimit="10"/>
<path d="M142.4 462L138.2 470.7L142.8 479.3L147.3 471.1L142.8 462H142.4Z" stroke="#0A00FF" stroke-width="2" stroke-miterlimit="10"/>
<path d="M257.8 479.3H249.3H240.5L240.3 479.7L249.3 496.5L258.2 480.1L257.8 479.3Z" stroke="#0A00FF" stroke-width="2" stroke-miterlimit="10"/>
<path d="M213.4 462L209.2 470.7L213.8 479.3L218.3 471.1L213.8 462H213.4Z" stroke="#0A00FF" stroke-width="2" stroke-miterlimit="10"/>
<path d="M319.9 462L315.7 470.7L320.3 479.3L324.7 471.1L320.2 462H319.9Z" stroke="#0A00FF" stroke-width="2" stroke-miterlimit="10"/>
<path d="M293.3 479.3H284.8H276L275.8 479.7L284.8 496.5L293.7 480.1L293.3 479.3Z" stroke="#0A00FF" stroke-width="2" stroke-miterlimit="10"/>
<path d="M328.8 479.3H320.3H311.5L311.3 479.7L320.3 496.5L329.2 480.1L328.8 479.3Z" stroke="#0A00FF" stroke-width="2" stroke-miterlimit="10"/>
<path d="M71.4997 462L67.1997 470.7L71.7997 479.3L76.2997 471.1L71.7997 462H71.4997Z" stroke="#0A00FF" stroke-width="2" stroke-miterlimit="10"/>
<path d="M36.2998 462L45.6998 444.7H36.2998L45.6998 427.5H36.2998L45.6998 410.2H36.2998L45.6998 392.9H36.2998L45.6998 375.7H36.2998L45.6998 358.4H36.2998L45.6998 341.2H36.2998L54.1998 308.3L43.9998 289.2V282.9V265.7H29.1998V282.9V289.2L0.799805 341.2H10.1998L0.799805 358.4H10.1998L0.799805 375.7H10.1998L0.799805 392.9H10.1998L0.799805 410.2H10.1998L0.799805 427.5H10.1998L0.799805 444.7H10.1998L0.799805 462H10.1998L0.799805 479.3H10.1998L0.799805 496.5H19.1998L36.0998 461.7L40.7998 471.1L45.6998 462H36.2998Z" stroke="#0A00FF" stroke-width="2" stroke-miterlimit="10"/>
<path d="M44.8999 479.3L45.2999 480.1L45.6999 479.3H44.8999Z" stroke="#0A00FF" stroke-width="2" stroke-miterlimit="10"/>
<path d="M63.0996 479.3H71.7996L67.1996 470.7L63.0996 479.3Z" stroke="#0A00FF" stroke-width="2" stroke-miterlimit="10"/>
<path d="M54.6997 496.5H71.7997L62.8997 479.7L54.6997 496.5Z" stroke="#0A00FF" stroke-width="2" stroke-miterlimit="10"/>
<path d="M71.6 461.7L71.5 462H71.8L71.6 461.7Z" stroke="#0A00FF" stroke-width="2" stroke-miterlimit="10"/>
<path d="M36.2998 479.3H44.8998L40.7998 471.1L36.2998 479.3Z" stroke="#0A00FF" stroke-width="2" stroke-miterlimit="10"/>
<path d="M71.7996 462L81.1996 444.7H71.7996H62.5996L71.7996 462Z" stroke="#0A00FF" stroke-width="2" stroke-miterlimit="10"/>
<path d="M71.7996 358.4L81.1996 341.2H71.7996H62.5996L71.7996 358.4Z" stroke="#0A00FF" stroke-width="2" stroke-miterlimit="10"/>
<path d="M76.2998 471.1L81.1998 462H71.7998L76.2998 471.1Z" stroke="#0A00FF" stroke-width="2" stroke-miterlimit="10"/>
<path d="M98.5996 479.3H107.3L102.7 470.7L98.5996 479.3Z" stroke="#0A00FF" stroke-width="2" stroke-miterlimit="10"/>
<path d="M90.1997 496.5H107.3L98.2997 479.7L90.1997 496.5Z" stroke="#0A00FF" stroke-width="2" stroke-miterlimit="10"/>
<path d="M62.5996 462L67.1996 470.7L71.4996 462H62.5996Z" stroke="#0A00FF" stroke-width="2" stroke-miterlimit="10"/>
<path d="M107.1 461.7L107 462H107.3L107.1 461.7Z" stroke="#0A00FF" stroke-width="2" stroke-miterlimit="10"/>
<path d="M71.7996 410.2L81.1996 392.9H71.7996H62.5996L71.7996 410.2Z" stroke="#0A00FF" stroke-width="2" stroke-miterlimit="10"/>
<path d="M71.7996 427.5L81.1996 410.2H71.7996H62.5996L71.7996 427.5Z" stroke="#0A00FF" stroke-width="2" stroke-miterlimit="10"/>
<path d="M71.7996 444.7L81.1996 427.5H71.7996H62.5996L71.7996 444.7Z" stroke="#0A00FF" stroke-width="2" stroke-miterlimit="10"/>
<path d="M81.1999 479.3H80.3999L80.7999 480.1L81.1999 479.3Z" stroke="#0A00FF" stroke-width="2" stroke-miterlimit="10"/>
<path d="M71.7996 375.7L81.1996 358.4H71.7996H62.5996L71.7996 375.7Z" stroke="#0A00FF" stroke-width="2" stroke-miterlimit="10"/>
<path d="M62.8996 479.7L63.0996 479.3H62.5996L62.8996 479.7Z" stroke="#0A00FF" stroke-width="2" stroke-miterlimit="10"/>
<path d="M71.7996 392.9L81.1996 375.7H71.7996H62.5996L71.7996 392.9Z" stroke="#0A00FF" stroke-width="2" stroke-miterlimit="10"/>
<path d="M36.2998 496.5H53.4998L45.2998 480.1L36.2998 496.5Z" stroke="#0A00FF" stroke-width="2" stroke-miterlimit="10"/>
<path d="M89.6997 308.3L79.4997 289.2V282.9V265.7H64.5997V282.9V289.2L54.1997 308.3L71.7997 341.2L89.6997 308.3Z" stroke="#0A00FF" stroke-width="2" stroke-miterlimit="10"/>
<path d="M62.5998 479.3H63.0998L67.1998 470.7L62.5998 462H71.4998L71.5998 461.7L71.7998 462L62.5998 444.7H71.7998L62.5998 427.5H71.7998L62.5998 410.2H71.7998L62.5998 392.9H71.7998L62.5998 375.7H71.7998L62.5998 358.4H71.7998L62.5998 341.2H71.7998L54.1998 308.3L36.2998 341.2H45.6998L36.2998 358.4H45.6998L36.2998 375.7H45.6998L36.2998 392.9H45.6998L36.2998 410.2H45.6998L36.2998 427.5H45.6998L36.2998 444.7H45.6998L36.2998 462H45.6998L40.7998 471.1L44.8998 479.3H45.6998L45.2998 480.1L53.4998 496.5H54.6998L62.8998 479.7L62.5998 479.3Z" stroke="#0A00FF" stroke-width="2" stroke-miterlimit="10"/>
<path d="M107.3 444.7L116.7 427.5H107.3H98.0996L107.3 444.7Z" stroke="#0A00FF" stroke-width="2" stroke-miterlimit="10"/>
<path d="M107.3 462L116.7 444.7H107.3H98.0996L107.3 462Z" stroke="#0A00FF" stroke-width="2" stroke-miterlimit="10"/>
<path d="M125.2 308.3L115 289.2V282.9V265.7H100.1V282.9V289.2L89.6997 308.3L107.3 341.2L125.2 308.3Z" stroke="#0A00FF" stroke-width="2" stroke-miterlimit="10"/>
<path d="M111.8 471.1L116.7 462H107.3L111.8 471.1Z" stroke="#0A00FF" stroke-width="2" stroke-miterlimit="10"/>
<path d="M98.2996 479.7L98.5996 479.3H98.0996L98.2996 479.7Z" stroke="#0A00FF" stroke-width="2" stroke-miterlimit="10"/>
<path d="M116.7 479.3H115.9L116.3 480.1L116.7 479.3Z" stroke="#0A00FF" stroke-width="2" stroke-miterlimit="10"/>
<path d="M71.7998 496.5H88.9998L80.7998 480.1L71.7998 496.5Z" stroke="#0A00FF" stroke-width="2" stroke-miterlimit="10"/>
<path d="M142.6 461.7L142.4 462H142.8L142.6 461.7Z" stroke="#0A00FF" stroke-width="2" stroke-miterlimit="10"/>
<path d="M107.3 375.7L116.7 358.4H107.3H98.0996L107.3 375.7Z" stroke="#0A00FF" stroke-width="2" stroke-miterlimit="10"/>
<path d="M107.3 358.4L116.7 341.2H107.3H98.0996L107.3 358.4Z" stroke="#0A00FF" stroke-width="2" stroke-miterlimit="10"/>
<path d="M134.1 479.3H142.8L138.2 470.7L134.1 479.3Z" stroke="#0A00FF" stroke-width="2" stroke-miterlimit="10"/>
<path d="M80.3998 479.3L76.2998 471.1L71.7998 479.3H80.3998Z" stroke="#0A00FF" stroke-width="2" stroke-miterlimit="10"/>
<path d="M107.3 427.5L116.7 410.2H107.3H98.0996L107.3 427.5Z" stroke="#0A00FF" stroke-width="2" stroke-miterlimit="10"/>
<path d="M107.3 392.9L116.7 375.7H107.3H98.0996L107.3 392.9Z" stroke="#0A00FF" stroke-width="2" stroke-miterlimit="10"/>
<path d="M125.7 496.5H142.8L133.8 479.7L125.7 496.5Z" stroke="#0A00FF" stroke-width="2" stroke-miterlimit="10"/>
<path d="M107.3 410.2L116.7 392.9H107.3H98.0996L107.3 410.2Z" stroke="#0A00FF" stroke-width="2" stroke-miterlimit="10"/>
<path d="M98.0996 462L102.7 470.7L107 462H98.0996Z" stroke="#0A00FF" stroke-width="2" stroke-miterlimit="10"/>
<path d="M98.0998 479.3H98.5998L102.7 470.7L98.0998 462H107L107.1 461.7L107.3 462L98.0998 444.7H107.3L98.0998 427.5H107.3L98.0998 410.2H107.3L98.0998 392.9H107.3L98.0998 375.7H107.3L98.0998 358.4H107.3L98.0998 341.2H107.3L89.6998 308.3L71.7998 341.2H81.1998L71.7998 358.4H81.1998L71.7998 375.7H81.1998L71.7998 392.9H81.1998L71.7998 410.2H81.1998L71.7998 427.5H81.1998L71.7998 444.7H81.1998L71.7998 462H81.1998L76.2998 471.1L80.3998 479.3H81.1998L80.7998 480.1L88.9998 496.5H90.1998L98.2998 479.7L98.0998 479.3Z" stroke="#0A00FF" stroke-width="2" stroke-miterlimit="10"/>
<path d="M161.2 496.5H178.3L169.3 479.7L161.2 496.5Z" stroke="#0A00FF" stroke-width="2" stroke-miterlimit="10"/>
<path d="M142.8 375.7L152.2 358.4H142.8H133.6L142.8 375.7Z" stroke="#0A00FF" stroke-width="2" stroke-miterlimit="10"/>
<path d="M142.8 392.9L152.2 375.7H142.8H133.6L142.8 392.9Z" stroke="#0A00FF" stroke-width="2" stroke-miterlimit="10"/>
<path d="M107.3 496.5H124.4L116.3 480.1L107.3 496.5Z" stroke="#0A00FF" stroke-width="2" stroke-miterlimit="10"/>
<path d="M142.8 410.2L152.2 392.9H142.8H133.6L142.8 410.2Z" stroke="#0A00FF" stroke-width="2" stroke-miterlimit="10"/>
<path d="M160.7 308.3L150.5 289.2V282.9V265.7H135.6V282.9V289.2L125.2 308.3L142.8 341.2L160.7 308.3Z" stroke="#0A00FF" stroke-width="2" stroke-miterlimit="10"/>
<path d="M152.2 479.3H151.4L151.8 480.1L152.2 479.3Z" stroke="#0A00FF" stroke-width="2" stroke-miterlimit="10"/>
<path d="M142.8 462L152.2 444.7H142.8H133.6L142.8 462Z" stroke="#0A00FF" stroke-width="2" stroke-miterlimit="10"/>
<path d="M147.3 471.1L152.2 462H142.8L147.3 471.1Z" stroke="#0A00FF" stroke-width="2" stroke-miterlimit="10"/>
<path d="M142.8 444.7L152.2 427.5H142.8H133.6L142.8 444.7Z" stroke="#0A00FF" stroke-width="2" stroke-miterlimit="10"/>
<path d="M133.8 479.7L134.1 479.3H133.6L133.8 479.7Z" stroke="#0A00FF" stroke-width="2" stroke-miterlimit="10"/>
<path d="M142.8 427.5L152.2 410.2H142.8H133.6L142.8 427.5Z" stroke="#0A00FF" stroke-width="2" stroke-miterlimit="10"/>
<path d="M115.9 479.3L111.8 471.1L107.3 479.3H115.9Z" stroke="#0A00FF" stroke-width="2" stroke-miterlimit="10"/>
<path d="M142.8 358.4L152.2 341.2H142.8H133.6L142.8 358.4Z" stroke="#0A00FF" stroke-width="2" stroke-miterlimit="10"/>
<path d="M169.6 479.3H178.3L173.7 470.7L169.6 479.3Z" stroke="#0A00FF" stroke-width="2" stroke-miterlimit="10"/>
<path d="M133.6 462L138.2 470.7L142.4 462H133.6Z" stroke="#0A00FF" stroke-width="2" stroke-miterlimit="10"/>
<path d="M178.1 461.7L177.9 462H178.3L178.1 461.7Z" stroke="#0A00FF" stroke-width="2" stroke-miterlimit="10"/>
<path d="M133.6 479.3H134.1L138.2 470.7L133.6 462H142.4L142.6 461.7L142.8 462L133.6 444.7H142.8L133.6 427.5H142.8L133.6 410.2H142.8L133.6 392.9H142.8L133.6 375.7H142.8L133.6 358.4H142.8L133.6 341.2H142.8L125.2 308.3L107.3 341.2H116.7L107.3 358.4H116.7L107.3 375.7H116.7L107.3 392.9H116.7L107.3 410.2H116.7L107.3 427.5H116.7L107.3 444.7H116.7L107.3 462H116.7L111.8 471.1L115.9 479.3H116.7L116.3 480.1L124.4 496.5H125.7L133.8 479.7L133.6 479.3Z" stroke="#0A00FF" stroke-width="2" stroke-miterlimit="10"/>
<path d="M196.2 308.3L186 289.2V282.9V265.7H171.1V282.9V289.2L160.7 308.3L178.3 341.2L196.2 308.3Z" stroke="#0A00FF" stroke-width="2" stroke-miterlimit="10"/>
<path d="M169.1 462L173.7 470.7L177.9 462H169.1Z" stroke="#0A00FF" stroke-width="2" stroke-miterlimit="10"/>
<path d="M187.7 479.3H186.8L187.3 480.1L187.7 479.3Z" stroke="#0A00FF" stroke-width="2" stroke-miterlimit="10"/>
<path d="M151.4 479.3L147.3 471.1L142.8 479.3H151.4Z" stroke="#0A00FF" stroke-width="2" stroke-miterlimit="10"/>
<path d="M178.3 427.5L187.7 410.2H178.3H169.1L178.3 427.5Z" stroke="#0A00FF" stroke-width="2" stroke-miterlimit="10"/>
<path d="M169.3 479.7L169.6 479.3H169.1L169.3 479.7Z" stroke="#0A00FF" stroke-width="2" stroke-miterlimit="10"/>
<path d="M178.3 375.7L187.7 358.4H178.3H169.1L178.3 375.7Z" stroke="#0A00FF" stroke-width="2" stroke-miterlimit="10"/>
<path d="M178.3 392.9L187.7 375.7H178.3H169.1L178.3 392.9Z" stroke="#0A00FF" stroke-width="2" stroke-miterlimit="10"/>
<path d="M178.3 410.2L187.7 392.9H178.3H169.1L178.3 410.2Z" stroke="#0A00FF" stroke-width="2" stroke-miterlimit="10"/>
<path d="M178.3 358.4L187.7 341.2H178.3H169.1L178.3 358.4Z" stroke="#0A00FF" stroke-width="2" stroke-miterlimit="10"/>
<path d="M178.3 444.7L187.7 427.5H178.3H169.1L178.3 444.7Z" stroke="#0A00FF" stroke-width="2" stroke-miterlimit="10"/>
<path d="M178.3 462L187.7 444.7H178.3H169.1L178.3 462Z" stroke="#0A00FF" stroke-width="2" stroke-miterlimit="10"/>
<path d="M182.8 471.1L187.7 462H178.3L182.8 471.1Z" stroke="#0A00FF" stroke-width="2" stroke-miterlimit="10"/>
<path d="M213.6 461.7L213.4 462H213.8L213.6 461.7Z" stroke="#0A00FF" stroke-width="2" stroke-miterlimit="10"/>
<path d="M196.7 496.5H213.8L204.8 479.7L196.7 496.5Z" stroke="#0A00FF" stroke-width="2" stroke-miterlimit="10"/>
<path d="M205 479.3H213.8L209.2 470.7L205 479.3Z" stroke="#0A00FF" stroke-width="2" stroke-miterlimit="10"/>
<path d="M142.8 496.5H159.9L151.8 480.1L142.8 496.5Z" stroke="#0A00FF" stroke-width="2" stroke-miterlimit="10"/>
<path d="M169.1 479.3H169.6L173.7 470.7L169.1 462H177.9L178.1 461.7L178.3 462L169.1 444.7H178.3L169.1 427.5H178.3L169.1 410.2H178.3L169.1 392.9H178.3L169.1 375.7H178.3L169.1 358.4H178.3L169.1 341.2H178.3L160.7 308.3L142.8 341.2H152.2L142.8 358.4H152.2L142.8 375.7H152.2L142.8 392.9H152.2L142.8 410.2H152.2L142.8 427.5H152.2L142.8 444.7H152.2L142.8 462H152.2L147.3 471.1L151.4 479.3H152.2L151.8 480.1L159.9 496.5H161.2L169.3 479.7L169.1 479.3Z" stroke="#0A00FF" stroke-width="2" stroke-miterlimit="10"/>
<path d="M178.3 496.5H195.4L187.3 480.1L178.3 496.5Z" stroke="#0A00FF" stroke-width="2" stroke-miterlimit="10"/>
<path d="M213.8 392.9L223.2 375.7H213.8H204.6L213.8 392.9Z" stroke="#0A00FF" stroke-width="2" stroke-miterlimit="10"/>
<path d="M232.2 496.5H249.3L240.3 479.7L232.2 496.5Z" stroke="#0A00FF" stroke-width="2" stroke-miterlimit="10"/>
<path d="M213.8 462L223.2 444.7H213.8H204.6L213.8 462Z" stroke="#0A00FF" stroke-width="2" stroke-miterlimit="10"/>
<path d="M186.8 479.3L182.8 471.1L178.3 479.3H186.8Z" stroke="#0A00FF" stroke-width="2" stroke-miterlimit="10"/>
<path d="M213.8 427.5L223.2 410.2H213.8H204.6L213.8 427.5Z" stroke="#0A00FF" stroke-width="2" stroke-miterlimit="10"/>
<path d="M213.8 410.2L223.2 392.9H213.8H204.6L213.8 410.2Z" stroke="#0A00FF" stroke-width="2" stroke-miterlimit="10"/>
<path d="M213.8 444.7L223.2 427.5H213.8H204.6L213.8 444.7Z" stroke="#0A00FF" stroke-width="2" stroke-miterlimit="10"/>
<path d="M240.5 479.3H249.3L244.7 470.7L240.5 479.3Z" stroke="#0A00FF" stroke-width="2" stroke-miterlimit="10"/>
<path d="M213.8 358.4L223.2 341.2H213.8H204.6L213.8 358.4Z" stroke="#0A00FF" stroke-width="2" stroke-miterlimit="10"/>
<path d="M249.1 461.7L248.9 462H249.2L249.1 461.7Z" stroke="#0A00FF" stroke-width="2" stroke-miterlimit="10"/>
<path d="M223.2 479.3H222.3L222.7 480.1L223.2 479.3Z" stroke="#0A00FF" stroke-width="2" stroke-miterlimit="10"/>
<path d="M218.3 471.1L223.2 462H213.8L218.3 471.1Z" stroke="#0A00FF" stroke-width="2" stroke-miterlimit="10"/>
<path d="M231.7 308.3L221.5 289.2V282.9V265.7H206.6V282.9V289.2L196.2 308.3L213.8 341.2L231.7 308.3Z" stroke="#0A00FF" stroke-width="2" stroke-miterlimit="10"/>
<path d="M213.8 375.7L223.2 358.4H213.8H204.6L213.8 375.7Z" stroke="#0A00FF" stroke-width="2" stroke-miterlimit="10"/>
<path d="M204.6 462L209.2 470.7L213.4 462H204.6Z" stroke="#0A00FF" stroke-width="2" stroke-miterlimit="10"/>
<path d="M204.8 479.7L205 479.3H204.6L204.8 479.7Z" stroke="#0A00FF" stroke-width="2" stroke-miterlimit="10"/>
<path d="M204.6 479.3H205L209.2 470.7L204.6 462H213.4L213.6 461.7L213.8 462L204.6 444.7H213.8L204.6 427.5H213.8L204.6 410.2H213.8L204.6 392.9H213.8L204.6 375.7H213.8L204.6 358.4H213.8L204.6 341.2H213.8L196.2 308.3L178.3 341.2H187.7L178.3 358.4H187.7L178.3 375.7H187.7L178.3 392.9H187.7L178.3 410.2H187.7L178.3 427.5H187.7L178.3 444.7H187.7L178.3 462H187.7L182.8 471.1L186.8 479.3H187.7L187.3 480.1L195.4 496.5H196.7L204.8 479.7L204.6 479.3Z" stroke="#0A00FF" stroke-width="2" stroke-miterlimit="10"/>
<path d="M249.3 410.2L258.7 392.9H249.3H240.1L249.3 410.2Z" stroke="#0A00FF" stroke-width="2" stroke-miterlimit="10"/>
<path d="M249.3 462L258.7 444.7H249.3H240.1L249.3 462Z" stroke="#0A00FF" stroke-width="2" stroke-miterlimit="10"/>
<path d="M253.8 471.1L258.7 462H249.3H249.2L253.8 471.1Z" stroke="#0A00FF" stroke-width="2" stroke-miterlimit="10"/>
<path d="M240.1 462L244.7 470.7L248.9 462H240.1Z" stroke="#0A00FF" stroke-width="2" stroke-miterlimit="10"/>
<path d="M249.3 427.5L258.7 410.2H249.3H240.1L249.3 427.5Z" stroke="#0A00FF" stroke-width="2" stroke-miterlimit="10"/>
<path d="M249.3 444.7L258.7 427.5H249.3H240.1L249.3 444.7Z" stroke="#0A00FF" stroke-width="2" stroke-miterlimit="10"/>
<path d="M284.6 461.7L284.4 462H284.7L284.6 461.7Z" stroke="#0A00FF" stroke-width="2" stroke-miterlimit="10"/>
<path d="M249.3 392.9L258.7 375.7H249.3H240.1L249.3 392.9Z" stroke="#0A00FF" stroke-width="2" stroke-miterlimit="10"/>
<path d="M276 479.3H284.8L280.2 470.7L276 479.3Z" stroke="#0A00FF" stroke-width="2" stroke-miterlimit="10"/>
<path d="M240.3 479.7L240.5 479.3H240.1L240.3 479.7Z" stroke="#0A00FF" stroke-width="2" stroke-miterlimit="10"/>
<path d="M267.2 308.3L257 289.2V282.9V265.7H242.1V282.9V289.2L231.7 308.3L249.3 341.2L267.2 308.3Z" stroke="#0A00FF" stroke-width="2" stroke-miterlimit="10"/>
<path d="M258.7 479.3H257.8L258.2 480.1L258.7 479.3Z" stroke="#0A00FF" stroke-width="2" stroke-miterlimit="10"/>
<path d="M249.3 375.7L258.7 358.4H249.3H240.1L249.3 375.7Z" stroke="#0A00FF" stroke-width="2" stroke-miterlimit="10"/>
<path d="M222.3 479.3L218.3 471.1L213.8 479.3H222.3Z" stroke="#0A00FF" stroke-width="2" stroke-miterlimit="10"/>
<path d="M267.6 496.5H284.8L275.8 479.7L267.6 496.5Z" stroke="#0A00FF" stroke-width="2" stroke-miterlimit="10"/>
<path d="M249.3 358.4L258.7 341.2H249.3H240.1L249.3 358.4Z" stroke="#0A00FF" stroke-width="2" stroke-miterlimit="10"/>
<path d="M213.8 496.5H230.9L222.7 480.1L213.8 496.5Z" stroke="#0A00FF" stroke-width="2" stroke-miterlimit="10"/>
<path d="M240.1 479.3H240.5L244.7 470.7L240.1 462H248.9L249.1 461.7L249.2 462H249.3L240.1 444.7H249.3L240.1 427.5H249.3L240.1 410.2H249.3L240.1 392.9H249.3L240.1 375.7H249.3L240.1 358.4H249.3L240.1 341.2H249.3L231.7 308.3L213.8 341.2H223.2L213.8 358.4H223.2L213.8 375.7H223.2L213.8 392.9H223.2L213.8 410.2H223.2L213.8 427.5H223.2L213.8 444.7H223.2L213.8 462H223.2L218.3 471.1L222.3 479.3H223.2L222.7 480.1L230.9 496.5H232.2L240.3 479.7L240.1 479.3Z" stroke="#0A00FF" stroke-width="2" stroke-miterlimit="10"/>
<path d="M302.7 308.3L292.5 289.2V282.9V265.7H277.6V282.9V289.2L267.2 308.3L284.8 341.2L302.7 308.3Z" stroke="#0A00FF" stroke-width="2" stroke-miterlimit="10"/>
<path d="M289.2 471.1L294.2 462H284.8H284.7L289.2 471.1Z" stroke="#0A00FF" stroke-width="2" stroke-miterlimit="10"/>
<path d="M284.8 462L294.2 444.7H284.8H275.6L284.8 462Z" stroke="#0A00FF" stroke-width="2" stroke-miterlimit="10"/>
<path d="M284.8 444.7L294.2 427.5H284.8H275.6L284.8 444.7Z" stroke="#0A00FF" stroke-width="2" stroke-miterlimit="10"/>
<path d="M294.2 479.3H293.3L293.7 480.1L294.2 479.3Z" stroke="#0A00FF" stroke-width="2" stroke-miterlimit="10"/>
<path d="M275.8 479.7L276 479.3H275.6L275.8 479.7Z" stroke="#0A00FF" stroke-width="2" stroke-miterlimit="10"/>
<path d="M249.3 496.5H266.4L258.2 480.1L249.3 496.5Z" stroke="#0A00FF" stroke-width="2" stroke-miterlimit="10"/>
<path d="M275.6 462L280.2 470.7L284.4 462H275.6Z" stroke="#0A00FF" stroke-width="2" stroke-miterlimit="10"/>
<path d="M284.8 427.5L294.2 410.2H284.8H275.6L284.8 427.5Z" stroke="#0A00FF" stroke-width="2" stroke-miterlimit="10"/>
<path d="M284.8 358.4L294.2 341.2H284.8H275.6L284.8 358.4Z" stroke="#0A00FF" stroke-width="2" stroke-miterlimit="10"/>
<path d="M257.8 479.3L253.8 471.1L249.3 479.3H257.8Z" stroke="#0A00FF" stroke-width="2" stroke-miterlimit="10"/>
<path d="M311.5 479.3H320.3L315.7 470.7L311.5 479.3Z" stroke="#0A00FF" stroke-width="2" stroke-miterlimit="10"/>
<path d="M303.1 496.5H320.3L311.3 479.7L303.1 496.5Z" stroke="#0A00FF" stroke-width="2" stroke-miterlimit="10"/>
<path d="M320.1 461.7L319.9 462H320.2L320.1 461.7Z" stroke="#0A00FF" stroke-width="2" stroke-miterlimit="10"/>
<path d="M284.8 392.9L294.2 375.7H284.8H275.6L284.8 392.9Z" stroke="#0A00FF" stroke-width="2" stroke-miterlimit="10"/>
<path d="M284.8 375.7L294.2 358.4H284.8H275.6L284.8 375.7Z" stroke="#0A00FF" stroke-width="2" stroke-miterlimit="10"/>
<path d="M284.8 410.2L294.2 392.9H284.8H275.6L284.8 410.2Z" stroke="#0A00FF" stroke-width="2" stroke-miterlimit="10"/>
<path d="M275.6 479.3H276L280.2 470.7L275.6 462H284.4L284.6 461.7L284.7 462H284.8L275.6 444.7H284.8L275.6 427.5H284.8L275.6 410.2H284.8L275.6 392.9H284.8L275.6 375.7H284.8L275.6 358.4H284.8L275.6 341.2H284.8L267.2 308.3L249.3 341.2H258.7L249.3 358.4H258.7L249.3 375.7H258.7L249.3 392.9H258.7L249.3 410.2H258.7L249.3 427.5H258.7L249.3 444.7H258.7L249.3 462H258.7L253.8 471.1L257.8 479.3H258.7L258.2 480.1L266.4 496.5H267.6L275.8 479.7L275.6 479.3Z" stroke="#0A00FF" stroke-width="2" stroke-miterlimit="10"/>
<path d="M293.3 479.3L289.2 471.1L284.8 479.3H293.3Z" stroke="#0A00FF" stroke-width="2" stroke-miterlimit="10"/>
<path d="M320.3 358.4L329.7 341.2H320.3H311L320.3 358.4Z" stroke="#0A00FF" stroke-width="2" stroke-miterlimit="10"/>
<path d="M320.3 392.9L329.7 375.7H320.3H311L320.3 392.9Z" stroke="#0A00FF" stroke-width="2" stroke-miterlimit="10"/>
<path d="M320.3 444.7L329.7 427.5H320.3H311L320.3 444.7Z" stroke="#0A00FF" stroke-width="2" stroke-miterlimit="10"/>
<path d="M320.3 427.5L329.7 410.2H320.3H311L320.3 427.5Z" stroke="#0A00FF" stroke-width="2" stroke-miterlimit="10"/>
<path d="M320.3 462L329.7 444.7H320.3H311L320.3 462Z" stroke="#0A00FF" stroke-width="2" stroke-miterlimit="10"/>
<path d="M338.2 308.3L328 289.2V282.9V265.7H313.1V282.9V289.2L302.7 308.3L320.3 341.2L338.2 308.3Z" stroke="#0A00FF" stroke-width="2" stroke-miterlimit="10"/>
<path d="M324.7 471.1L329.7 462H320.3H320.2L324.7 471.1Z" stroke="#0A00FF" stroke-width="2" stroke-miterlimit="10"/>
<path d="M311.3 479.7L311.5 479.3H311L311.3 479.7Z" stroke="#0A00FF" stroke-width="2" stroke-miterlimit="10"/>
<path d="M311 462L315.7 470.7L319.9 462H311Z" stroke="#0A00FF" stroke-width="2" stroke-miterlimit="10"/>
<path d="M320.3 410.2L329.7 392.9H320.3H311L320.3 410.2Z" stroke="#0A00FF" stroke-width="2" stroke-miterlimit="10"/>
<path d="M347 479.3H355.8L351.2 470.7L347 479.3Z" stroke="#0A00FF" stroke-width="2" stroke-miterlimit="10"/>
<path d="M355.6 461.7L355.4 462H355.7L355.6 461.7Z" stroke="#0A00FF" stroke-width="2" stroke-miterlimit="10"/>
<path d="M284.8 496.5H301.9L293.7 480.1L284.8 496.5Z" stroke="#0A00FF" stroke-width="2" stroke-miterlimit="10"/>
<path d="M320.3 375.7L329.7 358.4H320.3H311L320.3 375.7Z" stroke="#0A00FF" stroke-width="2" stroke-miterlimit="10"/>
<path d="M338.6 496.5H355.8L346.8 479.7L338.6 496.5Z" stroke="#0A00FF" stroke-width="2" stroke-miterlimit="10"/>
<path d="M329.7 479.3H328.8L329.2 480.1L329.7 479.3Z" stroke="#0A00FF" stroke-width="2" stroke-miterlimit="10"/>
<path d="M311 479.3H311.5L315.7 470.7L311 462H319.9L320.1 461.7L320.2 462H320.3L311 444.7H320.3L311 427.5H320.3L311 410.2H320.3L311 392.9H320.3L311 375.7H320.3L311 358.4H320.3L311 341.2H320.3L302.7 308.3L284.8 341.2H294.2L284.8 358.4H294.2L284.8 375.7H294.2L284.8 392.9H294.2L284.8 410.2H294.2L284.8 427.5H294.2L284.8 444.7H294.2L284.8 462H294.2L289.2 471.1L293.3 479.3H294.2L293.7 480.1L301.9 496.5H303.1L311.3 479.7L311 479.3Z" stroke="#0A00FF" stroke-width="2" stroke-miterlimit="10"/>
<path d="M346.8 479.7L347 479.3H346.5L346.8 479.7Z" stroke="#0A00FF" stroke-width="2" stroke-miterlimit="10"/>
<path d="M320.3 496.5H337.4L329.2 480.1L320.3 496.5Z" stroke="#0A00FF" stroke-width="2" stroke-miterlimit="10"/>
<path d="M346.5 462L351.2 470.7L355.4 462H346.5Z" stroke="#0A00FF" stroke-width="2" stroke-miterlimit="10"/>
<path d="M328.8 479.3L324.7 471.1L320.3 479.3H328.8Z" stroke="#0A00FF" stroke-width="2" stroke-miterlimit="10"/>
<path d="M346.5 479.3H347L351.2 470.7L346.5 462H355.4L355.6 461.7L355.7 462H355.8L346.5 444.7H355.8L346.5 427.5H355.8L346.5 410.2H355.8L346.5 392.9H355.8L346.5 375.7H355.8L346.5 358.4H355.8L346.5 341.2H355.8L338.2 308.3L320.3 341.2H329.7L320.3 358.4H329.7L320.3 375.7H329.7L320.3 392.9H329.7L320.3 410.2H329.7L320.3 427.5H329.7L320.3 444.7H329.7L320.3 462H329.7L324.7 471.1L328.8 479.3H329.7L329.2 480.1L337.4 496.5H338.6L346.8 479.7L346.5 479.3Z" stroke="#0A00FF" stroke-width="2" stroke-miterlimit="10"/>
<path d="M295.4 434C293.6 432.5 291.7 431.2 289.6 430.4C291 429.8 292.3 428.9 293.5 427.9C296.6 425.3 298.9 421.7 300.3 417.2C301.7 412.7 302 407.6 301.1 401.9H287.3C287.4 405.1 287.3 408.1 286.8 411.1C286.3 414.1 284.9 415.5 282.4 415.5C280.8 415.5 279.2 414.9 277.7 413.7C276.1 412.5 274.4 411.1 272.6 409.6C270.4 407.8 267.9 405.9 265.3 404.1C262.7 402.3 259.7 401.3 256.4 401.3C251.3 401.3 247 402.7 243.7 405.6C240.3 408.5 237.9 412.2 236.4 416.8C234.9 421.4 235 426.9 235 431.7V496.6H255.8V470.2C255.8 465.6 256.4 461.4 257.7 457.9C259 454.3 260.8 451.5 263.2 449.4C265.6 447.3 268.3 446.3 271.5 446.3C274.9 446.3 277.3 447.2 278.7 448.9C280.1 450.6 280.9 452.9 281 455.8V496.6H301.8V448C301.6 442.3 299.5 437.6 295.4 434ZM271.7 434.6C268.7 436.5 265.9 438.4 263.4 440.4C262 441.6 260.5 442.6 259.2 443.6C257.8 444.5 256.3 445 254.8 445C254.7 445 254.6 445 254.6 445C254.5 445 254.4 445 254.3 445C250.4 445 247.2 439.1 247.2 431.8C247.2 424.5 250.4 418.6 254.3 418.6C254.4 418.6 254.5 418.6 254.6 418.6C254.7 418.6 254.8 418.6 254.8 418.6C256.4 418.6 257.9 419.1 259.2 420C260.6 420.9 262 422 263.4 423.2C265.9 425.2 268.7 427.1 271.7 429C271.9 429.2 272.2 429.3 272.5 429.4C275.4 431 278.9 431.8 283 431.8C278.5 431.7 274.7 432.7 271.7 434.6Z" fill="#0A00FF"/>
</g>
<defs>
<clipPath id="clip0_75_1298">
<rect width="356.6" height="748.7" fill="white"/>
</clipPath>
</defs>
</svg>
