<svg width="437" height="331" viewBox="0 0 437 331" fill="none" xmlns="http://www.w3.org/2000/svg">
<g clip-path="url(#clip0_75_1290)">
<path d="M104.728 215.016C101.681 212.35 98.2537 210.255 94.6358 208.732C97.1112 207.589 99.3961 206.256 101.491 204.351C106.822 199.781 110.821 193.686 113.296 185.687C115.772 177.879 116.343 168.928 114.629 159.215H90.8275C91.0179 164.738 90.8275 169.88 90.0658 175.022C89.3042 180.164 86.6384 182.64 82.4493 182.64C79.7835 182.64 76.9273 181.688 74.2615 179.593C71.5957 177.498 68.5491 175.213 65.312 172.356C61.5038 169.118 57.3147 166.071 52.7447 162.833C48.1748 159.596 43.0336 158.072 37.3212 158.072C28.3717 158.072 21.136 160.548 15.2332 165.5C9.52076 170.451 5.14124 176.927 2.66586 184.926C6.11842e-05 192.924 0.190475 202.447 0.190475 210.827V323.191H36.1787V277.484C36.1787 269.485 37.3212 262.248 39.6062 256.153C41.8911 250.059 44.9377 245.107 49.1269 241.489C53.316 237.87 58.0763 236.156 63.5983 236.156C69.5012 236.156 73.4998 237.68 75.9752 240.727C78.4506 243.774 79.7835 247.774 79.9739 252.725V323.382H115.962V239.394C115.581 229.3 111.773 221.301 104.728 215.016ZM63.7887 216.159C58.4571 219.397 53.6968 222.825 49.5077 226.253C47.0323 228.348 44.5569 230.062 42.0815 231.776C39.6062 233.3 37.1308 234.252 34.465 234.252C34.2746 234.252 34.2746 234.252 34.0842 234.252C33.8937 234.252 33.7033 234.252 33.7033 234.252C26.8484 234.252 21.5168 223.968 21.5168 211.398C21.5168 198.828 27.0388 188.544 33.7033 188.544C33.8937 188.544 34.0842 188.544 34.0842 188.544C34.2746 188.544 34.2746 188.544 34.465 188.544C37.1308 188.544 39.7966 189.306 42.0815 191.02C44.5569 192.544 46.8419 194.448 49.5077 196.543C53.8872 199.971 58.6476 203.399 63.7887 206.637C64.1696 206.827 64.7408 207.208 65.1216 207.399C70.0724 210.255 76.1656 211.588 83.211 211.588C75.404 211.207 68.9299 212.731 63.7887 216.159Z" fill="#0A00FF"/>
<path d="M226.402 297.291L208.694 330.048H259.534L275.529 297.291H226.402Z" stroke="#0A00FF" stroke-width="2" stroke-miterlimit="10"/>
<path d="M323.704 267.961L354.741 330.238H405.582L345.03 216.921C337.794 233.68 330.749 250.821 323.704 267.961Z" stroke="#0A00FF" stroke-width="2" stroke-miterlimit="10"/>
<path d="M435.477 0.952148C414.722 50.8497 394.157 100.176 373.402 149.121C352.647 198.067 332.082 247.393 311.327 297.29H153.283C172.134 247.393 190.604 198.067 209.075 149.121C227.545 100.176 246.015 50.8497 264.866 0.952148H435.477Z" stroke="#0A00FF" stroke-width="2" stroke-miterlimit="10"/>
</g>
<defs>
<clipPath id="clip0_75_1290">
<rect width="437" height="331" fill="white"/>
</clipPath>
</defs>
</svg>
