<svg width="320" height="320" viewBox="0 0 320 320" fill="none" xmlns="http://www.w3.org/2000/svg">
<path d="M319.5 160C319.5 248.089 248.089 319.5 160 319.5C71.9106 319.5 0.5 248.089 0.5 160C0.5 71.9106 71.9106 0.5 160 0.5C248.089 0.5 319.5 71.9106 319.5 160Z" stroke="#0A00FF"/>
<path d="M54.9167 196.104V86.0806H55.1068L106.223 158.86H104.893L156.009 86.0806H156.199V196.104H153.159V93.6815L153.539 94.8217L105.653 162.28H105.273L57.5771 94.8217L57.9571 93.6815V196.104H54.9167Z" fill="#0A00FF"/>
<path d="M223.468 82.6602C232.779 82.6602 240.76 84.1803 247.221 87.4108C253.682 90.6412 258.622 95.0117 262.043 100.712C265.463 106.413 267.174 113.254 267.174 121.045C267.174 125.606 266.413 130.356 265.083 134.917C263.753 139.667 261.473 143.848 258.432 147.648C255.392 151.449 251.402 154.489 246.271 156.769C241.14 159.05 234.869 160.19 227.459 160.19H211.497V196.104H189.074V82.6602H223.468ZM227.269 138.527C230.689 138.527 233.539 137.957 235.82 136.817C238.1 135.677 239.81 134.157 241.14 132.256C242.47 130.546 243.421 128.646 243.991 126.556C244.561 124.655 244.751 122.945 244.751 121.425C244.751 120.285 244.561 118.765 244.181 116.864C243.801 114.964 243.04 113.064 241.9 111.164C240.76 109.263 239.05 107.553 236.77 106.223C234.489 104.893 231.259 104.133 227.459 104.133H211.497V138.337H227.269V138.527Z" fill="#0A00FF"/>
</svg>
