<svg width="100" height="58" viewBox="0 0 100 58" fill="none" xmlns="http://www.w3.org/2000/svg">
<g clip-path="url(#clip0_63_624)">
<path d="M36.4774 27.2547L33.1289 20.4473H29.583L34.9512 30.6009V35.1904H37.8289V30.6009L43.2958 20.4473H39.7499L36.4774 27.2547Z" fill="#0A00FF"/>
<path d="M48.2694 23.3329C48.6263 23.0796 49.1122 22.9492 49.7348 22.9492C50.236 22.9492 50.7751 23.0489 51.3521 23.2485C51.9292 23.448 52.4911 23.7013 53.0454 24.0083L54.1387 21.7826C53.5541 21.3989 52.9011 21.0612 52.1646 20.7849C51.4281 20.5009 50.4789 20.3628 49.302 20.3628C48.4061 20.4012 47.6088 20.6084 46.9255 20.9768C46.2421 21.3452 45.7106 21.844 45.3309 22.4657C44.9513 23.095 44.7691 23.8318 44.7691 24.6913C44.7691 25.3974 44.8981 25.996 45.1563 26.4872C45.4145 26.9784 45.7485 27.3852 46.1662 27.7075C46.5838 28.0375 47.0318 28.3138 47.5025 28.5364C47.9809 28.7666 48.4364 28.9661 48.892 29.135C49.2717 29.2808 49.6285 29.4573 49.955 29.6569C50.2815 29.8564 50.5397 30.079 50.7295 30.3169C50.9193 30.5548 51.018 30.8234 51.018 31.1151C51.018 31.5448 50.9041 31.8749 50.6688 32.1128C50.441 32.3507 50.1449 32.5195 49.7956 32.627C49.4463 32.7267 49.097 32.7805 48.7553 32.7805C48.4137 32.7805 48.034 32.7267 47.624 32.6193C47.214 32.5119 46.8116 32.366 46.4091 32.1665C46.0067 31.9746 45.6347 31.7521 45.293 31.4988L44.0098 33.7705C44.5261 34.1312 45.0576 34.4305 45.6119 34.6608C46.1662 34.891 46.728 35.0675 47.3051 35.1827C47.8822 35.2978 48.444 35.3515 48.9983 35.3515C50.0841 35.3515 50.9953 35.152 51.7318 34.7605C52.4683 34.3691 53.0302 33.8473 53.4174 33.2103C53.7971 32.5656 53.9945 31.8749 53.9945 31.1304C53.9945 30.4243 53.8958 29.8257 53.6983 29.3345C53.5009 28.851 53.2352 28.4366 52.9087 28.1142C52.5746 27.7842 52.2025 27.5156 51.7925 27.2931C51.3749 27.0705 50.9573 26.8863 50.5321 26.7251C50.0689 26.5486 49.6209 26.3567 49.1957 26.1418C48.7629 25.927 48.4137 25.6814 48.1479 25.4128C47.8746 25.1365 47.7455 24.8295 47.7455 24.4841C47.7303 23.9699 47.9125 23.5862 48.2694 23.3329Z" fill="#0A00FF"/>
<path d="M68.0182 33.4253C67.7525 34.1314 67.4943 34.8374 67.2362 35.5282C66.978 36.2189 66.7199 36.925 66.4541 37.631H68.6712C68.9598 36.925 69.2559 36.2189 69.5444 35.5282C69.833 34.8374 70.1291 34.1314 70.4176 33.4253H68.0182Z" fill="#0A00FF"/>
<path d="M64.427 26.748C64.1916 26.5408 63.9335 26.3796 63.6525 26.2568C63.8347 26.1724 64.0094 26.0573 64.1764 25.9115C64.5864 25.5584 64.8902 25.0749 65.0876 24.4609C65.2774 23.847 65.3154 23.1639 65.1939 22.3964H63.3488C63.364 22.8185 63.3412 23.233 63.2805 23.6321C63.2197 24.0311 63.0223 24.2307 62.6882 24.2307C62.4756 24.2307 62.2706 24.1539 62.058 23.9928C61.8454 23.8316 61.6176 23.6474 61.3746 23.4325C61.0785 23.1869 60.752 22.9337 60.4027 22.6881C60.0535 22.4425 59.6586 22.312 59.2183 22.312C58.5349 22.312 57.9654 22.5039 57.5174 22.8953C57.0695 23.2867 56.743 23.7932 56.5455 24.4149C56.3405 25.0365 56.3557 25.7733 56.3557 26.4257V35.1748H59.1271V31.6138C59.1271 30.9844 59.2107 30.4319 59.3853 29.9483C59.5599 29.4648 59.8029 29.0888 60.1218 28.8048C60.4407 28.5209 60.8052 28.3827 61.2304 28.3827C61.6784 28.3827 61.9973 28.4978 62.1947 28.7357C62.3845 28.966 62.4908 29.2807 62.4984 29.6644V35.1748H65.2698V28.6283C65.2546 27.8685 64.9737 27.2392 64.427 26.748ZM61.2607 26.8324C60.8583 27.0857 60.4863 27.3543 60.1522 27.6152C59.9624 27.7764 59.7725 27.9146 59.5827 28.0373C59.4005 28.1601 59.2031 28.2215 58.9905 28.2215C58.9829 28.2215 58.9677 28.2215 58.9601 28.2215C58.9525 28.2215 58.9373 28.2215 58.9297 28.2215C58.4058 28.2215 57.9882 27.4234 57.9882 26.441C57.9882 25.4586 58.4134 24.6605 58.9297 24.6605C58.9373 24.6605 58.9525 24.6605 58.9601 24.6605C58.9677 24.6605 58.9829 24.6605 58.9905 24.6605C59.2031 24.6605 59.4005 24.7219 59.5827 24.8447C59.7649 24.9675 59.9548 25.1133 60.1522 25.2668C60.4863 25.5354 60.8507 25.7963 61.2607 26.0496C61.2911 26.0726 61.3291 26.088 61.3595 26.111C61.7467 26.3259 62.2099 26.441 62.7566 26.441C62.1643 26.4487 61.6632 26.5792 61.2607 26.8324Z" fill="#0A00FF"/>
<path d="M50.0001 50.0251C71.6545 50.0251 89.2088 40.6119 89.2088 29.0001C89.2088 17.3883 71.6545 7.9751 50.0001 7.9751C28.3458 7.9751 10.7915 17.3883 10.7915 29.0001C10.7915 40.6119 28.3458 50.0251 50.0001 50.0251Z" stroke="#0A00FF" stroke-miterlimit="10"/>
<path d="M55.1881 49.6549C76.3612 44.2235 91.204 30.5747 88.3403 19.1695C85.4766 7.76427 65.9909 2.92158 44.8178 8.35302C23.6447 13.7845 8.80195 27.4332 11.6656 38.8384C14.5293 50.2436 34.015 55.0863 55.1881 49.6549Z" stroke="#0A00FF" stroke-miterlimit="10"/>
</g>
<defs>
<clipPath id="clip0_63_624">
<rect width="100" height="58" fill="white"/>
</clipPath>
</defs>
</svg>
