<?xml version="1.0" encoding="utf-8"?>
<!-- Generator: Adobe Illustrator 23.0.2, SVG Export Plug-In . SVG Version: 6.00 Build 0)  -->
<svg version="1.1" id="Layer_1" xmlns="http://www.w3.org/2000/svg" xmlns:xlink="http://www.w3.org/1999/xlink" x="0px" y="0px"
	 viewBox="0 0 325.8 248" style="enable-background:new 0 0 325.8 248;" xml:space="preserve">
<style type="text/css">
	.st0{fill:#364195;}
	.st1{fill:#CD2E67;}
	.st2{fill:#7E549E;}
	.st3{fill:#338E4F;}
	.st4{fill:#455FA8;}
	.st5{fill:none;stroke:#070707;stroke-linecap:round;stroke-linejoin:round;stroke-miterlimit:10;}
</style>
<g>
	<g>
		<g>
			<path class="st0" d="M156.1,94.5l0.1,1l0-0.1c0.2-0.4,0.5-0.7,0.8-0.9c0.3-0.2,0.7-0.3,1.1-0.3c0.3,0,0.5,0,0.8,0.1
				s0.4,0.2,0.5,0.4c0.1,0.2,0.2,0.4,0.3,0.6l0,0c0.2-0.4,0.5-0.6,0.8-0.8s0.7-0.3,1.1-0.3c0.5,0,0.9,0.1,1.2,0.4
				c0.3,0.3,0.4,0.6,0.5,1.1v3.8h-1.3v-3.3c0-0.2-0.1-0.5-0.2-0.6c-0.1-0.2-0.3-0.3-0.5-0.3c-0.3,0-0.5,0.1-0.7,0.3
				c-0.2,0.2-0.4,0.4-0.5,0.7c-0.1,0.3-0.2,0.6-0.2,0.9v2.3h-1.3v-3.3c0-0.2-0.1-0.5-0.2-0.6c-0.1-0.2-0.3-0.3-0.6-0.3
				c-0.3,0-0.5,0.1-0.7,0.3c-0.2,0.2-0.4,0.4-0.5,0.7c-0.1,0.3-0.2,0.6-0.2,0.9v2.3h-1.3v-5.1H156.1z"/>
			<path class="st0" d="M166.6,99.8c-0.5,0-0.8-0.1-1.1-0.4s-0.5-0.6-0.5-1.1v-3.8h1.3v3.3c0,0.3,0.1,0.5,0.2,0.6
				c0.1,0.2,0.3,0.2,0.6,0.2c0.3,0,0.5-0.1,0.7-0.2c0.2-0.2,0.4-0.4,0.5-0.7c0.1-0.3,0.2-0.6,0.2-1v-2.2h1.3v5.1h-1.2l-0.1-1.1
				l0,0.2c-0.1,0.2-0.3,0.4-0.4,0.6c-0.2,0.2-0.4,0.3-0.7,0.4C167.2,99.7,166.9,99.8,166.6,99.8z"/>
			<path class="st0" d="M173.3,99.7c-0.4,0-0.8-0.1-1.1-0.2c-0.3-0.1-0.6-0.3-0.9-0.6l0.6-0.8c0.2,0.2,0.4,0.4,0.7,0.5
				c0.2,0.1,0.4,0.2,0.6,0.2c0.2,0,0.3,0,0.4-0.1c0.1,0,0.2-0.1,0.3-0.2c0.1-0.1,0.1-0.2,0.1-0.3c0-0.2-0.1-0.3-0.2-0.4
				c-0.1-0.1-0.2-0.2-0.4-0.2s-0.4-0.1-0.6-0.2c-0.4-0.1-0.8-0.3-1-0.6c-0.2-0.3-0.3-0.6-0.3-0.9c0-0.3,0.1-0.5,0.2-0.8
				s0.3-0.5,0.6-0.6c0.3-0.2,0.6-0.2,1.1-0.2c0.4,0,0.7,0,1,0.1s0.6,0.2,0.8,0.4l-0.5,0.8c-0.1-0.1-0.3-0.2-0.5-0.3
				s-0.4-0.1-0.5-0.1c-0.1,0-0.3,0-0.4,0.1c-0.1,0-0.2,0.1-0.3,0.2c-0.1,0.1-0.1,0.2-0.1,0.3c0,0.2,0,0.3,0.2,0.4
				c0.1,0.1,0.3,0.2,0.5,0.2c0.2,0.1,0.4,0.1,0.5,0.2c0.2,0.1,0.5,0.2,0.7,0.3c0.2,0.1,0.3,0.3,0.5,0.5c0.1,0.2,0.2,0.4,0.2,0.7
				c0,0.3-0.1,0.6-0.2,0.9c-0.2,0.3-0.4,0.5-0.7,0.6C174.1,99.6,173.7,99.7,173.3,99.7z"/>
			<path class="st0" d="M179.2,99.7c-0.6,0-1.1-0.1-1.5-0.3s-0.8-0.6-1-1c-0.2-0.4-0.3-0.9-0.3-1.4c0-0.5,0.1-1,0.4-1.4
				c0.3-0.4,0.6-0.7,1-1c0.4-0.2,0.9-0.4,1.4-0.4c0.7,0,1.3,0.2,1.7,0.6c0.5,0.4,0.8,1,0.9,1.7l-4.1,1.4l-0.3-0.8l3.2-1.1l-0.3,0.2
				c-0.1-0.2-0.2-0.5-0.4-0.6c-0.2-0.2-0.5-0.3-0.8-0.3c-0.3,0-0.5,0.1-0.7,0.2s-0.4,0.3-0.5,0.6s-0.2,0.5-0.2,0.8
				c0,0.3,0.1,0.6,0.2,0.9c0.1,0.2,0.3,0.4,0.6,0.6c0.2,0.1,0.5,0.2,0.8,0.2c0.2,0,0.4,0,0.6-0.1c0.2-0.1,0.4-0.2,0.5-0.3l0.6,1
				c-0.3,0.2-0.6,0.3-0.9,0.4C179.8,99.6,179.5,99.7,179.2,99.7z"/>
			<path class="st0" d="M182.8,97c0-0.5,0.1-1,0.4-1.4c0.2-0.4,0.6-0.7,1-1c0.4-0.2,0.9-0.4,1.5-0.4c0.6,0,1,0.1,1.5,0.4
				c0.4,0.2,0.7,0.6,1,1c0.2,0.4,0.3,0.9,0.3,1.4c0,0.5-0.1,1-0.3,1.4c-0.2,0.4-0.6,0.7-1,1c-0.4,0.2-0.9,0.4-1.5,0.4
				c-0.5,0-1-0.1-1.5-0.3c-0.4-0.2-0.8-0.5-1-0.9C182.9,98,182.8,97.5,182.8,97z M184.2,97c0,0.3,0.1,0.6,0.2,0.8
				c0.1,0.2,0.3,0.4,0.5,0.6c0.2,0.1,0.5,0.2,0.8,0.2c0.3,0,0.6-0.1,0.8-0.2s0.4-0.3,0.5-0.6c0.1-0.2,0.2-0.5,0.2-0.8
				c0-0.3-0.1-0.6-0.2-0.8c-0.1-0.2-0.3-0.4-0.5-0.6s-0.5-0.2-0.8-0.2c-0.3,0-0.5,0.1-0.8,0.2c-0.2,0.1-0.4,0.3-0.5,0.6
				C184.2,96.4,184.2,96.7,184.2,97z"/>
		</g>
	</g>
	<g>
		<g>
			<path class="st1" d="M282.3,193.3l0.1,1.4l0-0.2c0.1-0.3,0.3-0.6,0.6-0.8s0.5-0.4,0.8-0.5s0.5-0.2,0.7-0.2l-0.1,1.3
				c-0.4,0-0.7,0-1,0.2s-0.5,0.4-0.7,0.7c-0.2,0.3-0.2,0.6-0.2,0.9v2.2h-1.3v-5.1H282.3z"/>
			<path class="st1" d="M288.2,198.5c-0.6,0-1.1-0.1-1.5-0.3c-0.4-0.2-0.8-0.6-1-1c-0.2-0.4-0.3-0.9-0.3-1.4c0-0.5,0.1-1,0.4-1.4
				s0.6-0.7,1-1c0.4-0.2,0.9-0.4,1.4-0.4c0.7,0,1.3,0.2,1.7,0.6s0.8,1,0.9,1.7l-4.1,1.4l-0.3-0.8l3.2-1.1l-0.3,0.2
				c-0.1-0.2-0.2-0.5-0.4-0.6c-0.2-0.2-0.5-0.3-0.8-0.3c-0.3,0-0.5,0.1-0.7,0.2c-0.2,0.1-0.4,0.3-0.5,0.6c-0.1,0.2-0.2,0.5-0.2,0.8
				c0,0.3,0.1,0.6,0.2,0.9c0.1,0.2,0.3,0.4,0.6,0.6c0.2,0.1,0.5,0.2,0.8,0.2c0.2,0,0.4,0,0.6-0.1c0.2-0.1,0.4-0.2,0.5-0.3l0.6,1
				c-0.3,0.2-0.6,0.3-0.9,0.4C288.8,198.5,288.5,198.5,288.2,198.5z"/>
			<path class="st1" d="M294.2,198.5c-0.5,0-0.9-0.1-1.3-0.3s-0.7-0.5-0.9-1c-0.2-0.4-0.3-0.9-0.3-1.5c0-0.6,0.1-1.1,0.3-1.5
				c0.2-0.4,0.5-0.7,1-0.9s0.9-0.3,1.4-0.3c0.4,0,0.7,0.1,1.1,0.2c0.3,0.1,0.6,0.3,0.8,0.6l0,0.5V189h1.3v9.4h-1.3v-1.1l0.1,0.3
				c-0.3,0.3-0.6,0.5-0.9,0.7C295.1,198.4,294.7,198.5,294.2,198.5z M294.7,197.4c0.3,0,0.5,0,0.7-0.1s0.4-0.2,0.5-0.4
				c0.1-0.2,0.3-0.4,0.3-0.6v-1.1c-0.1-0.2-0.2-0.4-0.3-0.6c-0.1-0.2-0.3-0.3-0.5-0.4s-0.4-0.1-0.7-0.1c-0.3,0-0.5,0.1-0.8,0.2
				c-0.2,0.1-0.4,0.3-0.6,0.6c-0.1,0.2-0.2,0.5-0.2,0.8c0,0.3,0.1,0.6,0.2,0.8c0.1,0.2,0.3,0.4,0.6,0.6
				C294.1,197.3,294.4,197.4,294.7,197.4z"/>
			<path class="st1" d="M301.8,198.5c-0.6,0-1.1-0.1-1.5-0.3c-0.4-0.2-0.8-0.6-1-1c-0.2-0.4-0.3-0.9-0.3-1.4c0-0.5,0.1-1,0.4-1.4
				c0.3-0.4,0.6-0.7,1-1c0.4-0.2,0.9-0.4,1.4-0.4c0.7,0,1.3,0.2,1.7,0.6c0.5,0.4,0.8,1,0.9,1.7l-4.1,1.4l-0.3-0.8l3.2-1.1L303,195
				c-0.1-0.2-0.2-0.5-0.4-0.6c-0.2-0.2-0.5-0.3-0.8-0.3c-0.3,0-0.5,0.1-0.7,0.2c-0.2,0.1-0.4,0.3-0.5,0.6c-0.1,0.2-0.2,0.5-0.2,0.8
				c0,0.3,0.1,0.6,0.2,0.9s0.3,0.4,0.6,0.6c0.2,0.1,0.5,0.2,0.8,0.2c0.2,0,0.4,0,0.6-0.1c0.2-0.1,0.4-0.2,0.5-0.3l0.6,1
				c-0.3,0.2-0.6,0.3-0.9,0.4C302.4,198.5,302.1,198.5,301.8,198.5z"/>
			<path class="st1" d="M307.3,198.5c-0.4,0-0.8-0.1-1.1-0.2c-0.3-0.1-0.6-0.3-0.9-0.6l0.6-0.8c0.2,0.2,0.4,0.4,0.7,0.5
				c0.2,0.1,0.4,0.2,0.6,0.2c0.2,0,0.3,0,0.4-0.1c0.1,0,0.2-0.1,0.3-0.2c0.1-0.1,0.1-0.2,0.1-0.3c0-0.2-0.1-0.3-0.2-0.4
				c-0.1-0.1-0.3-0.2-0.4-0.2c-0.2-0.1-0.4-0.1-0.6-0.2c-0.4-0.1-0.8-0.3-1-0.6c-0.2-0.3-0.3-0.6-0.3-0.9c0-0.3,0.1-0.5,0.2-0.8
				c0.1-0.2,0.3-0.5,0.6-0.6c0.3-0.2,0.6-0.2,1.1-0.2c0.4,0,0.7,0,1,0.1s0.6,0.2,0.8,0.4l-0.5,0.8c-0.1-0.1-0.3-0.2-0.5-0.3
				c-0.2-0.1-0.4-0.1-0.5-0.1c-0.1,0-0.3,0-0.4,0.1c-0.1,0-0.2,0.1-0.3,0.2s-0.1,0.2-0.1,0.3c0,0.2,0,0.3,0.2,0.4
				c0.1,0.1,0.3,0.2,0.5,0.2c0.2,0.1,0.4,0.1,0.5,0.2c0.2,0.1,0.5,0.2,0.7,0.3c0.2,0.1,0.3,0.3,0.5,0.5c0.1,0.2,0.2,0.4,0.2,0.7
				c0,0.3-0.1,0.6-0.2,0.9c-0.2,0.3-0.4,0.5-0.7,0.6C308.2,198.4,307.8,198.5,307.3,198.5z"/>
		</g>
	</g>
	<g>
		<g>
			<g>
				<path class="st0" d="M185.9,168.6c0-0.2,0.1-0.4,0.2-0.5s0.3-0.2,0.5-0.2c0.2,0,0.4,0.1,0.5,0.2s0.2,0.3,0.2,0.5
					c0,0.2-0.1,0.4-0.2,0.5c-0.2,0.1-0.3,0.2-0.5,0.2c-0.2,0-0.4-0.1-0.5-0.2C186,169,185.9,168.8,185.9,168.6z M185.9,170.5h1.3
					v5.1h-1.3V170.5z"/>
				<path class="st0" d="M190.3,170.5l0.1,1.1l0-0.1c0.2-0.4,0.4-0.6,0.8-0.8c0.3-0.2,0.8-0.3,1.2-0.3c0.5,0,0.9,0.1,1.2,0.4
					s0.5,0.6,0.5,1.1v3.8h-1.3v-3.3c0-0.3-0.1-0.5-0.2-0.6s-0.4-0.2-0.6-0.2c-0.3,0-0.5,0.1-0.7,0.2s-0.4,0.4-0.5,0.7
					s-0.2,0.6-0.2,1v2.2h-1.3v-5.1H190.3z"/>
				<path class="st0" d="M196.4,168.2h1.3v2.2h1.3v1h-1.3v4h-1.3v-4h-0.9v-1h0.9V168.2z"/>
				<path class="st0" d="M202.8,175.7c-0.6,0-1.1-0.1-1.5-0.3c-0.4-0.2-0.8-0.6-1-1c-0.2-0.4-0.3-0.9-0.3-1.4c0-0.5,0.1-1,0.4-1.4
					s0.6-0.7,1-1c0.4-0.2,0.9-0.4,1.4-0.4c0.7,0,1.3,0.2,1.7,0.6s0.8,1,0.9,1.7l-4.1,1.4l-0.3-0.8l3.2-1.1l-0.3,0.2
					c-0.1-0.2-0.2-0.5-0.4-0.6c-0.2-0.2-0.5-0.3-0.8-0.3c-0.3,0-0.5,0.1-0.7,0.2c-0.2,0.1-0.4,0.3-0.5,0.6c-0.1,0.2-0.2,0.5-0.2,0.8
					c0,0.3,0.1,0.6,0.2,0.9c0.1,0.2,0.3,0.4,0.6,0.6c0.2,0.1,0.5,0.2,0.8,0.2c0.2,0,0.4,0,0.6-0.1c0.2-0.1,0.4-0.2,0.5-0.3l0.6,1
					c-0.3,0.2-0.6,0.3-0.9,0.4C203.4,175.6,203.1,175.7,202.8,175.7z"/>
				<path class="st0" d="M208,170.5l0.1,1.4l0-0.2c0.1-0.3,0.3-0.6,0.6-0.8s0.5-0.4,0.8-0.5c0.3-0.1,0.5-0.2,0.7-0.2l-0.1,1.3
					c-0.4,0-0.7,0-1,0.2s-0.5,0.4-0.7,0.7s-0.2,0.6-0.2,0.9v2.2h-1.3v-5.1H208z"/>
				<path class="st0" d="M212.7,170.5l0.1,1.1l0-0.1c0.2-0.4,0.4-0.6,0.8-0.8c0.3-0.2,0.8-0.3,1.2-0.3c0.5,0,0.9,0.1,1.2,0.4
					s0.5,0.6,0.5,1.1v3.8h-1.3v-3.3c0-0.3-0.1-0.5-0.2-0.6s-0.4-0.2-0.6-0.2c-0.3,0-0.5,0.1-0.7,0.2s-0.4,0.4-0.5,0.7
					s-0.2,0.6-0.2,1v2.2h-1.3v-5.1H212.7z"/>
				<path class="st0" d="M220.7,175.7c-0.6,0-1.1-0.1-1.5-0.3c-0.4-0.2-0.8-0.6-1-1c-0.2-0.4-0.3-0.9-0.3-1.4c0-0.5,0.1-1,0.4-1.4
					s0.6-0.7,1-1c0.4-0.2,0.9-0.4,1.4-0.4c0.7,0,1.3,0.2,1.7,0.6s0.8,1,0.9,1.7l-4.1,1.4l-0.3-0.8l3.2-1.1l-0.3,0.2
					c-0.1-0.2-0.2-0.5-0.4-0.6c-0.2-0.2-0.5-0.3-0.8-0.3c-0.3,0-0.5,0.1-0.7,0.2c-0.2,0.1-0.4,0.3-0.5,0.6c-0.1,0.2-0.2,0.5-0.2,0.8
					c0,0.3,0.1,0.6,0.2,0.9c0.1,0.2,0.3,0.4,0.6,0.6c0.2,0.1,0.5,0.2,0.8,0.2c0.2,0,0.4,0,0.6-0.1c0.2-0.1,0.4-0.2,0.5-0.3l0.6,1
					c-0.3,0.2-0.6,0.3-0.9,0.4C221.3,175.6,221,175.7,220.7,175.7z"/>
				<path class="st0" d="M225.2,168.2h1.3v2.2h1.3v1h-1.3v4h-1.3v-4h-0.9v-1h0.9V168.2z"/>
			</g>
		</g>
	</g>
	<g>
		<g>
			<g>
				<path class="st1" d="M255.7,131.8c-0.2,0.2-0.5,0.3-0.8,0.4c-0.3,0.1-0.6,0.2-1,0.2c-0.6,0-1.1-0.1-1.5-0.3
					c-0.4-0.2-0.8-0.5-1-0.9c-0.2-0.4-0.3-0.9-0.3-1.4s0.1-1,0.4-1.4c0.3-0.4,0.6-0.7,1-0.9s0.8-0.3,1.3-0.3c0.4,0,0.8,0.1,1.1,0.2
					c0.3,0.1,0.6,0.3,0.8,0.5l-0.6,0.9c-0.1-0.1-0.3-0.2-0.5-0.3s-0.4-0.1-0.7-0.1c-0.3,0-0.5,0.1-0.7,0.2c-0.2,0.1-0.4,0.3-0.5,0.6
					s-0.2,0.5-0.2,0.8c0,0.3,0.1,0.6,0.2,0.8s0.3,0.4,0.6,0.6c0.2,0.1,0.5,0.2,0.8,0.2c0.2,0,0.4,0,0.6-0.1c0.2-0.1,0.3-0.1,0.5-0.2
					L255.7,131.8z"/>
				<path class="st1" d="M257,125.3c0-0.2,0.1-0.4,0.2-0.5c0.2-0.1,0.3-0.2,0.5-0.2c0.2,0,0.4,0.1,0.5,0.2c0.2,0.1,0.2,0.3,0.2,0.5
					c0,0.2-0.1,0.4-0.2,0.5s-0.3,0.2-0.5,0.2c-0.2,0-0.4-0.1-0.5-0.2S257,125.5,257,125.3z M257.1,127.1h1.3v5.1h-1.3V127.1z"/>
				<path class="st1" d="M263.4,132.3c-0.4,0-0.8-0.1-1.2-0.3s-0.6-0.4-0.8-0.7l0.1-0.3v1.2h-1.3v-9.4h1.3v5.3l0-0.5
					c0.2-0.2,0.5-0.4,0.8-0.6c0.4-0.2,0.8-0.2,1.2-0.2c0.4,0,0.9,0.1,1.2,0.3s0.7,0.5,0.9,0.9c0.2,0.4,0.3,0.9,0.3,1.4
					c0,0.6-0.1,1.1-0.4,1.5c-0.2,0.4-0.6,0.7-1,1C264.3,132.2,263.9,132.3,263.4,132.3z M263.1,131.2c0.3,0,0.6-0.1,0.8-0.2
					c0.2-0.1,0.4-0.3,0.6-0.6c0.1-0.2,0.2-0.5,0.2-0.8c0-0.3-0.1-0.6-0.2-0.8c-0.1-0.2-0.3-0.4-0.6-0.6c-0.2-0.1-0.5-0.2-0.8-0.2
					c-0.2,0-0.5,0-0.7,0.1c-0.2,0.1-0.4,0.2-0.5,0.4c-0.1,0.2-0.3,0.3-0.3,0.6v1.1c0.1,0.2,0.2,0.4,0.3,0.6c0.1,0.2,0.3,0.3,0.5,0.4
					S262.9,131.2,263.1,131.2z"/>
				<path class="st1" d="M269.9,132.3c-0.6,0-1.1-0.1-1.5-0.3c-0.4-0.2-0.8-0.6-1-1s-0.3-0.9-0.3-1.4c0-0.5,0.1-1,0.4-1.4
					s0.6-0.7,1-1c0.4-0.2,0.9-0.4,1.4-0.4c0.7,0,1.3,0.2,1.7,0.6c0.5,0.4,0.8,1,0.9,1.7l-4.1,1.4l-0.3-0.8l3.2-1.1l-0.3,0.2
					c-0.1-0.2-0.2-0.5-0.4-0.6c-0.2-0.2-0.5-0.3-0.8-0.3c-0.3,0-0.5,0.1-0.7,0.2c-0.2,0.1-0.4,0.3-0.5,0.6c-0.1,0.2-0.2,0.5-0.2,0.8
					c0,0.3,0.1,0.6,0.2,0.9c0.1,0.2,0.3,0.4,0.6,0.6c0.2,0.1,0.5,0.2,0.8,0.2c0.2,0,0.4,0,0.6-0.1c0.2-0.1,0.4-0.2,0.5-0.3l0.6,1
					c-0.3,0.2-0.6,0.3-0.9,0.4C270.5,132.3,270.2,132.3,269.9,132.3z"/>
				<path class="st1" d="M275.1,127.1l0.1,1.4l0-0.2c0.1-0.3,0.3-0.6,0.6-0.8c0.3-0.2,0.5-0.4,0.8-0.5c0.3-0.1,0.5-0.2,0.7-0.2
					l-0.1,1.3c-0.4,0-0.7,0-1,0.2s-0.5,0.4-0.7,0.7c-0.2,0.3-0.2,0.6-0.2,0.9v2.2h-1.3v-5.1H275.1z"/>
				<path class="st1" d="M281,132.3c-0.6,0-1.1-0.1-1.5-0.3c-0.4-0.2-0.8-0.6-1-1s-0.3-0.9-0.3-1.4c0-0.5,0.1-1,0.4-1.4s0.6-0.7,1-1
					c0.4-0.2,0.9-0.4,1.4-0.4c0.7,0,1.3,0.2,1.7,0.6c0.5,0.4,0.8,1,0.9,1.7l-4.1,1.4l-0.3-0.8l3.2-1.1l-0.3,0.2
					c-0.1-0.2-0.2-0.5-0.4-0.6c-0.2-0.2-0.5-0.3-0.8-0.3c-0.3,0-0.5,0.1-0.7,0.2c-0.2,0.1-0.4,0.3-0.5,0.6c-0.1,0.2-0.2,0.5-0.2,0.8
					c0,0.3,0.1,0.6,0.2,0.9c0.1,0.2,0.3,0.4,0.6,0.6c0.2,0.1,0.5,0.2,0.8,0.2c0.2,0,0.4,0,0.6-0.1c0.2-0.1,0.4-0.2,0.5-0.3l0.6,1
					c-0.3,0.2-0.6,0.3-0.9,0.4C281.6,132.3,281.3,132.3,281,132.3z"/>
				<path class="st1" d="M286.5,132.3c-0.4,0-0.8-0.1-1.1-0.2c-0.3-0.1-0.6-0.3-0.9-0.6l0.6-0.8c0.2,0.2,0.4,0.4,0.7,0.5
					c0.2,0.1,0.4,0.2,0.6,0.2c0.2,0,0.3,0,0.4-0.1s0.2-0.1,0.3-0.2s0.1-0.2,0.1-0.3c0-0.2-0.1-0.3-0.2-0.4c-0.1-0.1-0.2-0.2-0.4-0.2
					c-0.2-0.1-0.4-0.1-0.6-0.2c-0.4-0.1-0.8-0.3-1-0.6s-0.3-0.6-0.3-0.9c0-0.3,0.1-0.5,0.2-0.8c0.1-0.2,0.3-0.5,0.6-0.6
					c0.3-0.2,0.6-0.2,1.1-0.2c0.4,0,0.7,0,1,0.1s0.6,0.2,0.8,0.4l-0.5,0.8c-0.1-0.1-0.3-0.2-0.5-0.3c-0.2-0.1-0.4-0.1-0.5-0.1
					c-0.1,0-0.3,0-0.4,0.1c-0.1,0-0.2,0.1-0.3,0.2c-0.1,0.1-0.1,0.2-0.1,0.3c0,0.2,0,0.3,0.2,0.4c0.1,0.1,0.3,0.2,0.5,0.2
					c0.2,0.1,0.4,0.1,0.5,0.2c0.2,0.1,0.5,0.2,0.7,0.3c0.2,0.1,0.3,0.3,0.5,0.5s0.2,0.4,0.2,0.7c0,0.3-0.1,0.6-0.2,0.9
					c-0.2,0.3-0.4,0.5-0.7,0.6C287.4,132.2,287,132.3,286.5,132.3z"/>
				<path class="st1" d="M293.1,132.3c-0.4,0-0.7-0.1-1-0.2c-0.3-0.2-0.6-0.4-0.8-0.6l0.1-0.4v3.6h-1.3V127h1.1l0.2,1.2l-0.1-0.3
					c0.3-0.3,0.6-0.5,0.9-0.7c0.4-0.2,0.8-0.3,1.2-0.3c0.5,0,0.9,0.1,1.3,0.3s0.7,0.5,0.9,0.9c0.2,0.4,0.3,0.9,0.3,1.5
					c0,0.6-0.1,1-0.4,1.4c-0.2,0.4-0.6,0.7-1,0.9C294.1,132.2,293.7,132.3,293.1,132.3z M292.9,131.3c0.3,0,0.6-0.1,0.8-0.2
					s0.4-0.3,0.6-0.6c0.1-0.2,0.2-0.5,0.2-0.8c0-0.3-0.1-0.6-0.2-0.8c-0.1-0.2-0.3-0.4-0.6-0.6c-0.2-0.1-0.5-0.2-0.8-0.2
					c-0.3,0-0.5,0-0.7,0.1c-0.2,0.1-0.4,0.2-0.5,0.4c-0.1,0.2-0.3,0.4-0.3,0.6v1c0,0.2,0.1,0.4,0.3,0.6c0.1,0.2,0.3,0.3,0.5,0.4
					C292.4,131.2,292.6,131.3,292.9,131.3z"/>
				<path class="st1" d="M299.4,132.3c-0.5,0-0.9-0.1-1.3-0.3c-0.4-0.2-0.7-0.5-0.9-0.9c-0.2-0.4-0.3-0.9-0.3-1.5
					c0-0.6,0.1-1.1,0.4-1.5c0.2-0.4,0.5-0.7,0.9-1s0.8-0.3,1.3-0.3c0.5,0,0.9,0.1,1.2,0.3c0.3,0.2,0.5,0.4,0.7,0.7l-0.1,0.2l0.1-0.9
					h1.2v5.1h-1.4V131l0.1,0.3c0,0-0.1,0.1-0.2,0.2s-0.2,0.2-0.4,0.4c-0.2,0.1-0.4,0.2-0.6,0.3C300,132.3,299.7,132.3,299.4,132.3z
					 M299.8,131.2c0.2,0,0.5,0,0.7-0.1s0.4-0.2,0.5-0.4c0.1-0.2,0.2-0.4,0.3-0.6v-1.1c-0.1-0.2-0.2-0.4-0.3-0.5
					c-0.1-0.2-0.3-0.3-0.5-0.4s-0.4-0.1-0.7-0.1c-0.3,0-0.5,0.1-0.8,0.2c-0.2,0.1-0.4,0.3-0.6,0.6c-0.1,0.2-0.2,0.5-0.2,0.8
					c0,0.3,0.1,0.6,0.2,0.8c0.1,0.2,0.3,0.4,0.6,0.6C299.3,131.2,299.5,131.2,299.8,131.2z"/>
				<path class="st1" d="M308.7,131.8c-0.2,0.2-0.5,0.3-0.8,0.4c-0.3,0.1-0.6,0.2-1,0.2c-0.6,0-1.1-0.1-1.5-0.3
					c-0.4-0.2-0.8-0.5-1-0.9c-0.2-0.4-0.3-0.9-0.3-1.4s0.1-1,0.4-1.4c0.3-0.4,0.6-0.7,1-0.9s0.8-0.3,1.3-0.3c0.4,0,0.8,0.1,1.1,0.2
					c0.3,0.1,0.6,0.3,0.8,0.5l-0.6,0.9c-0.1-0.1-0.3-0.2-0.5-0.3s-0.4-0.1-0.7-0.1c-0.3,0-0.5,0.1-0.7,0.2c-0.2,0.1-0.4,0.3-0.5,0.6
					s-0.2,0.5-0.2,0.8c0,0.3,0.1,0.6,0.2,0.8s0.3,0.4,0.6,0.6c0.2,0.1,0.5,0.2,0.8,0.2c0.2,0,0.4,0,0.6-0.1c0.2-0.1,0.3-0.1,0.5-0.2
					L308.7,131.8z"/>
				<path class="st1" d="M310,125.3c0-0.2,0.1-0.4,0.2-0.5c0.2-0.1,0.3-0.2,0.5-0.2c0.2,0,0.4,0.1,0.5,0.2c0.2,0.1,0.2,0.3,0.2,0.5
					c0,0.2-0.1,0.4-0.2,0.5s-0.3,0.2-0.5,0.2c-0.2,0-0.4-0.1-0.5-0.2S310,125.5,310,125.3z M310.1,127.1h1.3v5.1h-1.3V127.1z"/>
				<path class="st1" d="M312.8,129.6c0-0.5,0.1-1,0.4-1.4s0.6-0.7,1-1c0.4-0.2,0.9-0.4,1.5-0.4c0.6,0,1,0.1,1.5,0.4
					c0.4,0.2,0.7,0.6,1,1c0.2,0.4,0.3,0.9,0.3,1.4c0,0.5-0.1,1-0.3,1.4c-0.2,0.4-0.6,0.7-1,1s-0.9,0.4-1.5,0.4c-0.5,0-1-0.1-1.5-0.3
					c-0.4-0.2-0.8-0.5-1-0.9S312.8,130.2,312.8,129.6z M314.2,129.6c0,0.3,0.1,0.6,0.2,0.8s0.3,0.4,0.5,0.6c0.2,0.1,0.5,0.2,0.8,0.2
					c0.3,0,0.6-0.1,0.8-0.2c0.2-0.1,0.4-0.3,0.5-0.6s0.2-0.5,0.2-0.8c0-0.3-0.1-0.6-0.2-0.8s-0.3-0.4-0.5-0.6
					c-0.2-0.1-0.5-0.2-0.8-0.2c-0.3,0-0.5,0.1-0.8,0.2c-0.2,0.1-0.4,0.3-0.5,0.6S314.2,129.3,314.2,129.6z"/>
			</g>
		</g>
	</g>
	<g>
		<g>
			<path class="st0" d="M88.4,68.5c-0.5,0-0.9-0.1-1.3-0.3s-0.7-0.5-0.9-0.9s-0.3-0.9-0.3-1.5c0-0.6,0.1-1.1,0.4-1.5
				c0.2-0.4,0.5-0.7,0.9-1c0.4-0.2,0.8-0.3,1.3-0.3c0.5,0,0.9,0.1,1.2,0.3c0.3,0.2,0.5,0.4,0.7,0.7l-0.1,0.2l0.1-0.9h1.2v5.1h-1.4
				v-1.2l0.1,0.3c0,0-0.1,0.1-0.2,0.2c-0.1,0.1-0.2,0.2-0.4,0.4c-0.2,0.1-0.4,0.2-0.6,0.3C89,68.5,88.7,68.5,88.4,68.5z M88.8,67.4
				c0.2,0,0.5,0,0.7-0.1s0.4-0.2,0.5-0.4c0.1-0.2,0.2-0.4,0.3-0.6v-1.1c-0.1-0.2-0.2-0.4-0.3-0.5c-0.1-0.2-0.3-0.3-0.5-0.4
				s-0.4-0.1-0.7-0.1c-0.3,0-0.5,0.1-0.8,0.2c-0.2,0.1-0.4,0.3-0.6,0.6c-0.1,0.2-0.2,0.5-0.2,0.8c0,0.3,0.1,0.6,0.2,0.8
				c0.1,0.2,0.3,0.4,0.6,0.6C88.2,67.3,88.5,67.4,88.8,67.4z"/>
			<path class="st0" d="M94.6,63.3l0.1,1.4l0-0.2c0.1-0.3,0.3-0.6,0.6-0.8c0.3-0.2,0.5-0.4,0.8-0.5c0.3-0.1,0.5-0.2,0.7-0.2
				l-0.1,1.3c-0.4,0-0.7,0-1,0.2S95.2,65,95,65.3c-0.2,0.3-0.2,0.6-0.2,0.9v2.2h-1.3v-5.1H94.6z"/>
			<path class="st0" d="M98.6,61.1h1.3v2.2h1.3v1h-1.3v4h-1.3v-4h-0.9v-1h0.9V61.1z"/>
			<path class="st0" d="M105,68.5c-0.6,0-1.1-0.1-1.5-0.3c-0.4-0.2-0.8-0.6-1-1c-0.2-0.4-0.3-0.9-0.3-1.4c0-0.5,0.1-1,0.4-1.4
				s0.6-0.7,1-1c0.4-0.2,0.9-0.4,1.4-0.4c0.7,0,1.3,0.2,1.7,0.6c0.5,0.4,0.8,1,0.9,1.7l-4.1,1.4l-0.3-0.8l3.2-1.1l-0.3,0.2
				c-0.1-0.2-0.2-0.5-0.4-0.6s-0.5-0.3-0.8-0.3c-0.3,0-0.5,0.1-0.7,0.2c-0.2,0.1-0.4,0.3-0.5,0.6s-0.2,0.5-0.2,0.8
				c0,0.3,0.1,0.6,0.2,0.9c0.1,0.2,0.3,0.4,0.6,0.6c0.2,0.1,0.5,0.2,0.8,0.2c0.2,0,0.4,0,0.6-0.1c0.2-0.1,0.4-0.2,0.5-0.3l0.6,1
				c-0.3,0.2-0.6,0.3-0.9,0.4S105.3,68.5,105,68.5z"/>
		</g>
	</g>
	<g>
		<g>
			<path class="st2" d="M95.1,9.8c-0.2,0.2-0.5,0.3-0.8,0.4c-0.3,0.1-0.6,0.2-1,0.2c-0.6,0-1.1-0.1-1.5-0.3c-0.4-0.2-0.8-0.5-1-0.9
				c-0.2-0.4-0.3-0.9-0.3-1.4c0-0.6,0.1-1,0.4-1.4s0.6-0.7,1-0.9C92.3,5.1,92.7,5,93.2,5c0.4,0,0.8,0.1,1.1,0.2
				c0.3,0.1,0.6,0.3,0.8,0.5l-0.6,0.9c-0.1-0.1-0.3-0.2-0.5-0.3c-0.2-0.1-0.4-0.1-0.7-0.1c-0.3,0-0.5,0.1-0.7,0.2
				c-0.2,0.1-0.4,0.3-0.5,0.6c-0.1,0.2-0.2,0.5-0.2,0.8c0,0.3,0.1,0.6,0.2,0.8c0.1,0.2,0.3,0.4,0.6,0.6c0.2,0.1,0.5,0.2,0.8,0.2
				c0.2,0,0.4,0,0.6-0.1s0.3-0.1,0.5-0.2L95.1,9.8z"/>
			<path class="st2" d="M96.1,7.6c0-0.5,0.1-1,0.4-1.4c0.2-0.4,0.6-0.7,1-1C97.9,5,98.4,4.9,99,4.9c0.6,0,1,0.1,1.5,0.4
				c0.4,0.2,0.7,0.6,1,1c0.2,0.4,0.3,0.9,0.3,1.4c0,0.5-0.1,1-0.3,1.4c-0.2,0.4-0.6,0.7-1,1c-0.4,0.2-0.9,0.4-1.5,0.4
				c-0.5,0-1-0.1-1.5-0.3c-0.4-0.2-0.8-0.5-1-0.9C96.2,8.7,96.1,8.2,96.1,7.6z M97.4,7.6c0,0.3,0.1,0.6,0.2,0.8
				c0.1,0.2,0.3,0.4,0.5,0.6c0.2,0.1,0.5,0.2,0.8,0.2c0.3,0,0.6-0.1,0.8-0.2c0.2-0.1,0.4-0.3,0.5-0.6c0.1-0.2,0.2-0.5,0.2-0.8
				c0-0.3-0.1-0.6-0.2-0.8s-0.3-0.4-0.5-0.6C99.5,6.1,99.2,6,98.9,6c-0.3,0-0.5,0.1-0.8,0.2c-0.2,0.1-0.4,0.3-0.5,0.6
				C97.5,7.1,97.4,7.3,97.4,7.6z"/>
			<path class="st2" d="M104.4,5.1l0.1,1l0-0.1c0.2-0.4,0.5-0.7,0.8-0.9c0.3-0.2,0.7-0.3,1.1-0.3c0.3,0,0.5,0,0.8,0.1
				c0.2,0.1,0.4,0.2,0.5,0.4c0.1,0.2,0.2,0.4,0.3,0.6l0,0c0.2-0.4,0.5-0.6,0.8-0.8s0.7-0.3,1.1-0.3c0.5,0,0.9,0.1,1.2,0.4
				c0.3,0.3,0.4,0.6,0.5,1.1v3.8h-1.3V7c0-0.2-0.1-0.5-0.2-0.6c-0.1-0.2-0.3-0.3-0.5-0.3c-0.3,0-0.5,0.1-0.7,0.3
				c-0.2,0.2-0.4,0.4-0.5,0.7C108,7.3,108,7.6,108,7.9v2.3h-1.3V7c0-0.2-0.1-0.5-0.2-0.6c-0.1-0.2-0.3-0.3-0.6-0.3
				c-0.3,0-0.5,0.1-0.7,0.3c-0.2,0.2-0.4,0.4-0.5,0.7c-0.1,0.3-0.2,0.6-0.2,0.9v2.3h-1.3V5.1H104.4z"/>
			<path class="st2" d="M114.9,10.4c-0.5,0-0.8-0.1-1.1-0.4s-0.5-0.6-0.5-1.1V5.1h1.3v3.3c0,0.3,0.1,0.5,0.2,0.6
				c0.1,0.2,0.3,0.2,0.6,0.2c0.3,0,0.5-0.1,0.7-0.2c0.2-0.2,0.4-0.4,0.5-0.7s0.2-0.6,0.2-1V5.1h1.3v5.1h-1.2l-0.1-1.1l0,0.2
				c-0.1,0.2-0.3,0.4-0.4,0.6s-0.4,0.3-0.7,0.4C115.5,10.4,115.2,10.4,114.9,10.4z"/>
			<path class="st2" d="M121.2,5.1l0.1,1.1l0-0.1c0.2-0.4,0.4-0.6,0.8-0.8c0.3-0.2,0.8-0.3,1.2-0.3c0.5,0,0.9,0.1,1.2,0.4
				c0.3,0.3,0.5,0.6,0.5,1.1v3.8h-1.3V6.9c0-0.3-0.1-0.5-0.2-0.6c-0.1-0.2-0.4-0.2-0.6-0.2c-0.3,0-0.5,0.1-0.7,0.2s-0.4,0.4-0.5,0.7
				s-0.2,0.6-0.2,1v2.2H120V5.1H121.2z"/>
			<path class="st2" d="M126.8,3.3c0-0.2,0.1-0.4,0.2-0.5c0.2-0.1,0.3-0.2,0.5-0.2c0.2,0,0.4,0.1,0.5,0.2c0.2,0.1,0.2,0.3,0.2,0.5
				c0,0.2-0.1,0.4-0.2,0.5C127.9,4,127.7,4,127.5,4c-0.2,0-0.4-0.1-0.5-0.2C126.8,3.7,126.8,3.5,126.8,3.3z M126.8,5.1h1.3v5.1h-1.3
				V5.1z"/>
			<path class="st2" d="M132.1,10.3c-0.5,0-0.9-0.1-1.3-0.3c-0.4-0.2-0.7-0.5-0.9-1s-0.3-0.9-0.3-1.5c0-0.6,0.1-1.1,0.3-1.5
				c0.2-0.4,0.6-0.7,1-0.9c0.4-0.2,0.9-0.3,1.4-0.3c0.4,0,0.7,0.1,1.1,0.2c0.3,0.1,0.6,0.3,0.8,0.6l0,0.5V0.9h1.3v9.4h-1.3V9.1
				l0.1,0.3c-0.3,0.3-0.6,0.5-0.9,0.7C132.9,10.3,132.5,10.3,132.1,10.3z M132.5,9.2c0.3,0,0.5,0,0.7-0.1s0.4-0.2,0.5-0.4
				c0.1-0.2,0.3-0.4,0.3-0.6V7c-0.1-0.2-0.2-0.4-0.3-0.6s-0.3-0.3-0.5-0.4S132.8,6,132.5,6c-0.3,0-0.5,0.1-0.8,0.2
				c-0.2,0.1-0.4,0.3-0.6,0.6c-0.1,0.2-0.2,0.5-0.2,0.8c0,0.3,0.1,0.6,0.2,0.8c0.1,0.2,0.3,0.4,0.6,0.6C132,9.1,132.2,9.2,132.5,9.2
				z"/>
			<path class="st2" d="M139.4,10.3c-0.5,0-0.9-0.1-1.3-0.3s-0.7-0.5-0.9-0.9s-0.3-0.9-0.3-1.5c0-0.6,0.1-1.1,0.4-1.5
				c0.2-0.4,0.5-0.7,0.9-1c0.4-0.2,0.8-0.3,1.3-0.3c0.5,0,0.9,0.1,1.2,0.3c0.3,0.2,0.5,0.4,0.7,0.7l-0.1,0.2l0.1-0.9h1.2v5.1h-1.4V9
				l0.1,0.3c0,0-0.1,0.1-0.2,0.2c-0.1,0.1-0.2,0.2-0.4,0.4c-0.2,0.1-0.4,0.2-0.6,0.3C140,10.3,139.7,10.3,139.4,10.3z M139.8,9.2
				c0.2,0,0.5,0,0.7-0.1s0.4-0.2,0.5-0.4c0.1-0.2,0.2-0.4,0.3-0.6V7.1c-0.1-0.2-0.2-0.4-0.3-0.5c-0.1-0.2-0.3-0.3-0.5-0.4
				S140,6,139.7,6c-0.3,0-0.5,0.1-0.8,0.2c-0.2,0.1-0.4,0.3-0.6,0.6c-0.1,0.2-0.2,0.5-0.2,0.8c0,0.3,0.1,0.6,0.2,0.8
				c0.1,0.2,0.3,0.4,0.6,0.6C139.2,9.2,139.5,9.2,139.8,9.2z"/>
			<path class="st2" d="M146.5,10.3c-0.5,0-0.9-0.1-1.3-0.3c-0.4-0.2-0.7-0.5-0.9-1S144,8.1,144,7.6c0-0.6,0.1-1.1,0.3-1.5
				c0.2-0.4,0.6-0.7,1-0.9c0.4-0.2,0.9-0.3,1.4-0.3c0.4,0,0.7,0.1,1.1,0.2c0.3,0.1,0.6,0.3,0.8,0.6l0,0.5V0.9h1.3v9.4h-1.3V9.1
				l0.1,0.3c-0.3,0.3-0.6,0.5-0.9,0.7C147.4,10.3,147,10.3,146.5,10.3z M147,9.2c0.3,0,0.5,0,0.7-0.1s0.4-0.2,0.5-0.4
				c0.1-0.2,0.3-0.4,0.3-0.6V7c-0.1-0.2-0.2-0.4-0.3-0.6s-0.3-0.3-0.5-0.4S147.2,6,147,6c-0.3,0-0.5,0.1-0.8,0.2
				c-0.2,0.1-0.4,0.3-0.6,0.6c-0.1,0.2-0.2,0.5-0.2,0.8c0,0.3,0.1,0.6,0.2,0.8c0.1,0.2,0.3,0.4,0.6,0.6C146.4,9.1,146.7,9.2,147,9.2
				z"/>
		</g>
	</g>
	<g>
		<g>
			<g>
				<path class="st2" d="M21.3,35c-0.4,0-0.7-0.1-1-0.2s-0.6-0.4-0.8-0.6l0.1-0.4v3.6h-1.3v-7.6h1.1l0.2,1.2l-0.1-0.3
					c0.3-0.3,0.6-0.5,0.9-0.7c0.4-0.2,0.8-0.3,1.2-0.3c0.5,0,0.9,0.1,1.3,0.3c0.4,0.2,0.7,0.5,0.9,0.9c0.2,0.4,0.3,0.9,0.3,1.5
					c0,0.6-0.1,1-0.4,1.4c-0.2,0.4-0.6,0.7-1,0.9C22.3,34.9,21.9,35,21.3,35z M21.1,33.9c0.3,0,0.6-0.1,0.8-0.2
					c0.2-0.1,0.4-0.3,0.6-0.6c0.1-0.2,0.2-0.5,0.2-0.8c0-0.3-0.1-0.6-0.2-0.8c-0.1-0.2-0.3-0.4-0.6-0.6c-0.2-0.1-0.5-0.2-0.8-0.2
					c-0.3,0-0.5,0-0.7,0.1c-0.2,0.1-0.4,0.2-0.5,0.4c-0.1,0.2-0.3,0.4-0.3,0.6v1c0,0.2,0.1,0.4,0.3,0.6c0.1,0.2,0.3,0.3,0.5,0.4
					C20.6,33.9,20.8,33.9,21.1,33.9z"/>
				<path class="st2" d="M26.7,29.8l0.1,1.4l0-0.2c0.1-0.3,0.3-0.6,0.6-0.8c0.3-0.2,0.5-0.4,0.8-0.5c0.3-0.1,0.5-0.2,0.7-0.2
					l-0.1,1.3c-0.4,0-0.7,0-1,0.2s-0.5,0.4-0.7,0.7c-0.2,0.3-0.2,0.6-0.2,0.9v2.2h-1.3v-5.1H26.7z"/>
				<path class="st2" d="M29.8,32.3c0-0.5,0.1-1,0.4-1.4c0.2-0.4,0.6-0.7,1-1c0.4-0.2,0.9-0.4,1.5-0.4c0.6,0,1,0.1,1.5,0.4
					c0.4,0.2,0.7,0.6,1,1c0.2,0.4,0.3,0.9,0.3,1.4c0,0.5-0.1,1-0.3,1.4c-0.2,0.4-0.6,0.7-1,1c-0.4,0.2-0.9,0.4-1.5,0.4
					c-0.5,0-1-0.1-1.5-0.3c-0.4-0.2-0.8-0.5-1-0.9C29.9,33.3,29.8,32.8,29.8,32.3z M31.1,32.3c0,0.3,0.1,0.6,0.2,0.8
					c0.1,0.2,0.3,0.4,0.5,0.6c0.2,0.1,0.5,0.2,0.8,0.2c0.3,0,0.6-0.1,0.8-0.2c0.2-0.1,0.4-0.3,0.5-0.6c0.1-0.2,0.2-0.5,0.2-0.8
					c0-0.3-0.1-0.6-0.2-0.8s-0.3-0.4-0.5-0.6c-0.2-0.1-0.5-0.2-0.8-0.2c-0.3,0-0.5,0.1-0.8,0.2c-0.2,0.1-0.4,0.3-0.5,0.6
					C31.2,31.7,31.1,32,31.1,32.3z"/>
				<path class="st2" d="M41.1,34.4c-0.2,0.2-0.5,0.3-0.8,0.4c-0.3,0.1-0.6,0.2-1,0.2c-0.6,0-1.1-0.1-1.5-0.3
					c-0.4-0.2-0.8-0.5-1-0.9c-0.2-0.4-0.3-0.9-0.3-1.4c0-0.6,0.1-1,0.4-1.4s0.6-0.7,1-0.9c0.4-0.2,0.8-0.3,1.3-0.3
					c0.4,0,0.8,0.1,1.1,0.2c0.3,0.1,0.6,0.3,0.8,0.5l-0.6,0.9c-0.1-0.1-0.3-0.2-0.5-0.3c-0.2-0.1-0.4-0.1-0.7-0.1
					c-0.3,0-0.5,0.1-0.7,0.2c-0.2,0.1-0.4,0.3-0.5,0.6c-0.1,0.2-0.2,0.5-0.2,0.8c0,0.3,0.1,0.6,0.2,0.8c0.1,0.2,0.3,0.4,0.6,0.6
					c0.2,0.1,0.5,0.2,0.8,0.2c0.2,0,0.4,0,0.6-0.1s0.3-0.1,0.5-0.2L41.1,34.4z"/>
				<path class="st2" d="M44.8,35c-0.6,0-1.1-0.1-1.5-0.3c-0.4-0.2-0.8-0.6-1-1c-0.2-0.4-0.3-0.9-0.3-1.4c0-0.5,0.1-1,0.4-1.4
					s0.6-0.7,1-1c0.4-0.2,0.9-0.4,1.4-0.4c0.7,0,1.3,0.2,1.7,0.6c0.5,0.4,0.8,1,0.9,1.7l-4.1,1.4l-0.3-0.8l3.2-1.1L46,31.5
					c-0.1-0.2-0.2-0.5-0.4-0.6s-0.5-0.3-0.8-0.3c-0.3,0-0.5,0.1-0.7,0.2c-0.2,0.1-0.4,0.3-0.5,0.6s-0.2,0.5-0.2,0.8
					c0,0.3,0.1,0.6,0.2,0.9c0.1,0.2,0.3,0.4,0.6,0.6c0.2,0.1,0.5,0.2,0.8,0.2c0.2,0,0.4,0,0.6-0.1c0.2-0.1,0.4-0.2,0.5-0.3l0.6,1
					c-0.3,0.2-0.6,0.3-0.9,0.4S45.1,35,44.8,35z"/>
				<path class="st2" d="M50.4,35c-0.4,0-0.8-0.1-1.1-0.2c-0.3-0.1-0.6-0.3-0.9-0.6l0.6-0.8c0.2,0.2,0.4,0.4,0.7,0.5S50,34,50.2,34
					c0.2,0,0.3,0,0.4-0.1c0.1,0,0.2-0.1,0.3-0.2c0.1-0.1,0.1-0.2,0.1-0.3c0-0.2-0.1-0.3-0.2-0.4c-0.1-0.1-0.2-0.2-0.4-0.2
					c-0.2-0.1-0.4-0.1-0.6-0.2c-0.4-0.1-0.8-0.3-1-0.6c-0.2-0.3-0.3-0.6-0.3-0.9c0-0.3,0.1-0.5,0.2-0.8c0.1-0.2,0.3-0.5,0.6-0.6
					c0.3-0.2,0.6-0.2,1.1-0.2c0.4,0,0.7,0,1,0.1s0.6,0.2,0.8,0.4L51.8,31c-0.1-0.1-0.3-0.2-0.5-0.3c-0.2-0.1-0.4-0.1-0.5-0.1
					c-0.1,0-0.3,0-0.4,0.1c-0.1,0-0.2,0.1-0.3,0.2C50,30.8,50,30.9,50,31c0,0.2,0,0.3,0.2,0.4c0.1,0.1,0.3,0.2,0.5,0.2
					c0.2,0.1,0.4,0.1,0.5,0.2c0.2,0.1,0.5,0.2,0.7,0.3c0.2,0.1,0.3,0.3,0.5,0.5c0.1,0.2,0.2,0.4,0.2,0.7c0,0.3-0.1,0.6-0.2,0.9
					c-0.2,0.3-0.4,0.5-0.7,0.6C51.2,34.9,50.8,35,50.4,35z"/>
				<path class="st2" d="M53.5,32.3c0-0.5,0.1-1,0.4-1.4c0.2-0.4,0.6-0.7,1-1c0.4-0.2,0.9-0.4,1.5-0.4c0.6,0,1,0.1,1.5,0.4
					c0.4,0.2,0.7,0.6,1,1c0.2,0.4,0.3,0.9,0.3,1.4c0,0.5-0.1,1-0.3,1.4c-0.2,0.4-0.6,0.7-1,1c-0.4,0.2-0.9,0.4-1.5,0.4
					c-0.5,0-1-0.1-1.5-0.3c-0.4-0.2-0.8-0.5-1-0.9C53.6,33.3,53.5,32.8,53.5,32.3z M54.8,32.3c0,0.3,0.1,0.6,0.2,0.8
					c0.1,0.2,0.3,0.4,0.5,0.6c0.2,0.1,0.5,0.2,0.8,0.2c0.3,0,0.6-0.1,0.8-0.2c0.2-0.1,0.4-0.3,0.5-0.6c0.1-0.2,0.2-0.5,0.2-0.8
					c0-0.3-0.1-0.6-0.2-0.8s-0.3-0.4-0.5-0.6c-0.2-0.1-0.5-0.2-0.8-0.2c-0.3,0-0.5,0.1-0.8,0.2c-0.2,0.1-0.4,0.3-0.5,0.6
					C54.9,31.7,54.8,32,54.8,32.3z"/>
				<path class="st2" d="M62.1,35c-0.4,0-0.8-0.1-1.1-0.2c-0.3-0.1-0.6-0.3-0.9-0.6l0.6-0.8c0.2,0.2,0.4,0.4,0.7,0.5S61.8,34,62,34
					c0.2,0,0.3,0,0.4-0.1c0.1,0,0.2-0.1,0.3-0.2c0.1-0.1,0.1-0.2,0.1-0.3c0-0.2-0.1-0.3-0.2-0.4c-0.1-0.1-0.2-0.2-0.4-0.2
					c-0.2-0.1-0.4-0.1-0.6-0.2c-0.4-0.1-0.8-0.3-1-0.6c-0.2-0.3-0.3-0.6-0.3-0.9c0-0.3,0.1-0.5,0.2-0.8c0.1-0.2,0.3-0.5,0.6-0.6
					c0.3-0.2,0.6-0.2,1.1-0.2c0.4,0,0.7,0,1,0.1s0.6,0.2,0.8,0.4L63.5,31c-0.1-0.1-0.3-0.2-0.5-0.3c-0.2-0.1-0.4-0.1-0.5-0.1
					c-0.1,0-0.3,0-0.4,0.1c-0.1,0-0.2,0.1-0.3,0.2c-0.1,0.1-0.1,0.2-0.1,0.3c0,0.2,0,0.3,0.2,0.4c0.1,0.1,0.3,0.2,0.5,0.2
					c0.2,0.1,0.4,0.1,0.5,0.2c0.2,0.1,0.5,0.2,0.7,0.3c0.2,0.1,0.3,0.3,0.5,0.5c0.1,0.2,0.2,0.4,0.2,0.7c0,0.3-0.1,0.6-0.2,0.9
					c-0.2,0.3-0.4,0.5-0.7,0.6C63,34.9,62.6,35,62.1,35z"/>
			</g>
		</g>
	</g>
	<g>
		<g>
			<path class="st0" d="M88.4,132.3c-0.5,0-0.9-0.1-1.3-0.3c-0.4-0.2-0.7-0.5-0.9-0.9c-0.2-0.4-0.3-0.9-0.3-1.5
				c0-0.6,0.1-1.1,0.4-1.5s0.5-0.7,0.9-1s0.8-0.3,1.3-0.3c0.5,0,0.9,0.1,1.2,0.3c0.3,0.2,0.5,0.4,0.7,0.7l-0.1,0.2l0.1-0.9h1.2v5.1
				h-1.4V131l0.1,0.3c0,0-0.1,0.1-0.2,0.2c-0.1,0.1-0.2,0.2-0.4,0.4c-0.2,0.1-0.4,0.2-0.6,0.3S88.7,132.3,88.4,132.3z M88.8,131.2
				c0.2,0,0.5,0,0.7-0.1c0.2-0.1,0.4-0.2,0.5-0.4c0.1-0.2,0.2-0.4,0.3-0.6v-1.1c-0.1-0.2-0.2-0.4-0.3-0.5c-0.1-0.2-0.3-0.3-0.5-0.4
				c-0.2-0.1-0.4-0.1-0.7-0.1c-0.3,0-0.5,0.1-0.8,0.2c-0.2,0.1-0.4,0.3-0.6,0.6c-0.1,0.2-0.2,0.5-0.2,0.8c0,0.3,0.1,0.6,0.2,0.8
				s0.3,0.4,0.6,0.6C88.2,131.2,88.5,131.2,88.8,131.2z"/>
			<path class="st0" d="M96.5,132.3c-0.4,0-0.7-0.1-1-0.2c-0.3-0.2-0.6-0.4-0.8-0.6l0.1-0.4v3.6h-1.3V127h1.1l0.2,1.2l-0.1-0.3
				c0.3-0.3,0.6-0.5,0.9-0.7c0.4-0.2,0.8-0.3,1.2-0.3c0.5,0,0.9,0.1,1.3,0.3s0.7,0.5,0.9,0.9c0.2,0.4,0.3,0.9,0.3,1.5
				c0,0.6-0.1,1-0.4,1.4c-0.2,0.4-0.6,0.7-1,0.9C97.5,132.2,97,132.3,96.5,132.3z M96.3,131.3c0.3,0,0.6-0.1,0.8-0.2
				s0.4-0.3,0.6-0.6s0.2-0.5,0.2-0.8c0-0.3-0.1-0.6-0.2-0.8c-0.1-0.2-0.3-0.4-0.6-0.6c-0.2-0.1-0.5-0.2-0.8-0.2
				c-0.3,0-0.5,0-0.7,0.1c-0.2,0.1-0.4,0.2-0.5,0.4s-0.3,0.4-0.3,0.6v1c0,0.2,0.1,0.4,0.3,0.6c0.1,0.2,0.3,0.3,0.5,0.4
				C95.8,131.2,96,131.3,96.3,131.3z"/>
			<path class="st0" d="M101.9,127.1l0.1,1.4l0-0.2c0.1-0.3,0.3-0.6,0.6-0.8c0.3-0.2,0.5-0.4,0.8-0.5c0.3-0.1,0.5-0.2,0.7-0.2
				l-0.1,1.3c-0.4,0-0.7,0-1,0.2c-0.3,0.2-0.5,0.4-0.7,0.7c-0.2,0.3-0.2,0.6-0.2,0.9v2.2h-1.3v-5.1H101.9z"/>
			<path class="st0" d="M107.8,132.3c-0.6,0-1.1-0.1-1.5-0.3c-0.4-0.2-0.8-0.6-1-1s-0.3-0.9-0.3-1.4c0-0.5,0.1-1,0.4-1.4
				c0.3-0.4,0.6-0.7,1-1s0.9-0.4,1.4-0.4c0.7,0,1.3,0.2,1.7,0.6c0.5,0.4,0.8,1,0.9,1.7l-4.1,1.4l-0.3-0.8l3.2-1.1l-0.3,0.2
				c-0.1-0.2-0.2-0.5-0.4-0.6c-0.2-0.2-0.5-0.3-0.8-0.3c-0.3,0-0.5,0.1-0.7,0.2c-0.2,0.1-0.4,0.3-0.5,0.6c-0.1,0.2-0.2,0.5-0.2,0.8
				c0,0.3,0.1,0.6,0.2,0.9c0.1,0.2,0.3,0.4,0.6,0.6c0.2,0.1,0.5,0.2,0.8,0.2c0.2,0,0.4,0,0.6-0.1c0.2-0.1,0.4-0.2,0.5-0.3l0.6,1
				c-0.3,0.2-0.6,0.3-0.9,0.4C108.4,132.3,108.1,132.3,107.8,132.3z"/>
			<path class="st0" d="M113,127.1l0.1,1.1l0-0.1c0.2-0.4,0.4-0.6,0.8-0.8c0.3-0.2,0.8-0.3,1.2-0.3c0.5,0,0.9,0.1,1.2,0.4
				c0.3,0.3,0.5,0.6,0.5,1.1v3.8h-1.3v-3.3c0-0.3-0.1-0.5-0.2-0.6c-0.1-0.2-0.4-0.2-0.6-0.2c-0.3,0-0.5,0.1-0.7,0.2
				c-0.2,0.2-0.4,0.4-0.5,0.7c-0.1,0.3-0.2,0.6-0.2,1v2.2h-1.3v-5.1H113z"/>
			<path class="st0" d="M120.7,132.3c-0.5,0-0.9-0.1-1.3-0.3c-0.4-0.2-0.7-0.5-0.9-1c-0.2-0.4-0.3-0.9-0.3-1.5
				c0-0.6,0.1-1.1,0.3-1.5c0.2-0.4,0.5-0.7,1-0.9c0.4-0.2,0.9-0.3,1.4-0.3c0.4,0,0.7,0.1,1.1,0.2s0.6,0.3,0.8,0.6l0,0.5v-5.3h1.3
				v9.4h-1.3v-1.1l0.1,0.3c-0.3,0.3-0.6,0.5-0.9,0.7S121.1,132.3,120.7,132.3z M121.1,131.2c0.3,0,0.5,0,0.7-0.1
				c0.2-0.1,0.4-0.2,0.5-0.4c0.1-0.2,0.3-0.4,0.3-0.6V129c-0.1-0.2-0.2-0.4-0.3-0.6s-0.3-0.3-0.5-0.4c-0.2-0.1-0.4-0.1-0.7-0.1
				c-0.3,0-0.6,0.1-0.8,0.2c-0.2,0.1-0.4,0.3-0.6,0.6s-0.2,0.5-0.2,0.8c0,0.3,0.1,0.6,0.2,0.8s0.3,0.4,0.6,0.6
				C120.6,131.1,120.8,131.2,121.1,131.2z"/>
			<path class="st0" d="M125.8,125.3c0-0.2,0.1-0.4,0.2-0.5c0.2-0.1,0.3-0.2,0.5-0.2s0.4,0.1,0.5,0.2c0.2,0.1,0.2,0.3,0.2,0.5
				c0,0.2-0.1,0.4-0.2,0.5c-0.2,0.1-0.3,0.2-0.5,0.2s-0.4-0.1-0.5-0.2C125.9,125.7,125.8,125.5,125.8,125.3z M125.9,127.1h1.3v5.1
				h-1.3V127.1z"/>
			<path class="st0" d="M129.7,128.2c-0.3,0-0.5-0.1-0.7-0.3c-0.2-0.2-0.3-0.4-0.3-0.7v-0.6h1v0.2c0,0.1,0,0.2,0.1,0.3
				s0.2,0.1,0.3,0.1h3.2l-3,4.3l-0.3-0.3h3.2v1.1h-4.9l3-4.4l0.2,0.4H129.7z"/>
			<path class="st0" d="M137,132.3c-0.5,0-0.9-0.1-1.3-0.3c-0.4-0.2-0.7-0.5-0.9-0.9c-0.2-0.4-0.3-0.9-0.3-1.5
				c0-0.6,0.1-1.1,0.4-1.5s0.5-0.7,0.9-1s0.8-0.3,1.3-0.3c0.5,0,0.9,0.1,1.2,0.3c0.3,0.2,0.5,0.4,0.7,0.7l-0.1,0.2l0.1-0.9h1.2v5.1
				h-1.4V131l0.1,0.3c0,0-0.1,0.1-0.2,0.2c-0.1,0.1-0.2,0.2-0.4,0.4c-0.2,0.1-0.4,0.2-0.6,0.3S137.3,132.3,137,132.3z M137.4,131.2
				c0.2,0,0.5,0,0.7-0.1c0.2-0.1,0.4-0.2,0.5-0.4c0.1-0.2,0.2-0.4,0.3-0.6v-1.1c-0.1-0.2-0.2-0.4-0.3-0.5c-0.1-0.2-0.3-0.3-0.5-0.4
				c-0.2-0.1-0.4-0.1-0.7-0.1c-0.3,0-0.5,0.1-0.8,0.2c-0.2,0.1-0.4,0.3-0.6,0.6c-0.1,0.2-0.2,0.5-0.2,0.8c0,0.3,0.1,0.6,0.2,0.8
				s0.3,0.4,0.6,0.6C136.9,131.2,137.1,131.2,137.4,131.2z"/>
			<path class="st0" d="M142.2,134.7l-0.8-0.8c0.2-0.2,0.4-0.4,0.5-0.7c0.1-0.3,0.2-0.6,0.2-1v-5h1.3v5.1c0,0.6-0.1,1.1-0.3,1.5
				C143,134.1,142.7,134.4,142.2,134.7z M142.1,125.3c0-0.2,0.1-0.4,0.2-0.5c0.2-0.1,0.3-0.2,0.5-0.2s0.4,0.1,0.5,0.2
				c0.2,0.1,0.2,0.3,0.2,0.5c0,0.2-0.1,0.4-0.2,0.5c-0.2,0.1-0.3,0.2-0.5,0.2s-0.4-0.1-0.5-0.2C142.2,125.7,142.1,125.5,142.1,125.3
				z"/>
			<path class="st0" d="M147.8,132.3c-0.6,0-1.1-0.1-1.5-0.3c-0.4-0.2-0.8-0.6-1-1s-0.3-0.9-0.3-1.4c0-0.5,0.1-1,0.4-1.4
				c0.3-0.4,0.6-0.7,1-1s0.9-0.4,1.4-0.4c0.7,0,1.3,0.2,1.7,0.6c0.5,0.4,0.8,1,0.9,1.7l-4.1,1.4l-0.3-0.8l3.2-1.1l-0.3,0.2
				c-0.1-0.2-0.2-0.5-0.4-0.6c-0.2-0.2-0.5-0.3-0.8-0.3c-0.3,0-0.5,0.1-0.7,0.2c-0.2,0.1-0.4,0.3-0.5,0.6c-0.1,0.2-0.2,0.5-0.2,0.8
				c0,0.3,0.1,0.6,0.2,0.9c0.1,0.2,0.3,0.4,0.6,0.6c0.2,0.1,0.5,0.2,0.8,0.2c0.2,0,0.4,0,0.6-0.1c0.2-0.1,0.4-0.2,0.5-0.3l0.6,1
				c-0.3,0.2-0.6,0.3-0.9,0.4C148.4,132.3,148.1,132.3,147.8,132.3z"/>
		</g>
	</g>
	<g>
		<g>
			<path class="st3" d="M100.4,213c-0.6,0-1.1-0.1-1.5-0.3c-0.4-0.2-0.8-0.6-1-1s-0.3-0.9-0.3-1.4c0-0.5,0.1-1,0.4-1.4s0.6-0.7,1-1
				c0.4-0.2,0.9-0.4,1.4-0.4c0.7,0,1.3,0.2,1.7,0.6c0.5,0.4,0.8,1,0.9,1.7l-4.1,1.4l-0.3-0.8l3.2-1.1l-0.3,0.2
				c-0.1-0.2-0.2-0.5-0.4-0.6c-0.2-0.2-0.5-0.3-0.8-0.3c-0.3,0-0.5,0.1-0.7,0.2c-0.2,0.1-0.4,0.3-0.5,0.6c-0.1,0.2-0.2,0.5-0.2,0.8
				c0,0.3,0.1,0.6,0.2,0.9c0.1,0.2,0.3,0.4,0.6,0.6c0.2,0.1,0.5,0.2,0.8,0.2c0.2,0,0.4,0,0.6-0.1c0.2-0.1,0.4-0.2,0.5-0.3l0.6,1
				c-0.3,0.2-0.6,0.3-0.9,0.4C101,213,100.7,213,100.4,213z"/>
			<path class="st3" d="M105.6,207.8l0.1,1.1l0-0.1c0.2-0.4,0.4-0.6,0.8-0.8s0.8-0.3,1.2-0.3c0.5,0,0.9,0.1,1.2,0.4
				c0.3,0.3,0.5,0.6,0.5,1.1v3.8H108v-3.3c0-0.3-0.1-0.5-0.2-0.6c-0.1-0.2-0.4-0.2-0.6-0.2c-0.3,0-0.5,0.1-0.7,0.2s-0.4,0.4-0.5,0.7
				s-0.2,0.6-0.2,1v2.2h-1.3v-5.1H105.6z"/>
			<path class="st3" d="M111.7,205.6h1.3v2.2h1.3v1H113v4h-1.3v-4h-0.9v-1h0.9V205.6z"/>
			<path class="st3" d="M116.9,207.8l0.1,1.4l0-0.2c0.1-0.3,0.3-0.6,0.6-0.8c0.3-0.2,0.5-0.4,0.8-0.5c0.3-0.1,0.5-0.2,0.7-0.2
				l-0.1,1.3c-0.4,0-0.7,0-1,0.2s-0.5,0.4-0.7,0.7c-0.2,0.3-0.2,0.6-0.2,0.9v2.2h-1.3v-5.1H116.9z"/>
			<path class="st3" d="M122.8,213c-0.6,0-1.1-0.1-1.5-0.3c-0.4-0.2-0.8-0.6-1-1s-0.3-0.9-0.3-1.4c0-0.5,0.1-1,0.4-1.4s0.6-0.7,1-1
				c0.4-0.2,0.9-0.4,1.4-0.4c0.7,0,1.3,0.2,1.7,0.6c0.5,0.4,0.8,1,0.9,1.7l-4.1,1.4l-0.3-0.8l3.2-1.1l-0.3,0.2
				c-0.1-0.2-0.2-0.5-0.4-0.6c-0.2-0.2-0.5-0.3-0.8-0.3c-0.3,0-0.5,0.1-0.7,0.2c-0.2,0.1-0.4,0.3-0.5,0.6c-0.1,0.2-0.2,0.5-0.2,0.8
				c0,0.3,0.1,0.6,0.2,0.9c0.1,0.2,0.3,0.4,0.6,0.6c0.2,0.1,0.5,0.2,0.8,0.2c0.2,0,0.4,0,0.6-0.1c0.2-0.1,0.4-0.2,0.5-0.3l0.6,1
				c-0.3,0.2-0.6,0.3-0.9,0.4C123.4,213,123.1,213,122.8,213z"/>
			<path class="st3" d="M128.9,213l-2.9-5.2h1.6l1.8,3.8l-0.8,0l1.6-3.8h1.5L128.9,213L128.9,213z"/>
			<path class="st3" d="M132.8,206c0-0.2,0.1-0.4,0.2-0.5c0.2-0.1,0.3-0.2,0.5-0.2c0.2,0,0.4,0.1,0.5,0.2c0.2,0.1,0.2,0.3,0.2,0.5
				c0,0.2-0.1,0.4-0.2,0.5s-0.3,0.2-0.5,0.2c-0.2,0-0.4-0.1-0.5-0.2S132.8,206.2,132.8,206z M132.9,207.8h1.3v5.1h-1.3V207.8z"/>
			<path class="st3" d="M137.6,213c-0.4,0-0.8-0.1-1.1-0.2c-0.3-0.1-0.6-0.3-0.9-0.6l0.6-0.8c0.2,0.2,0.4,0.4,0.7,0.5
				c0.2,0.1,0.4,0.2,0.6,0.2c0.2,0,0.3,0,0.4-0.1s0.2-0.1,0.3-0.2s0.1-0.2,0.1-0.3c0-0.2-0.1-0.3-0.2-0.4c-0.1-0.1-0.2-0.2-0.4-0.2
				c-0.2-0.1-0.4-0.1-0.6-0.2c-0.4-0.1-0.8-0.3-1-0.6s-0.3-0.6-0.3-0.9c0-0.3,0.1-0.5,0.2-0.8c0.1-0.2,0.3-0.5,0.6-0.6
				c0.3-0.2,0.6-0.2,1.1-0.2c0.4,0,0.7,0,1,0.1s0.6,0.2,0.8,0.4L139,209c-0.1-0.1-0.3-0.2-0.5-0.3c-0.2-0.1-0.4-0.1-0.5-0.1
				c-0.1,0-0.3,0-0.4,0.1c-0.1,0-0.2,0.1-0.3,0.2c-0.1,0.1-0.1,0.2-0.1,0.3c0,0.2,0,0.3,0.2,0.4c0.1,0.1,0.3,0.2,0.5,0.2
				c0.2,0.1,0.4,0.1,0.5,0.2c0.2,0.1,0.5,0.2,0.7,0.3c0.2,0.1,0.3,0.3,0.5,0.5s0.2,0.4,0.2,0.7c0,0.3-0.1,0.6-0.2,0.9
				c-0.2,0.3-0.4,0.5-0.7,0.6C138.4,212.9,138.1,213,137.6,213z"/>
			<path class="st3" d="M141.6,205.6h1.3v2.2h1.3v1H143v4h-1.3v-4h-0.9v-1h0.9V205.6z"/>
			<path class="st3" d="M147.7,213c-0.5,0-0.9-0.1-1.3-0.3s-0.7-0.5-0.9-0.9c-0.2-0.4-0.3-0.9-0.3-1.5c0-0.6,0.1-1.1,0.4-1.5
				c0.2-0.4,0.5-0.7,0.9-1s0.8-0.3,1.3-0.3c0.5,0,0.9,0.1,1.2,0.3c0.3,0.2,0.5,0.4,0.7,0.7l-0.1,0.2l0.1-0.9h1.2v5.1h-1.4v-1.2
				l0.1,0.3c0,0-0.1,0.1-0.2,0.2s-0.2,0.2-0.4,0.4c-0.2,0.1-0.4,0.2-0.6,0.3C148.3,213,148,213,147.7,213z M148.1,211.9
				c0.2,0,0.5,0,0.7-0.1s0.4-0.2,0.5-0.4c0.1-0.2,0.2-0.4,0.3-0.6v-1.1c-0.1-0.2-0.2-0.4-0.3-0.5c-0.1-0.2-0.3-0.3-0.5-0.4
				s-0.4-0.1-0.7-0.1c-0.3,0-0.5,0.1-0.8,0.2c-0.2,0.1-0.4,0.3-0.6,0.6c-0.1,0.2-0.2,0.5-0.2,0.8c0,0.3,0.1,0.6,0.2,0.8
				c0.1,0.2,0.3,0.4,0.6,0.6C147.6,211.8,147.8,211.9,148.1,211.9z"/>
			<path class="st3" d="M154.3,213c-0.4,0-0.8-0.1-1.1-0.2c-0.3-0.1-0.6-0.3-0.9-0.6l0.6-0.8c0.2,0.2,0.4,0.4,0.7,0.5
				c0.2,0.1,0.4,0.2,0.6,0.2c0.2,0,0.3,0,0.4-0.1s0.2-0.1,0.3-0.2s0.1-0.2,0.1-0.3c0-0.2-0.1-0.3-0.2-0.4c-0.1-0.1-0.2-0.2-0.4-0.2
				c-0.2-0.1-0.4-0.1-0.6-0.2c-0.4-0.1-0.8-0.3-1-0.6s-0.3-0.6-0.3-0.9c0-0.3,0.1-0.5,0.2-0.8c0.1-0.2,0.3-0.5,0.6-0.6
				c0.3-0.2,0.6-0.2,1.1-0.2c0.4,0,0.7,0,1,0.1s0.6,0.2,0.8,0.4l-0.5,0.8c-0.1-0.1-0.3-0.2-0.5-0.3c-0.2-0.1-0.4-0.1-0.5-0.1
				c-0.1,0-0.3,0-0.4,0.1c-0.1,0-0.2,0.1-0.3,0.2c-0.1,0.1-0.1,0.2-0.1,0.3c0,0.2,0,0.3,0.2,0.4c0.1,0.1,0.3,0.2,0.5,0.2
				c0.2,0.1,0.4,0.1,0.5,0.2c0.2,0.1,0.5,0.2,0.7,0.3c0.2,0.1,0.3,0.3,0.5,0.5s0.2,0.4,0.2,0.7c0,0.3-0.1,0.6-0.2,0.9
				c-0.2,0.3-0.4,0.5-0.7,0.6C155.2,212.9,154.8,213,154.3,213z"/>
		</g>
	</g>
	<g>
		<g>
			<path class="st3" d="M1.4,160.9h1.3v2.2h1.3v1H2.8v4H1.4v-4H0.5v-1h0.9V160.9z"/>
			<path class="st3" d="M7.5,168.3c-0.5,0-0.9-0.1-1.3-0.3c-0.4-0.2-0.7-0.5-0.9-0.9c-0.2-0.4-0.3-0.9-0.3-1.5
				c0-0.6,0.1-1.1,0.4-1.5c0.2-0.4,0.5-0.7,0.9-1c0.4-0.2,0.8-0.3,1.3-0.3c0.5,0,0.9,0.1,1.2,0.3c0.3,0.2,0.5,0.4,0.7,0.7l-0.1,0.2
				l0.1-0.9h1.2v5.1H9.4V167l0.1,0.3c0,0-0.1,0.1-0.2,0.2c-0.1,0.1-0.2,0.2-0.4,0.4c-0.2,0.1-0.4,0.2-0.6,0.3S7.8,168.3,7.5,168.3z
				 M7.9,167.2c0.2,0,0.5,0,0.7-0.1c0.2-0.1,0.4-0.2,0.5-0.4c0.1-0.2,0.2-0.4,0.3-0.6v-1.1c-0.1-0.2-0.2-0.4-0.3-0.5
				c-0.1-0.2-0.3-0.3-0.5-0.4c-0.2-0.1-0.4-0.1-0.7-0.1c-0.3,0-0.5,0.1-0.8,0.2c-0.2,0.1-0.4,0.3-0.6,0.6c-0.1,0.2-0.2,0.5-0.2,0.8
				c0,0.3,0.1,0.6,0.2,0.8s0.3,0.4,0.6,0.6C7.4,167.2,7.6,167.2,7.9,167.2z"/>
			<path class="st3" d="M12.6,158.9h1.3v9.4h-1.3V158.9z"/>
			<path class="st3" d="M15.8,158.9h1.3v9.4h-1.3V158.9z"/>
			<path class="st3" d="M21.4,168.3c-0.6,0-1.1-0.1-1.5-0.3c-0.4-0.2-0.8-0.6-1-1c-0.2-0.4-0.3-0.9-0.3-1.4c0-0.5,0.1-1,0.4-1.4
				c0.3-0.4,0.6-0.7,1-1s0.9-0.4,1.4-0.4c0.7,0,1.3,0.2,1.7,0.6c0.5,0.4,0.8,1,0.9,1.7l-4.1,1.4l-0.3-0.8l3.2-1.1l-0.3,0.2
				c-0.1-0.2-0.2-0.5-0.4-0.6c-0.2-0.2-0.5-0.3-0.8-0.3c-0.3,0-0.5,0.1-0.7,0.2c-0.2,0.1-0.4,0.3-0.5,0.6c-0.1,0.2-0.2,0.5-0.2,0.8
				c0,0.3,0.1,0.6,0.2,0.9c0.1,0.2,0.3,0.4,0.6,0.6c0.2,0.1,0.5,0.2,0.8,0.2c0.2,0,0.4,0,0.6-0.1c0.2-0.1,0.4-0.2,0.5-0.3l0.6,1
				c-0.3,0.2-0.6,0.3-0.9,0.4C22,168.3,21.7,168.3,21.4,168.3z"/>
			<path class="st3" d="M26.6,163.1l0.1,1.4l0-0.2c0.1-0.3,0.3-0.6,0.6-0.8s0.5-0.4,0.8-0.5c0.3-0.1,0.5-0.2,0.7-0.2l-0.1,1.3
				c-0.4,0-0.7,0-1,0.2c-0.3,0.2-0.5,0.4-0.7,0.7c-0.2,0.3-0.2,0.6-0.2,0.9v2.2h-1.3v-5.1H26.6z"/>
			<path class="st3" d="M32.4,168.3c-0.6,0-1.1-0.1-1.5-0.3c-0.4-0.2-0.8-0.6-1-1c-0.2-0.4-0.3-0.9-0.3-1.4c0-0.5,0.1-1,0.4-1.4
				c0.3-0.4,0.6-0.7,1-1s0.9-0.4,1.4-0.4c0.7,0,1.3,0.2,1.7,0.6c0.5,0.4,0.8,1,0.9,1.7l-4.1,1.4l-0.3-0.8l3.2-1.1l-0.3,0.2
				c-0.1-0.2-0.2-0.5-0.4-0.6c-0.2-0.2-0.5-0.3-0.8-0.3c-0.3,0-0.5,0.1-0.7,0.2c-0.2,0.1-0.4,0.3-0.5,0.6c-0.1,0.2-0.2,0.5-0.2,0.8
				c0,0.3,0.1,0.6,0.2,0.9c0.1,0.2,0.3,0.4,0.6,0.6c0.2,0.1,0.5,0.2,0.8,0.2c0.2,0,0.4,0,0.6-0.1c0.2-0.1,0.4-0.2,0.5-0.3l0.6,1
				c-0.3,0.2-0.6,0.3-0.9,0.4C33,168.3,32.7,168.3,32.4,168.3z"/>
			<path class="st3" d="M38,168.3c-0.4,0-0.8-0.1-1.1-0.2c-0.3-0.1-0.6-0.3-0.9-0.6l0.6-0.8c0.2,0.2,0.4,0.4,0.7,0.5
				c0.2,0.1,0.4,0.2,0.6,0.2c0.2,0,0.3,0,0.4-0.1c0.1,0,0.2-0.1,0.3-0.2c0.1-0.1,0.1-0.2,0.1-0.3c0-0.2-0.1-0.3-0.2-0.4
				s-0.3-0.2-0.4-0.2c-0.2-0.1-0.4-0.1-0.6-0.2c-0.4-0.1-0.8-0.3-1-0.6c-0.2-0.3-0.3-0.6-0.3-0.9c0-0.3,0.1-0.5,0.2-0.8
				c0.1-0.2,0.3-0.5,0.6-0.6c0.3-0.2,0.6-0.2,1.1-0.2c0.4,0,0.7,0,1,0.1s0.6,0.2,0.8,0.4l-0.5,0.8c-0.1-0.1-0.3-0.2-0.5-0.3
				c-0.2-0.1-0.4-0.1-0.5-0.1c-0.1,0-0.3,0-0.4,0.1c-0.1,0-0.2,0.1-0.3,0.2c-0.1,0.1-0.1,0.2-0.1,0.3c0,0.2,0,0.3,0.2,0.4
				c0.1,0.1,0.3,0.2,0.5,0.2s0.4,0.1,0.5,0.2c0.2,0.1,0.5,0.2,0.7,0.3c0.2,0.1,0.3,0.3,0.5,0.5c0.1,0.2,0.2,0.4,0.2,0.7
				c0,0.3-0.1,0.6-0.2,0.9c-0.2,0.3-0.4,0.5-0.7,0.6C38.8,168.2,38.4,168.3,38,168.3z"/>
		</g>
	</g>
	<g>
		<g>
			<path class="st2" d="M174.7,55.7c-0.6,0-1.1-0.1-1.5-0.3c-0.4-0.2-0.8-0.6-1-1c-0.2-0.4-0.3-0.9-0.3-1.4c0-0.5,0.1-1,0.4-1.4
				s0.6-0.7,1-1c0.4-0.2,0.9-0.4,1.4-0.4c0.7,0,1.3,0.2,1.7,0.6c0.5,0.4,0.8,1,0.9,1.7l-4.1,1.4l-0.3-0.8l3.2-1.1l-0.3,0.2
				c-0.1-0.2-0.2-0.5-0.4-0.6s-0.5-0.3-0.8-0.3c-0.3,0-0.5,0.1-0.7,0.2c-0.2,0.1-0.4,0.3-0.5,0.6s-0.2,0.5-0.2,0.8
				c0,0.3,0.1,0.6,0.2,0.9c0.1,0.2,0.3,0.4,0.6,0.6c0.2,0.1,0.5,0.2,0.8,0.2c0.2,0,0.4,0,0.6-0.1c0.2-0.1,0.4-0.2,0.5-0.3l0.6,1
				c-0.3,0.2-0.6,0.3-0.9,0.4S175,55.7,174.7,55.7z"/>
			<path class="st2" d="M182.9,55.1c-0.2,0.2-0.5,0.3-0.8,0.4c-0.3,0.1-0.6,0.2-1,0.2c-0.6,0-1.1-0.1-1.5-0.3
				c-0.4-0.2-0.8-0.5-1-0.9c-0.2-0.4-0.3-0.9-0.3-1.4c0-0.6,0.1-1,0.4-1.4s0.6-0.7,1-0.9c0.4-0.2,0.8-0.3,1.3-0.3
				c0.4,0,0.8,0.1,1.1,0.2c0.3,0.1,0.6,0.3,0.8,0.5l-0.6,0.9c-0.1-0.1-0.3-0.2-0.5-0.3c-0.2-0.1-0.4-0.1-0.7-0.1
				c-0.3,0-0.5,0.1-0.7,0.2c-0.2,0.1-0.4,0.3-0.5,0.6c-0.1,0.2-0.2,0.5-0.2,0.8c0,0.3,0.1,0.6,0.2,0.8c0.1,0.2,0.3,0.4,0.6,0.6
				c0.2,0.1,0.5,0.2,0.8,0.2c0.2,0,0.4,0,0.6-0.1s0.3-0.1,0.5-0.2L182.9,55.1z"/>
			<path class="st2" d="M183.8,53c0-0.5,0.1-1,0.4-1.4c0.2-0.4,0.6-0.7,1-1c0.4-0.2,0.9-0.4,1.5-0.4c0.6,0,1,0.1,1.5,0.4
				c0.4,0.2,0.7,0.6,1,1c0.2,0.4,0.3,0.9,0.3,1.4c0,0.5-0.1,1-0.3,1.4c-0.2,0.4-0.6,0.7-1,1c-0.4,0.2-0.9,0.4-1.5,0.4
				c-0.5,0-1-0.1-1.5-0.3c-0.4-0.2-0.8-0.5-1-0.9C183.9,54,183.8,53.5,183.8,53z M185.2,53c0,0.3,0.1,0.6,0.2,0.8
				c0.1,0.2,0.3,0.4,0.5,0.6c0.2,0.1,0.5,0.2,0.8,0.2c0.3,0,0.6-0.1,0.8-0.2c0.2-0.1,0.4-0.3,0.5-0.6c0.1-0.2,0.2-0.5,0.2-0.8
				c0-0.3-0.1-0.6-0.2-0.8s-0.3-0.4-0.5-0.6c-0.2-0.1-0.5-0.2-0.8-0.2c-0.3,0-0.5,0.1-0.8,0.2c-0.2,0.1-0.4,0.3-0.5,0.6
				C185.2,52.4,185.2,52.7,185.2,53z"/>
			<path class="st2" d="M192.1,50.5l0.1,1.1l0-0.1c0.2-0.4,0.4-0.6,0.8-0.8c0.3-0.2,0.8-0.3,1.2-0.3c0.5,0,0.9,0.1,1.2,0.4
				c0.3,0.3,0.5,0.6,0.5,1.1v3.8h-1.3v-3.3c0-0.3-0.1-0.5-0.2-0.6c-0.1-0.2-0.4-0.2-0.6-0.2c-0.3,0-0.5,0.1-0.7,0.2
				s-0.4,0.4-0.5,0.7s-0.2,0.6-0.2,1v2.2h-1.3v-5.1H192.1z"/>
			<path class="st2" d="M197.3,53c0-0.5,0.1-1,0.4-1.4c0.2-0.4,0.6-0.7,1-1c0.4-0.2,0.9-0.4,1.5-0.4c0.6,0,1,0.1,1.5,0.4
				c0.4,0.2,0.7,0.6,1,1c0.2,0.4,0.3,0.9,0.3,1.4c0,0.5-0.1,1-0.3,1.4c-0.2,0.4-0.6,0.7-1,1c-0.4,0.2-0.9,0.4-1.5,0.4
				c-0.5,0-1-0.1-1.5-0.3c-0.4-0.2-0.8-0.5-1-0.9C197.4,54,197.3,53.5,197.3,53z M198.7,53c0,0.3,0.1,0.6,0.2,0.8
				c0.1,0.2,0.3,0.4,0.5,0.6c0.2,0.1,0.5,0.2,0.8,0.2c0.3,0,0.6-0.1,0.8-0.2c0.2-0.1,0.4-0.3,0.5-0.6c0.1-0.2,0.2-0.5,0.2-0.8
				c0-0.3-0.1-0.6-0.2-0.8s-0.3-0.4-0.5-0.6c-0.2-0.1-0.5-0.2-0.8-0.2c-0.3,0-0.5,0.1-0.8,0.2c-0.2,0.1-0.4,0.3-0.5,0.6
				C198.7,52.4,198.7,52.7,198.7,53z"/>
			<path class="st2" d="M205.6,50.5l0.1,1l0-0.1c0.2-0.4,0.5-0.7,0.8-0.9c0.3-0.2,0.7-0.3,1.1-0.3c0.3,0,0.5,0,0.8,0.1
				c0.2,0.1,0.4,0.2,0.5,0.4c0.1,0.2,0.2,0.4,0.3,0.6l0,0c0.2-0.4,0.5-0.6,0.8-0.8s0.7-0.3,1.1-0.3c0.5,0,0.9,0.1,1.2,0.4
				c0.3,0.3,0.4,0.6,0.5,1.1v3.8h-1.3v-3.3c0-0.2-0.1-0.5-0.2-0.6c-0.1-0.2-0.3-0.3-0.5-0.3c-0.3,0-0.5,0.1-0.7,0.3
				c-0.2,0.2-0.4,0.4-0.5,0.7c-0.1,0.3-0.2,0.6-0.2,0.9v2.3h-1.3v-3.3c0-0.2-0.1-0.5-0.2-0.6c-0.1-0.2-0.3-0.3-0.6-0.3
				c-0.3,0-0.5,0.1-0.7,0.3c-0.2,0.2-0.4,0.4-0.5,0.7c-0.1,0.3-0.2,0.6-0.2,0.9v2.3h-1.3v-5.1H205.6z"/>
			<path class="st2" d="M216.7,48.1l-1.6,1.6h-0.9l1-1.6H216.7z M214.5,50.5h1.3v5.1h-1.3V50.5z"/>
			<path class="st2" d="M219.8,55.7c-0.5,0-0.9-0.1-1.3-0.3s-0.7-0.5-0.9-0.9s-0.3-0.9-0.3-1.5c0-0.6,0.1-1.1,0.4-1.5
				c0.2-0.4,0.5-0.7,0.9-1c0.4-0.2,0.8-0.3,1.3-0.3c0.5,0,0.9,0.1,1.2,0.3c0.3,0.2,0.5,0.4,0.7,0.7l-0.1,0.2l0.1-0.9h1.2v5.1h-1.4
				v-1.2l0.1,0.3c0,0-0.1,0.1-0.2,0.2c-0.1,0.1-0.2,0.2-0.4,0.4c-0.2,0.1-0.4,0.2-0.6,0.3C220.3,55.6,220.1,55.7,219.8,55.7z
				 M220.2,54.6c0.2,0,0.5,0,0.7-0.1s0.4-0.2,0.5-0.4c0.1-0.2,0.2-0.4,0.3-0.6v-1.1c-0.1-0.2-0.2-0.4-0.3-0.5
				c-0.1-0.2-0.3-0.3-0.5-0.4s-0.4-0.1-0.7-0.1c-0.3,0-0.5,0.1-0.8,0.2c-0.2,0.1-0.4,0.3-0.6,0.6c-0.1,0.2-0.2,0.5-0.2,0.8
				c0,0.3,0.1,0.6,0.2,0.8c0.1,0.2,0.3,0.4,0.6,0.6C219.6,54.5,219.9,54.6,220.2,54.6z"/>
		</g>
	</g>
	<g>
		<g>
			<path class="st3" d="M36.5,240.1l0.1,1.4l0-0.2c0.1-0.3,0.3-0.6,0.6-0.8c0.3-0.2,0.5-0.4,0.8-0.5c0.3-0.1,0.5-0.2,0.7-0.2
				l-0.1,1.3c-0.4,0-0.7,0-1,0.2s-0.5,0.4-0.7,0.7c-0.2,0.3-0.2,0.6-0.2,0.9v2.2h-1.3v-5.1H36.5z"/>
			<path class="st3" d="M42.3,245.3c-0.6,0-1.1-0.1-1.5-0.3c-0.4-0.2-0.8-0.6-1-1s-0.3-0.9-0.3-1.4c0-0.5,0.1-1,0.4-1.4s0.6-0.7,1-1
				c0.4-0.2,0.9-0.4,1.4-0.4c0.7,0,1.3,0.2,1.7,0.6c0.5,0.4,0.8,1,0.9,1.7l-4.1,1.4l-0.3-0.8l3.2-1.1l-0.3,0.2
				c-0.1-0.2-0.2-0.5-0.4-0.6c-0.2-0.2-0.5-0.3-0.8-0.3c-0.3,0-0.5,0.1-0.7,0.2c-0.2,0.1-0.4,0.3-0.5,0.6c-0.1,0.2-0.2,0.5-0.2,0.8
				c0,0.3,0.1,0.6,0.2,0.9c0.1,0.2,0.3,0.4,0.6,0.6c0.2,0.1,0.5,0.2,0.8,0.2c0.2,0,0.4,0,0.6-0.1c0.2-0.1,0.4-0.2,0.5-0.3l0.6,1
				c-0.3,0.2-0.6,0.3-0.9,0.4C43,245.3,42.6,245.3,42.3,245.3z"/>
			<path class="st3" d="M47.9,245.3c-0.4,0-0.8-0.1-1.1-0.2c-0.3-0.1-0.6-0.3-0.9-0.6l0.6-0.8c0.2,0.2,0.4,0.4,0.7,0.5
				c0.2,0.1,0.4,0.2,0.6,0.2c0.2,0,0.3,0,0.4-0.1s0.2-0.1,0.3-0.2s0.1-0.2,0.1-0.3c0-0.2-0.1-0.3-0.2-0.4c-0.1-0.1-0.2-0.2-0.4-0.2
				c-0.2-0.1-0.4-0.1-0.6-0.2c-0.4-0.1-0.8-0.3-1-0.6s-0.3-0.6-0.3-0.9c0-0.3,0.1-0.5,0.2-0.8c0.1-0.2,0.3-0.5,0.6-0.6
				c0.3-0.2,0.6-0.2,1.1-0.2c0.4,0,0.7,0,1,0.1s0.6,0.2,0.8,0.4l-0.5,0.8c-0.1-0.1-0.3-0.2-0.5-0.3c-0.2-0.1-0.4-0.1-0.5-0.1
				c-0.1,0-0.3,0-0.4,0.1c-0.1,0-0.2,0.1-0.3,0.2c-0.1,0.1-0.1,0.2-0.1,0.3c0,0.2,0,0.3,0.2,0.4c0.1,0.1,0.3,0.2,0.5,0.2
				c0.2,0.1,0.4,0.1,0.5,0.2c0.2,0.1,0.5,0.2,0.7,0.3c0.2,0.1,0.3,0.3,0.5,0.5s0.2,0.4,0.2,0.7c0,0.3-0.1,0.6-0.2,0.9
				c-0.2,0.3-0.4,0.5-0.7,0.6C48.7,245.2,48.3,245.3,47.9,245.3z"/>
			<path class="st3" d="M51.4,238.3c0-0.2,0.1-0.4,0.2-0.5c0.2-0.1,0.3-0.2,0.5-0.2c0.2,0,0.4,0.1,0.5,0.2c0.2,0.1,0.2,0.3,0.2,0.5
				c0,0.2-0.1,0.4-0.2,0.5s-0.3,0.2-0.5,0.2c-0.2,0-0.4-0.1-0.5-0.2S51.4,238.5,51.4,238.3z M51.4,240.1h1.3v5.1h-1.3V240.1z"/>
			<path class="st3" d="M56.7,245.3c-0.5,0-0.9-0.1-1.3-0.3s-0.7-0.5-0.9-1s-0.3-0.9-0.3-1.5c0-0.6,0.1-1.1,0.3-1.5
				c0.2-0.4,0.6-0.7,1-0.9c0.4-0.2,0.9-0.3,1.4-0.3c0.4,0,0.7,0.1,1.1,0.2s0.6,0.3,0.8,0.6l0,0.5v-5.3H60v9.4h-1.3v-1.1l0.1,0.3
				c-0.3,0.3-0.6,0.5-0.9,0.7S57.1,245.3,56.7,245.3z M57.1,244.2c0.3,0,0.5,0,0.7-0.1s0.4-0.2,0.5-0.4c0.1-0.2,0.3-0.4,0.3-0.6V242
				c-0.1-0.2-0.2-0.4-0.3-0.6s-0.3-0.3-0.5-0.4s-0.4-0.1-0.7-0.1c-0.3,0-0.5,0.1-0.8,0.2c-0.2,0.1-0.4,0.3-0.6,0.6
				c-0.1,0.2-0.2,0.5-0.2,0.8c0,0.3,0.1,0.6,0.2,0.8c0.1,0.2,0.3,0.4,0.6,0.6C56.6,244.1,56.8,244.2,57.1,244.2z"/>
			<path class="st3" d="M64.3,245.3c-0.6,0-1.1-0.1-1.5-0.3c-0.4-0.2-0.8-0.6-1-1s-0.3-0.9-0.3-1.4c0-0.5,0.1-1,0.4-1.4s0.6-0.7,1-1
				c0.4-0.2,0.9-0.4,1.4-0.4c0.7,0,1.3,0.2,1.7,0.6c0.5,0.4,0.8,1,0.9,1.7l-4.1,1.4l-0.3-0.8l3.2-1.1l-0.3,0.2
				c-0.1-0.2-0.2-0.5-0.4-0.6c-0.2-0.2-0.5-0.3-0.8-0.3c-0.3,0-0.5,0.1-0.7,0.2c-0.2,0.1-0.4,0.3-0.5,0.6c-0.1,0.2-0.2,0.5-0.2,0.8
				c0,0.3,0.1,0.6,0.2,0.9c0.1,0.2,0.3,0.4,0.6,0.6c0.2,0.1,0.5,0.2,0.8,0.2c0.2,0,0.4,0,0.6-0.1c0.2-0.1,0.4-0.2,0.5-0.3l0.6,1
				c-0.3,0.2-0.6,0.3-0.9,0.4C64.9,245.3,64.6,245.3,64.3,245.3z"/>
			<path class="st3" d="M69.5,240.1l0.1,1.1l0-0.1c0.2-0.4,0.4-0.6,0.8-0.8s0.8-0.3,1.2-0.3c0.5,0,0.9,0.1,1.2,0.4
				c0.3,0.3,0.5,0.6,0.5,1.1v3.8h-1.3v-3.3c0-0.3-0.1-0.5-0.2-0.6c-0.1-0.2-0.4-0.2-0.6-0.2c-0.3,0-0.5,0.1-0.7,0.2
				s-0.4,0.4-0.5,0.7s-0.2,0.6-0.2,1v2.2h-1.3v-5.1H69.5z"/>
			<path class="st3" d="M79.3,244.8c-0.2,0.2-0.5,0.3-0.8,0.4c-0.3,0.1-0.6,0.2-1,0.2c-0.6,0-1.1-0.1-1.5-0.3s-0.8-0.5-1-0.9
				c-0.2-0.4-0.3-0.9-0.3-1.4s0.1-1,0.4-1.4c0.3-0.4,0.6-0.7,1-0.9s0.8-0.3,1.3-0.3c0.4,0,0.8,0.1,1.1,0.2c0.3,0.1,0.6,0.3,0.8,0.5
				l-0.6,0.9c-0.1-0.1-0.3-0.2-0.5-0.3s-0.4-0.1-0.7-0.1c-0.3,0-0.5,0.1-0.7,0.2c-0.2,0.1-0.4,0.3-0.5,0.6s-0.2,0.5-0.2,0.8
				c0,0.3,0.1,0.6,0.2,0.8s0.3,0.4,0.6,0.6c0.2,0.1,0.5,0.2,0.8,0.2c0.2,0,0.4,0,0.6-0.1c0.2-0.1,0.3-0.1,0.5-0.2L79.3,244.8z"/>
			<path class="st3" d="M80.6,238.3c0-0.2,0.1-0.4,0.2-0.5c0.2-0.1,0.3-0.2,0.5-0.2c0.2,0,0.4,0.1,0.5,0.2c0.2,0.1,0.2,0.3,0.2,0.5
				c0,0.2-0.1,0.4-0.2,0.5s-0.3,0.2-0.5,0.2c-0.2,0-0.4-0.1-0.5-0.2S80.6,238.5,80.6,238.3z M80.7,240.1H82v5.1h-1.3V240.1z"/>
			<path class="st3" d="M86,245.3c-0.5,0-0.9-0.1-1.3-0.3s-0.7-0.5-0.9-0.9c-0.2-0.4-0.3-0.9-0.3-1.5c0-0.6,0.1-1.1,0.4-1.5
				c0.2-0.4,0.5-0.7,0.9-1s0.8-0.3,1.3-0.3c0.5,0,0.9,0.1,1.2,0.3c0.3,0.2,0.5,0.4,0.7,0.7l-0.1,0.2l0.1-0.9h1.2v5.1h-1.4V244
				l0.1,0.3c0,0-0.1,0.1-0.2,0.2s-0.2,0.2-0.4,0.4c-0.2,0.1-0.4,0.2-0.6,0.3C86.6,245.3,86.3,245.3,86,245.3z M86.4,244.2
				c0.2,0,0.5,0,0.7-0.1s0.4-0.2,0.5-0.4c0.1-0.2,0.2-0.4,0.3-0.6v-1.1c-0.1-0.2-0.2-0.4-0.3-0.5c-0.1-0.2-0.3-0.3-0.5-0.4
				s-0.4-0.1-0.7-0.1c-0.3,0-0.5,0.1-0.8,0.2c-0.2,0.1-0.4,0.3-0.6,0.6c-0.1,0.2-0.2,0.5-0.2,0.8c0,0.3,0.1,0.6,0.2,0.8
				c0.1,0.2,0.3,0.4,0.6,0.6C85.8,244.2,86.1,244.2,86.4,244.2z"/>
		</g>
	</g>
	<g>
		<g>
			<g>
				<path class="st4" d="M278.1,77.6h1.3v2.2h1.3v1h-1.3v4h-1.3v-4h-0.9v-1h0.9V77.6z"/>
				<path class="st4" d="M284.5,85c-0.6,0-1.1-0.1-1.5-0.3c-0.4-0.2-0.8-0.6-1-1c-0.2-0.4-0.3-0.9-0.3-1.4c0-0.5,0.1-1,0.4-1.4
					s0.6-0.7,1-1c0.4-0.2,0.9-0.4,1.4-0.4c0.7,0,1.3,0.2,1.7,0.6c0.5,0.4,0.8,1,0.9,1.7l-4.1,1.4l-0.3-0.8l3.2-1.1l-0.3,0.2
					c-0.1-0.2-0.2-0.5-0.4-0.6s-0.5-0.3-0.8-0.3c-0.3,0-0.5,0.1-0.7,0.2c-0.2,0.1-0.4,0.3-0.5,0.6s-0.2,0.5-0.2,0.8
					c0,0.3,0.1,0.6,0.2,0.9c0.1,0.2,0.3,0.4,0.6,0.6c0.2,0.1,0.5,0.2,0.8,0.2c0.2,0,0.4,0,0.6-0.1c0.2-0.1,0.4-0.2,0.5-0.3l0.6,1
					c-0.3,0.2-0.6,0.3-0.9,0.4S284.8,85,284.5,85z"/>
				<path class="st4" d="M289.7,79.8l0.1,1.4l0-0.2c0.1-0.3,0.3-0.6,0.6-0.8c0.3-0.2,0.5-0.4,0.8-0.5c0.3-0.1,0.5-0.2,0.7-0.2
					l-0.1,1.3c-0.4,0-0.7,0-1,0.2s-0.5,0.4-0.7,0.7c-0.2,0.3-0.2,0.6-0.2,0.9v2.2h-1.3v-5.1H289.7z"/>
				<path class="st4" d="M294.3,79.8l0.1,1.4l0-0.2c0.1-0.3,0.3-0.6,0.6-0.8c0.3-0.2,0.5-0.4,0.8-0.5c0.3-0.1,0.5-0.2,0.7-0.2
					l-0.1,1.3c-0.4,0-0.7,0-1,0.2s-0.5,0.4-0.7,0.7c-0.2,0.3-0.2,0.6-0.2,0.9v2.2h-1.3v-5.1H294.3z"/>
				<path class="st4" d="M297.8,78c0-0.2,0.1-0.4,0.2-0.5c0.2-0.1,0.3-0.2,0.5-0.2c0.2,0,0.4,0.1,0.5,0.2c0.2,0.1,0.2,0.3,0.2,0.5
					c0,0.2-0.1,0.4-0.2,0.5c-0.2,0.1-0.3,0.2-0.5,0.2c-0.2,0-0.4-0.1-0.5-0.2C297.9,78.3,297.8,78.2,297.8,78z M297.8,79.8h1.3v5.1
					h-1.3V79.8z"/>
				<path class="st4" d="M301.5,77.6h1.3v2.2h1.3v1h-1.3v4h-1.3v-4h-0.9v-1h0.9V77.6z"/>
				<path class="st4" d="M305.1,82.3c0-0.5,0.1-1,0.4-1.4c0.2-0.4,0.6-0.7,1-1c0.4-0.2,0.9-0.4,1.5-0.4c0.6,0,1,0.1,1.5,0.4
					c0.4,0.2,0.7,0.6,1,1c0.2,0.4,0.3,0.9,0.3,1.4c0,0.5-0.1,1-0.3,1.4c-0.2,0.4-0.6,0.7-1,1c-0.4,0.2-0.9,0.4-1.5,0.4
					c-0.5,0-1-0.1-1.5-0.3c-0.4-0.2-0.8-0.5-1-0.9C305.2,83.3,305.1,82.8,305.1,82.3z M306.4,82.3c0,0.3,0.1,0.6,0.2,0.8
					c0.1,0.2,0.3,0.4,0.5,0.6c0.2,0.1,0.5,0.2,0.8,0.2c0.3,0,0.6-0.1,0.8-0.2c0.2-0.1,0.4-0.3,0.5-0.6c0.1-0.2,0.2-0.5,0.2-0.8
					c0-0.3-0.1-0.6-0.2-0.8s-0.3-0.4-0.5-0.6c-0.2-0.1-0.5-0.2-0.8-0.2c-0.3,0-0.5,0.1-0.8,0.2c-0.2,0.1-0.4,0.3-0.5,0.6
					C306.5,81.7,306.4,82,306.4,82.3z"/>
				<path class="st4" d="M313.4,79.8l0.1,1.4l0-0.2c0.1-0.3,0.3-0.6,0.6-0.8c0.3-0.2,0.5-0.4,0.8-0.5c0.3-0.1,0.5-0.2,0.7-0.2
					l-0.1,1.3c-0.4,0-0.7,0-1,0.2s-0.5,0.4-0.7,0.7c-0.2,0.3-0.2,0.6-0.2,0.9v2.2h-1.3v-5.1H313.4z"/>
				<path class="st4" d="M316.8,78c0-0.2,0.1-0.4,0.2-0.5c0.2-0.1,0.3-0.2,0.5-0.2c0.2,0,0.4,0.1,0.5,0.2c0.2,0.1,0.2,0.3,0.2,0.5
					c0,0.2-0.1,0.4-0.2,0.5c-0.2,0.1-0.3,0.2-0.5,0.2c-0.2,0-0.4-0.1-0.5-0.2C316.9,78.3,316.8,78.2,316.8,78z M316.8,79.8h1.3v5.1
					h-1.3V79.8z"/>
				<path class="st4" d="M319.6,82.3c0-0.5,0.1-1,0.4-1.4c0.2-0.4,0.6-0.7,1-1c0.4-0.2,0.9-0.4,1.5-0.4c0.6,0,1,0.1,1.5,0.4
					c0.4,0.2,0.7,0.6,1,1c0.2,0.4,0.3,0.9,0.3,1.4c0,0.5-0.1,1-0.3,1.4c-0.2,0.4-0.6,0.7-1,1c-0.4,0.2-0.9,0.4-1.5,0.4
					c-0.5,0-1-0.1-1.5-0.3c-0.4-0.2-0.8-0.5-1-0.9C319.7,83.3,319.6,82.8,319.6,82.3z M321,82.3c0,0.3,0.1,0.6,0.2,0.8
					c0.1,0.2,0.3,0.4,0.5,0.6c0.2,0.1,0.5,0.2,0.8,0.2c0.3,0,0.6-0.1,0.8-0.2c0.2-0.1,0.4-0.3,0.5-0.6c0.1-0.2,0.2-0.5,0.2-0.8
					c0-0.3-0.1-0.6-0.2-0.8s-0.3-0.4-0.5-0.6c-0.2-0.1-0.5-0.2-0.8-0.2c-0.3,0-0.5,0.1-0.8,0.2c-0.2,0.1-0.4,0.3-0.5,0.6
					C321,81.7,321,82,321,82.3z"/>
			</g>
		</g>
	</g>
	<line class="st5" x1="97" y1="56.8" x2="119.5" y2="16"/>
	<line class="st5" x1="55" y1="39" x2="97" y2="56.8"/>
	<line class="st5" x1="168" y1="53" x2="97" y2="56.8"/>
	<line class="st5" x1="191.5" y1="96.5" x2="271.5" y2="81.5"/>
	<line class="st5" x1="42" y1="162.5" x2="112.7" y2="136"/>
	<line class="st5" x1="112.7" y1="136" x2="124.5" y2="202.5"/>
	<line class="st5" x1="112.7" y1="136" x2="63.5" y2="235.5"/>
	<line class="st5" x1="229.5" y1="173.8" x2="264.5" y2="140.2"/>
	<line class="st5" x1="229.5" y1="173.8" x2="271.5" y2="196"/>
	<line class="st5" x1="99.4" y1="72.1" x2="149.5" y2="96.5"/>
	<line class="st5" x1="149.5" y1="96.5" x2="154" y2="127.5"/>
	<line class="st5" x1="154" y1="127.5" x2="207.2" y2="167.1"/>
	<line class="st5" x1="298" y1="87.5" x2="291.5" y2="121.5"/>
</g>
</svg>
