<?xml version="1.0" encoding="utf-8"?>
<!-- Generator: Adobe Illustrator 23.0.2, SVG Export Plug-In . SVG Version: 6.00 Build 0)  -->
<svg version="1.1" id="Layer_1" xmlns="http://www.w3.org/2000/svg" xmlns:xlink="http://www.w3.org/1999/xlink" x="0px" y="0px"
	 viewBox="0 0 325.8 248" style="enable-background:new 0 0 325.8 248;" xml:space="preserve">
<style type="text/css">
	.st0{fill:#364195;}
	.st1{fill:#7E549E;}
	.st2{fill:#455FA8;}
	.st3{fill:#CD2E67;}
	.st4{fill:#338E4F;}
	.st5{fill:none;stroke:#070707;stroke-linecap:round;stroke-linejoin:round;stroke-miterlimit:10;}
</style>
<g>
	<g>
		<g>
			<path class="st0" d="M92.2,64.3c-0.5,0-0.9-0.1-1.3-0.3s-0.7-0.5-0.9-0.9s-0.3-0.9-0.3-1.5c0-0.6,0.1-1.1,0.4-1.5
				c0.2-0.4,0.5-0.7,0.9-1c0.4-0.2,0.8-0.3,1.3-0.3c0.5,0,0.9,0.1,1.2,0.3c0.3,0.2,0.5,0.4,0.7,0.7L94,60l0.1-0.9h1.2v5.1h-1.4v-1.2
				l0.1,0.3c0,0-0.1,0.1-0.2,0.2c-0.1,0.1-0.2,0.2-0.4,0.4c-0.2,0.1-0.4,0.2-0.6,0.3C92.8,64.2,92.5,64.3,92.2,64.3z M92.6,63.2
				c0.2,0,0.5,0,0.7-0.1s0.4-0.2,0.5-0.4c0.1-0.2,0.2-0.4,0.3-0.6V61c-0.1-0.2-0.2-0.4-0.3-0.5c-0.1-0.2-0.3-0.3-0.5-0.4
				s-0.4-0.1-0.7-0.1c-0.3,0-0.5,0.1-0.8,0.2c-0.2,0.1-0.4,0.3-0.6,0.6c-0.1,0.2-0.2,0.5-0.2,0.8c0,0.3,0.1,0.6,0.2,0.8
				c0.1,0.2,0.3,0.4,0.6,0.6C92,63.1,92.3,63.2,92.6,63.2z"/>
			<path class="st0" d="M98.5,59.1l0.1,1.4l0-0.2c0.1-0.3,0.3-0.6,0.6-0.8c0.3-0.2,0.5-0.4,0.8-0.5c0.3-0.1,0.5-0.2,0.7-0.2
				l-0.1,1.3c-0.4,0-0.7,0-1,0.2s-0.5,0.4-0.7,0.7c-0.2,0.3-0.2,0.6-0.2,0.9v2.2h-1.3v-5.1H98.5z"/>
			<path class="st0" d="M102.4,56.8h1.3v2.2h1.3v1h-1.3v4h-1.3v-4h-0.9v-1h0.9V56.8z"/>
		</g>
	</g>
	<g>
		<g>
			<path class="st0" d="M158.2,98.6l0.1,1l0-0.1c0.2-0.4,0.5-0.7,0.8-0.9c0.3-0.2,0.7-0.3,1.1-0.3c0.3,0,0.5,0,0.8,0.1
				s0.4,0.2,0.5,0.4c0.1,0.2,0.2,0.4,0.3,0.6l0,0c0.2-0.4,0.5-0.6,0.8-0.8s0.7-0.3,1.1-0.3c0.5,0,0.9,0.1,1.2,0.4
				c0.3,0.3,0.4,0.6,0.5,1.1v3.8h-1.3v-3.3c0-0.2-0.1-0.5-0.2-0.6c-0.1-0.2-0.3-0.3-0.5-0.3c-0.3,0-0.5,0.1-0.7,0.3
				c-0.2,0.2-0.4,0.4-0.5,0.7c-0.1,0.3-0.2,0.6-0.2,0.9v2.3h-1.3v-3.3c0-0.2-0.1-0.5-0.2-0.6c-0.1-0.2-0.3-0.3-0.6-0.3
				c-0.3,0-0.5,0.1-0.7,0.3c-0.2,0.2-0.4,0.4-0.5,0.7c-0.1,0.3-0.2,0.6-0.2,0.9v2.3H157v-5.1H158.2z"/>
			<path class="st0" d="M168.7,103.9c-0.5,0-0.8-0.1-1.1-0.4c-0.3-0.3-0.5-0.6-0.5-1.1v-3.8h1.3v3.3c0,0.3,0.1,0.5,0.2,0.6
				c0.1,0.2,0.3,0.2,0.6,0.2c0.3,0,0.5-0.1,0.7-0.2c0.2-0.2,0.4-0.4,0.5-0.7c0.1-0.3,0.2-0.6,0.2-1v-2.2h1.3v5.1h-1.2l-0.1-1.1
				l0,0.2c-0.1,0.2-0.3,0.4-0.4,0.6c-0.2,0.2-0.4,0.3-0.7,0.4C169.3,103.8,169.1,103.9,168.7,103.9z"/>
			<path class="st0" d="M175.4,103.7c-0.4,0-0.8-0.1-1.1-0.2c-0.3-0.1-0.6-0.3-0.9-0.6l0.6-0.8c0.2,0.2,0.4,0.4,0.7,0.5
				c0.2,0.1,0.4,0.2,0.6,0.2c0.2,0,0.3,0,0.4-0.1c0.1,0,0.2-0.1,0.3-0.2c0.1-0.1,0.1-0.2,0.1-0.3c0-0.2-0.1-0.3-0.2-0.4
				c-0.1-0.1-0.2-0.2-0.4-0.2s-0.4-0.1-0.6-0.2c-0.4-0.1-0.8-0.3-1-0.6c-0.2-0.3-0.3-0.6-0.3-0.9c0-0.3,0.1-0.5,0.2-0.8
				s0.3-0.5,0.6-0.6c0.3-0.2,0.6-0.2,1.1-0.2c0.4,0,0.7,0,1,0.1s0.6,0.2,0.8,0.4l-0.5,0.8c-0.1-0.1-0.3-0.2-0.5-0.3
				s-0.4-0.1-0.5-0.1c-0.1,0-0.3,0-0.4,0.1c-0.1,0-0.2,0.1-0.3,0.2c-0.1,0.1-0.1,0.2-0.1,0.3c0,0.2,0,0.3,0.2,0.4
				c0.1,0.1,0.3,0.2,0.5,0.2c0.2,0.1,0.4,0.1,0.5,0.2c0.2,0.1,0.5,0.2,0.7,0.3c0.2,0.1,0.3,0.3,0.5,0.5c0.1,0.2,0.2,0.4,0.2,0.7
				c0,0.3-0.1,0.6-0.2,0.9c-0.2,0.3-0.4,0.5-0.7,0.6C176.2,103.7,175.9,103.7,175.4,103.7z"/>
			<path class="st0" d="M181.3,103.8c-0.6,0-1.1-0.1-1.5-0.3s-0.8-0.6-1-1c-0.2-0.4-0.3-0.9-0.3-1.4c0-0.5,0.1-1,0.4-1.4
				c0.3-0.4,0.6-0.7,1-1c0.4-0.2,0.9-0.4,1.4-0.4c0.7,0,1.3,0.2,1.7,0.6c0.5,0.4,0.8,1,0.9,1.7l-4.1,1.4l-0.3-0.8l3.2-1.1l-0.3,0.2
				c-0.1-0.2-0.2-0.5-0.4-0.6c-0.2-0.2-0.5-0.3-0.8-0.3c-0.3,0-0.5,0.1-0.7,0.2s-0.4,0.3-0.5,0.6s-0.2,0.5-0.2,0.8
				c0,0.3,0.1,0.6,0.2,0.9c0.1,0.2,0.3,0.4,0.6,0.6c0.2,0.1,0.5,0.2,0.8,0.2c0.2,0,0.4,0,0.6-0.1c0.2-0.1,0.4-0.2,0.5-0.3l0.6,1
				c-0.3,0.2-0.6,0.3-0.9,0.4C182,103.7,181.6,103.8,181.3,103.8z"/>
			<path class="st0" d="M187,103.9c-0.5,0-0.8-0.1-1.1-0.4c-0.3-0.3-0.5-0.6-0.5-1.1v-3.8h1.3v3.3c0,0.3,0.1,0.5,0.2,0.6
				c0.1,0.2,0.3,0.2,0.6,0.2c0.3,0,0.5-0.1,0.7-0.2c0.2-0.2,0.4-0.4,0.5-0.7c0.1-0.3,0.2-0.6,0.2-1v-2.2h1.3v5.1H189l-0.1-1.1l0,0.2
				c-0.1,0.2-0.3,0.4-0.4,0.6c-0.2,0.2-0.4,0.3-0.7,0.4C187.6,103.8,187.3,103.9,187,103.9z"/>
			<path class="st0" d="M193.3,98.6l0.1,1l0-0.1c0.2-0.4,0.5-0.7,0.8-0.9c0.3-0.2,0.7-0.3,1.1-0.3c0.3,0,0.5,0,0.8,0.1
				s0.4,0.2,0.5,0.4c0.1,0.2,0.2,0.4,0.3,0.6l0,0c0.2-0.4,0.5-0.6,0.8-0.8s0.7-0.3,1.1-0.3c0.5,0,0.9,0.1,1.2,0.4
				c0.3,0.3,0.4,0.6,0.5,1.1v3.8H199v-3.3c0-0.2-0.1-0.5-0.2-0.6c-0.1-0.2-0.3-0.3-0.5-0.3c-0.3,0-0.5,0.1-0.7,0.3
				c-0.2,0.2-0.4,0.4-0.5,0.7c-0.1,0.3-0.2,0.6-0.2,0.9v2.3h-1.3v-3.3c0-0.2-0.1-0.5-0.2-0.6c-0.1-0.2-0.3-0.3-0.6-0.3
				c-0.3,0-0.5,0.1-0.7,0.3c-0.2,0.2-0.4,0.4-0.5,0.7c-0.1,0.3-0.2,0.6-0.2,0.9v2.3h-1.3v-5.1H193.3z"/>
		</g>
	</g>
	<g>
		<g>
			<path class="st0" d="M99.4,120.8h1.3v9.4h-1.3V120.8z"/>
			<path class="st0" d="M105,130.3c-0.6,0-1.1-0.1-1.5-0.3c-0.4-0.2-0.8-0.6-1-1s-0.3-0.9-0.3-1.4c0-0.5,0.1-1,0.4-1.4
				c0.3-0.4,0.6-0.7,1-1c0.4-0.2,0.9-0.4,1.4-0.4c0.7,0,1.3,0.2,1.7,0.6c0.5,0.4,0.8,1,0.9,1.7l-4.1,1.4l-0.3-0.8l3.2-1.1l-0.3,0.2
				c-0.1-0.2-0.2-0.5-0.4-0.6c-0.2-0.2-0.5-0.3-0.8-0.3c-0.3,0-0.5,0.1-0.7,0.2c-0.2,0.1-0.4,0.3-0.5,0.6c-0.1,0.2-0.2,0.5-0.2,0.8
				c0,0.3,0.1,0.6,0.2,0.9c0.1,0.2,0.3,0.4,0.6,0.6c0.2,0.1,0.5,0.2,0.8,0.2c0.2,0,0.4,0,0.6-0.1c0.2-0.1,0.4-0.2,0.5-0.3l0.6,1
				c-0.3,0.2-0.6,0.3-0.9,0.4C105.6,130.2,105.3,130.3,105,130.3z"/>
			<path class="st0" d="M111.1,130.3c-0.5,0-0.9-0.1-1.3-0.3c-0.4-0.2-0.7-0.5-0.9-0.9c-0.2-0.4-0.3-0.9-0.3-1.5
				c0-0.6,0.1-1.1,0.4-1.5s0.5-0.7,0.9-1c0.4-0.2,0.8-0.3,1.3-0.3c0.5,0,0.9,0.1,1.2,0.3s0.5,0.4,0.7,0.7l-0.1,0.2l0.1-0.9h1.2v5.1
				h-1.4v-1.2l0.1,0.3c0,0-0.1,0.1-0.2,0.2c-0.1,0.1-0.2,0.2-0.4,0.4c-0.2,0.1-0.4,0.2-0.6,0.3S111.4,130.3,111.1,130.3z
				 M111.5,129.2c0.2,0,0.5,0,0.7-0.1c0.2-0.1,0.4-0.2,0.5-0.4c0.1-0.2,0.2-0.4,0.3-0.6V127c-0.1-0.2-0.2-0.4-0.3-0.5
				c-0.1-0.2-0.3-0.3-0.5-0.4c-0.2-0.1-0.4-0.1-0.7-0.1c-0.3,0-0.5,0.1-0.8,0.2c-0.2,0.1-0.4,0.3-0.6,0.6c-0.1,0.2-0.2,0.5-0.2,0.8
				c0,0.3,0.1,0.6,0.2,0.8s0.3,0.4,0.6,0.6C110.9,129.1,111.2,129.2,111.5,129.2z"/>
			<path class="st0" d="M117.3,125.1l0.1,1.4l0-0.2c0.1-0.3,0.3-0.6,0.6-0.8c0.3-0.2,0.5-0.4,0.8-0.5c0.3-0.1,0.5-0.2,0.7-0.2
				l-0.1,1.3c-0.4,0-0.7,0-1,0.2c-0.3,0.2-0.5,0.4-0.7,0.7c-0.2,0.3-0.2,0.6-0.2,0.9v2.2h-1.3v-5.1H117.3z"/>
			<path class="st0" d="M122,125.1l0.1,1.1l0-0.1c0.2-0.4,0.4-0.6,0.8-0.8c0.3-0.2,0.8-0.3,1.2-0.3c0.5,0,0.9,0.1,1.2,0.4
				c0.3,0.3,0.5,0.6,0.5,1.1v3.8h-1.3v-3.3c0-0.3-0.1-0.5-0.2-0.6c-0.1-0.2-0.4-0.2-0.6-0.2c-0.3,0-0.5,0.1-0.7,0.2
				c-0.2,0.2-0.4,0.4-0.5,0.7c-0.1,0.3-0.2,0.6-0.2,1v2.2h-1.3v-5.1H122z"/>
			<path class="st0" d="M127.6,123.2c0-0.2,0.1-0.4,0.2-0.5c0.2-0.1,0.3-0.2,0.5-0.2s0.4,0.1,0.5,0.2c0.2,0.1,0.2,0.3,0.2,0.5
				c0,0.2-0.1,0.4-0.2,0.5c-0.2,0.1-0.3,0.2-0.5,0.2s-0.4-0.1-0.5-0.2C127.7,123.6,127.6,123.5,127.6,123.2z M127.7,125.1h1.3v5.1
				h-1.3V125.1z"/>
			<path class="st0" d="M132,125.1l0.1,1.1l0-0.1c0.2-0.4,0.4-0.6,0.8-0.8c0.3-0.2,0.8-0.3,1.2-0.3c0.5,0,0.9,0.1,1.2,0.4
				c0.3,0.3,0.5,0.6,0.5,1.1v3.8h-1.3v-3.3c0-0.3-0.1-0.5-0.2-0.6c-0.1-0.2-0.4-0.2-0.6-0.2c-0.3,0-0.5,0.1-0.7,0.2
				c-0.2,0.2-0.4,0.4-0.5,0.7c-0.1,0.3-0.2,0.6-0.2,1v2.2h-1.3v-5.1H132z"/>
			<path class="st0" d="M140.2,132.7c-0.4,0-0.8,0-1.1-0.1c-0.3-0.1-0.6-0.2-0.8-0.4c-0.2-0.2-0.4-0.3-0.6-0.5l0.8-0.9
				c0.2,0.2,0.5,0.4,0.7,0.5c0.3,0.1,0.6,0.2,0.9,0.2c0.3,0,0.6-0.1,0.9-0.2s0.4-0.3,0.6-0.5c0.1-0.2,0.2-0.4,0.2-0.7l0-1.3l0.1,0.3
				c-0.1,0.3-0.4,0.6-0.8,0.8c-0.4,0.2-0.8,0.3-1.3,0.3c-0.5,0-0.9-0.1-1.3-0.4c-0.4-0.2-0.7-0.6-0.9-1s-0.3-0.9-0.3-1.4
				c0-0.5,0.1-1,0.4-1.4s0.6-0.7,1-1c0.4-0.2,0.8-0.4,1.3-0.4c0.4,0,0.8,0.1,1.2,0.2c0.3,0.2,0.6,0.4,0.8,0.6l-0.1,0.2l0.2-0.8h1.2
				v5.1c0,0.5-0.1,0.9-0.4,1.3s-0.6,0.7-1,0.9C141.3,132.6,140.8,132.7,140.2,132.7z M138.6,127.6c0,0.3,0.1,0.6,0.2,0.8
				c0.1,0.2,0.3,0.4,0.6,0.6c0.2,0.1,0.5,0.2,0.8,0.2c0.3,0,0.5,0,0.7-0.1c0.2-0.1,0.4-0.2,0.6-0.4c0.2-0.2,0.3-0.3,0.3-0.6V127
				c-0.1-0.2-0.2-0.4-0.3-0.6c-0.2-0.2-0.3-0.3-0.6-0.4c-0.2-0.1-0.5-0.1-0.7-0.1c-0.3,0-0.6,0.1-0.8,0.2c-0.2,0.1-0.4,0.3-0.6,0.6
				C138.7,127,138.6,127.2,138.6,127.6z"/>
		</g>
	</g>
	<g>
		<g>
			<g>
				<path class="st1" d="M24.3,24.5c-0.4,0-0.7-0.1-1-0.2s-0.6-0.4-0.8-0.6l0.1-0.4v3.6h-1.3v-7.6h1.1l0.2,1.2L22.5,20
					c0.3-0.3,0.6-0.5,0.9-0.7c0.4-0.2,0.8-0.3,1.2-0.3c0.5,0,0.9,0.1,1.3,0.3c0.4,0.2,0.7,0.5,0.9,0.9c0.2,0.4,0.3,0.9,0.3,1.5
					c0,0.6-0.1,1-0.4,1.4c-0.2,0.4-0.6,0.7-1,0.9C25.3,24.4,24.9,24.5,24.3,24.5z M24.1,23.4c0.3,0,0.6-0.1,0.8-0.2
					c0.2-0.1,0.4-0.3,0.6-0.6c0.1-0.2,0.2-0.5,0.2-0.8c0-0.3-0.1-0.6-0.2-0.8c-0.1-0.2-0.3-0.4-0.6-0.6c-0.2-0.1-0.5-0.2-0.8-0.2
					c-0.3,0-0.5,0-0.7,0.1c-0.2,0.1-0.4,0.2-0.5,0.4c-0.1,0.2-0.3,0.4-0.3,0.6v1c0,0.2,0.1,0.4,0.3,0.6c0.1,0.2,0.3,0.3,0.5,0.4
					C23.6,23.4,23.8,23.4,24.1,23.4z"/>
				<path class="st1" d="M29.7,19.3l0.1,1.4l0-0.2c0.1-0.3,0.3-0.6,0.6-0.8c0.3-0.2,0.5-0.4,0.8-0.5c0.3-0.1,0.5-0.2,0.7-0.2
					l-0.1,1.3c-0.4,0-0.7,0-1,0.2s-0.5,0.4-0.7,0.7c-0.2,0.3-0.2,0.6-0.2,0.9v2.2h-1.3v-5.1H29.7z"/>
				<path class="st1" d="M32.8,21.8c0-0.5,0.1-1,0.4-1.4c0.2-0.4,0.6-0.7,1-1c0.4-0.2,0.9-0.4,1.5-0.4c0.6,0,1,0.1,1.5,0.4
					c0.4,0.2,0.7,0.6,1,1c0.2,0.4,0.3,0.9,0.3,1.4c0,0.5-0.1,1-0.3,1.4c-0.2,0.4-0.6,0.7-1,1c-0.4,0.2-0.9,0.4-1.5,0.4
					c-0.5,0-1-0.1-1.5-0.3c-0.4-0.2-0.8-0.5-1-0.9C32.9,22.8,32.8,22.3,32.8,21.8z M34.1,21.8c0,0.3,0.1,0.6,0.2,0.8
					c0.1,0.2,0.3,0.4,0.5,0.6c0.2,0.1,0.5,0.2,0.8,0.2c0.3,0,0.6-0.1,0.8-0.2c0.2-0.1,0.4-0.3,0.5-0.6c0.1-0.2,0.2-0.5,0.2-0.8
					c0-0.3-0.1-0.6-0.2-0.8s-0.3-0.4-0.5-0.6c-0.2-0.1-0.5-0.2-0.8-0.2c-0.3,0-0.5,0.1-0.8,0.2c-0.2,0.1-0.4,0.3-0.5,0.6
					C34.2,21.2,34.1,21.5,34.1,21.8z"/>
				<path class="st1" d="M44.1,23.9c-0.2,0.2-0.5,0.3-0.8,0.4c-0.3,0.1-0.6,0.2-1,0.2c-0.6,0-1.1-0.1-1.5-0.3
					c-0.4-0.2-0.8-0.5-1-0.9c-0.2-0.4-0.3-0.9-0.3-1.4c0-0.6,0.1-1,0.4-1.4s0.6-0.7,1-0.9c0.4-0.2,0.8-0.3,1.3-0.3
					c0.4,0,0.8,0.1,1.1,0.2c0.3,0.1,0.6,0.3,0.8,0.5l-0.6,0.9c-0.1-0.1-0.3-0.2-0.5-0.3c-0.2-0.1-0.4-0.1-0.7-0.1
					c-0.3,0-0.5,0.1-0.7,0.2c-0.2,0.1-0.4,0.3-0.5,0.6c-0.1,0.2-0.2,0.5-0.2,0.8c0,0.3,0.1,0.6,0.2,0.8c0.1,0.2,0.3,0.4,0.6,0.6
					c0.2,0.1,0.5,0.2,0.8,0.2c0.2,0,0.4,0,0.6-0.1s0.3-0.1,0.5-0.2L44.1,23.9z"/>
				<path class="st1" d="M47.8,24.5c-0.6,0-1.1-0.1-1.5-0.3c-0.4-0.2-0.8-0.6-1-1c-0.2-0.4-0.3-0.9-0.3-1.4c0-0.5,0.1-1,0.4-1.4
					s0.6-0.7,1-1c0.4-0.2,0.9-0.4,1.4-0.4c0.7,0,1.3,0.2,1.7,0.6c0.5,0.4,0.8,1,0.9,1.7l-4.1,1.4L46.1,22l3.2-1.1L49,21
					c-0.1-0.2-0.2-0.5-0.4-0.6s-0.5-0.3-0.8-0.3c-0.3,0-0.5,0.1-0.7,0.2c-0.2,0.1-0.4,0.3-0.5,0.6s-0.2,0.5-0.2,0.8
					c0,0.3,0.1,0.6,0.2,0.9c0.1,0.2,0.3,0.4,0.6,0.6c0.2,0.1,0.5,0.2,0.8,0.2c0.2,0,0.4,0,0.6-0.1c0.2-0.1,0.4-0.2,0.5-0.3l0.6,1
					c-0.3,0.2-0.6,0.3-0.9,0.4S48.1,24.5,47.8,24.5z"/>
				<path class="st1" d="M53.3,24.5c-0.4,0-0.8-0.1-1.1-0.2c-0.3-0.1-0.6-0.3-0.9-0.6l0.6-0.8c0.2,0.2,0.4,0.4,0.7,0.5
					s0.4,0.2,0.6,0.2c0.2,0,0.3,0,0.4-0.1c0.1,0,0.2-0.1,0.3-0.2c0.1-0.1,0.1-0.2,0.1-0.3c0-0.2-0.1-0.3-0.2-0.4
					c-0.1-0.1-0.2-0.2-0.4-0.2c-0.2-0.1-0.4-0.1-0.6-0.2c-0.4-0.1-0.8-0.3-1-0.6c-0.2-0.3-0.3-0.6-0.3-0.9c0-0.3,0.1-0.5,0.2-0.8
					c0.1-0.2,0.3-0.5,0.6-0.6c0.3-0.2,0.6-0.2,1.1-0.2c0.4,0,0.7,0,1,0.1s0.6,0.2,0.8,0.4l-0.5,0.8c-0.1-0.1-0.3-0.2-0.5-0.3
					C54.1,20,53.9,20,53.7,20c-0.1,0-0.3,0-0.4,0.1c-0.1,0-0.2,0.1-0.3,0.2C53,20.3,53,20.4,53,20.5c0,0.2,0,0.3,0.2,0.4
					c0.1,0.1,0.3,0.2,0.5,0.2c0.2,0.1,0.4,0.1,0.5,0.2c0.2,0.1,0.5,0.2,0.7,0.3c0.2,0.1,0.3,0.3,0.5,0.5c0.1,0.2,0.2,0.4,0.2,0.7
					c0,0.3-0.1,0.6-0.2,0.9c-0.2,0.3-0.4,0.5-0.7,0.6C54.2,24.4,53.8,24.5,53.3,24.5z"/>
				<path class="st1" d="M58.4,24.5c-0.4,0-0.8-0.1-1.1-0.2c-0.3-0.1-0.6-0.3-0.9-0.6l0.6-0.8c0.2,0.2,0.4,0.4,0.7,0.5
					s0.4,0.2,0.6,0.2c0.2,0,0.3,0,0.4-0.1c0.1,0,0.2-0.1,0.3-0.2c0.1-0.1,0.1-0.2,0.1-0.3c0-0.2-0.1-0.3-0.2-0.4
					c-0.1-0.1-0.2-0.2-0.4-0.2c-0.2-0.1-0.4-0.1-0.6-0.2c-0.4-0.1-0.8-0.3-1-0.6c-0.2-0.3-0.3-0.6-0.3-0.9c0-0.3,0.1-0.5,0.2-0.8
					c0.1-0.2,0.3-0.5,0.6-0.6c0.3-0.2,0.6-0.2,1.1-0.2c0.4,0,0.7,0,1,0.1s0.6,0.2,0.8,0.4l-0.5,0.8c-0.1-0.1-0.3-0.2-0.5-0.3
					C59.1,20,59,20,58.8,20c-0.1,0-0.3,0-0.4,0.1c-0.1,0-0.2,0.1-0.3,0.2c-0.1,0.1-0.1,0.2-0.1,0.3c0,0.2,0,0.3,0.2,0.4
					c0.1,0.1,0.3,0.2,0.5,0.2c0.2,0.1,0.4,0.1,0.5,0.2c0.2,0.1,0.5,0.2,0.7,0.3c0.2,0.1,0.3,0.3,0.5,0.5c0.1,0.2,0.2,0.4,0.2,0.7
					c0,0.3-0.1,0.6-0.2,0.9c-0.2,0.3-0.4,0.5-0.7,0.6C59.3,24.4,58.9,24.5,58.4,24.5z"/>
				<path class="st1" d="M64.4,24.5c-0.6,0-1.1-0.1-1.5-0.3c-0.4-0.2-0.8-0.6-1-1c-0.2-0.4-0.3-0.9-0.3-1.4c0-0.5,0.1-1,0.4-1.4
					s0.6-0.7,1-1c0.4-0.2,0.9-0.4,1.4-0.4c0.7,0,1.3,0.2,1.7,0.6c0.5,0.4,0.8,1,0.9,1.7L63,22.7L62.7,22l3.2-1.1L65.6,21
					c-0.1-0.2-0.2-0.5-0.4-0.6s-0.5-0.3-0.8-0.3c-0.3,0-0.5,0.1-0.7,0.2c-0.2,0.1-0.4,0.3-0.5,0.6s-0.2,0.5-0.2,0.8
					c0,0.3,0.1,0.6,0.2,0.9c0.1,0.2,0.3,0.4,0.6,0.6c0.2,0.1,0.5,0.2,0.8,0.2c0.2,0,0.4,0,0.6-0.1c0.2-0.1,0.4-0.2,0.5-0.3l0.6,1
					c-0.3,0.2-0.6,0.3-0.9,0.4S64.7,24.5,64.4,24.5z"/>
				<path class="st1" d="M69.9,24.5c-0.4,0-0.8-0.1-1.1-0.2c-0.3-0.1-0.6-0.3-0.9-0.6l0.6-0.8c0.2,0.2,0.4,0.4,0.7,0.5
					s0.4,0.2,0.6,0.2c0.2,0,0.3,0,0.4-0.1c0.1,0,0.2-0.1,0.3-0.2c0.1-0.1,0.1-0.2,0.1-0.3c0-0.2-0.1-0.3-0.2-0.4
					c-0.1-0.1-0.2-0.2-0.4-0.2c-0.2-0.1-0.4-0.1-0.6-0.2c-0.4-0.1-0.8-0.3-1-0.6c-0.2-0.3-0.3-0.6-0.3-0.9c0-0.3,0.1-0.5,0.2-0.8
					c0.1-0.2,0.3-0.5,0.6-0.6c0.3-0.2,0.6-0.2,1.1-0.2c0.4,0,0.7,0,1,0.1s0.6,0.2,0.8,0.4l-0.5,0.8c-0.1-0.1-0.3-0.2-0.5-0.3
					C70.6,20,70.4,20,70.3,20c-0.1,0-0.3,0-0.4,0.1c-0.1,0-0.2,0.1-0.3,0.2c-0.1,0.1-0.1,0.2-0.1,0.3c0,0.2,0,0.3,0.2,0.4
					c0.1,0.1,0.3,0.2,0.5,0.2c0.2,0.1,0.4,0.1,0.5,0.2c0.2,0.1,0.5,0.2,0.7,0.3c0.2,0.1,0.3,0.3,0.5,0.5c0.1,0.2,0.2,0.4,0.2,0.7
					c0,0.3-0.1,0.6-0.2,0.9c-0.2,0.3-0.4,0.5-0.7,0.6C70.8,24.4,70.4,24.5,69.9,24.5z"/>
			</g>
		</g>
	</g>
	<g>
		<g>
			<path class="st1" d="M95.6,10.4c-0.2,0.2-0.5,0.3-0.8,0.4c-0.3,0.1-0.6,0.2-1,0.2c-0.6,0-1.1-0.1-1.5-0.3c-0.4-0.2-0.8-0.5-1-0.9
				C91.1,9.3,91,8.9,91,8.3c0-0.6,0.1-1,0.4-1.4s0.6-0.7,1-0.9c0.4-0.2,0.8-0.3,1.3-0.3c0.4,0,0.8,0.1,1.1,0.2
				c0.3,0.1,0.6,0.3,0.8,0.5L95,7.2c-0.1-0.1-0.3-0.2-0.5-0.3c-0.2-0.1-0.4-0.1-0.7-0.1c-0.3,0-0.5,0.1-0.7,0.2
				c-0.2,0.1-0.4,0.3-0.5,0.6c-0.1,0.2-0.2,0.5-0.2,0.8c0,0.3,0.1,0.6,0.2,0.8c0.1,0.2,0.3,0.4,0.6,0.6c0.2,0.1,0.5,0.2,0.8,0.2
				c0.2,0,0.4,0,0.6-0.1s0.3-0.1,0.5-0.2L95.6,10.4z"/>
			<path class="st1" d="M96.6,8.3c0-0.5,0.1-1,0.4-1.4c0.2-0.4,0.6-0.7,1-1c0.4-0.2,0.9-0.4,1.5-0.4c0.6,0,1,0.1,1.5,0.4
				c0.4,0.2,0.7,0.6,1,1c0.2,0.4,0.3,0.9,0.3,1.4c0,0.5-0.1,1-0.3,1.4c-0.2,0.4-0.6,0.7-1,1c-0.4,0.2-0.9,0.4-1.5,0.4
				c-0.5,0-1-0.1-1.5-0.3c-0.4-0.2-0.8-0.5-1-0.9C96.7,9.3,96.6,8.8,96.6,8.3z M97.9,8.3c0,0.3,0.1,0.6,0.2,0.8
				c0.1,0.2,0.3,0.4,0.5,0.6c0.2,0.1,0.5,0.2,0.8,0.2c0.3,0,0.6-0.1,0.8-0.2c0.2-0.1,0.4-0.3,0.5-0.6c0.1-0.2,0.2-0.5,0.2-0.8
				c0-0.3-0.1-0.6-0.2-0.8s-0.3-0.4-0.5-0.6c-0.2-0.1-0.5-0.2-0.8-0.2c-0.3,0-0.5,0.1-0.8,0.2c-0.2,0.1-0.4,0.3-0.5,0.6
				C98,7.7,97.9,8,97.9,8.3z"/>
			<path class="st1" d="M104.9,5.8l0.1,1l0-0.1c0.2-0.4,0.5-0.7,0.8-0.9c0.3-0.2,0.7-0.3,1.1-0.3c0.3,0,0.5,0,0.8,0.1
				c0.2,0.1,0.4,0.2,0.5,0.4c0.1,0.2,0.2,0.4,0.3,0.6l0,0c0.2-0.4,0.5-0.6,0.8-0.8s0.7-0.3,1.1-0.3c0.5,0,0.9,0.1,1.2,0.4
				c0.3,0.3,0.4,0.6,0.5,1.1v3.8h-1.3V7.6c0-0.2-0.1-0.5-0.2-0.6c-0.1-0.2-0.3-0.3-0.5-0.3c-0.3,0-0.5,0.1-0.7,0.3
				c-0.2,0.2-0.4,0.4-0.5,0.7c-0.1,0.3-0.2,0.6-0.2,0.9v2.3h-1.3V7.6c0-0.2-0.1-0.5-0.2-0.6c-0.1-0.2-0.3-0.3-0.6-0.3
				c-0.3,0-0.5,0.1-0.7,0.3c-0.2,0.2-0.4,0.4-0.5,0.7C105.1,8,105,8.3,105,8.6v2.3h-1.3V5.8H104.9z"/>
			<path class="st1" d="M114.9,5.8l0.1,1l0-0.1c0.2-0.4,0.5-0.7,0.8-0.9c0.3-0.2,0.7-0.3,1.1-0.3c0.3,0,0.5,0,0.8,0.1
				c0.2,0.1,0.4,0.2,0.5,0.4c0.1,0.2,0.2,0.4,0.3,0.6l0,0c0.2-0.4,0.5-0.6,0.8-0.8s0.7-0.3,1.1-0.3c0.5,0,0.9,0.1,1.2,0.4
				c0.3,0.3,0.4,0.6,0.5,1.1v3.8h-1.3V7.6c0-0.2-0.1-0.5-0.2-0.6c-0.1-0.2-0.3-0.3-0.5-0.3c-0.3,0-0.5,0.1-0.7,0.3
				c-0.2,0.2-0.4,0.4-0.5,0.7c-0.1,0.3-0.2,0.6-0.2,0.9v2.3h-1.3V7.6c0-0.2-0.1-0.5-0.2-0.6c-0.1-0.2-0.3-0.3-0.6-0.3
				c-0.3,0-0.5,0.1-0.7,0.3c-0.2,0.2-0.4,0.4-0.5,0.7c-0.1,0.3-0.2,0.6-0.2,0.9v2.3h-1.3V5.8H114.9z"/>
			<path class="st1" d="M125.4,11.1c-0.5,0-0.8-0.1-1.1-0.4s-0.5-0.6-0.5-1.1V5.8h1.3v3.3c0,0.3,0.1,0.5,0.2,0.6
				c0.1,0.2,0.3,0.2,0.6,0.2c0.3,0,0.5-0.1,0.7-0.2c0.2-0.2,0.4-0.4,0.5-0.7s0.2-0.6,0.2-1V5.8h1.3v5.1h-1.2l-0.1-1.1l0,0.2
				c-0.1,0.2-0.3,0.4-0.4,0.6s-0.4,0.3-0.7,0.4C126,11,125.8,11.1,125.4,11.1z"/>
			<path class="st1" d="M131.8,5.8l0.1,1.1l0-0.1c0.2-0.4,0.4-0.6,0.8-0.8c0.3-0.2,0.8-0.3,1.2-0.3c0.5,0,0.9,0.1,1.2,0.4
				c0.3,0.3,0.5,0.6,0.5,1.1v3.8h-1.3V7.6c0-0.3-0.1-0.5-0.2-0.6c-0.1-0.2-0.4-0.2-0.6-0.2c-0.3,0-0.5,0.1-0.7,0.2s-0.4,0.4-0.5,0.7
				s-0.2,0.6-0.2,1v2.2h-1.3V5.8H131.8z"/>
			<path class="st1" d="M137.3,3.9c0-0.2,0.1-0.4,0.2-0.5c0.2-0.1,0.3-0.2,0.5-0.2c0.2,0,0.4,0.1,0.5,0.2c0.2,0.1,0.2,0.3,0.2,0.5
				c0,0.2-0.1,0.4-0.2,0.5c-0.2,0.1-0.3,0.2-0.5,0.2c-0.2,0-0.4-0.1-0.5-0.2C137.4,4.3,137.3,4.1,137.3,3.9z M137.4,5.8h1.3v5.1
				h-1.3V5.8z"/>
			<path class="st1" d="M141.1,3.5h1.3v2.2h1.3v1h-1.3v4h-1.3v-4h-0.9v-1h0.9V3.5z"/>
			<path class="st1" d="M146.8,10.9l-2.5-5.1h1.5l2,4.4L146.8,10.9z M145.5,13.3l3.3-7.5h1.2l-3.3,7.5H145.5z"/>
		</g>
	</g>
	<g>
		<g>
			<path class="st1" d="M178.5,55.3c-0.6,0-1.1-0.1-1.5-0.3c-0.4-0.2-0.8-0.6-1-1c-0.2-0.4-0.3-0.9-0.3-1.4c0-0.5,0.1-1,0.4-1.4
				s0.6-0.7,1-1c0.4-0.2,0.9-0.4,1.4-0.4c0.7,0,1.3,0.2,1.7,0.6c0.5,0.4,0.8,1,0.9,1.7l-4.1,1.4l-0.3-0.8l3.2-1.1l-0.3,0.2
				c-0.1-0.2-0.2-0.5-0.4-0.6s-0.5-0.3-0.8-0.3c-0.3,0-0.5,0.1-0.7,0.2c-0.2,0.1-0.4,0.3-0.5,0.6s-0.2,0.5-0.2,0.8
				c0,0.3,0.1,0.6,0.2,0.9c0.1,0.2,0.3,0.4,0.6,0.6c0.2,0.1,0.5,0.2,0.8,0.2c0.2,0,0.4,0,0.6-0.1c0.2-0.1,0.4-0.2,0.5-0.3l0.6,1
				c-0.3,0.2-0.6,0.3-0.9,0.4S178.8,55.3,178.5,55.3z"/>
			<path class="st1" d="M186.7,54.7c-0.2,0.2-0.5,0.3-0.8,0.4c-0.3,0.1-0.6,0.2-1,0.2c-0.6,0-1.1-0.1-1.5-0.3
				c-0.4-0.2-0.8-0.5-1-0.9c-0.2-0.4-0.3-0.9-0.3-1.4c0-0.6,0.1-1,0.4-1.4s0.6-0.7,1-0.9c0.4-0.2,0.8-0.3,1.3-0.3
				c0.4,0,0.8,0.1,1.1,0.2c0.3,0.1,0.6,0.3,0.8,0.5l-0.6,0.9c-0.1-0.1-0.3-0.2-0.5-0.3c-0.2-0.1-0.4-0.1-0.7-0.1
				c-0.3,0-0.5,0.1-0.7,0.2c-0.2,0.1-0.4,0.3-0.5,0.6c-0.1,0.2-0.2,0.5-0.2,0.8c0,0.3,0.1,0.6,0.2,0.8c0.1,0.2,0.3,0.4,0.6,0.6
				c0.2,0.1,0.5,0.2,0.8,0.2c0.2,0,0.4,0,0.6-0.1s0.3-0.1,0.5-0.2L186.7,54.7z"/>
			<path class="st1" d="M187.6,52.5c0-0.5,0.1-1,0.4-1.4c0.2-0.4,0.6-0.7,1-1c0.4-0.2,0.9-0.4,1.5-0.4c0.6,0,1,0.1,1.5,0.4
				c0.4,0.2,0.7,0.6,1,1c0.2,0.4,0.3,0.9,0.3,1.4c0,0.5-0.1,1-0.3,1.4c-0.2,0.4-0.6,0.7-1,1c-0.4,0.2-0.9,0.4-1.5,0.4
				c-0.5,0-1-0.1-1.5-0.3c-0.4-0.2-0.8-0.5-1-0.9C187.8,53.6,187.6,53.1,187.6,52.5z M189,52.6c0,0.3,0.1,0.6,0.2,0.8
				c0.1,0.2,0.3,0.4,0.5,0.6c0.2,0.1,0.5,0.2,0.8,0.2c0.3,0,0.6-0.1,0.8-0.2c0.2-0.1,0.4-0.3,0.5-0.6c0.1-0.2,0.2-0.5,0.2-0.8
				c0-0.3-0.1-0.6-0.2-0.8s-0.3-0.4-0.5-0.6c-0.2-0.1-0.5-0.2-0.8-0.2c-0.3,0-0.5,0.1-0.8,0.2c-0.2,0.1-0.4,0.3-0.5,0.6
				C189.1,52,189,52.3,189,52.6z"/>
			<path class="st1" d="M195.9,50.1l0.1,1.1l0-0.1c0.2-0.4,0.4-0.6,0.8-0.8c0.3-0.2,0.8-0.3,1.2-0.3c0.5,0,0.9,0.1,1.2,0.4
				c0.3,0.3,0.5,0.6,0.5,1.1v3.8h-1.3v-3.3c0-0.3-0.1-0.5-0.2-0.6c-0.1-0.2-0.4-0.2-0.6-0.2c-0.3,0-0.5,0.1-0.7,0.2
				s-0.4,0.4-0.5,0.7s-0.2,0.6-0.2,1v2.2h-1.3v-5.1H195.9z"/>
			<path class="st1" d="M201.1,52.5c0-0.5,0.1-1,0.4-1.4c0.2-0.4,0.6-0.7,1-1c0.4-0.2,0.9-0.4,1.5-0.4c0.6,0,1,0.1,1.5,0.4
				c0.4,0.2,0.7,0.6,1,1c0.2,0.4,0.3,0.9,0.3,1.4c0,0.5-0.1,1-0.3,1.4c-0.2,0.4-0.6,0.7-1,1c-0.4,0.2-0.9,0.4-1.5,0.4
				c-0.5,0-1-0.1-1.5-0.3c-0.4-0.2-0.8-0.5-1-0.9C201.2,53.6,201.1,53.1,201.1,52.5z M202.5,52.6c0,0.3,0.1,0.6,0.2,0.8
				c0.1,0.2,0.3,0.4,0.5,0.6c0.2,0.1,0.5,0.2,0.8,0.2c0.3,0,0.6-0.1,0.8-0.2c0.2-0.1,0.4-0.3,0.5-0.6c0.1-0.2,0.2-0.5,0.2-0.8
				c0-0.3-0.1-0.6-0.2-0.8s-0.3-0.4-0.5-0.6c-0.2-0.1-0.5-0.2-0.8-0.2c-0.3,0-0.5,0.1-0.8,0.2c-0.2,0.1-0.4,0.3-0.5,0.6
				C202.5,52,202.5,52.3,202.5,52.6z"/>
			<path class="st1" d="M209.4,50.1l0.1,1l0-0.1c0.2-0.4,0.5-0.7,0.8-0.9c0.3-0.2,0.7-0.3,1.1-0.3c0.3,0,0.5,0,0.8,0.1
				c0.2,0.1,0.4,0.2,0.5,0.4c0.1,0.2,0.2,0.4,0.3,0.6l0,0c0.2-0.4,0.5-0.6,0.8-0.8s0.7-0.3,1.1-0.3c0.5,0,0.9,0.1,1.2,0.4
				c0.3,0.3,0.4,0.6,0.5,1.1v3.8h-1.3v-3.3c0-0.2-0.1-0.5-0.2-0.6c-0.1-0.2-0.3-0.3-0.5-0.3c-0.3,0-0.5,0.1-0.7,0.3
				c-0.2,0.2-0.4,0.4-0.5,0.7c-0.1,0.3-0.2,0.6-0.2,0.9v2.3h-1.3v-3.3c0-0.2-0.1-0.5-0.2-0.6c-0.1-0.2-0.3-0.3-0.6-0.3
				c-0.3,0-0.5,0.1-0.7,0.3c-0.2,0.2-0.4,0.4-0.5,0.7c-0.1,0.3-0.2,0.6-0.2,0.9v2.3h-1.3v-5.1H209.4z"/>
			<path class="st1" d="M220,55.2l-2.5-5.1h1.5l2,4.4L220,55.2z M218.7,57.6l3.3-7.5h1.2l-3.3,7.5H218.7z"/>
		</g>
	</g>
	<g>
		<g>
			<g>
				<path class="st2" d="M268.1,69.4h1.3v2.2h1.3v1h-1.3v4h-1.3v-4h-0.9v-1h0.9V69.4z"/>
				<path class="st2" d="M274.5,76.8c-0.6,0-1.1-0.1-1.5-0.3c-0.4-0.2-0.8-0.6-1-1c-0.2-0.4-0.3-0.9-0.3-1.4c0-0.5,0.1-1,0.4-1.4
					s0.6-0.7,1-1c0.4-0.2,0.9-0.4,1.4-0.4c0.7,0,1.3,0.2,1.7,0.6c0.5,0.4,0.8,1,0.9,1.7l-4.1,1.4l-0.3-0.8l3.2-1.1l-0.3,0.2
					c-0.1-0.2-0.2-0.5-0.4-0.6s-0.5-0.3-0.8-0.3c-0.3,0-0.5,0.1-0.7,0.2c-0.2,0.1-0.4,0.3-0.5,0.6S273,73.7,273,74
					c0,0.3,0.1,0.6,0.2,0.9c0.1,0.2,0.3,0.4,0.6,0.6c0.2,0.1,0.5,0.2,0.8,0.2c0.2,0,0.4,0,0.6-0.1c0.2-0.1,0.4-0.2,0.5-0.3l0.6,1
					c-0.3,0.2-0.6,0.3-0.9,0.4S274.8,76.8,274.5,76.8z"/>
				<path class="st2" d="M279.7,71.6l0.1,1.4l0-0.2c0.1-0.3,0.3-0.6,0.6-0.8c0.3-0.2,0.5-0.4,0.8-0.5c0.3-0.1,0.5-0.2,0.7-0.2
					l-0.1,1.3c-0.4,0-0.7,0-1,0.2s-0.5,0.4-0.7,0.7c-0.2,0.3-0.2,0.6-0.2,0.9v2.2h-1.3v-5.1H279.7z"/>
				<path class="st2" d="M284.3,71.6l0.1,1.4l0-0.2c0.1-0.3,0.3-0.6,0.6-0.8c0.3-0.2,0.5-0.4,0.8-0.5c0.3-0.1,0.5-0.2,0.7-0.2
					l-0.1,1.3c-0.4,0-0.7,0-1,0.2s-0.5,0.4-0.7,0.7c-0.2,0.3-0.2,0.6-0.2,0.9v2.2h-1.3v-5.1H284.3z"/>
				<path class="st2" d="M287.8,69.8c0-0.2,0.1-0.4,0.2-0.5c0.2-0.1,0.3-0.2,0.5-0.2c0.2,0,0.4,0.1,0.5,0.2c0.2,0.1,0.2,0.3,0.2,0.5
					c0,0.2-0.1,0.4-0.2,0.5c-0.2,0.1-0.3,0.2-0.5,0.2c-0.2,0-0.4-0.1-0.5-0.2C287.8,70.1,287.8,70,287.8,69.8z M287.8,71.6h1.3v5.1
					h-1.3V71.6z"/>
				<path class="st2" d="M291.5,69.4h1.3v2.2h1.3v1h-1.3v4h-1.3v-4h-0.9v-1h0.9V69.4z"/>
				<path class="st2" d="M295.1,74.1c0-0.5,0.1-1,0.4-1.4c0.2-0.4,0.6-0.7,1-1c0.4-0.2,0.9-0.4,1.5-0.4c0.6,0,1,0.1,1.5,0.4
					c0.4,0.2,0.7,0.6,1,1c0.2,0.4,0.3,0.9,0.3,1.4c0,0.5-0.1,1-0.3,1.4c-0.2,0.4-0.6,0.7-1,1c-0.4,0.2-0.9,0.4-1.5,0.4
					c-0.5,0-1-0.1-1.5-0.3c-0.4-0.2-0.8-0.5-1-0.9C295.2,75.1,295.1,74.6,295.1,74.1z M296.4,74.1c0,0.3,0.1,0.6,0.2,0.8
					c0.1,0.2,0.3,0.4,0.5,0.6c0.2,0.1,0.5,0.2,0.8,0.2c0.3,0,0.6-0.1,0.8-0.2c0.2-0.1,0.4-0.3,0.5-0.6c0.1-0.2,0.2-0.5,0.2-0.8
					c0-0.3-0.1-0.6-0.2-0.8s-0.3-0.4-0.5-0.6c-0.2-0.1-0.5-0.2-0.8-0.2c-0.3,0-0.5,0.1-0.8,0.2c-0.2,0.1-0.4,0.3-0.5,0.6
					C296.5,73.5,296.4,73.8,296.4,74.1z"/>
				<path class="st2" d="M303.3,71.6l0.1,1.4l0-0.2c0.1-0.3,0.3-0.6,0.6-0.8c0.3-0.2,0.5-0.4,0.8-0.5c0.3-0.1,0.5-0.2,0.7-0.2
					l-0.1,1.3c-0.4,0-0.7,0-1,0.2s-0.5,0.4-0.7,0.7c-0.2,0.3-0.2,0.6-0.2,0.9v2.2h-1.3v-5.1H303.3z"/>
				<path class="st2" d="M308.5,76.7l-2.5-5.1h1.5l2,4.4L308.5,76.7z M307.3,79.1l3.3-7.5h1.2l-3.3,7.5H307.3z"/>
			</g>
		</g>
	</g>
	<g>
		<g>
			<g>
				<path class="st3" d="M257.8,129.7c-0.2,0.2-0.5,0.3-0.8,0.4s-0.6,0.2-1,0.2c-0.6,0-1.1-0.1-1.5-0.3s-0.8-0.5-1-0.9
					c-0.2-0.4-0.3-0.9-0.3-1.4c0-0.6,0.1-1,0.4-1.4c0.3-0.4,0.6-0.7,1-0.9c0.4-0.2,0.8-0.3,1.3-0.3c0.4,0,0.8,0.1,1.1,0.2
					c0.3,0.1,0.6,0.3,0.8,0.5l-0.6,0.9c-0.1-0.1-0.3-0.2-0.5-0.3c-0.2-0.1-0.4-0.1-0.7-0.1c-0.3,0-0.5,0.1-0.7,0.2
					c-0.2,0.1-0.4,0.3-0.5,0.6c-0.1,0.2-0.2,0.5-0.2,0.8c0,0.3,0.1,0.6,0.2,0.8c0.1,0.2,0.3,0.4,0.6,0.6c0.2,0.1,0.5,0.2,0.8,0.2
					c0.2,0,0.4,0,0.6-0.1c0.2-0.1,0.3-0.1,0.5-0.2L257.8,129.7z"/>
				<path class="st3" d="M260.9,130.2l-2.5-5.1h1.5l2,4.4L260.9,130.2z M259.6,132.6l3.3-7.5h1.2l-3.3,7.5H259.6z"/>
				<path class="st3" d="M268.5,130.3c-0.4,0-0.8-0.1-1.2-0.3c-0.3-0.2-0.6-0.4-0.8-0.7l0.1-0.3v1.2h-1.3v-9.4h1.3v5.3l0-0.5
					c0.2-0.2,0.5-0.4,0.8-0.6c0.4-0.2,0.8-0.2,1.2-0.2c0.4,0,0.9,0.1,1.2,0.3c0.4,0.2,0.7,0.5,0.9,0.9c0.2,0.4,0.3,0.9,0.3,1.4
					c0,0.6-0.1,1.1-0.4,1.5c-0.2,0.4-0.6,0.7-1,1C269.4,130.2,268.9,130.3,268.5,130.3z M268.2,129.1c0.3,0,0.6-0.1,0.8-0.2
					c0.2-0.1,0.4-0.3,0.6-0.6c0.1-0.2,0.2-0.5,0.2-0.8c0-0.3-0.1-0.6-0.2-0.8c-0.1-0.2-0.3-0.4-0.6-0.6s-0.5-0.2-0.8-0.2
					c-0.2,0-0.5,0-0.7,0.1c-0.2,0.1-0.4,0.2-0.5,0.4c-0.1,0.2-0.3,0.3-0.3,0.6v1.1c0.1,0.2,0.2,0.4,0.3,0.6c0.1,0.2,0.3,0.3,0.5,0.4
					S267.9,129.1,268.2,129.1z"/>
				<path class="st3" d="M275,130.3c-0.6,0-1.1-0.1-1.5-0.3c-0.4-0.2-0.8-0.6-1-1c-0.2-0.4-0.3-0.9-0.3-1.4c0-0.5,0.1-1,0.4-1.4
					s0.6-0.7,1-1c0.4-0.2,0.9-0.4,1.4-0.4c0.7,0,1.3,0.2,1.7,0.6c0.5,0.4,0.8,1,0.9,1.7l-4.1,1.4l-0.3-0.8l3.2-1.1l-0.3,0.2
					c-0.1-0.2-0.2-0.5-0.4-0.6c-0.2-0.2-0.5-0.3-0.8-0.3c-0.3,0-0.5,0.1-0.7,0.2c-0.2,0.1-0.4,0.3-0.5,0.6c-0.1,0.2-0.2,0.5-0.2,0.8
					c0,0.3,0.1,0.6,0.2,0.9c0.1,0.2,0.3,0.4,0.6,0.6c0.2,0.1,0.5,0.2,0.8,0.2c0.2,0,0.4,0,0.6-0.1c0.2-0.1,0.4-0.2,0.5-0.3l0.6,1
					c-0.3,0.2-0.6,0.3-0.9,0.4C275.6,130.2,275.2,130.3,275,130.3z"/>
				<path class="st3" d="M280.1,125.1l0.1,1.4l0-0.2c0.1-0.3,0.3-0.6,0.6-0.8s0.5-0.4,0.8-0.5c0.3-0.1,0.5-0.2,0.7-0.2l-0.1,1.3
					c-0.4,0-0.7,0-1,0.2s-0.5,0.4-0.7,0.7s-0.2,0.6-0.2,0.9v2.2h-1.3v-5.1H280.1z"/>
				<path class="st3" d="M285.1,130.3c-0.4,0-0.8-0.1-1.1-0.2c-0.3-0.1-0.6-0.3-0.9-0.6l0.6-0.8c0.2,0.2,0.4,0.4,0.7,0.5
					c0.2,0.1,0.4,0.2,0.6,0.2c0.2,0,0.3,0,0.4-0.1c0.1,0,0.2-0.1,0.3-0.2c0.1-0.1,0.1-0.2,0.1-0.3c0-0.2-0.1-0.3-0.2-0.4
					c-0.1-0.1-0.2-0.2-0.4-0.2c-0.2-0.1-0.4-0.1-0.6-0.2c-0.4-0.1-0.8-0.3-1-0.6c-0.2-0.3-0.3-0.6-0.3-0.9c0-0.3,0.1-0.5,0.2-0.8
					c0.1-0.2,0.3-0.5,0.6-0.6c0.3-0.2,0.6-0.2,1.1-0.2c0.4,0,0.7,0,1,0.1s0.6,0.2,0.8,0.4l-0.5,0.8c-0.1-0.1-0.3-0.2-0.5-0.3
					c-0.2-0.1-0.4-0.1-0.5-0.1c-0.1,0-0.3,0-0.4,0.1c-0.1,0-0.2,0.1-0.3,0.2s-0.1,0.2-0.1,0.3c0,0.2,0,0.3,0.2,0.4
					c0.1,0.1,0.3,0.2,0.5,0.2c0.2,0.1,0.4,0.1,0.5,0.2c0.2,0.1,0.5,0.2,0.7,0.3c0.2,0.1,0.3,0.3,0.5,0.5c0.1,0.2,0.2,0.4,0.2,0.7
					c0,0.3-0.1,0.6-0.2,0.9c-0.2,0.3-0.4,0.5-0.7,0.6C286,130.2,285.6,130.3,285.1,130.3z"/>
				<path class="st3" d="M291.8,130.3c-0.4,0-0.7-0.1-1-0.2c-0.3-0.2-0.6-0.4-0.8-0.6l0.1-0.4v3.6h-1.3V125h1.1l0.2,1.2l-0.1-0.3
					c0.3-0.3,0.6-0.5,0.9-0.7c0.4-0.2,0.8-0.3,1.2-0.3c0.5,0,0.9,0.1,1.3,0.3c0.4,0.2,0.7,0.5,0.9,0.9c0.2,0.4,0.3,0.9,0.3,1.5
					c0,0.6-0.1,1-0.4,1.4s-0.6,0.7-1,0.9S292.3,130.3,291.8,130.3z M291.5,129.2c0.3,0,0.6-0.1,0.8-0.2c0.2-0.1,0.4-0.3,0.6-0.6
					c0.1-0.2,0.2-0.5,0.2-0.8c0-0.3-0.1-0.6-0.2-0.8c-0.1-0.2-0.3-0.4-0.6-0.6c-0.2-0.1-0.5-0.2-0.8-0.2c-0.3,0-0.5,0-0.7,0.1
					s-0.4,0.2-0.5,0.4c-0.1,0.2-0.3,0.4-0.3,0.6v1c0,0.2,0.1,0.4,0.3,0.6c0.1,0.2,0.3,0.3,0.5,0.4S291.3,129.2,291.5,129.2z"/>
				<path class="st3" d="M298.1,130.3c-0.5,0-0.9-0.1-1.3-0.3c-0.4-0.2-0.7-0.5-0.9-0.9c-0.2-0.4-0.3-0.9-0.3-1.5
					c0-0.6,0.1-1.1,0.4-1.5c0.2-0.4,0.5-0.7,0.9-1c0.4-0.2,0.8-0.3,1.3-0.3c0.5,0,0.9,0.1,1.2,0.3c0.3,0.2,0.5,0.4,0.7,0.7l-0.1,0.2
					l0.1-0.9h1.2v5.1h-1.4v-1.2l0.1,0.3c0,0-0.1,0.1-0.2,0.2c-0.1,0.1-0.2,0.2-0.4,0.4c-0.2,0.1-0.4,0.2-0.6,0.3
					C298.6,130.2,298.4,130.3,298.1,130.3z M298.5,129.2c0.2,0,0.5,0,0.7-0.1s0.4-0.2,0.5-0.4c0.1-0.2,0.2-0.4,0.3-0.6V127
					c-0.1-0.2-0.2-0.4-0.3-0.5c-0.1-0.2-0.3-0.3-0.5-0.4s-0.4-0.1-0.7-0.1c-0.3,0-0.5,0.1-0.8,0.2c-0.2,0.1-0.4,0.3-0.6,0.6
					c-0.1,0.2-0.2,0.5-0.2,0.8c0,0.3,0.1,0.6,0.2,0.8c0.1,0.2,0.3,0.4,0.6,0.6C297.9,129.1,298.2,129.2,298.5,129.2z"/>
				<path class="st3" d="M307.3,129.7c-0.2,0.2-0.5,0.3-0.8,0.4s-0.6,0.2-1,0.2c-0.6,0-1.1-0.1-1.5-0.3s-0.8-0.5-1-0.9
					c-0.2-0.4-0.3-0.9-0.3-1.4c0-0.6,0.1-1,0.4-1.4c0.3-0.4,0.6-0.7,1-0.9c0.4-0.2,0.8-0.3,1.3-0.3c0.4,0,0.8,0.1,1.1,0.2
					c0.3,0.1,0.6,0.3,0.8,0.5l-0.6,0.9c-0.1-0.1-0.3-0.2-0.5-0.3c-0.2-0.1-0.4-0.1-0.7-0.1c-0.3,0-0.5,0.1-0.7,0.2
					c-0.2,0.1-0.4,0.3-0.5,0.6c-0.1,0.2-0.2,0.5-0.2,0.8c0,0.3,0.1,0.6,0.2,0.8c0.1,0.2,0.3,0.4,0.6,0.6c0.2,0.1,0.5,0.2,0.8,0.2
					c0.2,0,0.4,0,0.6-0.1c0.2-0.1,0.3-0.1,0.5-0.2L307.3,129.7z"/>
				<path class="st3" d="M311.1,130.3c-0.6,0-1.1-0.1-1.5-0.3c-0.4-0.2-0.8-0.6-1-1c-0.2-0.4-0.3-0.9-0.3-1.4c0-0.5,0.1-1,0.4-1.4
					s0.6-0.7,1-1c0.4-0.2,0.9-0.4,1.4-0.4c0.7,0,1.3,0.2,1.7,0.6c0.5,0.4,0.8,1,0.9,1.7l-4.1,1.4l-0.3-0.8l3.2-1.1l-0.3,0.2
					c-0.1-0.2-0.2-0.5-0.4-0.6c-0.2-0.2-0.5-0.3-0.8-0.3c-0.3,0-0.5,0.1-0.7,0.2c-0.2,0.1-0.4,0.3-0.5,0.6c-0.1,0.2-0.2,0.5-0.2,0.8
					c0,0.3,0.1,0.6,0.2,0.9c0.1,0.2,0.3,0.4,0.6,0.6c0.2,0.1,0.5,0.2,0.8,0.2c0.2,0,0.4,0,0.6-0.1c0.2-0.1,0.4-0.2,0.5-0.3l0.6,1
					c-0.3,0.2-0.6,0.3-0.9,0.4C311.7,130.2,311.4,130.3,311.1,130.3z"/>
			</g>
		</g>
	</g>
	<g>
		<g>
			<path class="st3" d="M277.8,196.6l0.1,1.1l0-0.1c0.2-0.4,0.4-0.6,0.8-0.8c0.3-0.2,0.8-0.3,1.2-0.3c0.5,0,0.9,0.1,1.2,0.4
				c0.3,0.3,0.5,0.6,0.5,1.1v3.8h-1.3v-3.3c0-0.3-0.1-0.5-0.2-0.6s-0.4-0.2-0.6-0.2c-0.3,0-0.5,0.1-0.7,0.2
				c-0.2,0.2-0.4,0.4-0.5,0.7c-0.1,0.3-0.2,0.6-0.2,1v2.2h-1.3v-5.1H277.8z"/>
			<path class="st3" d="M285.8,201.8c-0.6,0-1.1-0.1-1.5-0.3c-0.4-0.2-0.8-0.6-1-1c-0.2-0.4-0.3-0.9-0.3-1.4c0-0.5,0.1-1,0.4-1.4
				c0.3-0.4,0.6-0.7,1-1c0.4-0.2,0.9-0.4,1.4-0.4c0.7,0,1.3,0.2,1.7,0.6c0.5,0.4,0.8,1,0.9,1.7l-4.1,1.4l-0.3-0.8l3.2-1.1l-0.3,0.2
				c-0.1-0.2-0.2-0.5-0.4-0.6c-0.2-0.2-0.5-0.3-0.8-0.3c-0.3,0-0.5,0.1-0.7,0.2c-0.2,0.1-0.4,0.3-0.5,0.6c-0.1,0.2-0.2,0.5-0.2,0.8
				c0,0.3,0.1,0.6,0.2,0.9s0.3,0.4,0.6,0.6c0.2,0.1,0.5,0.2,0.8,0.2c0.2,0,0.4,0,0.6-0.1c0.2-0.1,0.4-0.2,0.5-0.3l0.6,1
				c-0.3,0.2-0.6,0.3-0.9,0.4C286.4,201.7,286.1,201.8,285.8,201.8z"/>
			<path class="st3" d="M290.3,194.3h1.3v2.2h1.3v1h-1.3v4h-1.3v-4h-0.9v-1h0.9V194.3z"/>
			<path class="st3" d="M297.7,196.6l1.3,3.1l-0.3,0l1.2-3.1h1.3l-2.3,5.4l-1.6-3.4l-1.5,3.4l-2.3-5.4h1.3l1.4,3.3l-0.5-0.1l1.1-2.4
				l-0.3-0.8H297.7z"/>
			<path class="st3" d="M302,199c0-0.5,0.1-1,0.4-1.4c0.2-0.4,0.6-0.7,1-1c0.4-0.2,0.9-0.4,1.5-0.4s1,0.1,1.5,0.4
				c0.4,0.2,0.7,0.6,1,1c0.2,0.4,0.3,0.9,0.3,1.4c0,0.5-0.1,1-0.3,1.4c-0.2,0.4-0.6,0.7-1,1c-0.4,0.2-0.9,0.4-1.5,0.4
				c-0.5,0-1-0.1-1.5-0.3s-0.8-0.5-1-0.9C302.1,200.1,302,199.6,302,199z M303.4,199.1c0,0.3,0.1,0.6,0.2,0.8
				c0.1,0.2,0.3,0.4,0.5,0.6c0.2,0.1,0.5,0.2,0.8,0.2c0.3,0,0.6-0.1,0.8-0.2c0.2-0.1,0.4-0.3,0.5-0.6c0.1-0.2,0.2-0.5,0.2-0.8
				s-0.1-0.6-0.2-0.8s-0.3-0.4-0.5-0.6c-0.2-0.1-0.5-0.2-0.8-0.2c-0.3,0-0.5,0.1-0.8,0.2c-0.2,0.1-0.4,0.3-0.5,0.6
				C303.4,198.5,303.4,198.8,303.4,199.1z"/>
			<path class="st3" d="M310.3,196.6l0.1,1.4l0-0.2c0.1-0.3,0.3-0.6,0.6-0.8s0.5-0.4,0.8-0.5c0.3-0.1,0.5-0.2,0.7-0.2l-0.1,1.3
				c-0.4,0-0.7,0-1,0.2s-0.5,0.4-0.7,0.7c-0.2,0.3-0.2,0.6-0.2,0.9v2.2h-1.3v-5.1H310.3z"/>
			<path class="st3" d="M313.8,201.6v-9.4h1.3v9.4H313.8z M314.7,200.1l-0.1-1.3l3.1-2.4l0.8,0.7L314.7,200.1z M316.4,198.2l2.3,3.4
				h-1.6l-1.6-2.6L316.4,198.2z"/>
			<path class="st3" d="M321.5,201.7c-0.4,0-0.8-0.1-1.1-0.2c-0.3-0.1-0.6-0.3-0.9-0.6l0.6-0.8c0.2,0.2,0.4,0.4,0.7,0.5
				c0.2,0.1,0.4,0.2,0.6,0.2c0.2,0,0.3,0,0.4-0.1c0.1,0,0.2-0.1,0.3-0.2c0.1-0.1,0.1-0.2,0.1-0.3c0-0.2-0.1-0.3-0.2-0.4
				c-0.1-0.1-0.2-0.2-0.4-0.2c-0.2-0.1-0.4-0.1-0.6-0.2c-0.4-0.1-0.8-0.3-1-0.6c-0.2-0.3-0.3-0.6-0.3-0.9c0-0.3,0.1-0.5,0.2-0.8
				c0.1-0.2,0.3-0.5,0.6-0.6c0.3-0.2,0.6-0.2,1.1-0.2c0.4,0,0.7,0,1,0.1s0.6,0.2,0.8,0.4l-0.5,0.8c-0.1-0.1-0.3-0.2-0.5-0.3
				c-0.2-0.1-0.4-0.1-0.5-0.1c-0.1,0-0.3,0-0.4,0.1c-0.1,0-0.2,0.1-0.3,0.2s-0.1,0.2-0.1,0.3c0,0.2,0,0.3,0.2,0.4
				c0.1,0.1,0.3,0.2,0.5,0.2c0.2,0.1,0.4,0.1,0.5,0.2c0.2,0.1,0.5,0.2,0.7,0.3c0.2,0.1,0.3,0.3,0.5,0.5c0.1,0.2,0.2,0.4,0.2,0.7
				c0,0.3-0.1,0.6-0.2,0.9c-0.2,0.3-0.4,0.5-0.7,0.6C322.4,201.7,322,201.7,321.5,201.7z"/>
		</g>
	</g>
	<g>
		<g>
			<path class="st4" d="M99.3,208.8c0-0.2,0.1-0.4,0.2-0.5s0.3-0.2,0.5-0.2c0.2,0,0.4,0.1,0.5,0.2s0.2,0.3,0.2,0.5
				c0,0.2-0.1,0.4-0.2,0.5c-0.2,0.1-0.3,0.2-0.5,0.2c-0.2,0-0.4-0.1-0.5-0.2C99.4,209.2,99.3,209,99.3,208.8z M99.4,210.6h1.3v5.1
				h-1.3V210.6z"/>
			<path class="st4" d="M103.8,210.6l0.1,1.1l0-0.1c0.2-0.4,0.4-0.6,0.8-0.8c0.3-0.2,0.8-0.3,1.2-0.3c0.5,0,0.9,0.1,1.2,0.4
				s0.5,0.6,0.5,1.1v3.8h-1.3v-3.3c0-0.3-0.1-0.5-0.2-0.6s-0.4-0.2-0.6-0.2c-0.3,0-0.5,0.1-0.7,0.2s-0.4,0.4-0.5,0.7s-0.2,0.6-0.2,1
				v2.2h-1.3v-5.1H103.8z"/>
			<path class="st4" d="M109.9,208.4h1.3v2.2h1.3v1h-1.3v4h-1.3v-4H109v-1h0.9V208.4z"/>
			<path class="st4" d="M116.3,215.8c-0.6,0-1.1-0.1-1.5-0.3c-0.4-0.2-0.8-0.6-1-1c-0.2-0.4-0.3-0.9-0.3-1.4c0-0.5,0.1-1,0.4-1.4
				s0.6-0.7,1-1c0.4-0.2,0.9-0.4,1.4-0.4c0.7,0,1.3,0.2,1.7,0.6s0.8,1,0.9,1.7l-4.1,1.4l-0.3-0.8l3.2-1.1l-0.3,0.2
				c-0.1-0.2-0.2-0.5-0.4-0.6c-0.2-0.2-0.5-0.3-0.8-0.3c-0.3,0-0.5,0.1-0.7,0.2c-0.2,0.1-0.4,0.3-0.5,0.6c-0.1,0.2-0.2,0.5-0.2,0.8
				c0,0.3,0.1,0.6,0.2,0.9c0.1,0.2,0.3,0.4,0.6,0.6c0.2,0.1,0.5,0.2,0.8,0.2c0.2,0,0.4,0,0.6-0.1c0.2-0.1,0.4-0.2,0.5-0.3l0.6,1
				c-0.3,0.2-0.6,0.3-0.9,0.4C116.9,215.8,116.6,215.8,116.3,215.8z"/>
			<path class="st4" d="M121.5,210.6l0.1,1.4l0-0.2c0.1-0.3,0.3-0.6,0.6-0.8s0.5-0.4,0.8-0.5c0.3-0.1,0.5-0.2,0.7-0.2l-0.1,1.3
				c-0.4,0-0.7,0-1,0.2s-0.5,0.4-0.7,0.7s-0.2,0.6-0.2,0.9v2.2h-1.3v-5.1H121.5z"/>
			<path class="st4" d="M127.1,215.8l-2.9-5.2h1.6l1.8,3.8l-0.8,0l1.6-3.8h1.5L127.1,215.8L127.1,215.8z"/>
			<path class="st4" d="M131,208.8c0-0.2,0.1-0.4,0.2-0.5s0.3-0.2,0.5-0.2c0.2,0,0.4,0.1,0.5,0.2s0.2,0.3,0.2,0.5
				c0,0.2-0.1,0.4-0.2,0.5c-0.2,0.1-0.3,0.2-0.5,0.2c-0.2,0-0.4-0.1-0.5-0.2C131.1,209.2,131,209,131,208.8z M131.1,210.6h1.3v5.1
				h-1.3V210.6z"/>
			<path class="st4" d="M136.7,215.8c-0.6,0-1.1-0.1-1.5-0.3c-0.4-0.2-0.8-0.6-1-1c-0.2-0.4-0.3-0.9-0.3-1.4c0-0.5,0.1-1,0.4-1.4
				s0.6-0.7,1-1c0.4-0.2,0.9-0.4,1.4-0.4c0.7,0,1.3,0.2,1.7,0.6s0.8,1,0.9,1.7l-4.1,1.4l-0.3-0.8l3.2-1.1l-0.3,0.2
				c-0.1-0.2-0.2-0.5-0.4-0.6c-0.2-0.2-0.5-0.3-0.8-0.3c-0.3,0-0.5,0.1-0.7,0.2c-0.2,0.1-0.4,0.3-0.5,0.6c-0.1,0.2-0.2,0.5-0.2,0.8
				c0,0.3,0.1,0.6,0.2,0.9c0.1,0.2,0.3,0.4,0.6,0.6c0.2,0.1,0.5,0.2,0.8,0.2c0.2,0,0.4,0,0.6-0.1c0.2-0.1,0.4-0.2,0.5-0.3l0.6,1
				c-0.3,0.2-0.6,0.3-0.9,0.4C137.3,215.8,137,215.8,136.7,215.8z"/>
			<path class="st4" d="M144.1,210.6l1.3,3.1l-0.3,0l1.2-3.1h1.3l-2.3,5.4l-1.6-3.4l-1.5,3.4l-2.3-5.4h1.3l1.4,3.3l-0.5-0.1l1.1-2.4
				l-0.3-0.8H144.1z"/>
			<path class="st4" d="M150.3,215.8c-0.4,0-0.8-0.1-1.1-0.2c-0.3-0.1-0.6-0.3-0.9-0.6l0.6-0.8c0.2,0.2,0.4,0.4,0.7,0.5
				c0.2,0.1,0.4,0.2,0.6,0.2c0.2,0,0.3,0,0.4-0.1c0.1,0,0.2-0.1,0.3-0.2c0.1-0.1,0.1-0.2,0.1-0.3c0-0.2-0.1-0.3-0.2-0.4
				c-0.1-0.1-0.2-0.2-0.4-0.2c-0.2-0.1-0.4-0.1-0.6-0.2c-0.4-0.1-0.8-0.3-1-0.6c-0.2-0.3-0.3-0.6-0.3-0.9c0-0.3,0.1-0.5,0.2-0.8
				c0.1-0.2,0.3-0.5,0.6-0.6c0.3-0.2,0.6-0.2,1.1-0.2c0.4,0,0.7,0,1,0.1s0.6,0.2,0.8,0.4l-0.5,0.8c-0.1-0.1-0.3-0.2-0.5-0.3
				c-0.2-0.1-0.4-0.1-0.5-0.1c-0.1,0-0.3,0-0.4,0.1c-0.1,0-0.2,0.1-0.3,0.2s-0.1,0.2-0.1,0.3c0,0.2,0,0.3,0.2,0.4
				c0.1,0.1,0.3,0.2,0.5,0.2c0.2,0.1,0.4,0.1,0.5,0.2c0.2,0.1,0.5,0.2,0.7,0.3c0.2,0.1,0.3,0.3,0.5,0.5c0.1,0.2,0.2,0.4,0.2,0.7
				c0,0.3-0.1,0.6-0.2,0.9c-0.2,0.3-0.4,0.5-0.7,0.6C151.2,215.7,150.8,215.8,150.3,215.8z"/>
		</g>
	</g>
	<g>
		<g>
			<path class="st4" d="M37.8,239.3l0.1,1.4l0-0.2c0.1-0.3,0.3-0.6,0.6-0.8s0.5-0.4,0.8-0.5c0.3-0.1,0.5-0.2,0.7-0.2l-0.1,1.3
				c-0.4,0-0.7,0-1,0.2s-0.5,0.4-0.7,0.7s-0.2,0.6-0.2,0.9v2.2h-1.3v-5.1H37.8z"/>
			<path class="st4" d="M43.7,244.5c-0.6,0-1.1-0.1-1.5-0.3c-0.4-0.2-0.8-0.6-1-1c-0.2-0.4-0.3-0.9-0.3-1.4c0-0.5,0.1-1,0.4-1.4
				s0.6-0.7,1-1c0.4-0.2,0.9-0.4,1.4-0.4c0.7,0,1.3,0.2,1.7,0.6s0.8,1,0.9,1.7l-4.1,1.4l-0.3-0.8l3.2-1.1l-0.3,0.2
				c-0.1-0.2-0.2-0.5-0.4-0.6c-0.2-0.2-0.5-0.3-0.8-0.3c-0.3,0-0.5,0.1-0.7,0.2c-0.2,0.1-0.4,0.3-0.5,0.6c-0.1,0.2-0.2,0.5-0.2,0.8
				c0,0.3,0.1,0.6,0.2,0.9c0.1,0.2,0.3,0.4,0.6,0.6c0.2,0.1,0.5,0.2,0.8,0.2c0.2,0,0.4,0,0.6-0.1c0.2-0.1,0.4-0.2,0.5-0.3l0.6,1
				c-0.3,0.2-0.6,0.3-0.9,0.4C44.3,244.4,44,244.5,43.7,244.5z"/>
			<path class="st4" d="M49.2,244.5c-0.4,0-0.8-0.1-1.1-0.2c-0.3-0.1-0.6-0.3-0.9-0.6l0.6-0.8c0.2,0.2,0.4,0.4,0.7,0.5
				c0.2,0.1,0.4,0.2,0.6,0.2c0.2,0,0.3,0,0.4-0.1c0.1,0,0.2-0.1,0.3-0.2c0.1-0.1,0.1-0.2,0.1-0.3c0-0.2-0.1-0.3-0.2-0.4
				c-0.1-0.1-0.2-0.2-0.4-0.2c-0.2-0.1-0.4-0.1-0.6-0.2c-0.4-0.1-0.8-0.3-1-0.6c-0.2-0.3-0.3-0.6-0.3-0.9c0-0.3,0.1-0.5,0.2-0.8
				c0.1-0.2,0.3-0.5,0.6-0.6c0.3-0.2,0.6-0.2,1.1-0.2c0.4,0,0.7,0,1,0.1s0.6,0.2,0.8,0.4l-0.5,0.8c-0.1-0.1-0.3-0.2-0.5-0.3
				c-0.2-0.1-0.4-0.1-0.5-0.1c-0.1,0-0.3,0-0.4,0.1c-0.1,0-0.2,0.1-0.3,0.2s-0.1,0.2-0.1,0.3c0,0.2,0,0.3,0.2,0.4
				c0.1,0.1,0.3,0.2,0.5,0.2c0.2,0.1,0.4,0.1,0.5,0.2c0.2,0.1,0.5,0.2,0.7,0.3c0.2,0.1,0.3,0.3,0.5,0.5c0.1,0.2,0.2,0.4,0.2,0.7
				c0,0.3-0.1,0.6-0.2,0.9c-0.2,0.3-0.4,0.5-0.7,0.6C50,244.4,49.7,244.5,49.2,244.5z"/>
			<path class="st4" d="M52.7,237.4c0-0.2,0.1-0.4,0.2-0.5s0.3-0.2,0.5-0.2c0.2,0,0.4,0.1,0.5,0.2s0.2,0.3,0.2,0.5
				c0,0.2-0.1,0.4-0.2,0.5c-0.2,0.1-0.3,0.2-0.5,0.2c-0.2,0-0.4-0.1-0.5-0.2C52.8,237.8,52.7,237.6,52.7,237.4z M52.7,239.3h1.3v5.1
				h-1.3V239.3z"/>
			<path class="st4" d="M58,244.5c-0.5,0-0.9-0.1-1.3-0.3s-0.7-0.5-0.9-1s-0.3-0.9-0.3-1.5c0-0.6,0.1-1.1,0.3-1.5
				c0.2-0.4,0.6-0.7,1-0.9c0.4-0.2,0.9-0.3,1.4-0.3c0.4,0,0.7,0.1,1.1,0.2c0.3,0.1,0.6,0.3,0.8,0.6l0,0.5V235h1.3v9.4H60v-1.1
				l0.1,0.3c-0.3,0.3-0.6,0.5-0.9,0.7S58.5,244.5,58,244.5z M58.4,243.3c0.3,0,0.5,0,0.7-0.1s0.4-0.2,0.5-0.4
				c0.1-0.2,0.3-0.4,0.3-0.6v-1.1c-0.1-0.2-0.2-0.4-0.3-0.6s-0.3-0.3-0.5-0.4s-0.4-0.1-0.7-0.1c-0.3,0-0.5,0.1-0.8,0.2
				c-0.2,0.1-0.4,0.3-0.6,0.6c-0.1,0.2-0.2,0.5-0.2,0.8c0,0.3,0.1,0.6,0.2,0.8c0.1,0.2,0.3,0.4,0.6,0.6
				C57.9,243.3,58.1,243.3,58.4,243.3z"/>
			<path class="st4" d="M65.6,244.5c-0.6,0-1.1-0.1-1.5-0.3c-0.4-0.2-0.8-0.6-1-1c-0.2-0.4-0.3-0.9-0.3-1.4c0-0.5,0.1-1,0.4-1.4
				s0.6-0.7,1-1c0.4-0.2,0.9-0.4,1.4-0.4c0.7,0,1.3,0.2,1.7,0.6s0.8,1,0.9,1.7l-4.1,1.4l-0.3-0.8l3.2-1.1l-0.3,0.2
				c-0.1-0.2-0.2-0.5-0.4-0.6c-0.2-0.2-0.5-0.3-0.8-0.3c-0.3,0-0.5,0.1-0.7,0.2c-0.2,0.1-0.4,0.3-0.5,0.6c-0.1,0.2-0.2,0.5-0.2,0.8
				c0,0.3,0.1,0.6,0.2,0.9c0.1,0.2,0.3,0.4,0.6,0.6c0.2,0.1,0.5,0.2,0.8,0.2c0.2,0,0.4,0,0.6-0.1c0.2-0.1,0.4-0.2,0.5-0.3l0.6,1
				c-0.3,0.2-0.6,0.3-0.9,0.4C66.2,244.4,65.9,244.5,65.6,244.5z"/>
			<path class="st4" d="M70.8,239.3l0.1,1.1l0-0.1c0.2-0.4,0.4-0.6,0.8-0.8c0.3-0.2,0.8-0.3,1.2-0.3c0.5,0,0.9,0.1,1.2,0.4
				s0.5,0.6,0.5,1.1v3.8h-1.3v-3.3c0-0.3-0.1-0.5-0.2-0.6s-0.4-0.2-0.6-0.2c-0.3,0-0.5,0.1-0.7,0.2s-0.4,0.4-0.5,0.7s-0.2,0.6-0.2,1
				v2.2h-1.3v-5.1H70.8z"/>
			<path class="st4" d="M80.6,243.9c-0.2,0.2-0.5,0.3-0.8,0.4c-0.3,0.1-0.6,0.2-1,0.2c-0.6,0-1.1-0.1-1.5-0.3s-0.8-0.5-1-0.9
				c-0.2-0.4-0.3-0.9-0.3-1.4c0-0.6,0.1-1,0.4-1.4c0.3-0.4,0.6-0.7,1-0.9c0.4-0.2,0.8-0.3,1.3-0.3c0.4,0,0.8,0.1,1.1,0.2
				c0.3,0.1,0.6,0.3,0.8,0.5l-0.6,0.9c-0.1-0.1-0.3-0.2-0.5-0.3c-0.2-0.1-0.4-0.1-0.7-0.1c-0.3,0-0.5,0.1-0.7,0.2
				c-0.2,0.1-0.4,0.3-0.5,0.6c-0.1,0.2-0.2,0.5-0.2,0.8c0,0.3,0.1,0.6,0.2,0.8c0.1,0.2,0.3,0.4,0.6,0.6c0.2,0.1,0.5,0.2,0.8,0.2
				c0.2,0,0.4,0,0.6-0.1c0.2-0.1,0.3-0.1,0.5-0.2L80.6,243.9z"/>
			<path class="st4" d="M83.7,244.4l-2.5-5.1h1.5l2,4.4L83.7,244.4z M82.4,246.8l3.3-7.5H87l-3.3,7.5H82.4z"/>
		</g>
	</g>
	<g>
		<g>
			<path class="st4" d="M6.1,169.6l1.3,3.1l-0.3,0l1.2-3.1h1.3L7.4,175l-1.6-3.4L4.3,175L2,169.6h1.3l1.4,3.3l-0.5-0.1l1.1-2.4
				L5,169.6H6.1z"/>
			<path class="st4" d="M10.4,172.1c0-0.5,0.1-1,0.4-1.4c0.2-0.4,0.6-0.7,1-1c0.4-0.2,0.9-0.4,1.5-0.4c0.6,0,1,0.1,1.5,0.4
				s0.7,0.6,1,1c0.2,0.4,0.3,0.9,0.3,1.4c0,0.5-0.1,1-0.3,1.4c-0.2,0.4-0.6,0.7-1,1c-0.4,0.2-0.9,0.4-1.5,0.4c-0.5,0-1-0.1-1.5-0.3
				s-0.8-0.5-1-0.9C10.5,173.1,10.4,172.6,10.4,172.1z M11.8,172.1c0,0.3,0.1,0.6,0.2,0.8c0.1,0.2,0.3,0.4,0.5,0.6
				c0.2,0.1,0.5,0.2,0.8,0.2c0.3,0,0.6-0.1,0.8-0.2c0.2-0.1,0.4-0.3,0.5-0.6c0.1-0.2,0.2-0.5,0.2-0.8s-0.1-0.6-0.2-0.8
				s-0.3-0.4-0.5-0.6c-0.2-0.1-0.5-0.2-0.8-0.2c-0.3,0-0.5,0.1-0.8,0.2c-0.2,0.1-0.4,0.3-0.5,0.6C11.8,171.5,11.8,171.8,11.8,172.1z
				"/>
			<path class="st4" d="M18.7,169.6l0.1,1.4l0-0.2c0.1-0.3,0.3-0.6,0.6-0.8s0.5-0.4,0.8-0.5c0.3-0.1,0.5-0.2,0.7-0.2l-0.1,1.3
				c-0.4,0-0.7,0-1,0.2s-0.5,0.4-0.7,0.7s-0.2,0.6-0.2,0.9v2.2h-1.3v-5.1H18.7z"/>
			<path class="st4" d="M22.2,174.7v-9.4h1.3v9.4H22.2z M23.1,173.2l-0.1-1.3l3.1-2.4l0.8,0.7L23.1,173.2z M24.8,171.3l2.3,3.4h-1.6
				l-1.6-2.6L24.8,171.3z"/>
			<path class="st4" d="M29.9,174.8c-0.4,0-0.8-0.1-1.1-0.2c-0.3-0.1-0.6-0.3-0.9-0.6l0.6-0.8c0.2,0.2,0.4,0.4,0.7,0.5
				c0.2,0.1,0.4,0.2,0.6,0.2c0.2,0,0.3,0,0.4-0.1c0.1,0,0.2-0.1,0.3-0.2c0.1-0.1,0.1-0.2,0.1-0.3c0-0.2-0.1-0.3-0.2-0.4
				c-0.1-0.1-0.2-0.2-0.4-0.2c-0.2-0.1-0.4-0.1-0.6-0.2c-0.4-0.1-0.8-0.3-1-0.6c-0.2-0.3-0.3-0.6-0.3-0.9c0-0.3,0.1-0.5,0.2-0.8
				c0.1-0.2,0.3-0.5,0.6-0.6c0.3-0.2,0.6-0.2,1.1-0.2c0.4,0,0.7,0,1,0.1s0.6,0.2,0.8,0.4l-0.5,0.8c-0.1-0.1-0.3-0.2-0.5-0.3
				c-0.2-0.1-0.4-0.1-0.5-0.1c-0.1,0-0.3,0-0.4,0.1c-0.1,0-0.2,0.1-0.3,0.2s-0.1,0.2-0.1,0.3c0,0.2,0,0.3,0.2,0.4
				c0.1,0.1,0.3,0.2,0.5,0.2c0.2,0.1,0.4,0.1,0.5,0.2c0.2,0.1,0.5,0.2,0.7,0.3c0.2,0.1,0.3,0.3,0.5,0.5c0.1,0.2,0.2,0.4,0.2,0.7
				c0,0.3-0.1,0.6-0.2,0.9c-0.2,0.3-0.4,0.5-0.7,0.6C30.8,174.7,30.4,174.8,29.9,174.8z"/>
			<path class="st4" d="M33.5,174.7v-9.4h1.3v5.4l0-0.2c0.2-0.3,0.4-0.6,0.8-0.8c0.3-0.2,0.8-0.3,1.2-0.3c0.5,0,0.9,0.1,1.2,0.4
				s0.5,0.6,0.5,1.1v3.8h-1.3v-3.3c0-0.3-0.1-0.5-0.2-0.6s-0.4-0.2-0.6-0.2c-0.3,0-0.5,0.1-0.7,0.2s-0.4,0.4-0.5,0.7s-0.2,0.6-0.2,1
				v2.2H33.5z"/>
			<path class="st4" d="M39.9,172.1c0-0.5,0.1-1,0.4-1.4c0.2-0.4,0.6-0.7,1-1c0.4-0.2,0.9-0.4,1.5-0.4c0.6,0,1,0.1,1.5,0.4
				s0.7,0.6,1,1c0.2,0.4,0.3,0.9,0.3,1.4c0,0.5-0.1,1-0.3,1.4c-0.2,0.4-0.6,0.7-1,1c-0.4,0.2-0.9,0.4-1.5,0.4c-0.5,0-1-0.1-1.5-0.3
				s-0.8-0.5-1-0.9C40,173.1,39.9,172.6,39.9,172.1z M41.2,172.1c0,0.3,0.1,0.6,0.2,0.8c0.1,0.2,0.3,0.4,0.5,0.6
				c0.2,0.1,0.5,0.2,0.8,0.2c0.3,0,0.6-0.1,0.8-0.2c0.2-0.1,0.4-0.3,0.5-0.6c0.1-0.2,0.2-0.5,0.2-0.8s-0.1-0.6-0.2-0.8
				s-0.3-0.4-0.5-0.6c-0.2-0.1-0.5-0.2-0.8-0.2c-0.3,0-0.5,0.1-0.8,0.2c-0.2,0.1-0.4,0.3-0.5,0.6C41.3,171.5,41.2,171.8,41.2,172.1z
				"/>
			<path class="st4" d="M50,174.8c-0.4,0-0.7-0.1-1-0.2c-0.3-0.2-0.6-0.4-0.8-0.6l0.1-0.4v3.6H47v-7.6h1.1l0.2,1.2l-0.1-0.3
				c0.3-0.3,0.6-0.5,0.9-0.7c0.4-0.2,0.8-0.3,1.2-0.3c0.5,0,0.9,0.1,1.3,0.3c0.4,0.2,0.7,0.5,0.9,0.9c0.2,0.4,0.3,0.9,0.3,1.5
				c0,0.6-0.1,1-0.4,1.4s-0.6,0.7-1,0.9C51,174.7,50.6,174.8,50,174.8z M49.8,173.7c0.3,0,0.6-0.1,0.8-0.2c0.2-0.1,0.4-0.3,0.6-0.6
				c0.1-0.2,0.2-0.5,0.2-0.8c0-0.3-0.1-0.6-0.2-0.8c-0.1-0.2-0.3-0.4-0.6-0.6c-0.2-0.1-0.5-0.2-0.8-0.2c-0.3,0-0.5,0-0.7,0.1
				s-0.4,0.2-0.5,0.4c-0.1,0.2-0.3,0.4-0.3,0.6v1c0,0.2,0.1,0.4,0.3,0.6c0.1,0.2,0.3,0.3,0.5,0.4S49.5,173.7,49.8,173.7z"/>
			<path class="st4" d="M55.7,174.8c-0.4,0-0.8-0.1-1.1-0.2c-0.3-0.1-0.6-0.3-0.9-0.6l0.6-0.8c0.2,0.2,0.4,0.4,0.7,0.5
				c0.2,0.1,0.4,0.2,0.6,0.2c0.2,0,0.3,0,0.4-0.1c0.1,0,0.2-0.1,0.3-0.2c0.1-0.1,0.1-0.2,0.1-0.3c0-0.2-0.1-0.3-0.2-0.4
				c-0.1-0.1-0.2-0.2-0.4-0.2c-0.2-0.1-0.4-0.1-0.6-0.2c-0.4-0.1-0.8-0.3-1-0.6c-0.2-0.3-0.3-0.6-0.3-0.9c0-0.3,0.1-0.5,0.2-0.8
				c0.1-0.2,0.3-0.5,0.6-0.6c0.3-0.2,0.6-0.2,1.1-0.2c0.4,0,0.7,0,1,0.1s0.6,0.2,0.8,0.4l-0.5,0.8c-0.1-0.1-0.3-0.2-0.5-0.3
				c-0.2-0.1-0.4-0.1-0.5-0.1c-0.1,0-0.3,0-0.4,0.1c-0.1,0-0.2,0.1-0.3,0.2s-0.1,0.2-0.1,0.3c0,0.2,0,0.3,0.2,0.4
				c0.1,0.1,0.3,0.2,0.5,0.2c0.2,0.1,0.4,0.1,0.5,0.2c0.2,0.1,0.5,0.2,0.7,0.3c0.2,0.1,0.3,0.3,0.5,0.5c0.1,0.2,0.2,0.4,0.2,0.7
				c0,0.3-0.1,0.6-0.2,0.9c-0.2,0.3-0.4,0.5-0.7,0.6C56.6,174.7,56.2,174.8,55.7,174.8z"/>
		</g>
	</g>
	<g>
		<g>
			<g>
				<path class="st0" d="M188,167.8c0-0.2,0.1-0.4,0.2-0.5s0.3-0.2,0.5-0.2c0.2,0,0.4,0.1,0.5,0.2s0.2,0.3,0.2,0.5
					c0,0.2-0.1,0.4-0.2,0.5c-0.2,0.1-0.3,0.2-0.5,0.2c-0.2,0-0.4-0.1-0.5-0.2C188.1,168.1,188,168,188,167.8z M188,169.6h1.3v5.1
					H188V169.6z"/>
				<path class="st0" d="M192.4,169.6l0.1,1.1l0-0.1c0.2-0.4,0.4-0.6,0.8-0.8c0.3-0.2,0.8-0.3,1.2-0.3c0.5,0,0.9,0.1,1.2,0.4
					s0.5,0.6,0.5,1.1v3.8h-1.3v-3.3c0-0.3-0.1-0.5-0.2-0.6s-0.4-0.2-0.6-0.2c-0.3,0-0.5,0.1-0.7,0.2s-0.4,0.4-0.5,0.7
					s-0.2,0.6-0.2,1v2.2h-1.3v-5.1H192.4z"/>
				<path class="st0" d="M198.5,167.4h1.3v2.2h1.3v1h-1.3v4h-1.3v-4h-0.9v-1h0.9V167.4z"/>
				<path class="st0" d="M204.9,174.8c-0.6,0-1.1-0.1-1.5-0.3c-0.4-0.2-0.8-0.6-1-1c-0.2-0.4-0.3-0.9-0.3-1.4c0-0.5,0.1-1,0.4-1.4
					s0.6-0.7,1-1c0.4-0.2,0.9-0.4,1.4-0.4c0.7,0,1.3,0.2,1.7,0.6s0.8,1,0.9,1.7l-4.1,1.4l-0.3-0.8l3.2-1.1l-0.3,0.2
					c-0.1-0.2-0.2-0.5-0.4-0.6c-0.2-0.2-0.5-0.3-0.8-0.3c-0.3,0-0.5,0.1-0.7,0.2c-0.2,0.1-0.4,0.3-0.5,0.6c-0.1,0.2-0.2,0.5-0.2,0.8
					c0,0.3,0.1,0.6,0.2,0.9c0.1,0.2,0.3,0.4,0.6,0.6c0.2,0.1,0.5,0.2,0.8,0.2c0.2,0,0.4,0,0.6-0.1c0.2-0.1,0.4-0.2,0.5-0.3l0.6,1
					c-0.3,0.2-0.6,0.3-0.9,0.4C205.5,174.8,205.2,174.8,204.9,174.8z"/>
				<path class="st0" d="M210.1,169.6l0.1,1.4l0-0.2c0.1-0.3,0.3-0.6,0.6-0.8s0.5-0.4,0.8-0.5c0.3-0.1,0.5-0.2,0.7-0.2l-0.1,1.3
					c-0.4,0-0.7,0-1,0.2s-0.5,0.4-0.7,0.7s-0.2,0.6-0.2,0.9v2.2h-1.3v-5.1H210.1z"/>
				<path class="st0" d="M214.8,169.6l0.1,1.1l0-0.1c0.2-0.4,0.4-0.6,0.8-0.8c0.3-0.2,0.8-0.3,1.2-0.3c0.5,0,0.9,0.1,1.2,0.4
					s0.5,0.6,0.5,1.1v3.8h-1.3v-3.3c0-0.3-0.1-0.5-0.2-0.6s-0.4-0.2-0.6-0.2c-0.3,0-0.5,0.1-0.7,0.2s-0.4,0.4-0.5,0.7
					s-0.2,0.6-0.2,1v2.2h-1.3v-5.1H214.8z"/>
				<path class="st0" d="M222.8,174.8c-0.6,0-1.1-0.1-1.5-0.3c-0.4-0.2-0.8-0.6-1-1c-0.2-0.4-0.3-0.9-0.3-1.4c0-0.5,0.1-1,0.4-1.4
					s0.6-0.7,1-1c0.4-0.2,0.9-0.4,1.4-0.4c0.7,0,1.3,0.2,1.7,0.6s0.8,1,0.9,1.7l-4.1,1.4l-0.3-0.8l3.2-1.1l-0.3,0.2
					c-0.1-0.2-0.2-0.5-0.4-0.6c-0.2-0.2-0.5-0.3-0.8-0.3c-0.3,0-0.5,0.1-0.7,0.2c-0.2,0.1-0.4,0.3-0.5,0.6c-0.1,0.2-0.2,0.5-0.2,0.8
					c0,0.3,0.1,0.6,0.2,0.9c0.1,0.2,0.3,0.4,0.6,0.6c0.2,0.1,0.5,0.2,0.8,0.2c0.2,0,0.4,0,0.6-0.1c0.2-0.1,0.4-0.2,0.5-0.3l0.6,1
					c-0.3,0.2-0.6,0.3-0.9,0.4C223.4,174.8,223.1,174.8,222.8,174.8z"/>
				<path class="st0" d="M227.3,167.4h1.3v2.2h1.3v1h-1.3v4h-1.3v-4h-0.9v-1h0.9V167.4z"/>
			</g>
		</g>
	</g>
	<line class="st5" x1="99.2" y1="51.6" x2="121.7" y2="15.1"/>
	<line class="st5" x1="57.2" y1="38.1" x2="99.2" y2="51.6"/>
	<line class="st5" x1="170.2" y1="52.1" x2="99.2" y2="51.6"/>
	<line class="st5" x1="193.7" y1="95.6" x2="273.7" y2="80.6"/>
	<line class="st5" x1="44.2" y1="161.6" x2="114.8" y2="135.2"/>
	<line class="st5" x1="114.8" y1="135.2" x2="126.7" y2="201.6"/>
	<line class="st5" x1="114.8" y1="135.2" x2="67.6" y2="230.7"/>
	<line class="st5" x1="231.7" y1="172.9" x2="266.7" y2="139.3"/>
	<line class="st5" x1="231.7" y1="172.9" x2="273.7" y2="195.1"/>
	<line class="st5" x1="99.2" y1="70.1" x2="151.7" y2="95.6"/>
	<line class="st5" x1="151.7" y1="95.6" x2="156.1" y2="126.6"/>
	<line class="st5" x1="156.1" y1="126.6" x2="207.2" y2="164.6"/>
	<line class="st5" x1="300.2" y1="86.6" x2="293.7" y2="120.6"/>
</g>
</svg>
